<svg width="146" height="146" viewBox="0 0 146 146" fill="none" xmlns="http://www.w3.org/2000/svg">
<path d="M73 145.316C113.317 145.316 146 112.786 146 72.6578C146 32.53 113.317 0 73 0C32.6832 0 0 32.53 0 72.6578C0 112.786 32.6832 145.316 73 145.316Z" fill="#BEE3F1"/>
<path d="M11 30.273V105.748C11 106.564 11.6704 107.231 12.4898 107.231H37.8461C35.9541 102.759 34.9082 97.8477 34.9082 92.6994C34.9082 71.9697 51.8532 55.1071 72.6776 55.1071C93.5019 55.1071 110.447 71.9697 110.447 92.6994C110.447 97.8477 109.401 102.759 107.509 107.231H132.865C133.685 107.231 134.355 106.564 134.355 105.748V30.273H11Z" fill="#EDE9E8"/>
<path d="M72.6776 130.588C51.6863 130.588 34.6103 113.592 34.6103 92.6994C34.6103 71.8065 51.6863 54.8105 72.6776 54.8105C93.6688 54.8105 110.745 71.8065 110.745 92.6994C110.745 113.592 93.6688 130.588 72.6776 130.588Z" fill="white"/>
<path d="M131.376 15H13.9796C12.3408 15 11 16.3345 11 17.9656V30.5695H134.355V17.9656C134.355 16.3345 133.014 15 131.376 15Z" fill="#674D80"/>
<path d="M131.376 15H108.978V30.5695H134.355V17.9656C134.355 16.3345 133.014 15 131.376 15Z" fill="#674D80"/>
<path d="M72.6775 122.827C89.4049 122.827 102.965 109.331 102.965 92.6816C102.965 76.0326 89.4049 62.536 72.6775 62.536C55.9502 62.536 42.39 76.0326 42.39 92.6816C42.39 109.331 55.9502 122.827 72.6775 122.827Z" fill="#674D80"/>
<path d="M48.3015 92.6816C48.3015 77.0231 60.2944 64.1582 75.6333 62.6784C74.659 62.5835 73.6757 62.536 72.6776 62.536C55.9501 62.536 42.39 76.0326 42.39 92.6816C42.39 109.331 55.9501 122.827 72.6776 122.827C73.6757 122.827 74.662 122.777 75.6333 122.685C60.2944 121.208 48.3015 108.34 48.3015 92.6816Z" fill="#674D80"/>
<path d="M105.2 92.6816C105.2 74.8315 90.6087 60.3118 72.6775 60.3118C54.7464 60.3118 40.1553 74.8344 40.1553 92.6816C40.1553 110.395 54.5259 124.829 72.2723 125.048C72.4034 125.072 72.5405 125.087 72.6775 125.087C72.8146 125.087 72.9517 125.072 73.0828 125.048C90.8292 124.832 105.2 110.398 105.2 92.6816ZM44.7141 94.9058H55.1129C55.2559 98.9183 55.7773 102.708 56.6146 106.16C54.0104 106.759 51.6118 107.51 49.4993 108.393C46.8177 104.491 45.1074 99.8791 44.7141 94.9058ZM49.4993 76.9697C51.6118 77.8534 54.0104 78.6037 56.6146 79.2028C55.7743 82.6548 55.2529 86.4449 55.1129 90.4573H44.7141C45.1074 85.484 46.8177 80.8754 49.4993 76.9697ZM100.644 90.4573H90.2452C90.1022 86.4449 89.5808 82.6548 88.7435 79.2028C91.3477 78.6037 93.7462 77.8534 95.8588 76.9697C98.5374 80.8754 100.248 85.484 100.644 90.4573ZM85.7699 90.4573H74.9122V80.8784C78.1928 80.7894 81.375 80.5047 84.3695 80.0391C85.1322 83.1441 85.6269 86.6436 85.7699 90.4573ZM74.9122 76.4299V65.2199C77.9961 66.4565 80.9817 70.1814 83.0465 75.733C80.4543 76.1067 77.7131 76.3469 74.9122 76.4299ZM70.4429 65.2169V76.427C67.642 76.3439 64.9008 76.1067 62.3086 75.7301C64.3734 70.1784 67.359 66.4565 70.4429 65.2169ZM70.4429 80.8813V90.4603H59.5882C59.7282 86.6465 60.2229 83.1441 60.9886 80.0421C63.9801 80.5047 67.1623 80.7894 70.4429 80.8813ZM59.5852 94.9058H70.4399V104.485C67.1593 104.574 63.9771 104.858 60.9826 105.324C60.2229 102.222 59.7282 98.7225 59.5852 94.9058ZM70.4429 108.936V120.146C67.359 118.91 64.3734 115.188 62.3086 109.633C64.9008 109.256 67.642 109.019 70.4429 108.936ZM74.9122 120.146V108.936C77.7131 109.019 80.4543 109.256 83.0465 109.633C80.9817 115.188 77.9961 118.91 74.9122 120.146ZM74.9122 104.485V94.9058H85.7699C85.6298 98.7196 85.1322 102.222 84.3695 105.324C81.375 104.861 78.1928 104.577 74.9122 104.485ZM90.2422 94.9058H100.641C100.245 99.8791 98.5344 104.491 95.8558 108.393C93.7433 107.51 91.3447 106.759 88.7405 106.16C89.5808 102.708 90.1022 98.9183 90.2422 94.9058ZM92.9 73.3487C91.2613 73.9536 89.4348 74.4786 87.4772 74.9175C86.3926 71.8273 85.028 69.1167 83.4428 66.8955C87.0302 68.3872 90.2452 70.5995 92.9 73.3487ZM61.9123 66.8984C60.3271 69.1197 58.9625 71.8303 57.8779 74.9204C55.9173 74.4815 54.0938 73.9536 52.4551 73.3516C55.1099 70.5995 58.3249 68.3872 61.9123 66.8984ZM52.4551 112.014C54.0938 111.409 55.9203 110.885 57.8809 110.446C58.9655 113.536 60.3301 116.246 61.9153 118.468C58.3249 116.976 55.1099 114.767 52.4551 112.014ZM83.4428 118.468C85.028 116.246 86.3926 113.536 87.4772 110.446C89.4377 110.885 91.2613 111.412 92.9 112.014C90.2452 114.767 87.0302 116.976 83.4428 118.468Z" fill="#EEF6FF"/>
<path d="M28.4574 24.5285C27.8704 24.5285 27.2924 24.2913 26.8782 23.8761C26.4611 23.4639 26.2227 22.8915 26.2227 22.3043C26.2227 21.7201 26.4611 21.1477 26.8782 20.7325C27.2954 20.3174 27.8704 20.0801 28.4574 20.0801C29.0474 20.0801 29.6224 20.3174 30.0396 20.7325C30.4538 21.1477 30.6921 21.7201 30.6921 22.3043C30.6921 22.8886 30.4538 23.4639 30.0396 23.8761C29.6224 24.2913 29.0474 24.5285 28.4574 24.5285Z" fill="#FFCA51"/>
<path d="M35.7872 24.5285C35.1973 24.5285 34.6222 24.2913 34.208 23.8791C33.7909 23.4639 33.5525 22.8915 33.5525 22.3043C33.5525 21.7201 33.7909 21.1477 34.208 20.7325C34.6222 20.3174 35.1973 20.0801 35.7872 20.0801C36.3742 20.0801 36.9523 20.3174 37.3664 20.7325C37.7836 21.1477 38.0219 21.7201 38.0219 22.3043C38.0219 22.8915 37.7836 23.4639 37.3664 23.8791C36.9493 24.2913 36.3742 24.5285 35.7872 24.5285Z" fill="#37C47A"/>
<path d="M107.539 37.8353C107.539 37.346 107.137 36.9456 106.645 36.9456H38.7102C38.2186 36.9456 37.8163 37.346 37.8163 37.8353V45.5459C37.8163 46.0353 38.2186 46.4356 38.7102 46.4356H106.645C107.137 46.4356 107.539 46.0353 107.539 45.5459V37.8353Z" fill="white"/>
<path d="M43.7278 45.5459V37.8353C43.7278 37.346 44.1301 36.9456 44.6217 36.9456H38.7102C38.2186 36.9456 37.8163 37.346 37.8163 37.8353V45.5459C37.8163 46.0353 38.2186 46.4356 38.7102 46.4356H44.6217C44.1301 46.4356 43.7278 46.0353 43.7278 45.5459Z" fill="#D2C5C2"/>
<path d="M125.118 24.5285H117.967C116.734 24.5285 115.733 23.5321 115.733 22.3043C115.733 21.0766 116.734 20.0801 117.967 20.0801H125.118C126.352 20.0801 127.353 21.0766 127.353 22.3043C127.353 23.5321 126.352 24.5285 125.118 24.5285Z" fill="#6597B4"/>
<path d="M19.8911 15H13.9796C12.3408 15 11 16.3345 11 17.9656V30.5695H16.9115V17.9656C16.9115 16.3345 18.2523 15 19.8911 15Z" fill="#6597B4"/>
</svg>
