<svg width="98" height="31" viewBox="0 0 98 31" fill="none" xmlns="http://www.w3.org/2000/svg">
<path fill-rule="evenodd" clip-rule="evenodd" d="M85.108 0C87.5187 0 87.938 0.586919 88.7765 3.14802L98 30.9466H89.7722L87.7808 24.2771H76.723L74.7316 30.9466H69.9626L79.2909 0H85.108ZM86.4182 19.7418H78.0332L82.1733 5.60241L86.4182 19.7418ZM38.5187 31H25.7316V0H38.9904C45.1743 0 47.3754 5.17556 44.231 9.92427L42.7636 12.1652C53.1401 17.6609 49.7861 31 38.5187 31ZM36.9989 13.6592L39.5144 9.81756C40.1433 8.85714 40.3005 8.27022 40.3005 7.57659C40.3005 5.70912 38.6759 4.10843 36.7893 4.10843H32.9112V26.8916H35.0599C38.6759 26.8916 41.4011 24.9174 41.4011 20.222C41.4011 16.327 39.6717 14.2995 36.9989 13.6592ZM12.7872 31H0V0H13.2588C19.4428 0 21.6439 5.17556 18.4995 9.92427L17.0321 12.1652C27.4086 17.6609 24.0021 31 12.7872 31ZM11.2674 13.6592L13.7829 9.81756C14.4118 8.85714 14.569 8.27022 14.569 7.57659C14.569 5.70912 12.9444 4.10843 11.0578 4.10843H7.17968V26.8916H9.32834C12.9444 26.8916 15.6695 24.9174 15.6695 20.222C15.6695 16.327 13.8877 14.2995 11.2674 13.6592ZM68.7572 0L61.892 23.5301L56.1273 4.05508C55.0267 0.533563 54.5027 0 52.4064 0H47.061L57.0182 30.9466H64.3027L73.5786 0H68.7572Z" fill="#2E3192"/>
</svg>
