<svg width="162" height="52" viewBox="0 0 162 52" fill="none" xmlns="http://www.w3.org/2000/svg">
<path fill-rule="evenodd" clip-rule="evenodd" d="M140.02 0.662135C143.929 0.662135 144.675 1.65676 146.046 5.86411L161.151 51.7489H147.692L144.409 40.72H126.304L123.038 51.7489H115.271L130.504 0.644531L140.02 0.662135ZM142.171 33.2383H128.49L135.288 9.92183L142.171 33.2383ZM63.7852 51.7665H42.877V0.644531H64.5481C74.7065 0.644531 78.2469 9.14725 73.1034 16.9898L70.6688 20.6955C87.7108 29.7791 82.173 51.7665 63.7852 51.7665ZM61.2992 23.1424L65.4482 16.7786C66.4941 15.1854 66.7169 14.182 66.7169 13.0641C66.7169 9.93943 64.0424 7.31644 60.9648 7.31644H54.5784V44.9097H58.1188C64.0338 44.9097 68.5257 41.6266 68.5257 33.9425C68.5343 27.605 65.6368 24.2163 61.2992 23.1424ZM21.6774 51.7665H0.769257V0.644531H22.4404C32.5987 0.644531 36.1391 9.14725 30.9956 16.9898L28.5696 20.6955C45.6031 29.7791 40.0653 51.7665 21.6774 51.7665ZM19.1914 23.1424L23.3405 16.7786C24.3949 15.1854 24.6092 14.182 24.6092 13.0641C24.6092 9.93943 21.9346 7.31644 18.8571 7.31644H12.4706V44.9097H16.0025C21.926 44.9097 26.4094 41.6266 26.4094 33.9425C26.4265 27.605 23.5291 24.2163 19.1914 23.1424ZM113.24 0.644531L101.984 39.4613L92.5628 7.33404C90.7883 1.54233 89.8968 0.644531 86.5021 0.644531L77.7068 0.653333L93.9773 51.7489L105.927 51.7577L121.1 0.644531H113.24Z" fill="#B1B1B1"/>
</svg>
