<svg xmlns="http://www.w3.org/2000/svg" xmlns:xlink="http://www.w3.org/1999/xlink" viewBox="0 0 3249.39 2473.04"><defs><linearGradient id="f6ab3621-ead2-43a5-a0ae-c1ccfcf6eb77" x1="1835.16" y1="2400.14" x2="2149.06" y2="2400.14" gradientUnits="userSpaceOnUse"><stop offset="0" stop-color="#b5adbb"/><stop offset="1" stop-color="#463155"/></linearGradient><linearGradient id="a34be742-195a-4363-bb7a-97df1cc2d3d3" x1="1216.35" y1="2318.67" x2="1041.59" y2="2579.83" xlink:href="#f6ab3621-ead2-43a5-a0ae-c1ccfcf6eb77"/><linearGradient id="bb13777b-4985-43da-81a6-04ebbb799345" x1="1758.95" y1="1802.76" x2="2440.95" y2="1802.76" gradientUnits="userSpaceOnUse"><stop offset="0" stop-color="#afd6d3"/><stop offset="1" stop-color="#83a19e"/></linearGradient><linearGradient id="b83a15dd-3c55-4e42-9dbe-1cc46e322b5a" x1="1068.57" y1="1230.37" x2="1615.31" y2="1046.56" gradientUnits="userSpaceOnUse"><stop offset="0" stop-color="#ffecd2"/><stop offset="0.01" stop-color="#ffead0"/><stop offset="0.13" stop-color="#ffdac3"/><stop offset="0.25" stop-color="#ffd1bb"/><stop offset="0.43" stop-color="#ffceb9"/><stop offset="0.46" stop-color="#ffcbb7"/><stop offset="0.63" stop-color="#ffb9a8"/><stop offset="0.8" stop-color="#ffae9f"/><stop offset="1" stop-color="#ffaa9c"/></linearGradient><linearGradient id="e3dfe373-4121-4433-b668-9d6b6f271ec8" x1="1497.11" y1="786.4" x2="3090.62" y2="1235.69" gradientUnits="userSpaceOnUse"><stop offset="0" stop-color="#fff8aa"/><stop offset="0.26" stop-color="#fdf6a9"/><stop offset="0.41" stop-color="#f5eea4"/><stop offset="0.53" stop-color="#e7e09d"/><stop offset="0.64" stop-color="#d3cd92"/><stop offset="0.73" stop-color="#bab484"/><stop offset="0.82" stop-color="#9a9573"/><stop offset="0.9" stop-color="#75705f"/><stop offset="0.97" stop-color="#4b4749"/><stop offset="1" stop-color="#3b3740"/></linearGradient><linearGradient id="ac917253-532c-4d0c-9857-fd9c3971b334" x1="901.13" y1="1314.76" x2="1413.1" y2="1314.76" gradientUnits="userSpaceOnUse"><stop offset="0" stop-color="#e6e2ec"/><stop offset="1" stop-color="#838bc5"/></linearGradient><linearGradient id="a755128f-1379-4a62-8226-0e4d2fdd70f2" x1="868.78" y1="775.44" x2="1524.27" y2="1097.49" xlink:href="#ac917253-532c-4d0c-9857-fd9c3971b334"/><linearGradient id="b28154b6-6986-40cb-a0e6-670572f5d943" x1="964.38" y1="1137.88" x2="1188.72" y2="1137.88" xlink:href="#ac917253-532c-4d0c-9857-fd9c3971b334"/><linearGradient id="abdf0603-c299-4199-ab06-13acefcc3077" x1="1877.74" y1="1227.39" x2="2426.18" y2="1144.99" gradientUnits="userSpaceOnUse"><stop offset="0" stop-color="#ffecd2"/><stop offset="0.43" stop-color="#ffceb9"/><stop offset="0.46" stop-color="#ffcbb7"/><stop offset="0.63" stop-color="#ffb9a8"/><stop offset="0.8" stop-color="#ffae9f"/><stop offset="1" stop-color="#ffaa9c"/></linearGradient><linearGradient id="ad3a8e5d-2066-4d5e-a5fd-c22f92518af6" x1="1529.26" y1="1248.63" x2="2159.9" y2="1364.21" xlink:href="#ac917253-532c-4d0c-9857-fd9c3971b334"/><linearGradient id="e1eb741a-1e2d-449e-869f-d96ca819e24d" x1="1829.56" y1="531.81" x2="2071.85" y2="531.81" xlink:href="#abdf0603-c299-4199-ab06-13acefcc3077"/><linearGradient id="f6417c13-0d42-4150-824a-b102a66d5f0a" x1="1744.63" y1="381.54" x2="1906.99" y2="381.54" gradientTransform="translate(268.25 -644.7) rotate(21.58)" xlink:href="#abdf0603-c299-4199-ab06-13acefcc3077"/><linearGradient id="b6182f20-0e6d-4ed3-804e-778072e2cc79" x1="1707.14" y1="300.56" x2="1923.3" y2="300.56" xlink:href="#f6ab3621-ead2-43a5-a0ae-c1ccfcf6eb77"/><linearGradient id="b5ba04f5-3672-48df-a95e-785cd5e6b0bc" x1="1885.78" y1="350.97" x2="1924.6" y2="350.97" gradientTransform="translate(1981.51 -1584.78) rotate(81.82)" xlink:href="#abdf0603-c299-4199-ab06-13acefcc3077"/></defs><title>Asset 2</title><g style="isolation:isolate"><g id="e460762d-e936-49fd-a669-9c3f23e5ba62" data-name="Layer 2"><g id="b600bcf0-723c-47cd-af9c-43c19c88acb3" data-name="Layer 2"><path d="M3249.38,1361.87c0,3,0,5.93,0,8.9-3.32,438.59-291.87,820.69-702.89,934.35-258.68,71.53-546,111.37-848.54,111.37-538.63,0-1028.86-126.24-1395.38-332.8-339.47-191.32-406.44-665.56-133.6-948.31,1.32-1.39,2.65-2.75,4-4.11,63.16-64.92,136.25-118.55,215.64-160.49C578.79,870.27,701.31,679.49,757.78,573.86c56.13-105,128.9-199.69,216.44-278.6C1166.38,122,1384.18,0,1590.2,0,2631.73,0,2639.87,511.35,2645.25,556.87c12.74,107.71,77.4,201.34,170.84,251.35,428,229,433,524.24,433,524.24Q3249.4,1347.19,3249.38,1361.87Z" style="fill:#e3f0f5"/><path d="M2224.18,89.72V203.45h-3.69V88.54Z" style="fill:#ba5376"/><path d="M2379.74,326.93H2064.92c0-42.78,37.68-79.58,92-96.26,8.24-14,28.31-24.52,52.91-27.22a111.61,111.61,0,0,1,12.54-.69c30.18,0,55.86,11.63,65.47,27.91C2342.08,247.35,2379.74,284.16,2379.74,326.93Z" style="fill:#f86e9d"/><path d="M2215.86,204.3c-27,5-32.1,18.57-34.55,28-3.3,12.78-3.83,38.61-49.33,40.93-32.47,1.66-34.65,34.82-33.22,53.68h-33.84c0-42.78,37.68-79.58,92-96.26,8.24-14,28.31-24.52,52.91-27.22C2211.85,203.67,2213.87,204,2215.86,204.3Z" style="fill:#ba5376"/><path d="M2379.74,326.93c0,16.59-70.48,30.06-157.41,30.06s-157.41-13.47-157.41-30.06c0-13.8,48.69-25.43,115-29,13.47-.72,27.68-1.1,42.36-1.1,13.39,0,26.39.32,38.8.91C2329.3,301.09,2379.74,312.88,2379.74,326.93Z" style="fill:#fff"/><path d="M2261.13,297.77A41.28,41.28,0,0,1,2180,298c13.47-.72,27.68-1.1,42.36-1.1C2235.72,296.86,2248.72,297.18,2261.13,297.77Z" style="fill:#f7d019"/><path d="M2461.11,2354.42a34.22,34.22,0,0,0,2.66-68.34L2119,2258.76a34.22,34.22,0,1,0-5.4,68.23l344.74,27.32C2459.29,2354.39,2460.2,2354.42,2461.11,2354.42Z" style="fill:#615877"/><path d="M1703.1,2354.42a34.22,34.22,0,0,1-2.66-68.34l344.74-27.32a34.22,34.22,0,0,1,5.41,68.23l-344.75,27.32C1704.92,2354.39,1704,2354.42,1703.1,2354.42Z" style="fill:#615877"/><path d="M2366.35,2359.57a34.2,34.2,0,0,1-41.94,24.15l-209.56-56.4v.1h-69.68l-205.38,55.27a33.86,33.86,0,0,1-8.91,1.19,34.23,34.23,0,0,1-8.87-67.28l216.71-58.32a33.38,33.38,0,0,1,3.75-.79v-288h72.38v288.71a34,34,0,0,1,10.63,1.14l216.71,58.32A34.23,34.23,0,0,1,2366.35,2359.57Z" style="fill:#81759f"/><ellipse cx="1829.38" cy="2416.5" rx="34.66" ry="32.62" style="fill:#81759f"/><path d="M1835.79,2448.49a32.53,32.53,0,0,1-6.37.62c-19.16,0-34.7-14.65-34.7-32.65s15.54-32.58,34.7-32.58a32.53,32.53,0,0,1,6.37.62c-16.09,2.74-28.27,16-28.27,32S1819.7,2445.75,1835.79,2448.49Z" style="fill:#615877"/><ellipse cx="1698.26" cy="2387.04" rx="34.66" ry="32.62" style="fill:#81759f"/><path d="M1704.66,2419a32.36,32.36,0,0,1-6.36.62c-19.17,0-34.7-14.65-34.7-32.65s15.53-32.58,34.7-32.58a31.61,31.61,0,0,1,6.36.62c-16.08,2.73-28.26,16-28.26,32S1688.58,2416.29,1704.66,2419Z" style="fill:#615877"/><ellipse cx="2334.83" cy="2416.5" rx="34.66" ry="32.62" style="fill:#81759f"/><path d="M2328.42,2448.49a32.53,32.53,0,0,0,6.37.62c19.16,0,34.7-14.65,34.7-32.65s-15.54-32.58-34.7-32.58a32.53,32.53,0,0,0-6.37.62c16.09,2.74,28.27,16,28.27,32S2344.51,2445.75,2328.42,2448.49Z" style="fill:#615877"/><ellipse cx="2465.95" cy="2387.04" rx="34.66" ry="32.62" style="fill:#81759f"/><path d="M2459.55,2419a32.36,32.36,0,0,0,6.36.62c19.17,0,34.7-14.65,34.7-32.65s-15.53-32.58-34.7-32.58a31.61,31.61,0,0,0-6.36.62c16.08,2.73,28.27,16,28.27,32S2475.63,2416.29,2459.55,2419Z" style="fill:#615877"/><path d="M2141.89,2010H2022.32c-12.34,0-22.52-12.34-23.18-28.08l-13.61-325.23h193.15l-13.61,325.23C2164.42,1997.67,2154.23,2010,2141.89,2010Z" style="fill:#615877"/><rect x="1456.47" y="1590.67" width="1042" height="83.71" rx="41.85" style="fill:#e1dfe3"/><path d="M2241.69,1590.67h278.25a41.85,41.85,0,0,1,41.85,41.85v0a41.85,41.85,0,0,1-41.85,41.85H2241.69a0,0,0,0,1,0,0v-83.71A0,0,0,0,1,2241.69,1590.67Z" style="fill:#615877"/><path d="M2010.16,2374.45c-6.25,4-49.12,19.69-93.6,25.07s-85.75,28.19-81,43.38,27,31.92,78.77,30,105.11-27,145.32-20.3,76.72,5.63,84.8-5.87,6.37-67.13-11-80.63-61.64-38.85-61.64-38.85Z" style="fill:url(#f6ab3621-ead2-43a5-a0ae-c1ccfcf6eb77)"/><path d="M1201.17,2306.41c-6.33,3.87-49.46,18.82-94,23.42s-86.23,26.68-81.79,41.94,26.48,32.39,78.23,31.38,105.57-25.2,145.66-17.74,76.6,7,84.88-4.38,7.56-67-9.62-80.81-61-39.93-61-39.93Z" style="fill:url(#a34be742-195a-4363-bb7a-97df1cc2d3d3)"/><path d="M1724.44,1311.28s-524.8,143.07-467,1054.71h109.75s-10.91-601.73,462.41-749l389.57-95.31-142.7-271.59L1821,1308Z" style="fill:#446967"/><path d="M2133.37,2366.09l-112.47-.1s-105.64-243.94-205.69-387.19c0,0-325.89-481.42,590.93-739.36-41.52,22.63,29.84,120.68,34.18,260.82,6.11,53.49-33.18,102-83.5,121.17-109.42,41.62-315.13,141.13-307.92,299C2048.9,1920.44,2062.2,2142.62,2133.37,2366.09Z" style="fill:url(#bb13777b-4985-43da-81a6-04ebbb799345)"/><rect x="2444.24" y="1385.89" width="91.78" height="571.61" style="fill:#a67c52"/><rect x="1234.93" y="1385.89" width="91.78" height="571.61" style="fill:#a67c52"/><path d="M1583.6,902.73c-122.75,193.5-284.33,311.79-360.26,360.33-29,1.7-64.55,10.75-81,30.13-5.22,6.14,3.19,19.52,46.43,21.5l1.56.07c70.12,2.94,86.79,0,86.79,0l15-17.62.93.07c266.65-59.08,424.73-261.86,424.73-261.86Z" style="fill:url(#b83a15dd-3c55-4e42-9dbe-1cc46e322b5a)"/><path d="M1950.71,511.52c-433.5,22.11-466.81,276.41-466.81,276.41v82.14l-27.43,53.52,241,192.53,55-70.73,19.65,39.29c28.07,59.51,46.72,194.09,51.47,231.32l-17,35.13,605.69-13.6c-21.78-44.65-9.53-96.82.07-151.4l49.4-17.72c168.82-56.22,210.53-221.15,210.53-221.15C2743.62,459.44,1950.71,511.52,1950.71,511.52Z" style="fill:url(#e3dfe373-4121-4433-b668-9d6b6f271ec8)"/><rect x="634.01" y="1325.34" width="2441.21" height="60.54" rx="18.24" style="fill:#cab097"/><path d="M2241.69,1325.34H3057a18.24,18.24,0,0,1,18.24,18.24v24.07a18.24,18.24,0,0,1-18.24,18.24H2241.69a0,0,0,0,1,0,0v-60.54A0,0,0,0,1,2241.69,1325.34Z" style="fill:#a67c52"/><path d="M1518.51,955.88l-10.44,167,94.9,87.31,121.47-94s-30.37-112-227.76-213.53Z" style="fill:#bfba80"/><rect x="813.18" y="660.78" width="730.33" height="511.75" rx="30.87" style="fill:#696f93"/><rect x="901.13" y="1304.18" width="511.98" height="21.16" style="fill:url(#ac917253-532c-4d0c-9857-fd9c3971b334)"/><rect x="1284.06" y="1304.18" width="129.05" height="21.16" style="fill:#696f93"/><rect x="797.77" y="660.78" width="730.33" height="518.37" rx="30.87" style="fill:url(#a755128f-1379-4a62-8226-0e4d2fdd70f2)"/><circle cx="1140.92" cy="864.81" r="48.36" style="fill:#fff"/><polygon points="1118.9 1324.6 982.94 1324.6 1071.33 951.15 1207.28 951.15 1118.9 1324.6" style="fill:#696f93"/><polygon points="1100.34 1324.6 964.38 1324.6 1052.76 951.15 1188.72 951.15 1100.34 1324.6" style="fill:url(#b28154b6-6986-40cb-a0e6-670572f5d943)"/><path d="M2378.21,1026.72s-160.87,170.6-279.62,244.11c-34.41-1.77-130.12-4.55-136.32,18.71-7.57,28.38,84.36,25.22,84.36,25.22l84,.11,8.26-17.66h52.71s210.73-56,324.78-172.3Z" style="fill:url(#abdf0603-c299-4199-ab06-13acefcc3077)"/><rect x="1550.51" y="1297.21" width="641.14" height="28.13" style="fill:url(#ad3a8e5d-2066-4d5e-a5fd-c22f92518af6)"/><rect x="2105.82" y="1297.21" width="85.83" height="28.13" style="fill:#696f93"/><path d="M2262.37,1108.12l125.14,132.69,180.17-90.62s-56.1-178-225.48-217.92Z" style="fill:#bfba80"/><rect x="2382.19" y="1957.5" width="215.88" height="515.54" style="fill:#cab097"/><rect x="1172.88" y="1957.5" width="215.88" height="515.54" style="fill:#cab097"/><path d="M2482.18,636.47s-75.82,260.79,151.64,424.1c0,0,28.33-250,29.16-282.45S2600.49,654,2482.18,636.47Z" style="fill:#31605c"/><path d="M2893.62,830.2c-72.36,190.26-115.6,132.26-144.09,230.37-9.88,34-42.62,91.34-78.91,82.65-16.9-4-34.56-22.39-51-64.09-51.89-131.24,56.21-429.29,87-438.74,111-34,49.38-70.46,134.46-90.16a75.7,75.7,0,0,1,9.66-1.6c29.13-3,56.53,11.18,61.88,40.74C2923.61,650.28,2925.56,746.2,2893.62,830.2Z" style="fill:#79bbb6"/><path d="M2856.36,549.47c-1.23.22-2.47.47-3.7.76-85.09,19.7-23.47,56.13-134.47,90.17-30.79,9.44-138.89,307.49-87,438.73,14.65,37.06,30.23,55.68,45.38,62.2a37.53,37.53,0,0,1-5.94,1.89c-16.9-4-34.56-22.39-51-64.09-51.89-131.24,56.21-429.29,87-438.74,111-34,49.38-70.46,134.46-90.16a75.7,75.7,0,0,1,9.66-1.6C2852.62,548.83,2854.5,549.11,2856.36,549.47Z" style="fill:#5b8c89"/><path d="M2659,1086.38c5.35-21.4,12.12-44,19.93-67.36l58.08-3.29a3.56,3.56,0,0,0-.38-7.11l-55.24,3.13c12.12-35.53,26.56-72.57,42-109.38a3.61,3.61,0,0,0,2.35.88,2.64,2.64,0,0,0,.47,0l112.71-15a3.54,3.54,0,1,0-.92-7l-111.93,14.89c25.73-60.72,54.08-120.51,79.43-171.4a4,4,0,0,0,1.3.26,3.4,3.4,0,0,0,1-.14l83.32-24.16a3.55,3.55,0,0,0-2-6.82l-79.77,23.12c39.53-78.91,70.82-134.68,71.63-136.1a3.56,3.56,0,0,0-6.21-3.48c-.68,1.21-24,42.82-55.76,104.84l-38.58-48.83a3.56,3.56,0,0,0-5.59,4.4l40.62,51.39c-22.82,44.78-49.54,99.34-75.25,156.71l-24.09-125.14a3.54,3.54,0,1,0-7,1.33l26,135.17c-18.86,42.63-36.95,86.52-52.29,128.91L2648.74,877a3.56,3.56,0,0,0-6.79,2.13l37,118.14q-2.91,8.31-5.68,16.5a3.25,3.25,0,0,0-.52,1.54c-8.22,24.47-15.34,48.16-20.93,70.56Z" style="fill:#0a174e"/><path d="M2544.55,1060.64h264.7a0,0,0,0,1,0,0V1269a56.34,56.34,0,0,1-56.34,56.34h-152a56.34,56.34,0,0,1-56.34-56.34V1060.64A0,0,0,0,1,2544.55,1060.64Z" style="fill:#81759f"/><path d="M2809.25,1060.64V1269a56.33,56.33,0,0,1-56.33,56.34h-21.47a56.34,56.34,0,0,0,56.34-56.34V1060.64Z" style="fill:#615877"/><path d="M1748.72,1046.86a3,3,0,0,1-2.44-1.24c-27.24-37.78-53.4-107.31-23.37-224a3,3,0,0,1,5.81,1.49c-29.45,114.43-4.06,182.25,22.43,219a3,3,0,0,1-2.43,4.75Z" style="fill:#00345c"/><ellipse cx="1956.63" cy="625.41" rx="137.86" ry="115.5" style="fill:#fff"/><path d="M1829.56,477.67l82.26-132.45S1990.65,471.33,2048,542.11c28.74,35.49,32.07,85.68,7.18,123.95a109.27,109.27,0,0,1-21.61,24.25c-53.14,44.47-133,34.89-175.32-20-15.56-20.16-23.43-45.43-10.41-75.33C1847.8,595,1868.71,512.68,1829.56,477.67Z" style="fill:url(#e1eb741a-1e2d-449e-869f-d96ca819e24d)"/><path d="M2811.33,1312.67a3,3,0,0,1-2.12-5.12c16.17-16.16,13.81-56,12.4-79.77-.32-5.41-.6-10.08-.6-13.51a3,3,0,0,1,6,0c0,3.26.27,7.84.59,13.16,1.47,24.79,3.93,66.29-14.14,84.36A3,3,0,0,1,2811.33,1312.67Z" style="fill:#00345c"/><path d="M1794.72,1972.46a3,3,0,0,1-2.44-1.26c-34.38-48.33-45.77-104.2-49.28-142.56-3.79-41.52.59-72.12.63-72.43a3,3,0,0,1,5.94.87c0,.3-4.33,30.33-.58,71.18,3.45,37.57,14.61,92.27,48.18,139.47a3,3,0,0,1-2.45,4.73Z" style="fill:#00345c"/><ellipse cx="1825.81" cy="381.54" rx="74.05" ry="116.87" transform="translate(-12.37 698.17) rotate(-21.58)" style="fill:url(#f6417c13-0d42-4150-824a-b102a66d5f0a)"/><path d="M1718.31,339.93s66.21,37.13,123.92-17.89c0,0,24.6-4.48,26.84,18.79s17.48,27.73,25.63,31.37L1921.82,348s1.48-22.31,1.48-46.77-38.72-94.39-113.64-65.31c0,0-50.28-10.85-67,13.31s-13.8,40.14-28.59,51.37C1714,300.56,1696,317.79,1718.31,339.93Z" style="fill:url(#b6182f20-0e6d-4ed3-804e-778072e2cc79)"/><ellipse cx="1905.19" cy="350.97" rx="24.95" ry="19.28" transform="translate(1286.72 2186.84) rotate(-81.82)" style="fill:url(#b5ba04f5-3672-48df-a95e-785cd5e6b0bc)"/><path d="M3249.1,1332.46s-4.42-261.94-362.73-483.78q3.57-8.83,7.25-18.48c31.94-84,30-179.92,19-240.83-5.35-29.56-32.75-43.73-61.88-40.74a75.7,75.7,0,0,0-9.66,1.6c-85.08,19.7-23.46,56.13-134.46,90.16-5.88,1.8-14.56,14.11-24.41,33.75a329.87,329.87,0,0,1-36.92-117.27c-3.94-33.34-9.37-316.5-421.07-465.7V89.72l-3.69-1.18v1.29C2070.36,36,1866.7,0,1590.2,0c-206,0-423.82,122-616,295.26-87.54,78.91-160.31,173.62-216.44,278.6-56.47,105.63-179,296.41-369.23,396.92-79.39,41.94-152.48,95.57-215.64,160.49-1.32,1.36-2.65,2.72-4,4.11-272.84,282.75-205.87,757,133.6,948.31C512.6,2202.08,763.31,2294.06,1040.47,2351c-10.89,6.93-17,14.42-15.12,20.73,4.45,15.27,26.48,32.39,78.23,31.38,23.16-.46,46.73-5.55,69.3-10.37V2473h215.88V2402.4q144.21,13.24,294.46,14a36.75,36.75,0,0,0,30,0q40.93-.2,81.5-1.34c0,.45,0,.89,0,1.34v0c0,18,15.52,32.62,34.66,32.62a36.86,36.86,0,0,0,8.48-1c7.88,13.52,30.62,26.46,76.43,24.75,51.73-1.93,105.11-27,145.32-20.3s76.72,5.63,84.8-5.87c5.69-8.11,6.53-38.17.41-59.92q61.33-8.3,121.25-18.78l58.34,15.7a33.57,33.57,0,0,0,3.74.77c-16,2.93-28,16.15-28,32,0,18,15.51,32.62,34.66,32.62s34.66-14.6,34.66-32.62v0a31.87,31.87,0,0,0-13.5-25.79l-.44-.31-.13-.1a35.67,35.67,0,0,0-15.45-6,34.22,34.22,0,0,0,27.49-35.71l4.94-1,9.79.78V2473h215.88V2289.22c383.37-130.28,648.1-498.46,651.28-918.45,0-3,0-5.94,0-8.9Q3249.39,1347.19,3249.1,1332.46ZM1864,2414.33c0-.63-.11-1.25-.19-1.86l4.87-.24Q1866.24,2413.25,1864,2414.33Z" style="fill:#2e3192;opacity:0.6000000000000001;mix-blend-mode:overlay"/></g></g></g></svg>