<svg width="113" height="105" viewBox="0 0 113 105" fill="none" xmlns="http://www.w3.org/2000/svg">
<path fill-rule="evenodd" clip-rule="evenodd" d="M58.9826 48.1381L62.6474 41.6429C63.1181 40.8132 64.2677 40.1258 65.209 40.1258H68.8507C69.792 40.1258 70.9416 39.4462 71.4122 38.6165L74.0509 33.9466C74.5215 33.1169 74.5215 31.7499 74.0509 30.9203L71.4199 26.274C70.9493 25.4443 69.7997 24.7648 68.8584 24.7648H57.1694C56.2282 24.7648 55.0785 24.0852 54.6079 23.2477L50.9431 16.7524H71.6668C73.5417 16.7524 75.8486 18.1115 76.7899 19.7788L81.8667 28.7631C82.808 30.4303 82.808 33.1485 81.8667 34.8158L76.0338 45.1276C75.0925 46.7948 72.7856 48.1539 70.9107 48.1539H58.9826V48.1381Z" fill="#B1B1B1"/>
<path fill-rule="evenodd" clip-rule="evenodd" d="M73.7577 14.4212H66.4357C65.4944 14.4212 64.3448 13.7417 63.8742 12.9041L62.0533 9.68021C61.5827 8.85054 60.4331 8.16309 59.4918 8.16309L54.2221 8.15519C53.2808 8.15519 52.1312 8.83473 51.6606 9.66441L49.045 14.3185C48.5744 15.1561 48.5821 16.5152 49.045 17.3448L54.8934 27.7118C55.364 28.5415 55.364 29.9085 54.8934 30.7382L51.2285 37.2333L40.8744 18.8699C39.9331 17.2026 39.9331 14.4765 40.8666 12.8093L45.9203 3.81717C46.8616 2.14992 49.1608 0.790833 51.0356 0.790833L62.6706 0.806636C64.5454 0.806636 66.8523 2.17362 67.7936 3.84088L73.7577 14.4212Z" fill="#B1B1B1"/>
<path fill-rule="evenodd" clip-rule="evenodd" d="M37.8499 18.151L41.5148 24.6462C41.9854 25.4759 41.9854 26.8429 41.5148 27.6726L39.6939 30.8965C39.2233 31.7262 39.2233 33.0932 39.6939 33.9229L42.3249 38.6007C42.7955 39.4383 43.9451 40.1178 44.8864 40.1178L50.1329 40.1099C51.0742 40.1099 52.2238 39.4225 52.6945 38.5928L58.5428 28.2178C59.0134 27.3881 60.163 26.7007 61.1043 26.7007H68.434L58.0567 45.0959C57.1154 46.7632 54.8162 48.1223 52.9336 48.1302L42.8032 48.1381C40.9284 48.1381 38.6215 46.779 37.6879 45.1117L31.8859 34.7841C30.9523 33.1169 30.9523 30.3908 31.8936 28.7235L37.8499 18.151Z" fill="#B1B1B1"/>
<path fill-rule="evenodd" clip-rule="evenodd" d="M13.2684 73.4868C12.1497 73.7712 10.9075 74.0952 8.90919 74.0952C4.98974 74.0952 0.460754 72.0645 0.460754 66.3674C0.460754 61.1206 4.04073 58.5131 8.89376 58.5131C10.3906 58.5131 11.8411 58.8607 13.253 59.2953L12.9367 62.5508C11.6713 61.8397 10.4523 61.492 9.10208 61.492C6.3168 61.492 4.50366 63.5622 4.50366 66.3674C4.50366 69.3226 6.54826 71.1163 9.4107 71.1163C10.6992 71.1163 12.0031 70.7686 13.0755 70.3419L13.2684 73.4868Z" fill="#B1B1B1"/>
<path fill-rule="evenodd" clip-rule="evenodd" d="M17.2805 70.2708C17.2805 69.1882 18.2912 68.7853 19.5797 68.7853C20.1506 68.7853 20.6984 68.8248 21.1845 68.8485C21.1845 70.168 20.2818 71.5034 18.8467 71.5034C17.9595 71.5034 17.2805 71.0451 17.2805 70.2708ZM24.9342 73.8344C24.7645 72.9494 24.7259 72.0645 24.7259 71.1795V66.9916C24.7259 63.5623 22.3032 62.3296 19.5025 62.3296C17.8823 62.3296 16.4704 62.5666 15.1202 63.1277L15.1819 65.7589C16.2389 65.1584 17.4579 64.9134 18.677 64.9134C20.0503 64.9134 21.1614 65.3243 21.1845 66.8572C20.6984 66.7703 20.0272 66.7071 19.4177 66.7071C17.3962 66.7071 13.7468 67.118 13.7468 70.5473C13.7468 72.9889 15.6834 74.0873 17.8592 74.0873C19.4177 74.0873 20.4747 73.463 21.3388 72.0566H21.3774C21.3774 72.6413 21.4391 73.226 21.4623 73.8265H24.9342V73.8344Z" fill="#B1B1B1"/>
<path fill-rule="evenodd" clip-rule="evenodd" d="M26.1301 62.5824H29.9261V73.8265H26.1301V62.5824ZM29.9184 61.1917H26.1224V58.3392H29.9184V61.1917Z" fill="#B1B1B1"/>
<path fill-rule="evenodd" clip-rule="evenodd" d="M34.432 68.1136L30.9986 62.5824H35.4813L37.1092 65.9564L38.8143 62.5824H42.9653L39.5319 68.0662L43.1967 73.8345H38.6215L36.7929 70.334L34.9798 73.8345H30.6977L34.432 68.1136Z" fill="#B1B1B1"/>
<path fill-rule="evenodd" clip-rule="evenodd" d="M46.5452 70.2708C46.5452 69.1882 47.556 68.7853 48.8444 68.7853C49.4154 68.7853 49.9632 68.8248 50.4493 68.8485C50.4493 70.168 49.5465 71.5034 48.1115 71.5034C47.2242 71.5034 46.5452 71.0451 46.5452 70.2708ZM54.199 73.8344C54.0292 72.9494 53.9907 72.0645 53.9907 71.1795V66.9916C53.9907 63.5623 51.568 62.3296 48.7673 62.3296C47.147 62.3296 45.7351 62.5666 44.3849 63.1277L44.4466 65.7589C45.5036 65.1584 46.7227 64.9134 47.9417 64.9134C49.3074 64.9134 50.4261 65.3243 50.4493 66.8572C49.9632 66.7703 49.2919 66.7071 48.6824 66.7071C46.661 66.7071 43.0115 67.118 43.0115 70.5473C43.0115 72.9889 44.9481 74.0873 47.1239 74.0873C48.6824 74.0873 49.7394 73.463 50.6036 72.0566H50.6421C50.6421 72.6413 50.7039 73.226 50.727 73.8265H54.199V73.8344Z" fill="#B1B1B1"/>
<path fill-rule="evenodd" clip-rule="evenodd" d="M73.4413 73.3999C70.957 74.0479 69.0975 74.0874 67.7473 74.0874C63.8279 74.0874 59.2989 72.0567 59.2989 66.3595C59.2989 60.686 63.1952 58.5051 68.596 58.5051C69.5682 58.5051 71.6128 58.6158 73.0401 59.1768L72.7238 62.456C71.5048 61.7211 70.0697 61.4841 69.1438 61.4841C65.9573 61.4841 63.3495 62.8432 63.3495 66.3595C63.3495 69.3147 65.3941 71.1084 68.2565 71.1084C68.7812 71.1084 69.2904 71.0215 69.6453 70.8477V67.8766H67.3461V65.0241H73.4336V73.3999H73.4413Z" fill="#B1B1B1"/>
<path fill-rule="evenodd" clip-rule="evenodd" d="M78.4332 67.1418C78.5181 65.8459 79.1739 64.7871 80.5395 64.7871C82.0595 64.7871 82.6459 65.8459 82.6459 67.1418H78.4332ZM86.0561 69.3385V68.6273C86.0561 65.2849 84.5824 62.3218 80.5164 62.3218C77.0984 62.3218 74.6372 64.4789 74.6372 68.1927C74.6372 71.9065 77.3993 74.0874 81.0256 74.0874C82.4375 74.0874 83.8263 73.8741 85.0531 73.3762V70.6344C83.9189 71.2586 82.7384 71.4956 81.7046 71.4956C79.8529 71.4956 78.6878 70.8951 78.4795 69.3385H86.0561Z" fill="#B1B1B1"/>
<path fill-rule="evenodd" clip-rule="evenodd" d="M95.1295 65.6958C94.7052 65.5694 94.2885 65.5694 93.841 65.5694C92.0665 65.5694 91.0789 66.8889 91.0789 69.0856V73.8345H87.2829V62.5825H90.7394V64.6528H90.7857C91.4415 63.2305 92.3828 62.3218 94.0339 62.3218C94.4737 62.3218 94.9366 62.385 95.3224 62.4482L95.1295 65.6958Z" fill="#B1B1B1"/>
<path fill-rule="evenodd" clip-rule="evenodd" d="M98.9101 70.2708C98.9101 69.1882 99.9208 68.7853 101.209 68.7853C101.78 68.7853 102.328 68.8248 102.814 68.8485C102.814 70.168 101.904 71.5034 100.476 71.5034C99.589 71.5034 98.9101 71.0451 98.9101 70.2708ZM106.564 73.8344C106.394 72.9494 106.356 72.0645 106.356 71.1795V66.9916C106.356 63.5623 103.933 62.3296 101.132 62.3296C99.5119 62.3296 98.0999 62.5666 96.7497 63.1277L96.8115 65.7589C97.8608 65.1584 99.0875 64.9134 100.307 64.9134C101.68 64.9134 102.791 65.3243 102.814 66.8572C102.328 66.7703 101.657 66.7071 101.04 66.7071C99.0181 66.7071 95.3687 67.118 95.3687 70.5473C95.3687 72.9889 97.3052 74.0873 99.481 74.0873C101.04 74.0873 102.097 73.463 102.961 72.0566H102.999C102.999 72.6413 103.061 73.226 103.084 73.8265H106.564V73.8344Z" fill="#B1B1B1"/>
<path fill-rule="evenodd" clip-rule="evenodd" d="M108.184 57.6437H111.98V73.8344H108.184V57.6437Z" fill="#B1B1B1"/>
<path fill-rule="evenodd" clip-rule="evenodd" d="M3.4158 87.6705C3.4158 86.3904 4.11791 85.2841 5.38324 85.2841C6.57914 85.2841 7.37383 86.3351 7.37383 87.7969C7.37383 89.2034 6.47112 90.2544 5.38324 90.2544C4.15648 90.2544 3.4158 89.2034 3.4158 87.6705ZM10.6298 78.7098H7.3584V84.1858H7.31983C6.48655 83.0716 5.39096 82.724 4.08704 82.724C1.48693 82.724 0.0595703 85.2209 0.0595703 87.5915C0.0595703 90.444 1.55637 92.8066 4.35709 92.8066C5.85389 92.8066 7.17323 91.9374 7.58987 90.8628H7.62844V92.5854H10.6298V78.7098Z" fill="#B1B1B1"/>
<path fill-rule="evenodd" clip-rule="evenodd" d="M14.472 86.8565C14.5415 85.7423 15.1047 84.8415 16.2775 84.8415C17.5814 84.8415 18.0829 85.7502 18.0829 86.8565H14.472ZM21.0148 88.7371V88.1287C21.0148 85.2603 19.7494 82.7239 16.262 82.7239C13.3379 82.7239 11.2238 84.5729 11.2238 87.7573C11.2238 90.9417 13.5925 92.8065 16.6941 92.8065C17.9054 92.8065 19.0936 92.6248 20.1429 92.1981V89.8513C19.1708 90.3886 18.1523 90.594 17.2728 90.594C15.6834 90.594 14.6881 90.0725 14.5106 88.745H21.0148V88.7371Z" fill="#B1B1B1"/>
<path fill-rule="evenodd" clip-rule="evenodd" d="M28.8151 82.2262H30.119C32.5725 82.2262 34.0385 83.5616 34.0385 86.1297C34.0385 88.6978 32.6265 90.0332 30.119 90.0332H28.8151V82.2262ZM25.4589 92.5854H30.0496C34.3471 92.5854 37.5104 90.9024 37.5104 86.0744C37.5104 81.0805 34.4397 79.674 30.0496 79.674H25.4589V92.5854Z" fill="#B1B1B1"/>
<path fill-rule="evenodd" clip-rule="evenodd" d="M41.5302 86.8565C41.5996 85.7423 42.1629 84.8415 43.3356 84.8415C44.6395 84.8415 45.141 85.7502 45.141 86.8565H41.5302ZM48.0652 88.7371V88.1287C48.0652 85.2603 46.7999 82.7239 43.3125 82.7239C40.3883 82.7239 38.2743 84.5729 38.2743 87.7573C38.2743 90.9417 40.6429 92.8065 43.7445 92.8065C44.9559 92.8065 46.144 92.6248 47.1933 92.1981V89.8513C46.2212 90.3886 45.2028 90.594 44.3232 90.594C42.7338 90.594 41.7385 90.0725 41.5611 88.745H48.0652V88.7371Z" fill="#B1B1B1"/>
<path fill-rule="evenodd" clip-rule="evenodd" d="M56.1433 87.6704C56.1433 89.2033 55.4026 90.2621 54.1758 90.2621C53.0957 90.2621 52.1852 89.2112 52.1852 87.8047C52.1852 86.3666 52.9799 85.2919 54.1758 85.2919C55.4412 85.2761 56.1433 86.3903 56.1433 87.6704ZM48.9293 96.4729H52.1852V91.234H52.2238C52.8411 92.3798 54.0678 92.8065 55.202 92.8065C58.0027 92.8065 59.4995 90.436 59.4995 87.5913C59.4995 85.2603 58.0721 82.7239 55.472 82.7239C53.9907 82.7239 52.6173 83.3323 51.9692 84.6835H51.9306V82.9451H48.9293V96.4729Z" fill="#B1B1B1"/>
<path fill-rule="evenodd" clip-rule="evenodd" d="M66.7212 85.2761C67.5313 85.7028 67.8785 86.6906 67.8785 87.7731C67.8785 89.1954 67.2612 90.4755 65.7644 90.4755C64.2676 90.4755 63.6504 89.2033 63.6504 87.7731C63.6504 86.3271 64.2676 85.0549 65.7644 85.0549V82.7239C62.6551 82.7239 60.2942 84.5729 60.2942 87.7731C60.2942 90.9575 62.6628 92.8065 65.7644 92.8065C68.8738 92.8065 71.2347 90.9575 71.2347 87.7731C71.2347 85.4974 70.0388 83.9091 68.2411 83.1743L66.7212 85.2761Z" fill="#B1B1B1"/>
<path fill-rule="evenodd" clip-rule="evenodd" d="M72.1451 89.9224C72.9012 90.2542 74.0277 90.5861 75.2004 90.5861C75.8717 90.5861 76.5198 90.4755 76.5198 89.8117C76.5198 88.184 71.8982 89.3297 71.8982 85.853C71.8982 83.6326 74.0277 82.7239 75.9103 82.7239C77.029 82.7239 78.1709 82.8503 79.2125 83.277L78.9579 85.5922C78.2712 85.1655 77.2373 84.9443 76.4272 84.9443C75.7251 84.9443 74.9304 85.0707 74.9304 85.608C74.9304 87.1093 79.768 85.9241 79.768 89.5826C79.768 92.1506 77.5074 92.7986 75.3779 92.7986C73.9119 92.7986 72.9244 92.6484 71.9599 92.3324L72.1451 89.9224Z" fill="#B1B1B1"/>
<path fill-rule="evenodd" clip-rule="evenodd" d="M80.5551 82.9532H83.8032V92.5933H80.5551V82.9532ZM83.8032 81.3807H80.5551V78.9391H83.8032V81.3807Z" fill="#B1B1B1"/>
<path fill-rule="evenodd" clip-rule="evenodd" d="M84.6133 82.953H86.5268V80.7879L89.721 79.7686V82.953H91.997V85.284H89.721V88.8398C89.721 90.0092 89.991 90.5939 91.0249 90.5939C91.3489 90.5939 91.6961 90.5228 92.0202 90.4675L92.1282 92.6326C91.5109 92.7037 90.9014 92.8143 90.0836 92.8143C87.1749 92.8143 86.4728 91.5026 86.4728 89.2032V85.284H84.6133V82.953Z" fill="#B1B1B1"/>
<path fill-rule="evenodd" clip-rule="evenodd" d="M98.0151 90.4755C96.5183 90.4755 95.901 89.2033 95.901 87.7731C95.901 86.3271 96.5183 85.0549 98.0151 85.0549C99.5119 85.0549 100.129 86.3271 100.129 87.7731C100.121 89.2033 99.5119 90.4755 98.0151 90.4755ZM98.0151 92.8065C101.124 92.8065 103.485 90.9575 103.485 87.7731C103.485 84.5729 101.117 82.7239 98.0151 82.7239C94.9057 82.7239 92.5448 84.5729 92.5448 87.7731C92.5371 90.9575 94.9057 92.8065 98.0151 92.8065Z" fill="#B1B1B1"/>
<path fill-rule="evenodd" clip-rule="evenodd" d="M104.396 89.9224C105.152 90.2542 106.278 90.5861 107.451 90.5861C108.122 90.5861 108.77 90.4755 108.77 89.8117C108.77 88.184 104.149 89.3297 104.149 85.853C104.149 83.6326 106.278 82.7239 108.161 82.7239C109.28 82.7239 110.422 82.8503 111.463 83.277L111.209 85.5922C110.522 85.1655 109.496 84.9443 108.678 84.9443C107.976 84.9443 107.181 85.0707 107.181 85.608C107.181 87.1093 112.019 85.9241 112.019 89.5826C112.019 92.1506 109.758 92.7986 107.629 92.7986C106.163 92.7986 105.175 92.6484 104.218 92.3324L104.396 89.9224Z" fill="#B1B1B1"/>
<path fill-rule="evenodd" clip-rule="evenodd" d="M0.460754 104.517H112.79V100.661H0.460754V104.517Z" fill="#B1B1B1"/>
</svg>
