<svg width="146" height="146" viewBox="0 0 146 146" fill="none" xmlns="http://www.w3.org/2000/svg">
<circle cx="73" cy="73" r="73" fill="#BEE3F1"/>
<g clip-path="url(#clip0)">
<path d="M120.132 111H25.8793C22.6348 111 20 108.403 20 105.179V40.8207C20 37.6085 22.6348 35 25.8793 35H120.132C123.377 35 126 37.6085 126 40.8207V105.179C126 108.403 123.377 111 120.132 111Z" fill="#674D80"/>
<path d="M45.5882 87.4778H29.1353V98.3333H45.5882V87.4778Z" fill="#EDE9E8"/>
<path d="M69.347 87.4778H52.8942V98.3333H69.347V87.4778Z" fill="#EDE9E8"/>
<path d="M93.1173 87.4778H76.6645V98.3333H93.1173V87.4778Z" fill="#EDE9E8"/>
<path d="M116.876 87.4778H100.423V98.3333H116.876V87.4778Z" fill="#EDE9E8"/>
<path d="M56.0927 67.5666H31.4364C30.1708 67.5666 29.1469 66.5528 29.1469 65.2998V48.1337C29.1469 46.8807 30.1708 45.8669 31.4364 45.8669H56.0927C57.3583 45.8669 58.3823 46.8807 58.3823 48.1337V65.2998C58.3823 66.5528 57.3583 67.5666 56.0927 67.5666Z" fill="#F0C41B"/>
<path d="M56.0927 69.3777H31.4364C29.1584 69.3777 27.3175 67.5552 27.3175 65.2998V48.1337C27.3175 45.8783 29.1699 44.0558 31.4364 44.0558H56.0927C58.3593 44.0558 60.2116 45.8897 60.2116 48.1337V65.2998C60.2116 67.5552 58.3593 69.3777 56.0927 69.3777ZM31.4364 47.6667C31.1833 47.6667 30.9762 47.8717 30.9762 48.1223V65.2998C30.9762 65.5504 31.1833 65.7668 31.4364 65.7668H56.0927C56.3458 65.7668 56.5529 65.5504 56.5529 65.2998V48.1337C56.5529 47.8717 56.3458 47.6781 56.0927 47.6781H31.4364V47.6667Z" fill="#F3D55C"/>
<path d="M58.3823 48.1337C58.3823 46.8807 57.3583 45.8669 56.0927 45.8669H42.4012C41.1356 45.8669 40.1116 46.8807 40.1116 48.1337V65.2998C40.1116 66.5528 41.1356 67.5666 42.4012 67.5666H45.1165C46.3821 67.5666 47.406 66.5528 47.406 65.2998V55.3669C47.406 54.1139 48.43 53.1001 49.6956 53.1001H56.0812C57.3468 53.1001 58.3708 52.0863 58.3708 50.8333V48.1337H58.3823Z" fill="#F0C41B"/>
<path d="M45.128 69.3777H42.4127C40.1346 69.3777 38.2937 67.5552 38.2937 65.2998V48.1337C38.2937 45.8783 40.1461 44.0558 42.4127 44.0558H56.1042C58.3708 44.0558 60.2231 45.8897 60.2231 48.1337V50.8333C60.2231 53.0887 58.3708 54.9113 56.1042 54.9113H49.7186C49.4655 54.9113 49.2584 55.1163 49.2584 55.3669V65.2998C49.2469 67.5552 47.3945 69.3777 45.128 69.3777ZM42.4012 47.6667C42.1365 47.6667 41.9409 47.8717 41.9409 48.1223V65.2998C41.9409 65.5504 42.148 65.7668 42.4012 65.7668H45.1165C45.3696 65.7668 45.5767 65.5504 45.5767 65.2998V55.3669C45.5767 53.1115 47.4291 51.289 49.6956 51.289H56.0812C56.3343 51.289 56.5414 51.0839 56.5414 50.8333V48.1337C56.5414 47.8717 56.3343 47.6781 56.0812 47.6781H42.4012V47.6667Z" fill="#F3D55C"/>
<path d="M58.3823 62.1445H47.4176C46.4051 62.1445 45.5882 61.3357 45.5882 60.3333C45.5882 59.3309 46.4051 58.5222 47.4176 58.5222H58.3823C59.3948 58.5222 60.2117 59.3309 60.2117 60.3333C60.2117 61.3357 59.3948 62.1445 58.3823 62.1445Z" fill="#F3D55C"/>
<path d="M40.1116 54.9113H29.1353C28.1229 54.9113 27.306 54.1025 27.306 53.1001C27.306 52.0977 28.1229 51.289 29.1353 51.289H40.1001C41.1125 51.289 41.9294 52.0977 41.9294 53.1001C41.9409 54.0911 41.1125 54.9113 40.1116 54.9113Z" fill="#F3D55C"/>
<path d="M40.1116 62.1445H29.1353C28.1229 62.1445 27.306 61.3357 27.306 60.3333C27.306 59.3309 28.1229 58.5222 29.1353 58.5222H40.1001C41.1125 58.5222 41.9294 59.3309 41.9294 60.3333C41.9409 61.3357 41.1125 62.1445 40.1116 62.1445Z" fill="#F3D55C"/>
<path d="M93.1058 44.0444H76.653C75.6405 44.0444 74.8236 44.8531 74.8236 45.8555C74.8236 46.8579 75.6405 47.6667 76.653 47.6667H93.1058C94.1183 47.6667 94.9352 46.8579 94.9352 45.8555C94.9352 44.8645 94.1183 44.0444 93.1058 44.0444Z" fill="#EDE9E8"/>
<path d="M118.694 45.8555C118.694 44.8531 117.877 44.0444 116.865 44.0444H100.423C99.4108 44.0444 98.5939 44.8531 98.5939 45.8555C98.5939 46.8579 99.4108 47.6667 100.423 47.6667H116.876C117.889 47.6667 118.694 46.8579 118.694 45.8555Z" fill="#EDE9E8"/>
<path d="M78.4939 53.1001H76.6645C75.652 53.1001 74.8351 53.9089 74.8351 54.9113C74.8351 55.9137 75.652 56.7224 76.6645 56.7224H78.4939C79.5063 56.7224 80.3117 55.9137 80.3117 54.9113C80.3117 53.9089 79.4948 53.1001 78.4939 53.1001Z" fill="#EDE9E8"/>
<path d="M89.4471 53.1001H85.7999C84.7874 53.1001 83.9705 53.9089 83.9705 54.9113C83.9705 55.9137 84.7874 56.7224 85.7999 56.7224H89.4471C90.4711 56.7224 91.2765 55.9137 91.2765 54.9113C91.2765 53.9089 90.4711 53.1001 89.4471 53.1001Z" fill="#EDE9E8"/>
<path d="M98.5939 53.1001H96.7761C95.7521 53.1001 94.9467 53.9089 94.9467 54.9113C94.9467 55.9137 95.7636 56.7224 96.7761 56.7224H98.5939C99.6179 56.7224 100.423 55.9137 100.423 54.9113C100.423 53.9089 99.6064 53.1001 98.5939 53.1001Z" fill="#EDE9E8"/>
<path d="M109.559 53.1001H105.911C104.887 53.1001 104.082 53.9089 104.082 54.9113C104.082 55.9137 104.887 56.7224 105.911 56.7224H109.559C110.571 56.7224 111.388 55.9137 111.388 54.9113C111.388 53.9089 110.571 53.1001 109.559 53.1001Z" fill="#EDE9E8"/>
<path d="M115.576 53.6127C115.242 53.9544 115.047 54.4328 115.047 54.8999C115.047 55.3669 115.242 55.8339 115.576 56.1757C115.921 56.506 116.381 56.711 116.865 56.711C117.348 56.711 117.82 56.506 118.165 56.1757C118.498 55.8339 118.694 55.3669 118.694 54.8999C118.694 54.4328 118.498 53.9544 118.165 53.6127C117.474 52.952 116.255 52.952 115.576 53.6127Z" fill="#EDE9E8"/>
</g>
<defs>
<clipPath id="clip0">
<rect width="106" height="76" fill="white" transform="translate(20 35)"/>
</clipPath>
</defs>
</svg>
