<svg width="99" height="89" viewBox="0 0 99 89" fill="none" xmlns="http://www.w3.org/2000/svg">
<path fill-rule="evenodd" clip-rule="evenodd" d="M51.3122 40.2831L54.473 34.7685C54.8765 34.0288 55.8852 33.4908 56.6922 33.4908H59.853C60.66 33.4908 61.6688 32.8855 62.0723 32.213L64.3588 28.2452C64.7623 27.5055 64.7623 26.3622 64.3588 25.6897L62.0723 21.7219C61.6688 20.9822 60.66 20.4442 59.853 20.4442H49.6982C48.8912 20.4442 47.8824 19.8389 47.4789 19.1664L44.3181 13.5846H62.4085C64.0225 13.5846 66.0401 14.7279 66.8471 16.1401L71.2856 23.8067C72.0926 25.2189 72.0926 27.5727 71.2856 28.985L66.1746 37.7275C65.3676 39.1398 63.35 40.2831 61.736 40.2831H51.3122Z" fill="#264375"/>
<path fill-rule="evenodd" clip-rule="evenodd" d="M64.157 11.5671H57.7682C56.9612 11.5671 55.9525 10.9618 55.549 10.2893L53.935 7.53206C53.5315 6.79231 52.5227 6.2543 51.7157 6.2543H47.1426C46.3356 6.2543 45.3269 6.85956 44.9234 7.53206L42.6369 11.4998C42.2334 12.2396 42.2334 13.3829 42.6369 14.0554L47.7479 22.8652C48.1514 23.605 48.1514 24.7482 47.7479 25.4207L44.5871 30.9353L35.5083 15.4004C34.7013 13.9881 34.7013 11.6343 35.5083 10.2221L39.9468 2.55552C40.7538 1.14326 42.7041 0 44.3854 0H54.5402C56.1542 0 58.1717 1.14326 58.9788 2.55552L64.157 11.5671Z" fill="#264375"/>
<path fill-rule="evenodd" clip-rule="evenodd" d="M32.8855 14.7951L36.0463 20.3097C36.4498 21.0494 36.4498 22.1927 36.0463 22.8652L34.4323 25.6224C34.0288 26.3622 34.0288 27.5055 34.4323 28.178L36.7188 32.1458C37.1223 32.8855 38.1311 33.4235 38.9381 33.4235H43.5111C44.3181 33.4235 45.3269 32.8183 45.7304 32.1458L50.8414 23.3359C51.2449 22.5962 52.2537 22.0582 53.0607 22.0582H59.4495L50.5052 37.7275C49.6982 39.1398 47.6807 40.2831 46.0666 40.2831H37.2568C35.6428 40.2831 33.6253 39.1398 32.8183 37.7275L27.64 28.9177C26.833 27.5055 26.833 25.1517 27.64 23.7394L32.8855 14.7951Z" fill="#264375"/>
<path fill-rule="evenodd" clip-rule="evenodd" d="M11.4326 61.8705C10.4911 62.1395 9.34782 62.4085 7.59931 62.4085C4.16953 62.4085 0.201744 60.66 0.201744 55.818C0.201744 51.3794 3.29527 49.1602 7.53206 49.1602C8.80982 49.1602 10.0876 49.4292 11.3653 49.8327L11.0963 52.5899C10.0203 51.9847 8.94432 51.7157 7.73381 51.7157C5.31279 51.7157 3.69877 53.4642 3.69877 55.8852C3.69877 58.3735 5.44729 59.9202 8.00281 59.9202C9.14607 59.9202 10.2893 59.6512 11.2308 59.2477L11.4326 61.8705Z" fill="#264375"/>
<path fill-rule="evenodd" clip-rule="evenodd" d="M14.9296 59.1132C14.9296 58.1717 15.8039 57.8355 16.9472 57.8355C17.4179 57.8355 17.8887 57.9027 18.3594 57.9027C18.3594 59.046 17.5524 60.1892 16.3419 60.1892C15.5349 60.1892 14.9296 59.7857 14.9296 59.1132ZM21.5874 62.1395C21.4529 61.3998 21.4529 60.66 21.4529 59.9202V56.356C21.4529 53.4642 19.3682 52.3882 16.8799 52.3882C15.4676 52.3882 14.2571 52.5899 13.0466 53.0607L13.1139 55.28C14.0554 54.742 15.1314 54.5402 16.1401 54.5402C17.3507 54.5402 18.2922 54.8765 18.3594 56.2215C17.9559 56.1542 17.3507 56.087 16.8127 56.087C15.0641 56.087 11.9034 56.4232 11.9034 59.3822C11.9034 61.467 13.5846 62.4085 15.4676 62.4085C16.8127 62.4085 17.7542 61.8705 18.4939 60.66H18.5612C18.5612 61.1308 18.6284 61.6688 18.6284 62.1395H21.5874Z" fill="#264375"/>
<path fill-rule="evenodd" clip-rule="evenodd" d="M22.6635 52.59H25.9587V62.1395H22.6635V52.59ZM25.9587 51.3795H22.6635V48.9584H25.9587V51.3795Z" fill="#264375"/>
<path fill-rule="evenodd" clip-rule="evenodd" d="M29.8593 57.2975L26.9002 52.59H30.8008L32.213 55.4817L33.6925 52.59H37.3241L34.365 57.2303L37.5258 62.1396H33.558L31.944 59.1805L30.3973 62.1396H26.6312L29.8593 57.2975Z" fill="#264375"/>
<path fill-rule="evenodd" clip-rule="evenodd" d="M40.4849 59.1132C40.4849 58.1717 41.3591 57.8355 42.5024 57.8355C42.9731 57.8355 43.4439 57.9027 43.9146 57.9027C43.9146 59.046 43.1076 60.1892 41.8971 60.1892C41.0229 60.1892 40.4849 59.7857 40.4849 59.1132ZM47.1427 62.1395C47.0082 61.3997 46.9409 60.66 46.9409 59.853V56.2887C46.9409 53.3969 44.8561 52.3209 42.3679 52.3209C40.9556 52.3209 39.7451 52.5227 38.5346 52.9934L38.6018 55.2127C39.5433 54.6747 40.5521 54.4729 41.6281 54.4729C42.8386 54.4729 43.7801 54.8092 43.8474 56.1542C43.4439 56.087 42.8386 56.0197 42.3006 56.0197C40.5521 56.0197 37.3913 56.356 37.3913 59.315C37.3913 61.3997 39.0726 62.3413 40.9556 62.3413C42.3006 62.3413 43.2421 61.8033 43.9819 60.5927H44.0491C44.0491 61.0635 44.1164 61.6015 44.1164 62.0723H47.1427V62.1395Z" fill="#264375"/>
<path fill-rule="evenodd" clip-rule="evenodd" d="M63.8881 61.8033C61.736 62.3413 60.122 62.4085 58.9115 62.4085C55.4817 62.4085 51.5139 60.66 51.5139 55.818C51.5139 50.9759 54.9437 49.1602 59.584 49.1602C60.4583 49.1602 62.2068 49.2274 63.4846 49.6982L63.2828 52.4554C62.2068 51.8502 60.9963 51.6484 60.1893 51.6484C57.432 51.6484 55.1455 52.7917 55.1455 55.818C55.1455 58.3062 56.9612 59.853 59.4495 59.853C59.9203 59.853 60.3238 59.7857 60.66 59.6512V57.0957H58.6425V54.6747H63.9553V61.8033H63.8881Z" fill="#264375"/>
<path fill-rule="evenodd" clip-rule="evenodd" d="M68.2593 56.4905C68.3266 55.4145 68.9318 54.473 70.0751 54.473C71.4201 54.473 71.8909 55.3472 71.8909 56.4905H68.2593ZM74.9171 58.3735V57.7682C74.9171 54.9437 73.6394 52.3882 70.0751 52.3882C67.1161 52.3882 64.9641 54.204 64.9641 57.3647C64.9641 60.5255 67.3851 62.4085 70.5459 62.4085C71.7564 62.4085 72.9669 62.2068 74.0429 61.8033V59.4495C73.0341 59.9875 72.0254 60.1892 71.1511 60.1892C69.5371 60.1892 68.5283 59.6512 68.3266 58.3735H74.9171V58.3735Z" fill="#264375"/>
<path fill-rule="evenodd" clip-rule="evenodd" d="M82.7855 55.2127C82.4492 55.0782 82.0457 55.0782 81.6422 55.0782C80.0954 55.0782 79.2212 56.2215 79.2212 58.1045V62.1395H75.9259V52.5899H78.9522V54.3384H79.0194C79.5574 53.1279 80.4317 52.3209 81.844 52.3209C82.2475 52.3209 82.651 52.3882 82.9872 52.4554L82.7855 55.2127Z" fill="#264375"/>
<path fill-rule="evenodd" clip-rule="evenodd" d="M86.0807 59.1132C86.0807 58.1717 86.955 57.8355 88.0983 57.8355C88.569 57.8355 89.0398 57.9027 89.5105 57.9027C89.5105 59.046 88.7035 60.1892 87.493 60.1892C86.686 60.1892 86.0807 59.7857 86.0807 59.1132ZM92.7385 62.1395C92.604 61.3997 92.5368 60.66 92.5368 59.853V56.2887C92.5368 53.3969 90.452 52.3209 87.9638 52.3209C86.5515 52.3209 85.341 52.5227 84.1305 52.9934L84.1977 55.2127C85.1392 54.6747 86.148 54.4729 87.224 54.4729C88.4345 54.4729 89.376 54.8092 89.4433 56.1542C89.0398 56.087 88.4345 56.0197 87.8965 56.0197C86.148 56.0197 82.9872 56.356 82.9872 59.315C82.9872 61.3997 84.6685 62.3413 86.5515 62.3413C87.8965 62.3413 88.838 61.8033 89.5778 60.5927H89.645C89.645 61.0635 89.7123 61.6015 89.7123 62.0723H92.7385V62.1395Z" fill="#264375"/>
<path fill-rule="evenodd" clip-rule="evenodd" d="M94.1508 48.3531H97.5133V62.1395H94.1508V48.3531Z" fill="#264375"/>
<path fill-rule="evenodd" clip-rule="evenodd" d="M2.89177 73.9083C2.89177 72.8323 3.49703 71.8908 4.64029 71.8908C5.64905 71.8908 6.3888 72.7651 6.3888 74.0428C6.3888 75.2533 5.5818 76.1276 4.64029 76.1276C3.49703 76.1276 2.89177 75.2533 2.89177 73.9083ZM9.14608 66.309H6.32155V70.9493C5.5818 70.0078 4.64029 69.7388 3.49703 69.7388C1.21051 69.7388 0 71.8908 0 73.9083C0 76.3294 1.27776 78.3469 3.76603 78.3469C5.04379 78.3469 6.2543 77.6071 6.59056 76.6656V78.1451H9.21333V66.309H9.14608Z" fill="#264375"/>
<path fill-rule="evenodd" clip-rule="evenodd" d="M12.5086 73.2359C12.5759 72.2944 13.0466 71.4873 14.0554 71.4873C15.1986 71.4873 15.6021 72.2271 15.6021 73.2359H12.5086ZM18.2249 74.8499V74.3119C18.2249 71.8909 17.1489 69.7388 14.0554 69.7388C11.4998 69.7388 9.68408 71.2856 9.68408 74.0429C9.68408 76.7329 11.7688 78.3469 14.4589 78.3469C15.5349 78.3469 16.5436 78.2124 17.4851 77.8089V75.7914C16.6109 76.2621 15.7366 76.3966 14.9969 76.3966C13.5846 76.3966 12.7776 75.9259 12.5759 74.8499H18.2249V74.8499Z" fill="#264375"/>
<path fill-rule="evenodd" clip-rule="evenodd" d="M25.0172 69.3354H26.1605C28.3125 69.3354 29.5902 70.4786 29.5902 72.6306C29.5902 74.8499 28.3797 75.9259 26.1605 75.9259H25.0172V69.3354ZM22.0582 78.1452H26.026C29.792 78.1452 32.5493 76.7329 32.5493 72.6306C32.5493 68.3939 29.8592 67.1833 26.026 67.1833H22.0582V78.1452Z" fill="#264375"/>
<path fill-rule="evenodd" clip-rule="evenodd" d="M36.0463 73.2359C36.1136 72.2944 36.5843 71.4873 37.5931 71.4873C38.7363 71.4873 39.1398 72.2271 39.1398 73.2359H36.0463ZM41.7626 74.8499V74.3119C41.7626 71.8909 40.6866 69.7388 37.5931 69.7388C35.0375 69.7388 33.2218 71.2856 33.2218 74.0429C33.2218 76.7329 35.3065 78.3469 37.9966 78.3469C39.0726 78.3469 40.0813 78.2124 41.0228 77.8089V75.7914C40.1486 76.2621 39.2743 76.3966 38.5346 76.3966C37.1223 76.3966 36.3153 75.9259 36.1136 74.8499H41.7626V74.8499Z" fill="#264375"/>
<path fill-rule="evenodd" clip-rule="evenodd" d="M48.8239 73.9084C48.8239 75.1861 48.1514 76.1276 47.0754 76.1276C46.1339 76.1276 45.3269 75.2534 45.3269 74.0429C45.3269 72.8324 45.9994 71.8909 47.0754 71.8909C48.2187 71.8909 48.8239 72.8324 48.8239 73.9084ZM42.5024 81.4404H45.3269V77.0019C45.8649 78.0107 46.9409 78.3469 47.9497 78.3469C50.3707 78.3469 51.7157 76.3294 51.7157 73.9084C51.7157 71.9581 50.5052 69.7388 48.2187 69.7388C46.9409 69.7388 45.7304 70.2768 45.1924 71.4201V69.9406H42.5696V81.4404H42.5024Z" fill="#264375"/>
<path fill-rule="evenodd" clip-rule="evenodd" d="M58.0372 71.8909C58.7097 72.2271 59.046 73.1014 59.046 74.0429C59.046 75.2534 58.508 76.3294 57.2302 76.3294C55.9525 76.3294 55.4145 75.2534 55.4145 74.0429C55.4145 72.8324 55.9525 71.7563 57.2302 71.7563V69.7388C54.5402 69.7388 52.4554 71.2856 52.4554 74.0429C52.4554 76.7329 54.5402 78.3469 57.2302 78.3469C59.9203 78.3469 62.005 76.8001 62.005 74.0429C62.005 72.0926 60.9963 70.7476 59.3823 70.1423L58.0372 71.8909Z" fill="#264375"/>
<path fill-rule="evenodd" clip-rule="evenodd" d="M62.7448 75.8586C63.4173 76.1276 64.3588 76.3966 65.4348 76.3966C66.0401 76.3966 66.5781 76.3294 66.5781 75.7241C66.5781 74.3119 62.543 75.3206 62.543 72.3616C62.543 70.4786 64.426 69.6716 66.0401 69.6716C67.0488 69.6716 67.9903 69.8061 68.9318 70.1423L68.7301 72.0926C68.1248 71.7563 67.2506 71.5546 66.5108 71.5546C65.9056 71.5546 65.2331 71.6891 65.2331 72.0926C65.2331 73.3704 69.4698 72.3616 69.4698 75.4551C69.4698 77.6744 67.5196 78.2124 65.6366 78.2124C64.3588 78.2124 63.4845 78.0779 62.6775 77.8089L62.7448 75.8586Z" fill="#264375"/>
<path fill-rule="evenodd" clip-rule="evenodd" d="M70.0751 69.9406H72.8996V78.1452H70.0751V69.9406ZM72.8996 68.5956H70.0751V66.5109H72.8996V68.5956Z" fill="#264375"/>
<path fill-rule="evenodd" clip-rule="evenodd" d="M73.6394 69.9406H75.3206V68.1248L78.0779 67.2505V69.9406H80.0282V71.8908H78.0779V74.9171C78.0779 75.9259 78.3469 76.3966 79.2212 76.3966C79.4902 76.3966 79.8264 76.3294 80.0954 76.2621L80.1627 78.0779C79.6247 78.1451 79.0867 78.2124 78.4142 78.2124C75.8586 78.2124 75.2534 77.0691 75.2534 75.1189V71.7563H73.6394V69.9406V69.9406Z" fill="#264375"/>
<path fill-rule="evenodd" clip-rule="evenodd" d="M85.341 76.3294C84.0632 76.3294 83.5252 75.2534 83.5252 74.0429C83.5252 72.8324 84.0632 71.7563 85.341 71.7563C86.6187 71.7563 87.1567 72.8324 87.1567 74.0429C87.1567 75.2534 86.6187 76.3294 85.341 76.3294ZM85.341 78.3469C88.031 78.3469 90.1158 76.8001 90.1158 74.0429C90.1158 71.2856 88.031 69.7388 85.341 69.7388C82.6509 69.7388 80.5662 71.2856 80.5662 74.0429C80.5662 76.7329 82.5837 78.3469 85.341 78.3469Z" fill="#264375"/>
<path fill-rule="evenodd" clip-rule="evenodd" d="M90.8555 75.8586C91.528 76.1276 92.4695 76.3966 93.5455 76.3966C94.1508 76.3966 94.6888 76.3294 94.6888 75.7241C94.6888 74.3119 90.6538 75.3206 90.6538 72.3616C90.6538 70.4786 92.5368 69.6716 94.1508 69.6716C95.1596 69.6716 96.1011 69.8061 97.0426 70.1423L96.8408 72.0926C96.2356 71.7563 95.3613 71.5546 94.6216 71.5546C94.0163 71.5546 93.3438 71.6891 93.3438 72.0926C93.3438 73.3704 97.5806 72.3616 97.5806 75.4551C97.5806 77.6744 95.6303 78.2124 93.7473 78.2124C92.4695 78.2124 91.5953 78.0779 90.7883 77.8089L90.8555 75.8586Z" fill="#264375"/>
<path fill-rule="evenodd" clip-rule="evenodd" d="M0.268997 88.3H98.1858V85.0048H0.268997V88.3Z" fill="#30AE56"/>
</svg>
