<svg width="122" height="66" viewBox="0 0 122 66" fill="none" xmlns="http://www.w3.org/2000/svg">
<path fill-rule="evenodd" clip-rule="evenodd" d="M31.7308 34.963H23.1793C22.8225 34.963 22.5149 34.6473 22.5149 34.2812V25.5496C22.5149 18.4595 28.138 12.6826 35.053 12.6826H43.6045C43.9613 12.6826 44.2689 12.9983 44.2689 13.3645V22.1403C44.2689 29.2303 38.6397 34.963 31.7308 34.963Z" fill="#B1B1B1"/>
<path fill-rule="evenodd" clip-rule="evenodd" d="M21.8074 18.4595V27.1848C21.8074 27.5952 21.4998 27.8667 21.1429 27.8667H12.5914C5.68258 27.8667 0.0595093 22.1403 0.0595093 15.0501V6.27427C0.0595093 5.90809 0.367117 5.59241 0.723942 5.59241H9.27544C16.1843 5.59241 21.8074 11.3251 21.8074 18.4595Z" fill="#B1B1B1"/>
<path fill-rule="evenodd" clip-rule="evenodd" d="M21.7643 29.0535L21.8074 40.2792H20.8784V29.0535C20.9215 28.3716 21.7643 28.3716 21.7643 29.0535Z" fill="#B1B1B1"/>
<path fill-rule="evenodd" clip-rule="evenodd" d="M22.5149 20.549V13.2316C22.5149 6.0973 28.138 0.364624 35.053 0.364624H42.4971C42.897 0.364624 43.1616 0.6803 43.1616 1.04648V11.8679H35.053C29.7375 11.8679 24.6435 14.911 22.5149 20.549Z" fill="#B1B1B1"/>
<path fill-rule="evenodd" clip-rule="evenodd" d="M86.5712 8.09255C82.8922 3.68569 79.2625 0.276367 73.4117 0.276367C68.2747 0.276367 63.7098 2.63764 60.9229 7.09501C58.3082 11.142 57.8652 15.8203 57.8652 20.5492C57.8652 25.3222 58.3082 29.9564 60.9229 34.0034C63.7159 38.4102 68.2747 40.7778 73.4117 40.7778C79.2563 40.7778 83.0706 37.4127 86.6573 33.0058C86.6573 33.0058 83.0706 29.5081 80.456 32.6902C78.598 34.5969 76.6047 35.8722 73.4117 35.8722C64.5957 35.8722 62.6947 27.9171 62.6947 20.5555C62.6947 13.1939 64.6019 5.18831 73.4117 5.18831C76.8693 5.18831 78.9056 6.69094 80.9851 8.96382C83.6428 11.3251 86.5712 8.09255 86.5712 8.09255Z" fill="#B1B1B1"/>
<path fill-rule="evenodd" clip-rule="evenodd" d="M121.429 40.278L106.369 0.774131C106.369 0.774131 105.218 0.591038 103.89 0.913029V8.09785L110.048 24.1469H103.89V28.8758H111.82L114.613 35.9217C114.613 35.9217 115.677 38.5102 116.471 39.1479C118.372 40.7768 121.429 40.278 121.429 40.278ZM103.89 0.913029C103.047 1.09612 102.118 1.5065 101.41 2.27676C100.167 3.64048 99.6384 5.59769 99.6384 5.59769L86.3928 40.2843H91.6222L95.9163 28.8758H103.89V24.1406H97.7312L103.89 8.04734V8.09154V0.913029Z" fill="#B1B1B1"/>
<path fill-rule="evenodd" clip-rule="evenodd" d="M93.923 55.1413L93.5231 56.0505C93.2155 55.8674 92.8156 55.779 92.4588 55.779C91.5298 55.779 90.6009 56.5493 90.6009 57.6415V58.961V61.5496V61.8211C90.6009 62.364 90.3363 62.7302 89.9795 62.7302H89.5796V59.2767V55.0024H90.6009V55.457C91.1299 54.8635 91.7082 54.731 92.4588 54.731C92.9018 54.7373 93.5662 54.8257 93.923 55.1413Z" fill="#B1B1B1"/>
<path fill-rule="evenodd" clip-rule="evenodd" d="M96.0947 61.8272C96.0947 62.326 95.7871 62.7363 95.5164 62.7363H95.0304V55.0087H96.0947V61.8272Z" fill="#B1B1B1"/>
<path fill-rule="evenodd" clip-rule="evenodd" d="M40.4116 51.6877L38.6397 54.0048H37.3539L38.6397 51.6877H40.4116Z" fill="#B1B1B1"/>
<path fill-rule="evenodd" clip-rule="evenodd" d="M40.147 57.9634C40.147 57.6477 40.0609 57.3257 39.9686 57.1931C39.661 56.7386 39.2611 56.5113 38.6828 56.5113C38.6828 56.5113 38.6397 56.5113 38.5967 56.5555V54.9645C38.6397 54.9645 38.6828 54.9645 38.732 54.9645C39.7963 54.9645 40.7253 55.419 41.3036 56.3724C41.8819 57.2373 41.7896 58.5568 41.7896 59.5544H38.6028V57.9634H40.147ZM38.5967 62.9194V61.3726C38.6828 61.3726 38.7751 61.3726 38.8612 61.3726C39.4826 61.3726 39.9686 61.1895 40.4546 60.6466L41.7404 61.5999C40.8545 62.5532 39.9255 62.9636 38.8612 62.9636C38.7751 62.9636 38.6828 62.9636 38.5967 62.9194ZM38.5967 56.5555C37.6246 56.5555 37.1816 57.0984 37.0032 57.9634H38.5967V59.5544H36.9602C37.0032 59.9647 37.0955 60.3751 37.2678 60.6466C37.4893 61.0128 37.9753 61.3284 38.5967 61.3726V62.9194C37.4462 62.8752 36.468 62.3765 35.9389 61.5115C35.4098 60.6908 35.3606 59.6491 35.3606 58.923C35.3606 58.197 35.4037 57.1489 35.9389 56.3345C36.5172 55.4696 37.4462 55.015 38.5967 54.9708V56.5555Z" fill="#B1B1B1"/>
<path fill-rule="evenodd" clip-rule="evenodd" d="M53.3495 52.5526C53.3495 53.0956 52.9066 53.5502 52.3775 53.5502C51.8484 53.5502 51.4485 53.0956 51.4485 52.5526C51.4485 52.0096 51.8484 51.5992 52.3775 51.5992C52.9066 51.5992 53.3495 52.0096 53.3495 52.5526Z" fill="#B1B1B1"/>
<path fill-rule="evenodd" clip-rule="evenodd" d="M58.4866 55.0086H57.4223V60.7349C57.4223 60.8233 57.3792 60.9622 57.4223 61.1011C57.4653 61.1453 57.5084 61.1895 57.6007 61.1895H58.3082V62.7805H57.6007C57.0224 62.7805 56.4933 62.509 56.1857 62.0103C55.9211 61.5557 55.8781 61.1011 55.8781 60.7349V55.0086H54.9491V53.5565H55.8781V51.694H57.4284V53.5565H58.4927V55.0086H58.4866Z" fill="#B1B1B1"/>
<path fill-rule="evenodd" clip-rule="evenodd" d="M64.8664 58.8725C64.8664 58.2348 64.8233 57.5088 64.5588 57.0984C64.3373 56.688 63.8082 56.4607 63.1438 56.4607V54.8698C64.3373 54.8698 65.3586 55.3685 65.9369 56.2777C66.3798 57.0984 66.4659 58.0959 66.4659 58.8662C66.4659 59.548 66.4229 60.6403 65.9369 61.4547C65.3586 62.3639 64.3435 62.8626 63.1438 62.8626V61.3284C63.8082 61.3284 64.3373 61.057 64.5588 60.6466C64.8172 60.2362 64.8664 59.5102 64.8664 58.8725ZM63.1376 56.4607C62.4301 56.4607 61.9441 56.688 61.7226 57.0984C61.4581 57.5088 61.415 58.2348 61.415 58.8725C61.415 59.5102 61.4581 60.2362 61.7226 60.6466C61.9441 61.057 62.4301 61.3284 63.1376 61.3284V62.8752C61.9872 62.8752 60.8798 62.3765 60.3938 61.4673C59.9078 60.6466 59.8647 59.5607 59.8647 58.8788C59.8647 58.1528 59.9078 57.1047 60.3938 56.2903C60.8798 55.3811 61.9441 54.8824 63.1376 54.8824V56.4607Z" fill="#B1B1B1"/>
<path fill-rule="evenodd" clip-rule="evenodd" d="M86.4789 57.5971C86.4789 56.4607 85.9006 55.9177 84.7932 55.9177V54.9202C85.4577 54.9202 86.1652 55.1033 86.7004 55.5578C86.9219 55.4694 87.0572 55.2864 87.1003 55.0149H88.0724C88.0293 55.6083 87.8078 56.1071 87.2726 56.3344C87.451 56.7448 87.494 57.1994 87.494 57.6098C87.494 59.4281 86.522 60.293 84.7932 60.293V59.3712C85.9498 59.3712 86.4789 58.7778 86.4789 57.5971ZM84.7994 65.7354V64.782C85.7714 64.782 87.2357 64.1001 87.2357 62.9195C87.2357 62.3765 86.7066 62.0545 86.2144 62.0545C85.7284 62.0545 85.2424 62.1934 84.7994 62.2818V61.4169C85.2424 61.278 85.7284 61.1012 86.2144 61.1012C87.2357 61.1012 88.2077 61.7388 88.2077 62.8753C88.2077 64.6873 86.3497 65.7354 84.7994 65.7354ZM84.7994 55.9177C83.692 55.9177 83.0706 56.4607 83.0706 57.5971C83.0706 58.7336 83.692 59.3712 84.7994 59.3712V60.2804C84.4918 60.2804 84.2211 60.2362 83.9565 60.192C83.5997 60.4193 83.249 60.7855 83.249 61.2401C83.249 61.4674 83.4705 61.6063 83.692 61.6063C84.0488 61.6063 84.3995 61.5179 84.7994 61.4232V62.2881C84.4426 62.3765 84.0919 62.4712 83.7351 62.4712C82.9845 62.4712 82.3201 62.1555 82.3201 61.2906C82.3201 60.6971 82.72 60.1983 83.1629 59.8827C82.3631 59.4281 82.0555 58.4747 82.0555 57.6098C82.0555 55.8798 83.1199 54.9265 84.7994 54.9265V55.9177ZM84.7994 64.782V65.7354C84.7563 65.7354 84.7563 65.7354 84.7563 65.7354C83.4275 65.7354 81.7418 65.2808 81.7418 63.6014C81.7418 63.3299 81.8279 63.0079 81.9202 62.7364L82.8061 63.0521C82.763 63.2352 82.72 63.3678 82.72 63.5508C82.72 64.5989 83.9627 64.7757 84.7563 64.7757C84.7502 64.782 84.7502 64.782 84.7994 64.782Z" fill="#B1B1B1"/>
<path fill-rule="evenodd" clip-rule="evenodd" d="M97.4667 51.6877L96.0025 54.0048H94.9874L96.3163 51.6877H97.4667Z" fill="#B1B1B1"/>
<path fill-rule="evenodd" clip-rule="evenodd" d="M103.625 61.5053C102.825 62.4144 102.21 62.8248 101.01 62.8248C98.7525 62.8248 97.6451 61.0065 97.6451 58.8725C97.6451 56.688 98.7525 54.9202 101.01 54.9202C102.204 54.9202 102.825 55.3305 103.625 56.1955L102.874 56.9216C102.345 56.2839 101.902 55.924 101.016 55.924C99.2877 55.924 98.7586 57.332 98.7586 58.8788C98.7586 60.4256 99.2877 61.8336 101.016 61.8336C101.902 61.8336 102.345 61.4674 102.874 60.836L103.625 61.5053Z" fill="#B1B1B1"/>
<path fill-rule="evenodd" clip-rule="evenodd" d="M110.22 58.9609C110.22 57.3698 109.913 56.0061 108.091 56.0061V54.9138C110.485 54.9138 111.235 56.688 111.235 58.8662C111.235 61.0949 110.485 62.8185 108.091 62.8185V61.8652C109.869 61.8715 110.22 60.5077 110.22 58.9609ZM108.098 56.0061C108.098 56.0061 108.098 56.0061 108.055 56.0061C106.283 56.0061 105.975 57.3698 105.975 58.9609C105.975 60.5077 106.283 61.8715 108.055 61.8715C108.098 61.8715 108.098 61.8715 108.098 61.8715V62.8248C105.661 62.8248 104.911 61.0507 104.911 58.9167C104.911 56.688 105.661 54.9138 108.098 54.9138V56.0061Z" fill="#B1B1B1"/>
<path fill-rule="evenodd" clip-rule="evenodd" d="M114.299 62.7365C113.149 62.7365 112.57 62.0546 112.57 60.9182V51.6877H113.635V60.8234C113.635 61.3664 113.678 61.6884 114.299 61.6884V62.7365Z" fill="#B1B1B1"/>
<path fill-rule="evenodd" clip-rule="evenodd" d="M28.8947 54.0996C28.7593 54.1438 28.6301 54.2827 28.4948 54.3269C28.138 54.51 27.695 54.5542 27.3013 54.188C26.723 53.5945 26.1939 53.1905 25.2649 53.1905C22.964 53.1905 22.4287 55.2803 22.4287 57.3259C22.4287 59.3714 22.9578 61.417 25.2649 61.417C26.1077 61.417 26.6368 61.1014 27.1228 60.5963C27.5658 60.0975 28.0518 60.0975 28.4087 60.2806C28.5871 60.3248 28.7655 60.4195 28.8516 60.5079C28.987 60.5963 29.1161 60.7794 29.1161 60.7794L29.0731 60.8678C28.0518 62.0926 26.9444 63.0522 25.2649 63.0522C23.8007 63.0522 22.521 62.3704 21.7212 61.1456C20.9707 59.9649 20.8353 58.6454 20.8353 57.3259C20.8353 55.9621 20.9707 54.6426 21.7212 53.5062C22.521 52.2308 23.8007 51.549 25.2649 51.549C26.9506 51.549 28.0088 52.5465 29.03 53.7776L29.1161 53.866C29.1161 53.8723 28.987 54.0049 28.8947 54.0996Z" fill="#B1B1B1"/>
<path fill-rule="evenodd" clip-rule="evenodd" d="M34.8315 55.3685L34.124 56.5491C34.124 56.5491 33.638 56.2776 33.2381 56.2776C31.9093 56.2776 31.8231 57.9128 31.8231 57.957V61.6379C31.8231 62.2313 31.5155 62.7301 30.8942 62.7301H30.2297V55.0086H31.8231V55.6463C32.18 55.3306 32.666 54.9202 33.4165 54.9202C34.3025 54.8697 34.8315 55.3685 34.8315 55.3685Z" fill="#B1B1B1"/>
<path fill-rule="evenodd" clip-rule="evenodd" d="M53.1711 61.5557C53.1711 62.1492 52.7282 62.7363 52.2421 62.7363H51.5777V55.0087H53.1711V61.5557Z" fill="#B1B1B1"/>
<path fill-rule="evenodd" clip-rule="evenodd" d="M78.1981 59.3713H75.9833V58.279H77.7551L75.9833 53.689V51.6434C76.1617 51.5992 76.2909 51.5992 76.4263 51.5992L80.6774 62.6923C80.4129 62.6923 79.8776 62.7806 79.527 62.3766C79.3055 62.1935 78.9979 61.4674 78.9979 61.4674L78.1981 59.3713ZM75.9833 59.3713H73.8116L72.5258 62.6923H71.3323L75.0543 52.963C75.0543 52.963 75.1897 52.42 75.5404 52.0096C75.7188 51.8265 75.848 51.7381 75.9833 51.6434V53.689V53.6449L74.2115 58.279H75.9833V59.3713Z" fill="#B1B1B1"/>
<path fill-rule="evenodd" clip-rule="evenodd" d="M120.365 60.192V59.0114C120.23 59.0114 119.836 59.0556 119.614 59.0556L118.55 59.0998V58.1906H119.571C119.879 58.1906 120.15 58.1464 120.371 57.9192V57.1489C120.371 56.284 119.485 55.9241 118.778 55.9241C118.692 55.9241 118.642 55.9241 118.556 55.9241V54.8761C118.642 54.8761 118.735 54.8761 118.821 54.8761C120.107 54.8761 121.392 55.6968 121.392 57.1489V62.7427H120.949C120.728 62.7427 120.463 62.427 120.371 62.0608C119.75 62.6543 119.178 62.831 118.556 62.831V61.783C119.356 61.7388 120.328 61.4168 120.371 60.2804V60.192H120.365ZM118.55 59.0998H118.329C117.621 59.0998 116.692 59.6933 116.692 60.5077C116.692 61.2779 117.4 61.8272 118.107 61.8272C118.243 61.8272 118.372 61.8272 118.55 61.783V62.831C118.464 62.8752 118.372 62.8752 118.286 62.8752C117 62.8752 115.763 61.9219 115.763 60.514C115.763 59.0619 116.957 58.197 118.286 58.197H118.55V59.0998ZM118.55 54.8698V55.9178C117.843 56.0062 117.221 56.3282 117 57.1426L116.028 56.7322C116.421 55.5074 117.357 54.9645 118.55 54.8698Z" fill="#B1B1B1"/>
<path fill-rule="evenodd" clip-rule="evenodd" d="M47.8987 57.6919C47.8987 57.3762 47.8126 57.1489 47.7203 56.9658C47.4988 56.5996 47.0559 56.3282 46.4345 56.3282C46.3914 56.3282 46.3914 56.3282 46.3484 56.3282V54.6929C46.3914 54.6929 46.3914 54.6929 46.4345 54.6929C46.9636 54.6929 47.4558 54.8318 47.8987 55.0591V51.694H49.4921V61.4674V62.6923H48.8708C48.5139 62.6923 48.2063 62.4208 48.0279 62.0546L47.9848 62.0104C47.5419 62.5092 47.0559 62.8312 46.4345 62.8312C46.3914 62.8312 46.3914 62.8312 46.3484 62.8312V61.1959C46.3914 61.1959 46.3914 61.1959 46.4345 61.1959C47.0559 61.1959 47.4988 60.9687 47.7203 60.5583C47.8064 60.3752 47.8987 60.1479 47.8987 59.8322V57.6919ZM46.3484 56.3282C45.7701 56.3282 45.3271 56.5996 45.1056 56.9658C44.8842 57.4204 44.8411 58.0581 44.8411 58.74C44.798 59.3776 44.8411 60.1037 45.1056 60.5583C45.3271 60.9245 45.7701 61.1959 46.3484 61.1959V62.8312C45.241 62.787 44.2689 62.2882 43.7337 61.379C43.2907 60.5141 43.2477 59.4723 43.2477 58.74C43.2477 57.9697 43.2907 57.01 43.7337 56.1956C44.2628 55.2422 45.241 54.7434 46.3484 54.6929V56.3282Z" fill="#B1B1B1"/>
</svg>
