<svg xmlns="http://www.w3.org/2000/svg" xmlns:xlink="http://www.w3.org/1999/xlink" viewBox="0 0 1351.55 1163.98"><defs><linearGradient id="b508fa25-798a-4d5e-96e6-d6cb0059f5cd" x1="133.97" y1="566.99" x2="1155.36" y2="566.99" gradientTransform="translate(65.2 -66.49) rotate(6.22)" gradientUnits="userSpaceOnUse"><stop offset="0" stop-color="#65a0d0"/><stop offset="0.81" stop-color="#35c7b3"/><stop offset="1" stop-color="#29d1ac"/></linearGradient><linearGradient id="b6cbd300-9f1d-4bc7-8e14-635a732da5ec" x1="217.09" y1="472.11" x2="367.17" y2="472.11" gradientTransform="translate(52.85 -28.86) rotate(6.22)" gradientUnits="userSpaceOnUse"><stop offset="0" stop-color="#fff499"/><stop offset="1" stop-color="#8f8956"/></linearGradient><linearGradient id="aea8dafc-3a09-47c8-9772-e344fb857fec" x1="1120.79" y1="329.87" x2="1255.36" y2="419.12" gradientUnits="userSpaceOnUse"><stop offset="0" stop-color="#e0b8b1"/><stop offset="0.38" stop-color="#d6a096"/><stop offset="0.74" stop-color="#cf8f84"/><stop offset="1" stop-color="#cc897d"/></linearGradient><linearGradient id="eccf391f-5c35-4cf7-bb0f-662cf9d8bfbf" x1="87.18" y1="1114.82" x2="157.57" y2="1114.82" gradientUnits="userSpaceOnUse"><stop offset="0" stop-color="#868f96"/><stop offset="1" stop-color="#596164"/></linearGradient><linearGradient id="b1a96c17-ef46-4de3-9d98-61a855b53cc2" x1="659.16" y1="1132.46" x2="691.26" y2="1132.46" xlink:href="#eccf391f-5c35-4cf7-bb0f-662cf9d8bfbf"/><linearGradient id="ae7db809-2ecc-4980-867f-2a14ca17ae39" x1="96.98" y1="1020.97" x2="274.29" y2="1020.97" gradientUnits="userSpaceOnUse"><stop offset="0" stop-color="#ffecd2"/><stop offset="1" stop-color="#ffaa9c"/></linearGradient><linearGradient id="f1ca9138-274c-4335-88ea-809597488e6c" x1="695.51" y1="1097.72" x2="497.48" y2="972.14" xlink:href="#ae7db809-2ecc-4980-867f-2a14ca17ae39"/><linearGradient id="bf277c03-8c91-49c2-9bac-3a1440cd767e" x1="186.05" y1="665.42" x2="467.64" y2="852.74" gradientUnits="userSpaceOnUse"><stop offset="0" stop-color="#e5c8f5"/><stop offset="0.41" stop-color="#d69cc5"/><stop offset="1" stop-color="#bf5677"/></linearGradient><linearGradient id="b3ae15a5-bcd6-4c44-bb99-addd21ef7b5e" x1="708.63" y1="613.8" x2="798.34" y2="613.8" xlink:href="#ae7db809-2ecc-4980-867f-2a14ca17ae39"/><linearGradient id="b7f369cd-bd48-4247-9dfb-5c0821285708" x1="164.09" y1="634.86" x2="233.92" y2="634.86" xlink:href="#ae7db809-2ecc-4980-867f-2a14ca17ae39"/><linearGradient id="efbdb66e-9885-408a-9af9-38be4906ebda" x1="461.19" y1="330.74" x2="472.07" y2="428.74" xlink:href="#ae7db809-2ecc-4980-867f-2a14ca17ae39"/><linearGradient id="aff681a3-8aea-48f9-bb2e-56ae13e4e704" x1="266.34" y1="292.35" x2="400.95" y2="331.64" gradientUnits="userSpaceOnUse"><stop offset="0" stop-color="#d0d7db"/><stop offset="1" stop-color="#15394d"/></linearGradient><linearGradient id="b83cb88d-df45-48f5-8d95-4b4f210e58a0" x1="502.63" y1="355.63" x2="461.08" y2="386.25" xlink:href="#ae7db809-2ecc-4980-867f-2a14ca17ae39"/><linearGradient id="aab1d5a0-374e-4327-b73d-547f7403ee64" x1="1315.72" y1="1094.51" x2="1149.2" y2="834.44" gradientUnits="userSpaceOnUse"><stop offset="0" stop-color="#e0b8b1"/><stop offset="1" stop-color="#cc897d"/></linearGradient><linearGradient id="a0f1aae5-39be-4ac8-a852-2a99866143c8" x1="884.82" y1="1008.58" x2="1041.99" y2="873.15" xlink:href="#aab1d5a0-374e-4327-b73d-547f7403ee64"/><linearGradient id="b6af498d-46fa-48c7-a842-fe81d0029181" x1="1097.51" y1="695.57" x2="1144.81" y2="886.56" gradientUnits="userSpaceOnUse"><stop offset="0" stop-color="#ccdcf5"/><stop offset="1" stop-color="#7b7ca8"/></linearGradient><linearGradient id="ea5d1f5e-f39e-498e-a6b9-f70d36a7b65b" x1="1100.57" y1="802.29" x2="1207.33" y2="861.74" gradientUnits="userSpaceOnUse"><stop offset="0" stop-color="#c2c9d4"/><stop offset="1" stop-color="#211f31"/></linearGradient><linearGradient id="f16f110d-2a94-4c71-8df2-be93f243a16b" x1="1304.05" y1="708.45" x2="1287.12" y2="554.38" xlink:href="#aea8dafc-3a09-47c8-9772-e344fb857fec"/><linearGradient id="b1f4684b-9d05-428a-920d-0363f8b45bc9" x1="749.72" y1="563.63" x2="1037.15" y2="563.63" xlink:href="#aab1d5a0-374e-4327-b73d-547f7403ee64"/><linearGradient id="b0fbedc5-6d33-4def-a751-b678a7d95e96" x1="1246.56" y1="239.29" x2="1182.45" y2="295.33" gradientUnits="userSpaceOnUse"><stop offset="0" stop-color="#b5adbb"/><stop offset="1" stop-color="#463155"/></linearGradient><linearGradient id="a1861431-0bef-48ed-8675-51a97f2c4c0e" x1="1073.48" y1="767.24" x2="994.56" y2="871.9" xlink:href="#ea5d1f5e-f39e-498e-a6b9-f70d36a7b65b"/><linearGradient id="ed5d0fd7-4ae6-484b-8b27-b40e5fe85742" x1="419.54" y1="364.2" x2="471.23" y2="352.25" xlink:href="#aff681a3-8aea-48f9-bb2e-56ae13e4e704"/><linearGradient id="afca1e97-ea41-4ab7-b34b-fe1bc38897be" x1="1166.7" y1="562.22" x2="1501.98" y2="654.46" gradientTransform="matrix(1, 0, 0, 1, 0, 0)" xlink:href="#b6cbd300-9f1d-4bc7-8e14-635a732da5ec"/><linearGradient id="a249ee8c-a723-487b-abdf-ba68cf26e9bf" x1="401" y1="501.56" x2="715.39" y2="599.03" gradientUnits="userSpaceOnUse"><stop offset="0" stop-color="#579999"/><stop offset="1" stop-color="#2d3e3e"/></linearGradient><linearGradient id="e659650c-e886-4c65-baec-daedc9f542bd" x1="447.63" y1="374.21" x2="456.75" y2="374.21" xlink:href="#aff681a3-8aea-48f9-bb2e-56ae13e4e704"/></defs><title>Asset 2</title><g style="isolation:isolate"><g id="b9688ae0-e8b4-421d-9e83-88dd7a00d9ce" data-name="Layer 2"><g id="bbb0e574-47f5-488d-ba99-586ffc7a70ae" data-name="Layer 2"><path d="M1331,1047.6a150.53,150.53,0,0,1-10.45-19.26c-22.68-51.49-98.35-236-68.89-343.85,34.48-126.23,97.43-364.15-121.3-535-142.91-111.61-587.77-94.93-879-70C98.66,92.65-13.95,228.18,1.49,380.65c21.25,209.83,70.78,466.23,186,478,196.39,19.95,231.55,29.68,292.75,158.71S839,1116,839,1116s378-60.17,424.45-17.28C1307.42,1139.32,1353,1082.7,1331,1047.6Z" style="fill:#e4f6ff"/><path d="M572.42.07,546.6,436.27l125.9,7.45L698.32,7.52Zm49.39,33.44,22.86,1.35-3.22,54.4-22.86-1.35Zm-4.92,83.11L639.75,118l-3.22,54.4L613.67,171Zm-28.65-85.1,22.86,1.35-3.22,54.41L585,85.92Zm-4.92,83.11L606.18,116,603,170.39,580.1,169Zm4.88,305.09-22.86-1.35L568.56,364l22.86,1.36Zm4.92-83.11-22.86-1.35,3.22-54.41,22.86,1.36Zm-17.94-84.47,3.22-54.4,22.86,1.36L598,253.5Zm46.59,169.57-22.86-1.36,3.22-54.4L625,367.3Zm4.92-83.11-22.86-1.36,3.22-54.4,22.86,1.35Zm-17.94-84.47,3.22-54.4,22.86,1.35-3.22,54.4Zm46.59,169.56-22.86-1.35,3.22-54.4,22.86,1.35Zm4.92-83.11-22.86-1.35,3.22-54.4,22.86,1.35Zm4.92-83.11-22.86-1.35,3.22-54.4,22.86,1.35Zm4.92-83.11L647.24,173l3.22-54.4L673.32,120ZM652.16,89.9l3.22-54.4,22.86,1.35L675,91.25Z" style="fill:#c9c5e7"/><path d="M572.42.07,546.6,436.27l125.9,7.45L698.32,7.52Zm49.39,33.44,22.86,1.35-3.22,54.4-22.86-1.35Zm-4.92,83.11L639.75,118l-3.22,54.4L613.67,171Zm-28.65-85.1,22.86,1.35-3.22,54.41L585,85.92Zm-4.92,83.11L606.18,116,603,170.39,580.1,169Zm4.88,305.09-22.86-1.35L568.56,364l22.86,1.36Zm4.92-83.11-22.86-1.35,3.22-54.41,22.86,1.36Zm-17.94-84.47,3.22-54.4,22.86,1.36L598,253.5Zm46.59,169.57-22.86-1.36,3.22-54.4L625,367.3Zm4.92-83.11-22.86-1.36,3.22-54.4,22.86,1.35Zm-17.94-84.47,3.22-54.4,22.86,1.35-3.22,54.4Zm46.59,169.56-22.86-1.35,3.22-54.4,22.86,1.35Zm4.92-83.11-22.86-1.35,3.22-54.4,22.86,1.35Zm4.92-83.11-22.86-1.35,3.22-54.4,22.86,1.35Zm4.92-83.11L647.24,173l3.22-54.4L673.32,120ZM652.16,89.9l3.22-54.4,22.86,1.35L675,91.25Z" style="fill:#4954b7;opacity:0.7000000000000001;mix-blend-mode:overlay"/><polygon points="698.32 7.52 824.21 14.97 698.32 7.52 698.32 7.52" style="fill:#8e97e1"/><polygon points="698.32 7.52 824.21 14.97 698.32 7.52 698.32 7.52" style="fill:#4954b7;opacity:0.7000000000000001;mix-blend-mode:overlay"/><path d="M672.5,443.72l125.89,7.45L824.21,15,698.32,7.52Zm83.55-14.07L733.2,428.3l3.22-54.4,22.85,1.35ZM761,346.54l-22.86-1.35,3.23-54.4,22.85,1.35Zm28.65,85.1-22.85-1.35,3.22-54.4,22.85,1.35Zm4.92-83.11-22.85-1.35,3.22-54.4,22.85,1.35ZM789.67,43.45l22.85,1.35L809.3,99.2l-22.86-1.35Zm-4.92,83.11,22.85,1.35-3.22,54.4L781.53,181ZM802.68,211l-3.22,54.4-22.85-1.35,3.22-54.4ZM756.09,41.46,779,42.81l-3.22,54.4-22.86-1.35Zm-4.92,83.11L774,125.92l-3.22,54.4L748,179ZM769.11,209l-3.22,54.4L743,262.08l3.23-54.4ZM722.52,39.47l22.86,1.35-3.22,54.41L719.3,93.87Zm-4.92,83.11,22.86,1.35-3.22,54.41L714.38,177Zm-4.92,83.11L735.54,207l-3.22,54.41-22.86-1.36Zm-4.92,83.11,22.86,1.36-3.22,54.4-22.86-1.36Zm17.94,84.47-3.22,54.4-22.86-1.36,3.23-54.4Z" style="fill:#8e97e1"/><path d="M672.5,443.72l125.89,7.45L824.21,15,698.32,7.52Zm83.55-14.07L733.2,428.3l3.22-54.4,22.85,1.35ZM761,346.54l-22.86-1.35,3.23-54.4,22.85,1.35Zm28.65,85.1-22.85-1.35,3.22-54.4,22.85,1.35Zm4.92-83.11-22.85-1.35,3.22-54.4,22.85,1.35ZM789.67,43.45l22.85,1.35L809.3,99.2l-22.86-1.35Zm-4.92,83.11,22.85,1.35-3.22,54.4L781.53,181ZM802.68,211l-3.22,54.4-22.85-1.35,3.22-54.4ZM756.09,41.46,779,42.81l-3.22,54.4-22.86-1.35Zm-4.92,83.11L774,125.92l-3.22,54.4L748,179ZM769.11,209l-3.22,54.4L743,262.08l3.23-54.4ZM722.52,39.47l22.86,1.35-3.22,54.41L719.3,93.87Zm-4.92,83.11,22.86,1.35-3.22,54.41L714.38,177Zm-4.92,83.11L735.54,207l-3.22,54.41-22.86-1.36Zm-4.92,83.11,22.86,1.36-3.22,54.4-22.86-1.36Zm17.94,84.47-3.22,54.4-22.86-1.36,3.23-54.4Z" style="fill:#4954b7;opacity:0.7000000000000001;mix-blend-mode:overlay"/><rect x="556.05" y="297.28" width="54.5" height="22.89" transform="translate(240.64 872.77) rotate(-86.61)" style="fill:#f1f8fd"/><rect x="556.05" y="297.28" width="54.5" height="22.89" transform="translate(240.64 872.77) rotate(-86.61)" style="fill:#4954b7;opacity:0.7000000000000001;mix-blend-mode:overlay"/><rect x="570.81" y="47.95" width="54.5" height="22.89" transform="translate(503.42 652.9) rotate(-86.61)" style="fill:#f1f8fd"/><rect x="570.81" y="47.95" width="54.5" height="22.89" transform="translate(503.42 652.9) rotate(-86.61)" style="fill:#4954b7;opacity:0.7000000000000001;mix-blend-mode:overlay"/><rect x="551.13" y="380.39" width="54.5" height="22.89" transform="translate(153.05 946.06) rotate(-86.61)" style="fill:#f1f8fd"/><rect x="551.13" y="380.39" width="54.5" height="22.89" transform="translate(153.05 946.06) rotate(-86.61)" style="fill:#4954b7;opacity:0.7000000000000001;mix-blend-mode:overlay"/><rect x="565.89" y="131.06" width="54.5" height="22.89" transform="translate(415.83 726.19) rotate(-86.61)" style="fill:#f1f8fd"/><rect x="565.89" y="131.06" width="54.5" height="22.89" transform="translate(415.83 726.19) rotate(-86.61)" style="fill:#4954b7;opacity:0.7000000000000001;mix-blend-mode:overlay"/><rect x="560.97" y="214.17" width="54.5" height="22.89" transform="translate(328.23 799.48) rotate(-86.61)" style="fill:#f1f8fd"/><rect x="560.97" y="214.17" width="54.5" height="22.89" transform="translate(328.23 799.48) rotate(-86.61)" style="fill:#4954b7;opacity:0.7000000000000001;mix-blend-mode:overlay"/><rect x="594.54" y="216.16" width="54.5" height="22.89" transform="translate(357.84 834.86) rotate(-86.61)" style="fill:#f1f8fd"/><rect x="594.54" y="216.16" width="54.5" height="22.89" transform="translate(357.84 834.86) rotate(-86.61)" style="fill:#4954b7;opacity:0.7000000000000001;mix-blend-mode:overlay"/><rect x="584.7" y="382.38" width="54.5" height="22.89" transform="translate(182.65 981.44) rotate(-86.61)" style="fill:#f1f8fd"/><rect x="584.7" y="382.38" width="54.5" height="22.89" transform="translate(182.65 981.44) rotate(-86.61)" style="fill:#4954b7;opacity:0.7000000000000001;mix-blend-mode:overlay"/><rect x="589.62" y="299.27" width="54.5" height="22.89" transform="translate(270.24 908.15) rotate(-86.61)" style="fill:#f1f8fd"/><rect x="589.62" y="299.27" width="54.5" height="22.89" transform="translate(270.24 908.15) rotate(-86.61)" style="fill:#4954b7;opacity:0.7000000000000001;mix-blend-mode:overlay"/><rect x="599.46" y="133.05" width="54.5" height="22.89" transform="translate(445.43 761.57) rotate(-86.61)" style="fill:#f1f8fd"/><rect x="599.46" y="133.05" width="54.5" height="22.89" transform="translate(445.43 761.57) rotate(-86.61)" style="fill:#4954b7;opacity:0.7000000000000001;mix-blend-mode:overlay"/><rect x="604.38" y="49.94" width="54.5" height="22.89" transform="translate(533.03 688.28) rotate(-86.61)" style="fill:#f1f8fd"/><rect x="604.38" y="49.94" width="54.5" height="22.89" transform="translate(533.03 688.28) rotate(-86.61)" style="fill:#4954b7;opacity:0.7000000000000001;mix-blend-mode:overlay"/><rect x="633.03" y="135.04" width="54.5" height="22.89" transform="translate(475.04 796.95) rotate(-86.61)" style="fill:#f1f8fd"/><rect x="633.03" y="135.04" width="54.5" height="22.89" transform="translate(475.04 796.95) rotate(-86.61)" style="fill:#4954b7;opacity:0.7000000000000001;mix-blend-mode:overlay"/><rect x="637.95" y="51.93" width="54.5" height="22.89" transform="translate(562.63 723.67) rotate(-86.61)" style="fill:#f1f8fd"/><rect x="637.95" y="51.93" width="54.5" height="22.89" transform="translate(562.63 723.67) rotate(-86.61)" style="fill:#4954b7;opacity:0.7000000000000001;mix-blend-mode:overlay"/><rect x="618.27" y="384.37" width="54.5" height="22.89" transform="translate(212.25 1016.82) rotate(-86.61)" style="fill:#f1f8fd"/><rect x="618.27" y="384.37" width="54.5" height="22.89" transform="translate(212.25 1016.82) rotate(-86.61)" style="fill:#4954b7;opacity:0.7000000000000001;mix-blend-mode:overlay"/><rect x="623.19" y="301.26" width="54.5" height="22.89" transform="translate(299.85 943.53) rotate(-86.61)" style="fill:#f1f8fd"/><rect x="623.19" y="301.26" width="54.5" height="22.89" transform="translate(299.85 943.53) rotate(-86.61)" style="fill:#4954b7;opacity:0.7000000000000001;mix-blend-mode:overlay"/><rect x="628.11" y="218.15" width="54.5" height="22.89" transform="translate(387.44 870.24) rotate(-86.61)" style="fill:#f1f8fd"/><rect x="628.11" y="218.15" width="54.5" height="22.89" transform="translate(387.44 870.24) rotate(-86.61)" style="fill:#4954b7;opacity:0.7000000000000001;mix-blend-mode:overlay"/><rect x="700.17" y="139.01" width="54.5" height="22.89" transform="translate(534.24 867.72) rotate(-86.61)" style="fill:#f1f8fd"/><rect x="700.17" y="139.01" width="54.5" height="22.89" transform="translate(534.24 867.72) rotate(-86.61)" style="fill:#4954b7;opacity:0.7000000000000001;mix-blend-mode:overlay"/><rect x="685.41" y="388.34" width="54.5" height="22.89" transform="translate(271.46 1087.58) rotate(-86.61)" style="fill:#f1f8fd"/><rect x="685.41" y="388.34" width="54.5" height="22.89" transform="translate(271.46 1087.58) rotate(-86.61)" style="fill:#4954b7;opacity:0.7000000000000001;mix-blend-mode:overlay"/><rect x="695.25" y="222.12" width="54.5" height="22.89" transform="translate(446.64 941) rotate(-86.61)" style="fill:#f1f8fd"/><rect x="695.25" y="222.12" width="54.5" height="22.89" transform="translate(446.64 941) rotate(-86.61)" style="fill:#4954b7;opacity:0.7000000000000001;mix-blend-mode:overlay"/><rect x="690.33" y="305.23" width="54.5" height="22.89" transform="translate(359.05 1014.29) rotate(-86.61)" style="fill:#f1f8fd"/><rect x="690.33" y="305.23" width="54.5" height="22.89" transform="translate(359.05 1014.29) rotate(-86.61)" style="fill:#4954b7;opacity:0.7000000000000001;mix-blend-mode:overlay"/><rect x="705.09" y="55.9" width="54.5" height="22.89" transform="translate(621.84 794.43) rotate(-86.61)" style="fill:#f1f8fd"/><rect x="705.09" y="55.9" width="54.5" height="22.89" transform="translate(621.84 794.43) rotate(-86.61)" style="fill:#4954b7;opacity:0.7000000000000001;mix-blend-mode:overlay"/><rect x="723.9" y="307.22" width="54.5" height="22.89" transform="translate(388.66 1049.68) rotate(-86.61)" style="fill:#f1f8fd"/><rect x="723.9" y="307.22" width="54.5" height="22.89" transform="translate(388.66 1049.68) rotate(-86.61)" style="fill:#4954b7;opacity:0.7000000000000001;mix-blend-mode:overlay"/><rect x="728.82" y="224.11" width="54.5" height="22.89" transform="translate(476.25 976.39) rotate(-86.61)" style="fill:#f1f8fd"/><rect x="728.82" y="224.11" width="54.5" height="22.89" transform="translate(476.25 976.39) rotate(-86.61)" style="fill:#4954b7;opacity:0.7000000000000001;mix-blend-mode:overlay"/><rect x="738.66" y="57.89" width="54.5" height="22.89" transform="translate(651.44 829.81) rotate(-86.61)" style="fill:#f1f8fd"/><rect x="738.66" y="57.89" width="54.5" height="22.89" transform="translate(651.44 829.81) rotate(-86.61)" style="fill:#4954b7;opacity:0.7000000000000001;mix-blend-mode:overlay"/><rect x="733.74" y="141" width="54.5" height="22.89" transform="translate(563.84 903.1) rotate(-86.61)" style="fill:#f1f8fd"/><rect x="733.74" y="141" width="54.5" height="22.89" transform="translate(563.84 903.1) rotate(-86.61)" style="fill:#4954b7;opacity:0.7000000000000001;mix-blend-mode:overlay"/><rect x="718.98" y="390.33" width="54.5" height="22.89" transform="translate(301.06 1122.96) rotate(-86.61)" style="fill:#f1f8fd"/><rect x="718.98" y="390.33" width="54.5" height="22.89" transform="translate(301.06 1122.96) rotate(-86.61)" style="fill:#4954b7;opacity:0.7000000000000001;mix-blend-mode:overlay"/><rect x="767.31" y="142.99" width="54.5" height="22.89" transform="translate(593.45 938.48) rotate(-86.61)" style="fill:#f1f8fd"/><rect x="767.31" y="142.99" width="54.5" height="22.89" transform="translate(593.45 938.48) rotate(-86.61)" style="fill:#4954b7;opacity:0.7000000000000001;mix-blend-mode:overlay"/><rect x="762.39" y="226.1" width="54.5" height="22.89" transform="translate(505.85 1011.77) rotate(-86.61)" style="fill:#f1f8fd"/><rect x="762.39" y="226.1" width="54.5" height="22.89" transform="translate(505.85 1011.77) rotate(-86.61)" style="fill:#4954b7;opacity:0.7000000000000001;mix-blend-mode:overlay"/><rect x="772.23" y="59.88" width="54.5" height="22.89" transform="translate(681.04 865.19) rotate(-86.61)" style="fill:#f1f8fd"/><rect x="772.23" y="59.88" width="54.5" height="22.89" transform="translate(681.04 865.19) rotate(-86.61)" style="fill:#4954b7;opacity:0.7000000000000001;mix-blend-mode:overlay"/><rect x="757.47" y="309.21" width="54.5" height="22.89" transform="translate(418.26 1085.06) rotate(-86.61)" style="fill:#f1f8fd"/><rect x="757.47" y="309.21" width="54.5" height="22.89" transform="translate(418.26 1085.06) rotate(-86.61)" style="fill:#4954b7;opacity:0.7000000000000001;mix-blend-mode:overlay"/><rect x="752.55" y="392.32" width="54.5" height="22.89" transform="translate(330.66 1158.35) rotate(-86.61)" style="fill:#f1f8fd"/><rect x="752.55" y="392.32" width="54.5" height="22.89" transform="translate(330.66 1158.35) rotate(-86.61)" style="fill:#4954b7;opacity:0.7000000000000001;mix-blend-mode:overlay"/><path d="M318.67,34.5,296,418.45,406.76,425,429.49,41.06Zm24.27,194.08-1.82,30.69-1.7,28.79-6.86,115.82-20.12-1.19,6.86-115.82,1.7-28.79,1.82-30.69,1-16.33,6-101,1-16.29,1.87-31.6,20.12,1.19L350.85,95l-1,16.29-6,101Zm33.16,2-1.81,30.68L372.58,290l-6.85,115.83-20.12-1.19,6.86-115.83,1.7-28.79L356,229.36,357,213l6-101,1-16.29,1.87-31.59,20.11,1.19L384,96.93l-1,16.29-6,101Zm40.12-115.36-6,101-1,16.34-1.82,30.69L405.75,292l-6.86,115.82-20.11-1.19,6.85-115.82L387.34,262l1.81-30.69,1-16.34,6-101,1-16.29,1.87-31.6,20.12,1.19-1.87,31.6Z" style="fill:#c9c5e7"/><path d="M318.67,34.5,296,418.45,406.76,425,429.49,41.06Zm24.27,194.08-1.82,30.69-1.7,28.79-6.86,115.82-20.12-1.19,6.86-115.82,1.7-28.79,1.82-30.69,1-16.33,6-101,1-16.29,1.87-31.6,20.12,1.19L350.85,95l-1,16.29-6,101Zm33.16,2-1.81,30.68L372.58,290l-6.85,115.83-20.12-1.19,6.86-115.83,1.7-28.79L356,229.36,357,213l6-101,1-16.29,1.87-31.59,20.11,1.19L384,96.93l-1,16.29-6,101Zm40.12-115.36-6,101-1,16.34-1.82,30.69L405.75,292l-6.86,115.82-20.11-1.19,6.85-115.82L387.34,262l1.81-30.69,1-16.34,6-101,1-16.29,1.87-31.6,20.12,1.19-1.87,31.6Z" style="fill:#4954b7;opacity:0.7000000000000001;mix-blend-mode:overlay"/><polygon points="406.76 425.01 517.58 431.57 406.76 425.01 406.76 425.01" style="fill:#8e97e1"/><polygon points="406.76 425.01 517.58 431.57 406.76 425.01 406.76 425.01" style="fill:#4954b7;opacity:0.7000000000000001;mix-blend-mode:overlay"/><path d="M406.76,425l110.82,6.56L540.31,47.62,429.49,41.06Zm81.9-187.8,1-16.34,6-101,1-16.29L498.44,72l20.11,1.19-1.87,31.6-1,16.29-6,101-1,16.34L507,269.09l-1.71,28.79L498.4,413.7l-20.12-1.19,6.86-115.82,1.7-28.79Zm-33.17-2,1-16.34,6-101,1-16.29L465.27,70l20.12,1.19-1.87,31.59-1,16.29-6,101-1,16.34-1.82,30.68-1.7,28.8-6.86,115.82-20.12-1.19L452,294.72l1.7-28.79ZM432.1,68.07l20.12,1.19-1.87,31.6-1,16.29-6,101-1,16.33-1.82,30.69L438.92,294l-6.86,115.82-20.12-1.19,6.86-115.82L420.51,264l1.81-30.69,1-16.33,6-101,1-16.29Z" style="fill:#8e97e1"/><path d="M406.76,425l110.82,6.56L540.31,47.62,429.49,41.06Zm81.9-187.8,1-16.34,6-101,1-16.29L498.44,72l20.11,1.19-1.87,31.6-1,16.29-6,101-1,16.34L507,269.09l-1.71,28.79L498.4,413.7l-20.12-1.19,6.86-115.82,1.7-28.79Zm-33.17-2,1-16.34,6-101,1-16.29L465.27,70l20.12,1.19-1.87,31.59-1,16.29-6,101-1,16.34-1.82,30.68-1.7,28.8-6.86,115.82-20.12-1.19L452,294.72l1.7-28.79ZM432.1,68.07l20.12,1.19-1.87,31.6-1,16.29-6,101-1,16.33-1.82,30.69L438.92,294l-6.86,115.82-20.12-1.19,6.86-115.82L420.51,264l1.81-30.69,1-16.33,6-101,1-16.29Z" style="fill:#4954b7;opacity:0.7000000000000001;mix-blend-mode:overlay"/><polygon points="350.85 94.97 352.72 63.37 332.6 62.18 330.73 93.78 329.76 110.07 323.79 211.06 322.82 227.39 321 258.08 319.3 286.87 312.44 402.69 332.56 403.88 339.42 288.06 341.12 259.27 342.94 228.58 343.9 212.25 349.88 111.26 350.85 94.97" style="fill:#f1f8fd"/><polygon points="350.85 94.97 352.72 63.37 332.6 62.18 330.73 93.78 329.76 110.07 323.79 211.06 322.82 227.39 321 258.08 319.3 286.87 312.44 402.69 332.56 403.88 339.42 288.06 341.12 259.27 342.94 228.58 343.9 212.25 349.88 111.26 350.85 94.97" style="fill:#4954b7;opacity:0.7000000000000001;mix-blend-mode:overlay"/><polygon points="384.01 96.93 385.88 65.34 365.77 64.15 363.9 95.74 362.93 112.03 356.95 213.02 355.99 229.36 354.17 260.04 352.47 288.83 345.61 404.66 365.73 405.85 372.58 290.02 374.29 261.23 376.1 230.55 377.07 214.21 383.05 113.22 384.01 96.93" style="fill:#f1f8fd"/><polygon points="384.01 96.93 385.88 65.34 365.77 64.15 363.9 95.74 362.93 112.03 356.95 213.02 355.99 229.36 354.17 260.04 352.47 288.83 345.61 404.66 365.73 405.85 372.58 290.02 374.29 261.23 376.1 230.55 377.07 214.21 383.05 113.22 384.01 96.93" style="fill:#4954b7;opacity:0.7000000000000001;mix-blend-mode:overlay"/><polygon points="398.93 66.11 397.06 97.71 396.1 114 390.12 214.98 389.15 231.32 387.34 262.01 385.63 290.8 378.78 406.62 398.89 407.81 405.75 291.99 407.45 263.2 409.27 232.51 410.24 216.17 416.22 115.19 417.18 98.9 419.05 67.3 398.93 66.11" style="fill:#f1f8fd"/><polygon points="398.93 66.11 397.06 97.71 396.1 114 390.12 214.98 389.15 231.32 387.34 262.01 385.63 290.8 378.78 406.62 398.89 407.81 405.75 291.99 407.45 263.2 409.27 232.51 410.24 216.17 416.22 115.19 417.18 98.9 419.05 67.3 398.93 66.11" style="fill:#4954b7;opacity:0.7000000000000001;mix-blend-mode:overlay"/><polygon points="423.29 216.95 422.32 233.28 420.51 263.97 418.8 292.76 411.94 408.58 432.06 409.77 438.92 293.95 440.62 265.16 442.44 234.47 443.41 218.14 449.38 117.15 450.35 100.86 452.22 69.26 432.1 68.07 430.23 99.67 429.27 115.96 423.29 216.95" style="fill:#f1f8fd"/><polygon points="423.29 216.95 422.32 233.28 420.51 263.97 418.8 292.76 411.94 408.58 432.06 409.77 438.92 293.95 440.62 265.16 442.44 234.47 443.41 218.14 449.38 117.15 450.35 100.86 452.22 69.26 432.1 68.07 430.23 99.67 429.27 115.96 423.29 216.95" style="fill:#4954b7;opacity:0.7000000000000001;mix-blend-mode:overlay"/><polygon points="445.11 410.55 465.23 411.74 472.08 295.92 473.79 267.12 475.61 236.44 476.57 220.1 482.55 119.11 483.52 102.83 485.39 71.23 465.27 70.04 463.4 101.63 462.44 117.92 456.46 218.91 455.49 235.25 453.67 265.93 451.97 294.72 445.11 410.55" style="fill:#f1f8fd"/><polygon points="445.11 410.55 465.23 411.74 472.08 295.92 473.79 267.12 475.61 236.44 476.57 220.1 482.55 119.11 483.52 102.83 485.39 71.23 465.27 70.04 463.4 101.63 462.44 117.92 456.46 218.91 455.49 235.25 453.67 265.93 451.97 294.72 445.11 410.55" style="fill:#4954b7;opacity:0.7000000000000001;mix-blend-mode:overlay"/><polygon points="478.28 412.51 498.4 413.7 505.25 297.88 506.96 269.09 508.77 238.4 509.74 222.06 515.72 121.08 516.68 104.79 518.55 73.19 498.44 72 496.57 103.6 495.6 119.89 489.62 220.87 488.66 237.21 486.84 267.9 485.14 296.69 478.28 412.51" style="fill:#f1f8fd"/><polygon points="478.28 412.51 498.4 413.7 505.25 297.88 506.96 269.09 508.77 238.4 509.74 222.06 515.72 121.08 516.68 104.79 518.55 73.19 498.44 72 496.57 103.6 495.6 119.89 489.62 220.87 488.66 237.21 486.84 267.9 485.14 296.69 478.28 412.51" style="fill:#4954b7;opacity:0.7000000000000001;mix-blend-mode:overlay"/><rect x="156.37" y="275.77" width="976.58" height="582.44" rx="61.26" transform="translate(-57.62 73.16) rotate(-6.22)" style="fill:url(#b508fa25-798a-4d5e-96e6-d6cb0059f5cd)"/><rect x="258.36" y="728.26" width="334.56" height="28.5" transform="translate(-77.92 50.47) rotate(-6.22)" style="fill:#d7f7ec"/><rect x="608.38" y="683.19" width="460.91" height="28.5" transform="translate(-70.61 94.96) rotate(-6.22)" style="fill:#d7f7ec"/><rect x="220.88" y="419.09" width="142.51" height="106.03" rx="15.01" transform="translate(-49.42 34.42) rotate(-6.22)" style="fill:url(#b6cbd300-9f1d-4bc7-8e14-635a732da5ec)"/><path d="M359.49,432.5l-.41-3.79-68.95,7.51-1.85-17-3.78.41,1.85,17-68.94,7.51.41,3.78,68.94-7.51,1.77,16.23-68.94,7.51.41,3.78,68.94-7.51,0,.14,2-.37c.69-.11,16.8-2.92,19.62,9.43a9.72,9.72,0,0,1-1.6,7.06c-2.55,3.7-7.7,6.05-15.29,7l-71.14,7.75.41,3.79,69.28-7.55,1.8,16.53-69.28,7.54.41,3.79L294.46,508l1.85,17,3.79-.41-1.86-17,68.61-7.48-.41-3.78-68.61,7.47L296,487.17c7.72-1.22,13.14-4,16.11-8.32a13.49,13.49,0,0,0,2.38-8.21l48.56-5.29-.41-3.79-48.91,5.33c-3.44-9.87-14.44-11.42-21.44-10.71L290.55,440Z" style="fill:#ebecec"/><rect x="235.73" y="579.64" width="170.92" height="55.98" transform="translate(-63.92 38.36) rotate(-6.22)" style="fill:#fff"/><rect x="449.28" y="556.37" width="170.92" height="55.98" transform="translate(-60.15 61.36) rotate(-6.22)" style="fill:#fff"/><rect x="662.84" y="533.1" width="170.92" height="55.98" transform="matrix(0.99, -0.11, 0.11, 0.99, -56.37, 84.35)" style="fill:#fff"/><rect x="876.4" y="509.83" width="170.92" height="55.98" transform="translate(-52.59 107.34) rotate(-6.22)" style="fill:#fff"/><path d="M1154.84,742.71,1105,285.49a61.25,61.25,0,0,0-67.53-54.26l-849,92.5a61.26,61.26,0,0,0-54.26,67.53L183.33,842.4l.67,6.09a61.26,61.26,0,0,0,67.53,54.26L376,889.19l724.63-79A61.25,61.25,0,0,0,1154.84,742.71Zm-111.2-242,6.06,55.66L879.78,574.91l-6.06-55.66ZM830.08,524l6.06,55.65L666.22,598.18l-6.06-55.66ZM616.52,547.28l6.06,55.65L452.66,621.45l-6.06-55.66ZM409,626.2,239.1,644.71,233,589.06,403,570.54ZM230.32,425.49l54-5.88h0l3.78-.41h0l54-5.89a15.06,15.06,0,0,1,16.55,13.3l8.23,75.56a15.06,15.06,0,0,1-13.3,16.55L241.81,530.9a15.07,15.07,0,0,1-16.56-13.3l-2.44-22.41h0l-.41-3.79h0l-2.56-23.46h0l-.41-3.78h0L217,442A15.07,15.07,0,0,1,230.32,425.49Zm30.41,349.34-3.08-28.33,332.58-36.32,3.09,28.33Zm350.4-38.26L608,708.24l458.2-49.92,3.08,28.33Z" style="fill:#4954b7;opacity:0.5;mix-blend-mode:overlay"/><path d="M1207.53,383.29c.43,1.54.89,3.1,1.4,4.71,0,.06.06.11.08.16.74,2.34,1.34,4.12,1.6,4.87l.14.4c-5.2,11.58-46.13,29.19-59.38,38.75-10.47,7.56-19.68,28.3-23.09,36.68a.91.91,0,0,1-1.75-.31,35.4,35.4,0,0,1,3.87-16.91c5.53-10.73,6.86-12.08,4-29-2.4-14.27,2.27-21,9.51-29.19,1.35-1.54.76-3.1,2.19-4.74,5.54-6.37,8.54-15.33,9-19.73h0c2.35-9,3.46-20.58,1.7-35.1-.06-.46-8.73-3-9.15-3.2-3.4-1.37,10.16-70.65,30.27-77.76,19-6.71,42.1,7.49,46.76,10.56a1.25,1.25,0,0,1,.48,1.5L1219,280.8a1.29,1.29,0,0,0,.07,1.07l9.71,17.46a1.26,1.26,0,0,0,1.06.65c3.56.08,18.93,1.24,8.35,15.26,0,0-5.51,8-20.72,3.1a1.25,1.25,0,0,0-1.32.34c-2.73,3-14.31,17.34-12.28,44.55h0C1203.21,367.18,1205.44,376.14,1207.53,383.29Z" style="fill:url(#aea8dafc-3a09-47c8-9772-e344fb857fec)"/><path d="M154.22,1106.87s6,9.72,1.91,13.69-33.24,7-48.29,4-20.66-5.47-20.66-9,.95-13.27,21.61-11.35,21.76,9.58,32.16,6.43S154.22,1106.87,154.22,1106.87Z" style="fill:url(#eccf391f-5c35-4cf7-bb0f-662cf9d8bfbf)"/><path d="M673.42,1101.34s1.86-.93,6.2,0,13.48,5.22,11.31,16.79c0,0-5.94,29.74-19.21,43.5,0,0-3.77,3.77-8,1.76,0,0-10.89-3.84.92-27.55C664.66,1135.84,674.31,1102,673.42,1101.34Z" style="fill:url(#b1a96c17-ef46-4de3-9d98-61a855b53cc2)"/><path d="M274.29,927.72s-5.62,47-58.51,108.48c0,0-45.67,40.85-61.55,74.2,0,0-18.42,11.75-53.68,3.17,0,0-7.34-3.21-1-6.51a13.74,13.74,0,0,1,7.23-1.36c6.38.42,24.47-2,45.82-36.27,26.68-42.88,53.36-144.2,53.36-144.2Z" style="fill:url(#ae7db809-2ecc-4980-867f-2a14ca17ae39)"/><path d="M532.93,927.72s62,104.76,139.47,171.34c0,0,15.78,10.35-4.93,43.9,0,0-4.92,5.1-4.63-2.23s1.18-23.63-16.42-37S443.66,943.17,443.66,943.17Z" style="fill:url(#f1ca9138-274c-4335-88ea-809597488e6c)"/><path d="M483.29,601.14s.94,28.48,15.21,64.36c5.95,15,5.62,38.45,3.22,60.78A342.06,342.06,0,0,0,516,865.92l21.24,67.29s-53.88,32.4-121.89,34.11S199,936.05,199,936.05s10.16-107.45,76.11-168.86,112-91.53,123.94-122.8l12.51-55.15Z" style="fill:url(#bf277c03-8c91-49c2-9bac-3a1440cd767e)"/><path d="M719.28,596.4s26.74,6.43,38.91,6,30.81-3.88,37.8,3.62-2.83,13.66-13,13.85-26-2.33-26.14-.64,20.06,3.49,17.47,7.25-14.5,7.24-23.94,2.07-37.28-21-40.91-22.27,4.92-9.92,4.92-9.92Z" style="fill:url(#b3ae15a5-bcd6-4c44-bb99-addd21ef7b5e)"/><path d="M230.37,618.08s.55,2.64-21.34,4.1-42.23,3-44.78,8.12,25.63,7.38,31.65,7.11c0,0,3.28.36-.55,3.56,0,0-6.48,2.09-7.39,5.38a5.09,5.09,0,0,0,1.92,5.29s6.93-5.75,12.13-5.93c0,0,11.49.82,19.42-6.3,0,0,9.39-9.11,12.49-10.48Z" style="fill:url(#b7f369cd-bd48-4247-9dfb-5c0821285708)"/><path d="M415.32,539.66s-36,52.13-80.82,72.91c0,0-33.05,18.26-101.58,18.8l-4-13.67s49-22.59,69.61-28.9c0,0,41.53-12.06,58.31-43.84s50-57.68,50-57.68Z" style="fill:#1a4a49"/><path d="M478.16,378.23l17.18,61-44.44-2.18,1-71.5S464.53,333.79,478.16,378.23Z" style="fill:url(#efbdb66e-9885-408a-9af9-38be4906ebda)"/><path d="M450.94,336.15s10.11-75.58-55-84.09c0,0-78.41-2.49-61.73,76.1,0,0,13.8,50-22.93,55.44,0,0,21,18.83,55.58-38.14,0,0,14.94-24,41.26-4.78C408.12,340.68,435.5,356,450.94,336.15Z" style="fill:url(#aff681a3-8aea-48f9-bb2e-56ae13e4e704)"/><ellipse cx="453.73" cy="337.77" rx="7.58" ry="6.28" transform="translate(-96.43 469.26) rotate(-50.11)" style="fill:#f5f5be"/><path d="M459.07,368.09c-2.54-14,0-29.48,22-32.85,0,0,34.65,12.34,22.55,60.29,0,0-4,11.39-35.85-3.56A89.13,89.13,0,0,1,462,378.92a5.85,5.85,0,0,1-1.83.31,5.62,5.62,0,0,1-1.09-11.14Z" style="fill:url(#b83cb88d-df45-48f5-8d95-4b4f210e58a0)"/><path d="M1207.82,703.66s3.25,22.7-16.45,53.51c0,0-4.86,28.27,0,40.54l-95.44,54-8.34-32.2,98.92-105.87Z" style="fill:#433252"/><path d="M1218.51,876.05l1.51-.38a163.59,163.59,0,0,1-.79-33.95c3.33-43.11,21-75.59,40.22-74,9.43.8,17.55,9.75,22.84,25.2,4.7,13.72,6.73,31.2,5.81,49.68l1.92-1.28c1.13-19.06-1-37.14-6.08-51.26-5.59-15.55-14.17-24.56-24.15-25.37-20.33-1.64-39,31.06-42.54,74.46A154.85,154.85,0,0,0,1218.51,876.05Z" style="fill:#a0b394"/><path d="M1220,871.18c.13.89.25,1.78.39,2.66l3.68-1a157.34,157.34,0,0,1-1.09-35.31c3-39.53,19.6-71.7,36.14-70.32,7.87.67,14.83,8.69,19.59,22.58,4.89,14.27,6.78,32.84,5.34,52.35l1.75-2.5c1.53-19.64-.47-38.34-5.64-52.7-5-14-12.39-22.06-20.71-22.73-17.5-1.39-35,31-38.23,70.8a150.9,150.9,0,0,0,1.16,35.55Z" style="fill:#dce1d9"/><path d="M1322.73,1044.58s5,23.84-24.18,24.8c-2.6-9.66-10.61-23-19.59-34.37l24.85-18.34Zm-128-227.24s-54.33,42.6-73.8,49.66c0,0,21.91,55,49.53,83.45l53.25-61.56S1200.79,838.52,1194.68,817.34Z" style="fill:url(#aab1d5a0-374e-4327-b73d-547f7403ee64)"/><polygon points="1175.66 886.5 1151.17 1097.41 1169.47 1107.9 1193.36 897.74 1175.66 886.5" style="fill:#957182"/><path d="M1313,832.05l-20.61-8.82c-25.68,29.25-68.49,47.93-116.68,63.27l17.7,11.24C1240.8,881.52,1283.08,861.43,1313,832.05Z" style="fill:#714158"/><path d="M1321,979.56l1.18,21.61c-36.44,34.52-92,70.43-152.75,106.73l23.89-210.16L1234,878.93Z" style="fill:#b8a0ac"/><path d="M1085.63,821.81,1005,780.87s-30.61,25.53-44.84,74.3c-2,6.88-26.06,95.62-35,149.12A159.45,159.45,0,0,1,909.83,1051c-5.33,10.39-12.69,23.79-22.64,40.28-2.05,3.39-5.23,5.77-8.57,7.92-4,2.56,19,27,32.91,10.24.58-.7,3-8.73,3.39-9.52,3-5.28,16.75-28.58,46.13-61.2,0,0,78.83-91.44,80.9-182C1042,856.69,1075.67,829.21,1085.63,821.81Z" style="fill:url(#a0f1aae5-39be-4ac8-a852-2a99866143c8)"/><path d="M1008.27,764.74l101.1,42c99-57.67,95.65-106.57,95.65-106.57l-137.42,1.19-11.51,12.3-.52.55Z" style="fill:url(#b6af498d-46fa-48c7-a842-fe81d0029181)"/><path d="M1207.82,811.61c-31.42,28.71-67,49.27-104.94,65.1l-17.25-33.59a666.23,666.23,0,0,0,109-61.59Z" style="fill:url(#ea5d1f5e-f39e-498e-a6b9-f70d36a7b65b)"/><path d="M1299.93,823.3c0-15.26-2.22-29.5-6.38-41.07-5.6-15.55-14.17-24.56-24.15-25.37-20.32-1.65-39,31.06-42.54,74.46a160,160,0,0,0,.33,30.08l3.88-1.39a155.68,155.68,0,0,1-.22-28.36c3.23-39.8,20.73-72.19,38.22-70.8,8.33.67,15.68,8.75,20.72,22.73,4.31,12,6.41,27,6.11,43Z" style="fill:#a0b394"/><path d="M1328.63,820.12l-17.76-7.6c-22.12,25.2-59,41.29-100.5,54.51l15.25,9.68C1266.48,862.74,1302.89,845.43,1328.63,820.12Z" style="fill:#1a4112"/><path d="M1328.63,820.12l8,145.67c-31.39,29.74-79.26,60.67-131.57,91.93l21-181C1262.12,865.41,1299,848.3,1328.63,820.12Z" style="fill:#adcda8"/><polygon points="1205.04 1057.72 1189.28 1048.7 1210.37 867.03 1226.05 876.71 1205.04 1057.72" style="fill:#768d71"/><path d="M1233.78,873.85a154.9,154.9,0,0,1-1.25-36.86c3.52-43.4,22.2-76.11,42.53-74.46,10,.81,18.56,9.82,24.16,25.37,5.08,14.11,7.21,32.19,6.08,51.26l-4.2,2.79c1.52-19.65-.48-38.34-5.65-52.7-5-14-12.39-22.06-20.71-22.74-17.49-1.38-35,31-38.22,70.8a150.89,150.89,0,0,0,1.15,35.55Z" style="fill:#dce1d9"/><path d="M1338.24,521.71s19.21,75.37-45.35,255a6.4,6.4,0,0,1-6.12,4.25c-6.75-.09-19.2-1.34-25.58-8.79,0,0,2.47-8.05-6.46-10.55,0,0,1.74-11.25,21-17.45,0,0,35.75-107.4-13.58-193.37Z" style="fill:url(#f16f110d-2a94-4c71-8df2-be93f243a16b)"/><path d="M1275.71,744.21l2.81-9.73.43.19c2.31,1.14,7.81,2.3,14.88,2.3a5.18,5.18,0,0,1,2.05.42c3.11-4.85,7.71-7.4,11-5.83a5.33,5.33,0,0,1,2.49,2.67l.29.11c3.79,1.81,4.44,8.37,1.44,14.66s-8.49,9.93-12.29,8.13a5.37,5.37,0,0,1-2.49-2.67l-.29-.11c-2.29-1.1-3.43-3.94-3.31-7.4C1285.93,746.85,1279.87,745.88,1275.71,744.21Z" style="fill:#00102c"/><ellipse cx="1304.25" cy="745.74" rx="8.6" ry="5.18" transform="translate(70.34 1602.86) rotate(-64.55)" style="fill:#fff"/><path d="M977.65,502.1l59.5,57.93s-81.42,75.25-221.55,58.59c0,0-8.41,5.35-15.69,6.43S768,618.7,768,618.7s-1.55-1.55,1.24-1.4,21.38,2,24.63-3.09c0,0-12.86-15.18-44.15-21.84,0,0,3.26-8.52,26-7,0,0,29.76,1.47,40.74,9.61C817.79,596,909.58,593.68,977.65,502.1Z" style="fill:url(#b1f4684b-9d05-428a-920d-0363f8b45bc9)"/><path d="M1183.41,256.16c2.45,4.21,10.43,9.1,34.85,7.67,0,0,6.74.48,2.57,6.74s-3,10.74-3,10.74,7.61,15.24.87,29.51c0,0,2.47,3.29,4.49.74a4.3,4.3,0,0,0,.48-.74c2.09-3.85,5.62-18.93,12-26.3,0,0,8.5-18.93-3-29.19,0,0-3.52-2.4-13.15,0,0,0,.65-4.17-5.77-4.65s-5.77-13.79-15.55-7.86-15.56.81-19.89,4.17-7,10.84-7,10.84a23.36,23.36,0,0,0,6-2.93A4.2,4.2,0,0,1,1183.41,256.16Z" style="fill:url(#b0fbedc5-6d33-4def-a751-b678a7d95e96)"/><path d="M1120.46,801.8l-29.73,24.11s-29.72-.23-101.35-44l24.11-26.45C1045.63,772.46,1081.49,787.82,1120.46,801.8Z" style="fill:url(#a1861431-0bef-48ed-8675-51a97f2c4c0e)"/><path d="M1068,779.89a.4.4,0,0,0,.25-.09c26.22-22.82,57.29-61.82,57.6-62.21a.38.38,0,0,0-.59-.47c-.31.39-31.33,39.34-57.51,62.11a.38.38,0,0,0,0,.53A.34.34,0,0,0,1068,779.89Z" style="fill:#fff"/><path d="M1145,811.48h.1a.38.38,0,0,0,.26-.47l-6.12-22a.37.37,0,0,0-.46-.26.38.38,0,0,0-.27.46l6.13,22A.38.38,0,0,0,1145,811.48Z" style="fill:#fff"/><path d="M498.86,335.43s1.89,14.18-18.17,12.92h0a9.4,9.4,0,0,0-8.55,5.78l-2.1,5a13.15,13.15,0,0,1-3.4,4.72,7.21,7.21,0,0,0-2.23,3.46,6.37,6.37,0,0,0,2.1,6.32l2.49,2.17s-5.14-.5-7.4-4.39a13.56,13.56,0,0,0-.91-1.37c-2-2.55-6.19-1-5.81,2.24a.22.22,0,0,0,0,.08,16.74,16.74,0,0,1-2.09-1.76c-11.2-10.8-8.44-29.43,5.19-36.93,7.95-4.38,19-7.08,31,.32C489,334,491,340.14,498.86,335.43Z" style="fill:url(#ed5d0fd7-4ae6-484b-8b27-b40e5fe85742)"/><path d="M1117.79,736.06a.38.38,0,0,1,0,.75c-22.08,0-41.65-9.13-53.55-23.1h1C1077,727.24,1096.18,736.06,1117.79,736.06Z" style="fill:#fff"/><path d="M1061,545.41l-17.5,21.42-71.06-64.74s37.14-66.31,83.56-79.88l22.77-3.32s13.15-10.61,36.82-19a172.93,172.93,0,0,1,27.24-7.23c-7.24,8.22-12.81,15.71-10.41,30,2.85,16.94,3.52,18.29-2,29a34.6,34.6,0,0,0-3.52,20.8s11.24-30.7,24.49-40.26,54.18-27.17,59.38-38.75l-.14-.4a223.55,223.55,0,0,1,33.54,9,275.34,275.34,0,0,1,47.11,21.93s42.64,46.94,50.52,101.41c0,0-14,32.25-82.42,35.12l-17.2-44.08s.72,20.07-15.77,44.08c0,0-19,31.53-16.12,86,0,0,9.67,45.75,1.79,59.79,0,0-29.74,11.16-80.27,9-34.4-1.46-56.18-1.6-66.57-1.54h-1c-4.21,0-6.27.1-6.27.1s-3.5,1.05-3.5-2.22c0-.81,1.49-3.07,3.84-6.38l.48-.67c7.3-10.2,21.72-29.32,26.69-46.81,0,0,6.22-17-3.78-50.19Z" style="fill:url(#afca1e97-ea41-4ab7-b34b-fe1bc38897be)"/><path d="M1055.57,714.22c11.29,16.49,32.62,27.63,57,27.63a.38.38,0,0,0,0-.75c-24.2,0-45.34-11.06-56.49-27.43Z" style="fill:#fff"/><path d="M719.28,596.4l-5.8,12.19s-21.45-7.08-33-7.82-58.5-10-76.09-24.19S552.22,520.39,529.82,512c0,0,.81,14.3-19.15,34.8,0,0-23.7,23.27-27.67,56.47l-75.79.83s-1.15-54.91-4.59-67.44c-2.41-8.77-11.42-24.45-12.42-42.19a42.63,42.63,0,0,1,11.87-31.59l15.16-16a38.52,38.52,0,0,1,27.93-12h63.32s47.16,4.83,89.19,73.47a176.37,176.37,0,0,0,42.12,47C660,571.07,688,588.79,719.28,596.4Z" style="fill:url(#a249ee8c-a723-487b-abdf-ba68cf26e9bf)"/><path d="M332.6,974.81h-.06a.5.5,0,0,1-.44-.55c.15-1.18,14.87-118.71,51.65-204.35s39.34-160.58,39.36-161.33a.5.5,0,0,1,1,0c0,.75-2.65,76-39.44,161.7S333.24,973.19,333.1,974.37A.51.51,0,0,1,332.6,974.81Z" style="fill:#00102c"/><path d="M409.61,948.55a.5.5,0,0,1-.5-.42c-3-20.21,10.55-149.2,24.71-221.15S447,609.05,447,608.6a.5.5,0,0,1,.49-.51.46.46,0,0,1,.51.48c0,.46,1,46.43-13.22,118.6C421,797.43,407.18,928.32,410.1,948a.51.51,0,0,1-.42.57Z" style="fill:#00102c"/><path d="M498.65,971.73a.51.51,0,0,1-.41-.21c-29-40.73-34.83-185.66-31.68-267.44,2.83-73.76,0-97.92,0-98.16a.5.5,0,0,1,1-.12c0,.24,2.85,24.45,0,98.32-3.15,81.65,2.63,226.29,31.5,266.82a.5.5,0,0,1-.12.7A.52.52,0,0,1,498.65,971.73Z" style="fill:#00102c"/><path d="M251.63,937.84a.5.5,0,0,1-.5-.5c0-.49.26-49,23-100.74S374.54,688.89,375.32,687.93a.5.5,0,0,1,.78.63c-.78,1-78.35,96.83-101,148.44s-22.93,99.86-22.93,100.34A.51.51,0,0,1,251.63,937.84Z" style="fill:#00102c"/><path d="M1115.58,399.87a47,47,0,0,1,4.42-3.59l33.29-28.36s2.13-1.73,1.84,1h0c-.08,7.61-9.86,22.93-11.21,24.47-7.24,8.22-11.91,14.92-9.51,29.19,2.85,16.94,1.52,18.29-4,29a35.48,35.48,0,0,0-3.87,17,.88.88,0,0,0,1.7.3c3.37-8.3,12.62-29.21,23.14-36.8,13.25-9.56,54.18-27.17,59.38-38.75l-.14-.4c-.26-.75-.86-2.53-1.6-4.87-.45-1.44-1-3.1-1.48-4.87-2.09-7.15-4.32-16.11-3.66-20.05h0c1-.29,23.47-6.12,40.24,38.75,1.56,4.18,3.08,8.81,4.52,13.93,0,0,7,10.4-22.4,21.31s-34.47,11.74-44.2,40.93c0,0-4.87-21,3.69-42.44,0,0-16.78-12.25-34.9,11.4,0,0-14,17.48-22.67,33.13a3.47,3.47,0,0,1-6.43-1A89.82,89.82,0,0,1,1125,434s1.34-12.08-13.92-5.2a24.26,24.26,0,0,0-12.42,16.44S1095.76,418,1115.58,399.87Z" style="fill:#fcfbfc"/><path d="M447.65,373.62a6.62,6.62,0,0,1,.94-3.28,7.87,7.87,0,0,1,2.47-2.5,6.38,6.38,0,0,1,3.28-1.16,2,2,0,0,1,1.9,1.23c.33.82-.66,2.35-.66,2.35-.14.29-.44.76-.66,1.14a10.52,10.52,0,0,0-.67,1.23,6,6,0,0,0-.55,2.63,5.24,5.24,0,0,0,.76,2.65,9.25,9.25,0,0,0,.87,1.27c.35.4.74.76,1.12,1.16l.09.09a.77.77,0,0,1-1,1.19c-.51-.33-1.06-.63-1.57-1a9.19,9.19,0,0,1-1.43-1.3,7.84,7.84,0,0,1-1.92-3.61,8.76,8.76,0,0,1-.16-2.84A3.3,3.3,0,0,0,450,374a6.79,6.79,0,0,0-.26,1.16c0,.41,0,.84-.06,1.27v.14a.77.77,0,0,1-1.52.15c-.12-.48-.27-1-.37-1.47A7,7,0,0,1,447.65,373.62Z" style="fill:url(#e659650c-e886-4c65-baec-daedc9f542bd)"/><path d="M1074.62,476.26s-19.79,55.77-12.46,80" style="fill:none;stroke:#00102c;stroke-linecap:round;stroke-linejoin:round"/><path d="M1213.86,651.35s11.41,34.72,0,65.63" style="fill:none;stroke:#00102c;stroke-linecap:round;stroke-linejoin:round"/><path d="M1213.15,361.11S1231.1,367,1236,380.9" style="fill:none;stroke:#00102c;stroke-linecap:round;stroke-linejoin:round"/><path d="M504.4,433s24.31-.64,43.31,16.58" style="fill:none;stroke:#00102c;stroke-linecap:round;stroke-linejoin:round"/><path d="M235.69,611.37s55.66-25.14,64-26.71" style="fill:none;stroke:#00102c;stroke-linecap:round;stroke-linejoin:round"/><path d="M911.71,1116.62a10.83,10.83,0,0,0-2.48,6.14l-.11,1.31c0,.66,0,1.24,0,1.66s0,.8,0,.8l.21,1.14a56,56,0,0,1,.36,15.24c0,.35-.08.7-.12,1l-.14,1-.15,1a41,41,0,0,1-1.18,5.36c-6.57,2.09-24.22,1.75-37.79,1.09l-2.18-.1c-8.62-.46-15.11-1-15.11-1q-4.08,0-7.89-.27l-1-.07a95.47,95.47,0,0,1-21.76-4.31c-19.44-6.54-30.55-17.55-30.55-17.55a8.48,8.48,0,0,1-2.62-4.12,6.16,6.16,0,0,1-.18-.83,10.56,10.56,0,0,1-.11-1.3,10.89,10.89,0,0,1,.19-2,19.47,19.47,0,0,1,4.26-8.16c3-1.23,11.13-.68,17.21,0l2,.21c3.07.36,5.23.68,5.23.68,1.29.1,2.62.14,4,.11l1.9-.07h.22c1.25-.07,2.52-.17,3.8-.33,1-.11,2-.25,3-.42l2.43-.44.17,0,2.35-.5q2.61-.58,5.18-1.3l.93-.27.19,0c1.07-.31,2.14-.64,3.19-1l.79-.25,1.73-.59.42-.14,4.47-1.68,1.58-.59,1.25-.52c.76-.31,1.49-.62,2.21-.94,1-.44,2-.89,2.92-1.33,5-2.32,8.59-4.46,10-5.72,4.61-4.1,9.06,2.58,9.06,2.58,12.13,18.28,28,11.76,31.07,9.54s6.49,0,6.49,0C918.2,1113.72,911.71,1116.62,911.71,1116.62Z" style="fill:#b26ce4"/><path d="M875.85,1143.42c11.59-15.39,26.3-16.37,33.51-15.75l-.21-1.14s0-.3,0-.8c-8-.49-23.67,1-35.64,17.58-11.52-.53-21.69-1.41-26.36-1.86a24.83,24.83,0,0,0-3-13c-3.67-6.75-10.07-11.71-16.38-15.22-1.28.16-2.55.26-3.8.33,6.92,3.41,14.47,8.56,18.42,15.84a22.91,22.91,0,0,1,2.79,11.84l-.71-.07c-32.18-3.47-48.49-14.3-55.27-20.33a10.89,10.89,0,0,0-.19,2,10.56,10.56,0,0,0,.11,1.3,6.16,6.16,0,0,0,.18.83c8.11,6.51,24.67,16,54.85,19.21l.77.08,2,.19c4.5.43,13.86,1.26,24.67,1.8l2.29.1c5.41.25,11.11.41,16.7.41a183.55,183.55,0,0,0,18.82-.83l.15-1,.14-1c0-.33.08-.68.12-1C900.07,1144,887.44,1143.9,875.85,1143.42Z" style="fill:#fff"/><path d="M852.85,1119.73a1,1,0,0,1-2,0c0-4.55-3.85-8.38-9.05-9.44l.19,0c1.07-.31,2.14-.64,3.19-1C849.73,1111.19,852.85,1115.16,852.85,1119.73Z" style="fill:#fff"/><path d="M862.82,1115.83a1,1,0,0,1-2,0c0-4.3-3.45-8-8.23-9.23l1.58-.59,1.25-.52C859.82,1107.46,862.82,1111.36,862.82,1115.83Z" style="fill:#fff"/><path d="M1348.35,1086.41l-34.65,30.52a36.17,36.17,0,0,1-8,5.33c-11.3,5.53-21.27,8.09-29.56,8.94l-1,.09c-14.82,1.32-24-2.81-25.6-4.59a5.25,5.25,0,0,1-1-2.71c0-.06,0-.14,0-.23l-.07-1.38c0-.18,0-.35,0-.51a30.12,30.12,0,0,1,1.14-6.65c3.12-3.11,7.4-2.81,14.06-4.32l1.28-.31a52.71,52.71,0,0,0,5.45-1.71,14.87,14.87,0,0,0,5-3.81l1-1.08c.89-1,1.8-2.15,2.71-3.39l.75-1c.84-1.17,1.67-2.42,2.51-3.73l.59-.94c.08-.13.16-.25.23-.39.39-.61.78-1.25,1.16-1.88.29-.48.57-1,.85-1.45l.53-.91c.85-1.48,1.68-3,2.48-4.45,0-.07.07-.14.11-.2l.6-1.12.29-.55c.57-1.09,1.13-2.16,1.66-3.2l.51-1c3.69-7.32,6.2-13.12,6.2-13.12,26.14,4.58,24.92-16.67,24.92-20.17a3.86,3.86,0,0,1,1.29-3,1.73,1.73,0,0,1,2.87.93,26.72,26.72,0,0,0,2.25,6.64c2.63,5.6,9.21,6.4,14,11.46l.68.79h0l.13.16.09.11.06.08h0a66.14,66.14,0,0,1,6.57,11c.08.16.15.29.22.45l0,0,.4,1h0s0,.1,0,.16l.05.12v0c0,.08,0,.14,0,.2A9.42,9.42,0,0,1,1348.35,1086.41Z" style="fill:#b26ce4"/><path d="M1342.41,1062.07c-7.57,6.52-19.83,19.14-20.73,37.67,13.64-10.58,23.48-19.18,28.7-25.06l.22.44,0,.06.4,1,0,0c0,.06,0,.11,0,.16l.05.13v0a1.46,1.46,0,0,1,0,.2c-6.74,7.38-18.69,17.2-29.54,25.58l-2,1.52c-3.47,2.66-6.78,5.14-9.71,7.31a77.63,77.63,0,0,1-19.25,10.43c-.68.25-1.37.49-2.06.72a72.76,72.76,0,0,1-18.49,3.64c-1.66.11-3.27.16-4.81.16a66.88,66.88,0,0,1-16.87-2.08l0-.23-.07-1.39c0-.17,0-.34,0-.51a66,66,0,0,0,21.65,2.05,70.75,70.75,0,0,0,17.33-3.33c-4.26-5.22-10.6-9.18-16.39-12h0l2-1.29,0,0c5.93,3,12.26,7.12,16.47,12.59a75.09,75.09,0,0,0,19.28-10.34q5.74-4.24,10.85-8.17c.21-20.06,13.22-33.64,21.28-40.61Z" style="fill:#fff"/><path d="M1294.6,1101.45a1,1,0,0,1-.82,1.17h-.17a1,1,0,0,1-1-.84c-.71-4.16-4.73-7.09-9.49-7.3.39-.61.78-1.25,1.16-1.88C1289.51,1093.22,1293.78,1096.68,1294.6,1101.45Z" style="fill:#fff"/><path d="M1298.9,1092.7a1,1,0,0,1-.81,1.16l-.17,0a1,1,0,0,1-1-.84c-.68-3.94-4.33-6.79-8.77-7.24,0-.07.07-.14.11-.2l.6-1.12.29-.55C1294.11,1084.71,1298.11,1088.1,1298.9,1092.7Z" style="fill:#fff"/><path d="M1351.11,1076.64a1.46,1.46,0,0,0,0-.2v0l0-.13s0-.1,0-.16h0l0,0-.4-1,0,0h0l0,0c-.06-.14-.13-.27-.2-.41a66.66,66.66,0,0,0-6.57-11h0l-.06-.07-.09-.12-.13-.15h0l-.68-.79c-.15-.15-.3-.28-.44-.43h0l-.15-.13c-.44-.42-.89-.82-1.35-1.19v0h0a47.77,47.77,0,0,0-5.69-3.66,36.85,36.85,0,0,0-4.22-9.48,150,150,0,0,1-10.45-19.26c-2.19-5-4.88-11.19-7.91-18.45,3.32-2.91,6.53-5.82,9.59-8.72L1321,979.49h0c5.55-4.61,10.76-9.2,15.58-13.77l-8-145.67-17.75-7.6c-1.79,2-3.68,4-5.65,5.93a115,115,0,0,0-6-30.55,62.17,62.17,0,0,0-5.9-12.34q3.32-9.25,6.33-18.14c3.73,1,8.68-2.57,11.47-8.42,3-6.29,2.35-12.85-1.44-14.66l-.3-.11a5.8,5.8,0,0,0-1.49-2C1345.09,613.39,1342,549.5,1339.42,529a23.57,23.57,0,0,0,2.28-3.79c-7.88-54.47-50.52-101.41-50.52-101.41-2.19-1.27-4.36-2.49-6.53-3.68-5.2-48.94-18.91-99-46.08-147.42.49-5.82-.48-12.62-6-17.48,0,0-1.51-1-5.19-1.06-23.44-36.55-55.08-71.89-97.15-104.75C1069.78,102.2,955.18,78,821,67.57l3.12-52.66L698.24,7.45,572.35,0l-3.67,61.88q-14.67.3-29.34.7l.89-15L429.42,41,318.6,34.43l-2.36,39.85c-22.33,1.67-44.05,3.42-65,5.21C98.58,92.58-14,228.11,1.42,380.58,22.57,589.42,71.73,844.4,185.85,858.34a61.1,61.1,0,0,0,21.84,32.14c-7,26.54-8.76,45.5-8.76,45.5l3.79.83c-7.86,27.85-29,98.56-50.15,132.55-15.61,25.08-29.47,33.09-38.3,35.43-1.68-.29-3.52-.53-5.55-.72-20.66-1.92-21.62,7.8-21.62,11.35s5.61,6,20.66,9,44.19,0,48.3-4c3.05-3,.51-9.06-1-12,16.64-33,60.63-72.35,60.63-72.35,30.82-35.81,45.59-66.72,52.55-86.28,20.39,3.74,43.26,7.61,65.69,10.76-1.26,8.4-1.88,13.33-1.91,13.57a.5.5,0,0,0,.44.55h.06a.5.5,0,0,0,.49-.44c0-.24.65-5.16,1.91-13.55,30,4.18,59.06,7,80.32,6.5a240.58,240.58,0,0,0,36.53-3.79c9.33,15.17,18.54,32.91,28.44,53.78,27.13,57.2,100.69,83.07,174.19,94.14,8.69,10.79,8.64,21.95,8.4,28.19-8.83,20.32.86,23.75.86,23.75,4.21,2,8-1.76,8-1.76,13.27-13.76,19.21-43.5,19.21-43.5a19.33,19.33,0,0,0,.29-2.27,852.77,852.77,0,0,0,98.5,2.88,13.59,13.59,0,0,0-.61,2.12,10.89,10.89,0,0,0-.19,2,10.56,10.56,0,0,0,.11,1.3,6.16,6.16,0,0,0,.18.83,8.48,8.48,0,0,0,2.62,4.12s11.11,11,30.55,17.55a95.47,95.47,0,0,0,21.76,4.31l1,.07q3.81.29,7.89.27s6.49.53,15.11,1l2.18.1c13.57.66,31.22,1,37.79-1.09a41,41,0,0,0,1.18-5.36q.07-.46.15-1l.14-1c0-.33.08-.68.12-1a56,56,0,0,0-.36-15.24l-.21-1.14s0-.3,0-.8,0-1,0-1.66l.11-1.31a10.83,10.83,0,0,1,2.48-6.14s6.49-2.9,5.47-7a6.34,6.34,0,0,0-5.45-.58c.32-.69.83-2.16,1.35-3.76,66-8.82,163.55-20.16,239.72-21.82l-1.62,13.95,18.29,10.49c13.14-7.85,26-15.69,38.54-23.49,26.85,1.91,46.83,6.31,55.43,14.26a62.33,62.33,0,0,0,10.43,7.87c-.3.27-.6.53-.9.76l-2,1.27h0c-.23.11-.45.21-.66.29a50.38,50.38,0,0,1-5.45,1.71l-1.28.31c-6.66,1.51-10.94,1.21-14.06,4.33a30,30,0,0,0-1.14,6.64h0c0,.17,0,.34,0,.51l.07,1.39s0,.08,0,.12,0,.08,0,.11a5.18,5.18,0,0,0,1,2.7c1.57,1.79,10.78,5.91,25.6,4.6l1-.1a87.82,87.82,0,0,0,29.56-8.93,36.21,36.21,0,0,0,8-5.34l34.65-30.51A9.42,9.42,0,0,0,1351.11,1076.64Zm-66.66-245.39a145,145,0,0,1-13.75,11.44c-3.74,2-7.62,3.91-11.6,5.76-4.52-19.37-8.27-39-10.79-58.3,3.77-7.88,8.17-14.18,12.88-18.31,0,.19-.07.29-.07.29,3.25,3.81,8.1,6,13,7.23a61.5,61.5,0,0,1,4.57,10.38C1282.63,801.34,1284.62,815.78,1284.45,831.25Zm-25.08-63.56.34,0c-4.46,3.51-8.62,8.63-12.3,15.07q-.35-3-.64-5.92a52.38,52.38,0,0,1,6.5-8.56A16.6,16.6,0,0,1,1259.37,767.69Zm26.84,61.85c.25-14.61-1.5-28.33-5.11-39.68.38,1,.76,2,1.11,3,3.41,10,5.41,21.89,5.9,34.74C1287.49,828.27,1286.85,828.91,1286.21,829.54Zm-26.91-65.38a11.62,11.62,0,0,0-1.18,0c.23-.16.45-.31.68-.45A5.64,5.64,0,0,1,1259.3,764.16Zm45.79,75,.1-.06-.12.09Zm-7.76-13.85h0l2.37-1.94C1298.91,824,1298.13,824.68,1297.33,825.32Zm-1.49-.64-3.57-1.52c-.7.79-1.42,1.58-2.15,2.37-.49-13.14-2.6-25.35-6.26-35.5a65.82,65.82,0,0,0-4.3-9.63,60.79,60.79,0,0,0,7.14.52,6.39,6.39,0,0,0,1.91-.27c.38.93.75,1.88,1.1,2.86C1293.86,795,1296,809.34,1295.84,824.68Zm-41.19-63.1h0a38.9,38.9,0,0,0-5.81,5.48,25.83,25.83,0,0,0-2.8,1.7c-2.46-30.48-1.27-59.46,5.53-84.35,7.94-29,17.38-64,24.55-102.7,21.81,62.72,8.6,128.55,2.31,152.75l-2.8,9.68h0C1256.4,750.34,1254.65,761.58,1254.65,761.58Zm50.57,77.5h0l.52-.36Zm-3.88-17.16-1.49,1.3a137.1,137.1,0,0,0-3.28-30.44A118.5,118.5,0,0,1,1301.34,821.92Z" style="fill:#0a174e;opacity:0.51;mix-blend-mode:overlay"/></g></g></g></svg>