<svg width="147" height="147" viewBox="0 0 147 147" fill="none" xmlns="http://www.w3.org/2000/svg">
<path d="M146.928 73.3567C146.928 92.3944 139.664 109.738 127.755 122.776C124.997 125.795 121.987 128.589 118.759 131.114C113.328 135.37 107.276 138.873 100.766 141.48C97.8565 142.644 94.8541 143.629 91.7692 144.417C85.9186 145.918 79.781 146.713 73.4605 146.713C67.2871 146.713 61.293 145.954 55.5644 144.518C52.4831 143.751 49.4807 142.788 46.5679 141.645C19.3023 130.928 0 104.394 0 73.3567C0 32.8422 32.8903 0 73.4641 0C114.038 0 146.928 32.8422 146.928 73.3567Z" fill="#BEE3F1"/>
<path d="M46.5751 114.172H55.5716V144.518C52.4903 143.751 49.4878 142.788 46.5751 141.645V114.172Z" fill="#6597B4"/>
<path d="M62.1683 103.093H39.9712V125.258H62.1683V103.093Z" fill="#6597B4"/>
<path d="M47.4862 103.093H39.9712V125.258H47.4862V103.093Z" fill="#674D80"/>
<path d="M38.7624 5.46235V43.706H27.8181V5.46235C27.8181 2.45 30.2717 0 33.292 0C33.9305 0 34.5439 0.111038 35.1143 0.315205C37.2379 1.06023 38.7624 3.08757 38.7624 5.46235Z" fill="#D2C5C2"/>
<path d="M74.3215 5.46235V43.706H63.3843V5.46235C63.3843 2.45 65.8308 0 68.8547 0C69.4932 0 70.1066 0.111038 70.677 0.311623C72.8005 1.06023 74.3215 3.08757 74.3215 5.46235Z" fill="#D2C5C2"/>
<path d="M38.7624 5.46235V43.706H31.4662V5.46235C31.4662 3.08399 32.9907 1.06023 35.1143 0.311621C37.2379 1.06023 38.7624 3.08757 38.7624 5.46235Z" fill="#EDE9E8"/>
<path d="M74.3215 5.46235V43.706H67.0289V5.46235C67.0289 3.08399 68.5534 1.06023 70.677 0.308041C72.8006 1.06023 74.3215 3.08757 74.3215 5.46235Z" fill="#EDE9E8"/>
<path d="M81.9799 41.3849V83.1675C81.9799 96.5995 71.0715 107.492 57.6198 107.492H44.5197C31.0644 107.492 20.1596 96.5995 20.1596 83.1675V41.3849H81.9799Z" fill="#674D80"/>
<path d="M81.9799 57.6896V83.1639C81.9799 96.5959 71.0715 107.488 57.6198 107.488H53.2722C39.817 107.488 28.9121 96.5959 28.9121 83.1639V57.6896H81.9799Z" fill="#6597B4"/>
<path d="M89.642 46.5751C89.642 50.3468 86.5822 53.4021 82.8014 53.4021H19.3381C17.4477 53.4021 15.7403 52.6392 14.5027 51.4034C13.2687 50.1677 12.5011 48.4591 12.5011 46.5751C12.5011 42.8069 15.5645 39.7444 19.3417 39.7444H82.805C84.6954 39.7444 86.4029 40.511 87.6404 41.7431C88.8744 42.9825 89.642 44.6874 89.642 46.5751Z" fill="#674D80"/>
<path d="M89.642 46.5751C89.642 50.3468 86.5822 53.4021 82.8014 53.4021H38.6727C36.7823 53.4021 35.0748 52.6392 33.8373 51.4034C32.5997 50.1677 31.8357 48.4591 31.8357 46.5751C31.8357 42.8069 34.8991 39.7444 38.6763 39.7444H82.8086C84.699 39.7444 86.4065 40.511 87.644 41.7431C88.8744 42.9825 89.642 44.6874 89.642 46.5751Z" fill="#6597B4"/>
<path d="M43.7198 63.152H60.0519L50.5783 77.5045H59.399L44.4013 99.576L46.9876 82.0714H42.0876L43.7198 63.152Z" fill="#FFD861"/>
<path d="M127.755 72.121V122.776C124.997 125.795 121.987 128.589 118.759 131.114V72.121C118.759 67.1708 114.723 63.1412 109.762 63.1412C104.801 63.1412 100.766 67.1708 100.766 72.121V141.48C97.8565 142.644 94.8541 143.629 91.7692 144.417V72.121C91.7692 62.2171 99.8402 54.1579 109.762 54.1579C119.684 54.1579 127.755 62.2171 127.755 72.121Z" fill="#6597B4"/>
</svg>
