<svg xmlns="http://www.w3.org/2000/svg" viewBox="0 0 403.64 89.25"><title>footerbrand</title><g style="isolation:isolate"><g id="f30b2e12-deb0-48d0-a239-8fe851c29775" data-name="Layer 2"><g id="fc45f61d-0b5c-41e9-9a5c-c9b3a1957b72" data-name="Layer 1"><path d="M85,0H44.63A44.61,44.61,0,0,0,13.07,76.18a44.59,44.59,0,0,0,63.11,0A44.5,44.5,0,0,0,89.25,44.63V4.23A4.23,4.23,0,0,0,85,0ZM80.79,44.63A36.17,36.17,0,1,1,44.63,8.46H80.79V44.63Z" style="fill:#fff"/><path d="M107.71,50.63a19.58,19.58,0,0,1,1.25-7,14.39,14.39,0,0,1,3.79-5.63,16.26,16.26,0,0,1,5.18-3.28,15.91,15.91,0,0,1,6-1.18A21,21,0,0,1,131.54,35q3.63,1.41,3.63,4.69a5.09,5.09,0,0,1-1.09,3.21,3.53,3.53,0,0,1-2.91,1.38,10.93,10.93,0,0,1-3.27-1,11.75,11.75,0,0,0-3.68-.72,6.52,6.52,0,0,0-4.72,2.1,8.83,8.83,0,0,0-2.16,6.23,9.87,9.87,0,0,0,.88,4.24,6.73,6.73,0,0,0,2.58,2.95,7.48,7.48,0,0,0,4.08,1.07,8.37,8.37,0,0,0,3.6-.93,7.38,7.38,0,0,1,2.62-.78A4.15,4.15,0,0,1,134,58.55a3.6,3.6,0,0,1,1.19,2.76,4.83,4.83,0,0,1-1.86,3.88,11.89,11.89,0,0,1-4.43,2.24,18.24,18.24,0,0,1-4.72.7,15.73,15.73,0,0,1-12.12-5Q107.71,58.38,107.71,50.63Z" style="fill:#fff"/><path d="M170.82,44.32a15.44,15.44,0,0,0-3.2-5.49A15.93,15.93,0,0,0,162.24,35a15.47,15.47,0,0,0-12.84,0A16.22,16.22,0,0,0,144,38.83a15.44,15.44,0,0,0-3.24,5.5,20.12,20.12,0,0,0-1.08,6.57q0,7.4,4.32,12a16.23,16.23,0,0,0,11.87,5.25,15.58,15.58,0,0,0,6.39-1.4,15.57,15.57,0,0,0,8.54-9.34,20,20,0,0,0,1.05-6.49A20.39,20.39,0,0,0,170.82,44.32Zm-9.2,10.48a7.94,7.94,0,0,1-2.36,3.14,5.72,5.72,0,0,1-3.64,1.21,5.23,5.23,0,0,1-3.47-1.23,7.72,7.72,0,0,1-2.21-3.15,10.85,10.85,0,0,1-.74-3.88,10.25,10.25,0,0,1,1.7-5.74,5.36,5.36,0,0,1,4.72-2.59,5.73,5.73,0,0,1,3.64,1.22,7.6,7.6,0,0,1,2.36,3.16,10.19,10.19,0,0,1,.81,4A10,10,0,0,1,161.62,54.8Z" style="fill:#fff"/><path d="M185.71,37a12.29,12.29,0,0,1,8.59-3.34,12.42,12.42,0,0,1,6.42,1.58,8.29,8.29,0,0,1,2.69,2.62,21.36,21.36,0,0,1,5-3.15,13.2,13.2,0,0,1,5.33-1.05,11.76,11.76,0,0,1,5.72,1.44,10.84,10.84,0,0,1,5.68,9.65V62.56a5.91,5.91,0,0,1-1.25,3.86,4.35,4.35,0,0,1-3.53,1.52,4.59,4.59,0,0,1-2.58-.73,4.72,4.72,0,0,1-1.65-2,6.48,6.48,0,0,1-.56-2.69V46.88a4.79,4.79,0,0,0-1.42-3.61,5.1,5.1,0,0,0-3.68-1.36,4.73,4.73,0,0,0-3.53,1.44,4.89,4.89,0,0,0-1.4,3.53V62.56a5.76,5.76,0,0,1-1.28,3.85,4.32,4.32,0,0,1-3.5,1.53,4.4,4.4,0,0,1-3.54-1.56,5.77,5.77,0,0,1-1.31-3.82V47.86a7.1,7.1,0,0,0-1.22-4.29,4.36,4.36,0,0,0-3.76-1.66,4.92,4.92,0,0,0-5,5V62.56a5.75,5.75,0,0,1-1.29,3.84,4.37,4.37,0,0,1-3.56,1.54,4.31,4.31,0,0,1-3.49-1.56,5.79,5.79,0,0,1-1.29-3.82V39.36a6.23,6.23,0,0,1,1.18-3.78,4.07,4.07,0,0,1,3.26-1.72Q183.52,33.86,185.71,37Z" style="fill:#fff"/><path d="M260.3,43.2a16.74,16.74,0,0,0-3.89-5.87,13.44,13.44,0,0,0-9.63-3.68,10.43,10.43,0,0,0-7.94,3.86A7.37,7.37,0,0,0,237,34.78a4.19,4.19,0,0,0-2.88-.92,3.9,3.9,0,0,0-3.43,1.65,6.9,6.9,0,0,0-1.14,4V75.67a5.78,5.78,0,0,0,1.29,3.81A4.31,4.31,0,0,0,234.33,81a4.4,4.4,0,0,0,3.56-1.53,5.79,5.79,0,0,0,1.29-3.84V65.31a12.22,12.22,0,0,0,7.53,2.82,13.15,13.15,0,0,0,8.08-2.54,15.7,15.7,0,0,0,5.14-6.66,22.39,22.39,0,0,0,1.73-8.75A18.61,18.61,0,0,0,260.3,43.2Zm-9,11.57A7.87,7.87,0,0,1,249.11,58a5,5,0,0,1-3.38,1.26A6,6,0,0,1,242,58a7.26,7.26,0,0,1-2.35-3.11,10.53,10.53,0,0,1,0-8A7.38,7.38,0,0,1,242,43.75a6,6,0,0,1,3.74-1.19,5,5,0,0,1,3.38,1.25,7.77,7.77,0,0,1,2.18,3.2,10.54,10.54,0,0,1,0,7.76Z" style="fill:#fff"/><path d="M297.48,35.28A4.74,4.74,0,0,0,294,33.86c-2.12,0-3.67,1.17-4.65,3.53a14.12,14.12,0,0,0-3.83-2.91,10.19,10.19,0,0,0-4.49-.89,13.68,13.68,0,0,0-9.91,4.4q-5,4.93-5,12.84,0,8.56,5.7,13.64a14,14,0,0,0,9.44,3.66,9.84,9.84,0,0,0,4.49-.94,11.73,11.73,0,0,0,3.57-3.06q1.35,3.81,4.66,3.81a4.42,4.42,0,0,0,3.62-1.67,6.21,6.21,0,0,0,1.36-4V38.77A4.75,4.75,0,0,0,297.48,35.28ZM288.19,55a7.13,7.13,0,0,1-2.41,3,6.28,6.28,0,0,1-3.72,1.13,5.24,5.24,0,0,1-4.76-2.54,10.93,10.93,0,0,1-1.59-5.93,9.85,9.85,0,0,1,1.68-5.61,5.34,5.34,0,0,1,4.67-2.51A6,6,0,0,1,287.31,45,10.45,10.45,0,0,1,289,51.15,9.44,9.44,0,0,1,288.19,55Z" style="fill:#fff"/><path d="M313,37.27q3.47-3.62,6.48-3.62A5.15,5.15,0,0,1,323.05,35a4.27,4.27,0,0,1,1.49,3.33,3.5,3.5,0,0,1-1.21,3A12.76,12.76,0,0,1,319.61,43a17.31,17.31,0,0,0-5.1,2.43A4.69,4.69,0,0,0,313,49.39V62.56a5.75,5.75,0,0,1-1.29,3.84,4.36,4.36,0,0,1-3.56,1.54,4.28,4.28,0,0,1-3.48-1.56,5.74,5.74,0,0,1-1.3-3.82V39.36a5.53,5.53,0,0,1,1.17-3.87A4.47,4.47,0,0,1,308,33.86,5.25,5.25,0,0,1,313,37.27Z" style="fill:#fff"/><path d="M358.41,35.28a4.75,4.75,0,0,0-3.49-1.42c-2.13,0-3.68,1.17-4.66,3.53a14.24,14.24,0,0,0-3.82-2.91,10.26,10.26,0,0,0-4.5-.89A13.64,13.64,0,0,0,332,38q-5,4.93-5,12.84,0,8.56,5.69,13.64a14,14,0,0,0,9.44,3.66,9.84,9.84,0,0,0,4.49-.94,11.87,11.87,0,0,0,3.58-3.06c.89,2.54,2.45,3.81,4.65,3.81a4.44,4.44,0,0,0,3.63-1.67,6.25,6.25,0,0,0,1.35-4V38.77A4.78,4.78,0,0,0,358.41,35.28ZM349.12,55a7.23,7.23,0,0,1-2.42,3A6.28,6.28,0,0,1,343,59.15a5.24,5.24,0,0,1-4.76-2.54,10.93,10.93,0,0,1-1.59-5.93,9.78,9.78,0,0,1,1.69-5.61A5.32,5.32,0,0,1,343,42.56,6,6,0,0,1,348.23,45a10.45,10.45,0,0,1,1.71,6.16A9.43,9.43,0,0,1,349.12,55Z" style="fill:#fff"/><path d="M371.78,47.86h11.79V36.37a2.78,2.78,0,0,1,2.78-2.78h0a2.78,2.78,0,0,1,2.79,2.78V47.86H401a2.65,2.65,0,0,1,2.64,2.65h0A2.64,2.64,0,0,1,401,53.15H389.14V64.71a2.79,2.79,0,0,1-2.79,2.79h0a2.79,2.79,0,0,1-2.78-2.79V53.15H371.78a2.64,2.64,0,0,1-2.64-2.64h0A2.65,2.65,0,0,1,371.78,47.86Z" style="fill:#fff"/><path d="M94.52,32,60.09,66.41a10.91,10.91,0,0,1-15.42,0L41.33,63a10.91,10.91,0,0,0,15.42,0L91.17,28.57a10.92,10.92,0,0,0,1.58-13.44,11.39,11.39,0,0,1,1.77,1.44A10.9,10.9,0,0,1,94.52,32Z" style="fill:#231f20;opacity:0.5;mix-blend-mode:multiply"/><path d="M91.91,14.11a10.9,10.9,0,0,0-15.42,0l-23,23c-.49.5-.51.44-.51.44a15.11,15.11,0,0,0-13.37-8.26h0v0h-.1A15.12,15.12,0,0,0,26.9,36.08,10.35,10.35,0,0,0,26,37.69c-.21.43-.41.87-.59,1.32l.16-.26A10.89,10.89,0,0,0,28.13,50L42.07,64a10.91,10.91,0,0,0,15.42,0L91.91,29.53A10.9,10.9,0,0,0,91.91,14.11Z" style="fill:#fff"/></g></g></g></svg>