<svg width="98" height="88" viewBox="0 0 98 88" fill="none" xmlns="http://www.w3.org/2000/svg">
<path fill-rule="evenodd" clip-rule="evenodd" d="M70.6983 11.3992C67.2409 7.97352 63.6642 5.25662 59.9684 3.24847C55.9744 1.06314 52.3978 0 49.1788 0C45.9002 0 42.3236 1.06314 38.3297 3.24847C34.6338 5.31568 31.0572 8.03259 27.5997 11.3992C24.1423 14.8248 21.4002 18.3686 19.3735 22.0305C17.1679 25.9878 16.0949 29.5906 16.0949 32.78C16.0949 35.9695 17.1679 39.5723 19.3735 43.5295C21.4598 47.1914 24.2019 50.7352 27.5997 54.1609C31.0572 57.5866 34.6338 60.3035 38.3297 62.3116C42.3236 64.4969 45.9598 65.5601 49.1192 65.5601C52.3382 65.501 55.9744 64.4379 59.9088 62.3116C63.6642 60.3035 67.2409 57.5275 70.6983 54.1609C74.1557 50.7352 76.8978 47.1914 78.9246 43.5295C81.1302 39.5723 82.2032 35.9694 82.2032 32.8391C82.1435 29.6497 81.0706 26.0468 78.9246 22.1487C76.8978 18.3686 74.1557 14.8248 70.6983 11.3992Z" fill="#FAA61A"/>
<path fill-rule="evenodd" clip-rule="evenodd" d="M54.9015 25.279C54.7226 25.1018 54.5438 25.0427 54.3054 25.0427C54.1265 25.0427 53.9477 25.1018 53.7689 25.279L50.848 28.2321C50.6691 28.3503 50.6095 28.5865 50.6095 28.7637C50.6095 29 50.6691 29.1772 50.848 29.3543C50.9672 29.4725 51.2056 29.5315 51.3844 29.5315C51.6229 29.5315 51.8017 29.4725 51.9806 29.3543L52.8151 28.5275L53.1728 28.8818C54.3054 29.945 54.8419 31.3034 54.8419 32.78C54.8419 34.3156 54.3054 35.6741 53.1728 36.7372C52.0402 37.8004 50.6691 38.391 49.1192 38.391C47.5694 38.391 46.2579 37.8594 45.1253 36.7963C44.0523 35.6741 43.5158 34.3747 43.5158 32.8391C43.5158 31.3034 44.0523 30.004 45.1253 28.9409L58.2397 15.947L68.1351 25.7515C70.1022 27.7006 71.1156 30.0631 71.1156 32.8391C71.1156 35.615 70.1022 38.0366 68.1351 39.9857L56.3321 51.5621C54.365 53.5112 51.9806 54.5152 49.1192 54.5152C46.3175 54.5152 43.9331 53.5112 41.9063 51.5621L30.163 39.8676C28.1959 37.9185 27.1825 35.556 27.1825 32.7209C27.1825 29.945 28.1959 27.5824 30.163 25.6334L42.7409 13.2301L46.0791 16.5376C46.9136 17.3645 47.3309 18.3686 47.3309 19.5499C47.3309 20.7311 46.9136 21.7352 46.0791 22.5621L42.4428 26.1649C40.5949 27.9959 39.7007 30.1812 39.7007 32.78C39.7007 35.3788 40.5949 37.5641 42.4428 39.3951C44.2908 41.226 46.4964 42.171 49.1192 42.171C51.6825 42.171 53.9477 41.226 55.7956 39.3951C57.6436 37.5641 58.5973 35.3788 58.5973 32.78C58.5973 30.2403 57.7032 27.9959 55.7956 26.1649L54.9015 25.279Z" fill="white"/>
<path fill-rule="evenodd" clip-rule="evenodd" d="M21.3406 70.6985H23.7847V83.1609H21.3406V70.6985Z" fill="black"/>
<path fill-rule="evenodd" clip-rule="evenodd" d="M34.9915 78.6131C34.9915 81.5071 33.0839 83.279 30.2822 83.279C29.6861 83.279 29.0304 83.22 28.6727 83.1018V86.7047H26.2287V74.7149C27.0632 74.3605 28.2555 74.0652 29.9842 74.0652C33.0839 74.1242 34.9915 75.778 34.9915 78.6131ZM32.5474 78.6721C32.5474 76.5458 31.8321 75.3055 29.8649 75.3055C29.3285 75.3055 28.9708 75.3646 28.6131 75.4827V81.9206C28.9112 82.0387 29.2688 82.0978 29.6861 82.0978C31.5937 82.0978 32.5474 80.8574 32.5474 78.6721Z" fill="black"/>
<path fill-rule="evenodd" clip-rule="evenodd" d="M8.70317 83.279C8.70317 85.6415 6.97445 86.8819 4.29197 86.8819C3.15937 86.8819 2.08638 86.7637 1.31144 86.5275V84.9918C1.90754 85.2871 2.86131 85.4643 3.8747 85.4643C5.66302 85.4643 6.37835 84.6374 6.37835 83.4562V82.8656C5.96107 83.0427 5.30535 83.2199 4.35158 83.2199C1.78832 83.2199 0 81.5662 0 78.9083C0 76.0142 1.72871 74.1242 5.24574 74.1242C6.79562 74.1242 8.04745 74.4195 8.76278 74.7739V83.279H8.70317ZM6.37835 81.8024V75.4827C6.08029 75.3055 5.66302 75.3055 5.12652 75.3055C3.21898 75.3055 2.44404 76.6049 2.44404 78.8493C2.44404 81.0346 3.21898 82.0977 5.0073 82.0977C5.5438 82.0977 6.02068 81.9796 6.37835 81.8024Z" fill="black"/>
<path fill-rule="evenodd" clip-rule="evenodd" d="M18.8966 82.6884C18.0621 83.0428 16.691 83.3381 15.0219 83.3381C12.101 83.3381 10.6107 82.334 10.6107 80.6212C10.6107 78.2587 13.3528 77.609 16.6314 77.3137V76.8412C16.6314 75.6599 15.7372 75.3646 14.4854 75.3646C13.472 75.3646 12.4586 75.6008 11.8029 75.8961V74.5377C12.5183 74.3014 13.6509 74.0652 14.9623 74.0652C17.1679 74.0652 18.9562 74.833 18.9562 77.1365V82.6884H18.8966ZM16.6314 81.9796V78.3177C14.3066 78.554 12.9355 78.9674 12.9355 80.5621C12.9355 81.7434 13.7701 82.2159 15.2007 82.2159C15.7372 82.2159 16.2737 82.0978 16.6314 81.9796Z" fill="black"/>
<path fill-rule="evenodd" clip-rule="evenodd" d="M49.1192 78.3768L42.2044 79.2037C42.3832 81.5662 43.6946 82.7475 45.8406 82.7475C46.7944 82.7475 47.5693 82.5703 48.1058 82.3931V83.1609C47.5097 83.3381 46.7348 83.4563 45.8406 83.4563C43.2177 83.4563 41.191 82.1569 41.191 78.7903C41.191 75.6599 43.0389 74.1833 45.2445 74.1833C47.6289 74.1833 49.1192 75.4237 49.1192 78.3768ZM48.1058 77.9043C48.1058 75.6599 47.0328 74.833 45.3041 74.833C43.5754 74.833 42.264 75.8962 42.264 78.6131L48.1058 77.9043Z" fill="black"/>
<path fill-rule="evenodd" clip-rule="evenodd" d="M58.5377 83.2791H57.4647V76.7821C57.4647 75.8371 57.0474 74.774 54.9015 74.774C53.7092 74.774 53.1727 74.8921 52.517 75.1284V83.2791H51.444V74.833C52.3382 74.4196 53.4708 74.1833 55.0803 74.1833C57.882 74.1833 58.5973 75.6599 58.5973 76.7231V83.2791H58.5377Z" fill="black"/>
<path fill-rule="evenodd" clip-rule="evenodd" d="M68.91 78.3768L61.9952 79.2037C62.174 81.5662 63.4854 82.7475 65.6314 82.7475C66.5852 82.7475 67.3601 82.5703 67.8966 82.3931V83.1609C67.3005 83.3381 66.5256 83.4563 65.6314 83.4563C63.0085 83.4563 61.0414 82.1569 61.0414 78.7903C61.0414 75.6599 62.8893 74.1833 65.0949 74.1833C67.3601 74.1833 68.91 75.4237 68.91 78.3768ZM67.837 77.9043C67.837 75.6599 66.764 74.833 65.0353 74.833C63.3066 74.833 61.9952 75.8962 61.9952 78.6131L67.837 77.9043Z" fill="black"/>
<path fill-rule="evenodd" clip-rule="evenodd" d="M75.2883 74.9512C74.3345 74.7149 73.2019 74.833 72.6058 75.1874V83.2791H71.5328V74.833C72.4866 74.4196 73.1423 74.2424 75.2883 74.1833V74.9512Z" fill="black"/>
<path fill-rule="evenodd" clip-rule="evenodd" d="M77.6131 86.5866V85.7597C78.1496 85.9959 79.0438 86.2913 79.9976 86.2913C82.1435 86.2913 82.9781 85.11 82.9781 83.6334V82.9247C82.5012 83.1609 81.6667 83.3972 80.7129 83.3972C78.1496 83.3972 76.5998 81.6843 76.5998 78.9674C76.5998 76.1915 78.1496 74.2424 81.1898 74.2424C82.5608 74.2424 83.5146 74.5377 84.0511 74.833V83.5744C84.0511 85.7006 82.68 87.0591 80.236 87.0591C79.163 87 78.2689 86.8228 77.6131 86.5866ZM82.9781 82.3931V75.0693C82.5012 74.833 81.9051 74.7739 81.1302 74.7739C78.6861 74.7739 77.6131 76.4868 77.6131 78.9674C77.6131 81.389 78.6265 82.8065 80.9513 82.8065C81.7859 82.8065 82.5012 82.6293 82.9781 82.3931Z" fill="black"/>
<path fill-rule="evenodd" clip-rule="evenodd" d="M88.5219 71.8798C88.5219 72.2342 88.2239 72.4704 87.8066 72.4704C87.3893 72.4704 87.0912 72.2342 87.0912 71.8798C87.0912 71.5254 87.3893 71.2892 87.8066 71.2892C88.1642 71.2892 88.5219 71.5254 88.5219 71.8798ZM87.2105 74.3605H88.2835V83.279H87.2105V74.3605Z" fill="black"/>
<path fill-rule="evenodd" clip-rule="evenodd" d="M98 82.8065C97.2251 83.1609 96.0925 83.4562 94.7214 83.4562C92.0985 83.4562 90.9659 82.3931 90.9659 80.9165C90.9659 78.554 93.5888 77.7862 96.9866 77.5499V76.9593C96.9866 75.3646 95.854 74.8921 94.3638 74.8921C93.41 74.8921 92.5754 75.1283 92.0389 75.4236V74.7149C92.635 74.4786 93.5292 74.2424 94.483 74.2424C96.2713 74.2424 98 74.8921 98 76.9593V82.8065V82.8065ZM96.9866 82.5112V78.0224C93.8273 78.3768 92.0389 78.9084 92.0389 80.8574C92.0389 82.2749 93.1119 82.8656 94.9002 82.8656C95.6752 82.8656 96.4501 82.7475 96.9866 82.5112Z" fill="black"/>
</svg>
