<svg width="30" height="30" viewBox="0 0 30 30" fill="none" xmlns="http://www.w3.org/2000/svg">
<path d="M20.7468 0.194824H9.64286C4.53045 0.194824 0.389618 4.33565 0.389618 9.44807V20.552C0.389618 25.6644 4.53045 29.8052 9.64286 29.8052H20.7468C25.8592 29.8052 30 25.6644 30 20.552V9.44807C30 4.33565 25.8592 0.194824 20.7468 0.194824ZM27.224 20.552C27.224 24.126 24.3208 27.0292 20.7468 27.0292H9.64286C6.0688 27.0292 3.16559 24.126 3.16559 20.552V9.44807C3.16559 5.874 6.0688 2.9708 9.64286 2.9708H20.7468C24.3208 2.9708 27.224 5.874 27.224 9.44807V20.552ZM15.1948 7.59742C11.106 7.59742 7.79222 10.9112 7.79222 15C7.79222 19.0888 11.106 22.4026 15.1948 22.4026C19.2836 22.4026 22.5974 19.0888 22.5974 15C22.5974 10.9112 19.2836 7.59742 15.1948 7.59742ZM15.1948 19.6266C12.6444 19.6266 10.5682 17.5504 10.5682 15C10.5682 12.4496 12.6444 10.3734 15.1948 10.3734C17.7452 10.3734 19.8214 12.4496 19.8214 15C19.8214 17.5504 17.7452 19.6266 15.1948 19.6266ZM23.1526 6.05329C23.6962 6.05329 24.1415 6.49282 24.1415 7.04223C24.1415 7.59164 23.702 8.03117 23.1526 8.03117C22.6032 8.03117 22.1637 7.59164 22.1637 7.04223C22.1637 6.49282 22.609 6.05329 23.1526 6.05329Z" fill="white"/>
</svg>
