<svg width="30" height="30" viewBox="0 0 30 30" fill="none" xmlns="http://www.w3.org/2000/svg">
<path d="M28.1761 1.8239C27.0957 0.735037 25.7874 0.194824 24.2511 0.194824H5.74885C4.22106 0.194824 2.91274 0.735037 1.82387 1.8239C0.735006 2.91277 0.194794 4.2211 0.194794 5.74888V24.2512C0.194794 25.7789 0.735006 27.0873 1.82387 28.1761C2.91274 29.265 4.22106 29.8052 5.74885 29.8052H24.2511C25.7789 29.8052 27.0872 29.265 28.1761 28.1761C29.265 27.0873 29.8052 25.7789 29.8052 24.2512V5.74888C29.8052 4.2211 29.265 2.91277 28.1761 1.8239ZM9.21803 24.9855H4.76128V11.6068H9.21803V24.9855ZM8.81287 9.13365C8.34862 9.58101 7.74089 9.80048 6.98121 9.80048H6.96433C6.22998 9.80048 5.63912 9.58101 5.18332 9.13365C4.72751 8.68629 4.49961 8.13763 4.49961 7.48769C4.49961 6.82087 4.73595 6.26377 5.2002 5.83329C5.67288 5.39437 6.28062 5.17491 7.02342 5.17491C7.76621 5.17491 8.36551 5.39437 8.81287 5.83329C9.26023 6.27221 9.49658 6.82087 9.50502 7.48769C9.50502 8.13763 9.27711 8.68629 8.81287 9.13365ZM25.2387 24.9855H20.7819V17.8361C20.7819 15.8188 20.0392 14.8059 18.5451 14.8059C17.9796 14.8059 17.5069 14.9663 17.1186 15.2786C16.7304 15.5909 16.4434 15.9792 16.2492 16.4265C16.1564 16.6544 16.1142 17.0174 16.1142 17.5069V24.9855H11.6574C11.6996 16.9161 11.6996 12.4509 11.6574 11.6068H16.1142V13.4976C17.0511 12.0373 18.3763 11.3029 20.1067 11.3029C21.6514 11.3029 22.8922 11.8094 23.8291 12.8223C24.766 13.8352 25.2387 15.3377 25.2387 17.3128V24.9855Z" fill="white"/>
</svg>
