<svg width="289" height="64" viewBox="0 0 289 64" fill="none" xmlns="http://www.w3.org/2000/svg">
<path d="M60.873 0H31.9472C27.637 0 23.4557 0.844862 19.5106 2.51311C15.7087 4.12407 12.2863 6.42238 9.35792 9.35792C6.42238 12.2935 4.12407 15.7087 2.51311 19.5106C0.844862 23.4557 0 27.637 0 31.9544C0 36.2718 0.844862 40.446 2.51311 44.391C4.12407 48.1929 6.42954 51.6153 9.35792 54.5437C12.2935 57.4792 15.7087 59.7775 19.5106 61.3885C23.4485 63.0568 27.637 63.9016 31.9472 63.9016C36.2575 63.9016 40.446 63.0568 44.391 61.3885C48.1929 59.7775 51.6153 57.4721 54.5437 54.5437C57.4792 51.6082 59.7775 48.1929 61.3885 44.391C63.0568 40.4531 63.9016 36.2646 63.9016 31.9544V9.4152V8.92117V3.02861C63.9016 1.35321 62.5484 0 60.873 0ZM57.8444 31.9544C57.8444 46.2311 46.2311 57.8444 31.9544 57.8444C17.6777 57.8444 6.06439 46.2311 6.06439 31.9544C6.06439 17.6777 17.6777 6.06439 31.9544 6.06439H57.8444V8.92833V9.42236V31.9544Z" fill="#F57E27"/>
<path d="M77.1187 36.2503C77.1187 34.5176 77.4194 32.8565 78.0137 31.2814C78.6079 29.699 79.5172 28.353 80.7272 27.2504C81.7869 26.248 83.0256 25.4676 84.436 24.9019C85.8465 24.3363 87.2713 24.0571 88.7176 24.0571C90.6365 24.0571 92.4551 24.3936 94.1878 25.0594C95.9204 25.7253 96.7796 26.8422 96.7796 28.4174C96.7796 29.2838 96.5219 30.0499 95.9992 30.7086C95.4765 31.3673 94.782 31.6966 93.9157 31.6966C93.3715 31.668 92.5911 31.4317 91.5816 30.995C90.5649 30.6513 89.6842 30.4794 88.9468 30.4794C87.6938 30.4794 86.5697 30.9806 85.5673 31.983C84.5363 33.1 84.0208 34.5892 84.0208 36.4436C84.0208 37.5677 84.2284 38.5772 84.6437 39.4794C85.059 40.3744 85.6747 41.0832 86.4909 41.5915C87.3071 42.107 88.2809 42.3576 89.4121 42.3576C90.2069 42.3576 91.0661 42.1357 91.9897 41.6918C92.8274 41.3195 93.4575 41.1333 93.8656 41.1333C94.6961 41.1333 95.3978 41.3982 95.9706 41.9209C96.5362 42.4507 96.8226 43.1094 96.8226 43.9042C96.8226 45.0211 96.3787 45.9447 95.4908 46.675C94.603 47.4053 93.5434 47.9423 92.3262 48.2788C91.1019 48.6153 89.9778 48.78 88.9468 48.78C85.3597 48.78 82.4599 47.5915 80.2619 45.2144C78.164 42.9376 77.1187 39.9519 77.1187 36.2503Z" fill="#F57E27"/>
<path d="M122.304 31.7324C121.803 30.2503 121.037 28.9401 120.006 27.8017C118.946 26.6346 117.665 25.7182 116.154 25.0451C114.651 24.3793 113.118 24.0428 111.558 24.0428C109.975 24.0428 108.443 24.3721 106.961 25.038C105.479 25.7038 104.19 26.6203 103.109 27.8017C102.078 28.9258 101.305 30.236 100.789 31.7396C100.274 33.2432 100.016 34.8112 100.016 36.4436C100.016 39.9734 101.047 42.8302 103.109 45.0211C104.176 46.1953 105.465 47.1189 106.961 47.7848C108.464 48.4507 110.011 48.78 111.608 48.78C113.169 48.78 114.694 48.4435 116.183 47.7776C117.679 47.1118 118.946 46.1882 120.006 45.0211C121.037 43.8684 121.803 42.5581 122.304 41.0832C122.806 39.6154 123.056 38.0617 123.056 36.4364C123.056 34.7825 122.806 33.2145 122.304 31.7324ZM115.717 39.2359C115.331 40.1524 114.765 40.9042 114.028 41.4841C113.29 42.0641 112.424 42.3576 111.421 42.3576C110.469 42.3576 109.639 42.0641 108.944 41.477C108.243 40.8899 107.72 40.1381 107.362 39.2216C107.004 38.3052 106.832 37.3815 106.832 36.4436C106.832 34.94 107.24 33.5653 108.049 32.3339C108.865 31.1024 109.99 30.4795 111.421 30.4795C112.424 30.4795 113.29 30.773 114.035 31.353C114.772 31.9329 115.338 32.6918 115.725 33.6155C116.111 34.5462 116.305 35.4842 116.305 36.4436C116.297 37.3815 116.104 38.3195 115.717 39.2359Z" fill="#F57E27"/>
<path d="M132.965 26.4843C134.705 24.8876 136.76 24.0929 139.116 24.0929C140.906 24.0929 142.431 24.4724 143.712 25.2241C144.4 25.6036 145.044 26.2337 145.638 27.1C146.856 26.1048 148.037 25.353 149.19 24.8447C150.342 24.3435 151.617 24.0929 153.006 24.0929C154.481 24.0929 155.848 24.4366 157.101 25.1239C158.354 25.8113 159.35 26.7635 160.08 27.9735C160.81 29.1907 161.175 30.5368 161.175 32.026V44.7848C161.175 45.9018 160.875 46.8182 160.273 47.5486C159.672 48.2717 158.834 48.6368 157.746 48.6368C157.037 48.6368 156.421 48.465 155.898 48.1142C155.376 47.7633 154.989 47.298 154.717 46.7108C154.452 46.1237 154.316 45.4794 154.316 44.7848V33.5654C154.316 32.4986 153.98 31.6322 153.299 30.9807C152.619 30.3291 151.739 29.9998 150.665 29.9998C149.648 29.9998 148.81 30.3434 148.137 31.0308C147.471 31.7181 147.135 32.563 147.135 33.5654V44.7848C147.135 45.8946 146.827 46.8111 146.218 47.5414C145.61 48.2717 144.772 48.6368 143.712 48.6368C142.653 48.6368 141.808 48.2645 141.178 47.5199C140.555 46.7753 140.24 45.866 140.24 44.7848V34.2599C140.24 33.0069 139.946 31.983 139.366 31.1883C138.779 30.3936 137.884 29.9926 136.681 29.9926C135.686 29.9926 134.849 30.3363 134.154 31.0165C133.46 31.7038 133.116 32.5487 133.116 33.5582V44.7777C133.116 45.8803 132.808 46.7968 132.192 47.5271C131.576 48.2574 130.724 48.6297 129.643 48.6297C128.598 48.6297 127.767 48.2574 127.145 47.5128C126.529 46.7681 126.214 45.8588 126.214 44.7777V28.1668C126.214 27.1358 126.493 26.2337 127.059 25.4604C127.624 24.6872 128.405 24.2719 129.393 24.2289C130.732 24.2433 131.92 24.9879 132.965 26.4843Z" fill="#F57E27"/>
<path d="M186.371 30.9305C185.719 29.3053 184.796 27.9019 183.586 26.7277C181.738 24.9736 179.44 24.0929 176.691 24.0929C174.55 24.0929 172.66 25.0165 171.006 26.8566C170.633 25.9903 170.19 25.3315 169.688 24.8948C169.187 24.458 168.5 24.2361 167.626 24.2361C166.531 24.2361 165.715 24.6299 165.17 25.4175C164.626 26.205 164.354 27.1716 164.354 28.3172V54.1714C164.354 55.2454 164.662 56.1618 165.285 56.9065C165.901 57.6511 166.738 58.0234 167.784 58.0234C168.865 58.0234 169.717 57.6582 170.333 56.9208C170.948 56.1905 171.256 55.274 171.256 54.1714V46.761C173.003 48.107 174.8 48.78 176.655 48.78C178.882 48.78 180.815 48.1714 182.44 46.9614C184.065 45.7443 185.29 44.1619 186.12 42.193C186.944 40.2312 187.359 38.1405 187.359 35.9281C187.345 34.2241 187.022 32.5558 186.371 30.9305ZM179.92 39.2145C179.569 40.1381 179.046 40.897 178.359 41.4985C177.672 42.0999 176.862 42.4006 175.939 42.4006C174.901 42.4006 174.006 42.1142 173.261 41.5486C172.516 40.9758 171.951 40.2383 171.579 39.3219C171.199 38.4054 171.013 37.446 171.013 36.4436C171.013 35.4341 171.199 34.4747 171.579 33.5582C171.958 32.6417 172.516 31.9043 173.261 31.3315C174.006 30.7587 174.901 30.4795 175.939 30.4795C176.862 30.4795 177.672 30.7802 178.359 31.3745C179.046 31.9687 179.569 32.7348 179.92 33.6656C180.271 34.5964 180.45 35.52 180.45 36.4436C180.45 37.3672 180.271 38.298 179.92 39.2145Z" fill="#F57E27"/>
<path d="M212.991 25.2599C212.311 24.5798 211.48 24.2432 210.492 24.2432C208.974 24.2432 207.865 25.0881 207.156 26.7707C206.218 25.8112 205.301 25.1167 204.421 24.6872C203.533 24.2576 202.459 24.0499 201.199 24.0499C198.571 24.0499 196.208 25.1024 194.111 27.2003C191.705 29.563 190.502 32.6274 190.502 36.4007C190.502 40.4889 191.862 43.7395 194.583 46.1595C196.595 47.9065 198.843 48.78 201.342 48.78C202.609 48.78 203.683 48.5581 204.557 48.107C205.43 47.6559 206.282 46.9256 207.12 45.9161C207.764 47.7347 208.874 48.644 210.457 48.644C211.538 48.644 212.404 48.243 213.048 47.4483C213.693 46.6536 214.015 45.687 214.015 44.5557V27.7587C214.015 26.7707 213.671 25.9401 212.991 25.2599ZM206.34 39.4078C205.946 40.2885 205.373 40.9973 204.607 41.5414C203.848 42.0856 202.96 42.3576 201.943 42.3576C200.433 42.3576 199.294 41.7491 198.535 40.539C197.776 39.329 197.397 37.9114 197.397 36.2933C197.397 34.8112 197.798 33.4723 198.607 32.2766C199.416 31.0809 200.526 30.4795 201.943 30.4795C203.633 30.4795 204.886 31.0594 205.702 32.2193C206.519 33.3792 206.927 34.847 206.927 36.6298C206.934 37.5964 206.733 38.5271 206.34 39.4078Z" fill="#F57E27"/>
<path d="M224.103 26.6848C225.75 24.9592 227.296 24.0929 228.743 24.0929C229.738 24.0929 230.59 24.4079 231.299 25.0452C232.008 25.6824 232.366 26.47 232.366 27.4294C232.366 28.4318 232.079 29.1477 231.499 29.5845C230.919 30.0212 230.031 30.4294 228.836 30.8088C227.153 31.3745 225.936 31.9544 225.184 32.5487C224.468 33.1143 224.11 34.0522 224.11 35.3697V44.7992C224.11 45.9018 223.802 46.8182 223.187 47.5486C222.571 48.2789 221.719 48.6512 220.638 48.6512C219.592 48.6512 218.762 48.2789 218.139 47.5342C217.523 46.7896 217.208 45.8803 217.208 44.7992V28.1883C217.208 26.9425 217.487 26.0189 218.046 25.4175C218.733 24.637 219.564 24.2504 220.53 24.2504C222.141 24.2433 223.337 25.0523 224.103 26.6848Z" fill="#F57E27"/>
<path d="M256.616 25.2599C255.936 24.5798 255.105 24.2432 254.117 24.2432C252.599 24.2432 251.49 25.0881 250.781 26.7707C249.843 25.8112 248.926 25.1167 248.046 24.6872C247.158 24.2576 246.084 24.0499 244.824 24.0499C242.196 24.0499 239.833 25.1024 237.736 27.2003C235.33 29.563 234.127 32.6274 234.127 36.4007C234.127 40.4889 235.487 43.7395 238.208 46.1595C240.22 47.9065 242.468 48.78 244.967 48.78C246.234 48.78 247.308 48.5581 248.182 48.107C249.055 47.6559 249.907 46.9256 250.745 45.9161C251.389 47.7347 252.499 48.644 254.081 48.644C255.163 48.644 256.029 48.243 256.673 47.4483C257.318 46.6536 257.64 45.687 257.64 44.5557V27.7587C257.633 26.7707 257.289 25.9401 256.616 25.2599ZM249.965 39.4078C249.571 40.2885 248.998 40.9973 248.232 41.5414C247.473 42.0856 246.585 42.3576 245.568 42.3576C244.058 42.3576 242.919 41.7491 242.16 40.539C241.401 39.329 241.022 37.9114 241.022 36.2933C241.022 34.8112 241.423 33.4723 242.232 32.2766C243.041 31.0809 244.151 30.4795 245.568 30.4795C247.258 30.4795 248.511 31.0594 249.327 32.2193C250.144 33.3792 250.552 34.847 250.552 36.6298C250.552 37.5964 250.358 38.5271 249.965 39.4078Z" fill="#F57E27"/>
<path d="M266.189 34.267H274.63V26.0332C274.63 24.9306 275.518 24.0428 276.621 24.0428C277.723 24.0428 278.611 24.9306 278.611 26.0332V34.267H287.11C288.155 34.267 289 35.1119 289 36.1572C289 37.2026 288.155 38.0474 287.11 38.0474H278.618V46.3314C278.618 47.434 277.723 48.3218 276.628 48.3218C275.525 48.3218 274.637 47.434 274.637 46.3314V38.0546H266.196C265.151 38.0546 264.306 37.2097 264.306 36.1644C264.299 35.119 265.143 34.267 266.189 34.267Z" fill="#F57E27"/>
<path opacity="0.5" d="M67.6748 22.9044L43.0235 47.5485C41.4984 49.0736 39.5008 49.8325 37.5032 49.8325C35.5056 49.8325 33.508 49.0736 31.983 47.5485L29.5916 45.0999C31.1167 46.6249 33.1143 47.3839 35.1119 47.3839C37.1094 47.3839 39.107 46.6249 40.6321 45.0999L65.2763 20.4557C67.8896 17.8423 68.2619 13.8472 66.4004 10.8329C66.8514 11.1264 67.2739 11.4701 67.6677 11.8639C70.7249 14.9068 70.7249 19.8543 67.6748 22.9044Z" fill="black"/>
<path d="M65.8062 10.1025C62.7561 7.05245 57.8158 7.05245 54.7657 10.1025L38.3124 26.5702C37.9544 26.9282 37.94 26.8852 37.94 26.8852C36.1572 23.3912 32.5487 20.9998 28.3673 20.9712C28.3673 20.9783 28.3673 20.9783 28.3673 20.9855C28.3458 20.9855 28.3172 20.9855 28.2957 20.9855C24.5225 20.9855 21.2003 22.9187 19.2528 25.8399C18.9951 26.2122 18.7731 26.5917 18.587 26.9926C18.4366 27.3005 18.2863 27.6155 18.1646 27.9377L18.2791 27.7516C17.3412 30.4866 17.9498 33.637 20.1335 35.8135L30.1143 45.7944C31.6394 47.3194 33.637 48.0784 35.6346 48.0784C37.6322 48.0784 39.6298 47.3194 41.1548 45.7944L65.799 21.1502C68.8563 18.0929 68.8563 13.1455 65.8062 10.1025Z" fill="#F57E27"/>
</svg>
