<svg width="100" height="48" viewBox="0 0 100 48" fill="none" xmlns="http://www.w3.org/2000/svg">
<path d="M99 1H1V47.4247H99V1Z" fill="black" stroke="black" stroke-width="0.5669" stroke-miterlimit="22.9256"/>
<path fill-rule="evenodd" clip-rule="evenodd" d="M13.237 11.5432L10.1259 35.6716C9.95309 37.0198 14.5161 37.6766 14.6889 36.3284L17.8 12.2C17.9728 10.8519 13.3753 10.1951 13.237 11.5432ZM33.079 11.5432L36.1901 35.6716C36.363 37.0198 31.8 37.6766 31.6272 36.3284L28.5161 12.2C28.3778 10.8519 32.9407 10.1951 33.079 11.5432ZM25.4741 12.2346V36.5704C25.4741 37.9185 20.8765 37.9185 20.8765 36.5704V12.2346C20.842 10.8864 25.4741 10.8864 25.4741 12.2346ZM40.9259 35.1877L58.2099 37.6766C59.4889 37.8494 60.1111 33.0099 58.8321 32.8371L41.5481 30.3482C40.3037 30.1753 39.6815 35.0148 40.9259 35.1877ZM40.9259 13.3062L58.2099 10.8519C59.4889 10.679 60.1111 15.5185 58.8321 15.6914L41.5481 18.1457C40.3037 18.3185 39.6815 13.479 40.9259 13.3062ZM41.5481 21.7753H59.0049C60.284 21.7753 60.284 26.6494 59.0049 26.6494H41.5481C40.2691 26.6494 40.2691 21.7753 41.5481 21.7753ZM76.6346 15.3111C71.9679 15.3111 68.2 19.321 68.2 24.2642C68.2 29.2074 71.9679 33.1827 76.6346 33.1827C81.3012 33.1827 85.0691 29.1729 85.0691 24.2642C85.1037 19.321 81.3012 15.3111 76.6346 15.3111ZM76.6346 38.2297C69.3407 38.2297 63.4296 31.9729 63.4296 24.2642C63.4296 16.5556 69.3407 10.2642 76.6346 10.2642C83.9284 10.2642 89.8395 16.521 89.8395 24.2642C89.8741 31.9383 83.9284 38.2297 76.6346 38.2297Z" fill="white"/>
</svg>
