<svg width="89" height="91" viewBox="0 0 89 91" fill="none" xmlns="http://www.w3.org/2000/svg">
<path fill-rule="evenodd" clip-rule="evenodd" d="M0.140564 0.219849H89V89.4916H0.140564V0.219849Z" fill="#EE2560"/>
<path fill-rule="evenodd" clip-rule="evenodd" d="M53.4356 75.8328L38.1274 39.9076C33.3855 28.8775 26.6334 24.3418 21.3246 23.1047C18.9536 22.2801 12.0469 22.847 12.0469 22.847C12.0469 22.847 17.2527 23.1047 20.0875 25.2695C24.0563 27.8982 26.5304 33.9802 25.448 42.227L20.603 78.1007C19.9329 82.4818 18.6443 89.7493 18.6443 89.7493H25.6026C25.6026 89.7493 26.0149 84.2342 26.685 79.2346L31.3238 44.2372L46.7866 80.9355C48.7452 85.4713 49.8792 87.6876 53.951 90.7801L72.1971 44.1341L76.8359 83.358C77.0936 86.1413 77.2998 89.6978 77.2998 89.6978H86.3198C86.3198 89.6978 85.5466 84.9558 85.0312 81.1417L79.6708 41.1446C79.5161 39.2891 79.31 36.0935 79.31 36.0935H68.1768V36.1966C68.1768 37.8975 67.6098 39.5468 66.9398 41.2477L53.4356 75.8328Z" fill="white"/>
</svg>
