<svg width="201" height="49" viewBox="0 0 201 49" fill="none" xmlns="http://www.w3.org/2000/svg">
<path fill-rule="evenodd" clip-rule="evenodd" d="M0 33.8295V48.6984H200.838V33.8295H0Z" fill="#B1B1B1"/>
<path fill-rule="evenodd" clip-rule="evenodd" d="M200.838 32.8927V1.01208H0V32.8927H200.838Z" fill="#B1B1B1"/>
<path fill-rule="evenodd" clip-rule="evenodd" d="M135.359 44.109C135.759 44.3432 136.181 44.4602 136.684 44.4602C138.467 44.4602 139.587 43.2777 139.587 41.4279C139.587 39.7302 138.627 38.6063 137.267 38.6063C136.867 38.6063 136.387 38.7234 135.839 38.9341L136.661 37.4238C136.97 37.3769 137.256 37.3418 137.541 37.3418C139.747 37.3418 141.187 38.899 141.187 41.2757C141.187 43.91 139.393 45.6779 136.41 45.6779C135.747 45.6779 134.89 45.5842 133.85 45.3852V33.806H135.359V44.109Z" fill="white"/>
<path fill-rule="evenodd" clip-rule="evenodd" d="M148.66 39.1448V37.4003C147.723 37.2715 147.06 37.2013 146.672 37.2013C144.158 37.2013 142.249 39.098 142.249 41.5215C142.249 43.8748 144.146 45.6544 146.855 45.6544C147.597 45.6544 148.226 45.4671 148.832 45.0924L149.357 43.7577C148.58 44.1324 147.86 44.3431 147.14 44.3431C145.392 44.3431 144.044 43.0318 144.044 41.1937C144.044 39.5312 145.049 38.4072 146.603 38.4072C147.186 38.3955 147.883 38.6414 148.66 39.1448Z" fill="white"/>
<path fill-rule="evenodd" clip-rule="evenodd" d="M152.511 48.7804H150.991V37.4003H152.466V38.5477C153.254 37.6696 154.203 37.2247 155.288 37.2247C157.414 37.2247 159.082 38.9458 159.082 41.2288C159.082 42.7274 158.488 43.9802 157.448 44.7763C156.739 45.3266 155.962 45.5724 155.082 45.5724C154.694 45.5724 154.294 45.5256 153.871 45.4202L152.911 43.9919C153.563 44.2963 154.111 44.4368 154.614 44.4368C156.328 44.4368 157.379 43.3597 157.379 41.4864C157.379 39.66 156.26 38.4306 154.808 38.4306C154.18 38.4306 153.597 38.6648 153.14 39.098C152.546 39.66 152.511 40.4561 152.511 41.5684V42.0718V48.7804Z" fill="white"/>
<path fill-rule="evenodd" clip-rule="evenodd" d="M56.6804 9.1844C56.6804 8.03703 55.8233 7.03015 54.7148 7.03015C53.6292 7.03015 52.5893 7.86141 52.5893 9.07903C52.5893 10.3669 53.5035 11.3738 54.7148 11.3738C55.8233 11.3738 56.6804 10.3318 56.6804 9.1844Z" fill="white"/>
<path fill-rule="evenodd" clip-rule="evenodd" d="M53.3321 13.4576C53.3321 13.4576 53.3435 15.6822 53.3435 17.2861V25.5871C53.3435 27.1911 53.3207 29.4507 53.3207 29.4507H56.3146C56.3146 29.4507 56.3146 27.1911 56.3146 25.5871V13.4576C56.3146 13.4576 54.8405 13.4576 54.0863 13.4576H53.3321Z" fill="white"/>
<path fill-rule="evenodd" clip-rule="evenodd" d="M61.1371 6.56188C61.1371 6.56188 61.1599 8.82149 61.1599 10.4255V25.5988C61.1599 27.2028 61.1714 29.4624 61.1714 29.4624H64.3025C64.3025 29.4624 64.2568 27.2028 64.2568 25.5988V6.55017C64.2568 6.55017 62.7598 6.56188 61.9827 6.56188H61.1371Z" fill="white"/>
<path fill-rule="evenodd" clip-rule="evenodd" d="M68.8506 6.52672C68.8506 6.52672 68.8735 8.78633 68.8735 10.3903V25.5637C68.8735 27.1676 68.8849 29.4272 68.8849 29.4272H72.0046C72.0046 29.4272 71.9589 27.1676 71.9589 25.5637V6.51501C71.9589 6.51501 70.4619 6.52672 69.6849 6.52672H68.8506Z" fill="white"/>
<path fill-rule="evenodd" clip-rule="evenodd" d="M35.2652 23.5148L28.923 8.27123C26.946 3.5881 24.1691 1.66801 21.9636 1.12945C20.9808 0.778216 18.124 1.01237 18.124 1.01237C18.124 1.01237 20.2723 1.12945 21.4608 2.04266C23.1178 3.1432 24.1348 5.73063 23.6777 9.24298L21.6665 24.4866C21.3922 26.3481 20.8551 29.4273 20.8551 29.4273H23.7463C23.7463 29.4273 23.9291 27.074 24.192 24.9666L26.1118 10.0977L32.5226 25.6925C33.334 27.6243 33.8025 28.5609 35.4938 29.8722L43.0588 10.0742L44.9786 26.7345C45.0929 27.917 45.1729 29.4273 45.1729 29.4273H48.9211C48.9211 29.4273 48.5897 27.4253 48.3954 25.7979L46.1671 8.8215C46.0985 8.02537 46.0071 6.67897 46.0071 6.67897H41.3789V6.71409C41.3789 7.43998 41.139 8.13074 40.8761 8.85662L35.2652 23.5148Z" fill="white"/>
<path fill-rule="evenodd" clip-rule="evenodd" d="M91.5685 20.74C91.7056 16.2558 88.5516 12.8372 83.9235 12.8372C78.8611 12.8372 75.4329 16.3495 75.4329 21.1849C75.4329 26.0202 79.4096 29.7433 85.1805 29.7433C86.7803 29.7433 88.403 29.4974 89.8658 28.8769L91.5685 25.6104H91.4656C89.9 26.8632 87.9345 27.4485 85.9004 27.4485C82.0608 27.4485 79.1811 24.9782 79.1125 20.7282H91.5685V20.74ZM79.2382 18.7262C79.6496 16.5368 81.3409 15.1436 83.6149 15.1436C86.0604 15.1436 87.626 16.291 87.9917 18.7262H79.2382Z" fill="white"/>
<path fill-rule="evenodd" clip-rule="evenodd" d="M133.85 9.19612C133.85 8.04875 133.005 7.04187 131.885 7.04187C130.799 7.04187 129.759 7.87313 129.759 9.09075C129.759 10.3786 130.673 11.3855 131.885 11.3855C133.005 11.3855 133.85 10.3435 133.85 9.19612Z" fill="white"/>
<path fill-rule="evenodd" clip-rule="evenodd" d="M130.502 13.4695C130.502 13.4695 130.513 15.694 130.513 17.2979V25.5988C130.513 27.2028 130.49 29.4624 130.49 29.4624H133.484C133.484 29.4624 133.484 27.2028 133.484 25.5988V13.4812C133.484 13.4812 132.01 13.4812 131.256 13.4812H130.502V13.4695Z" fill="white"/>
<path fill-rule="evenodd" clip-rule="evenodd" d="M94.4139 13.446C94.4139 13.446 94.4482 15.7056 94.4482 17.3096V25.5871C94.4482 27.1911 94.4482 29.4507 94.4482 29.4507H97.5565C97.5565 29.4507 97.5336 27.2262 97.5336 25.6222V19.4638C97.5336 17.415 98.0479 15.2841 101.133 15.2841C104.219 15.2841 105.247 17.1925 105.247 20.9156V25.6105C105.247 27.1793 105.247 29.439 105.247 29.439H108.367C108.367 29.439 108.344 27.2145 108.344 25.6105V20.5644C108.344 18.9253 108.447 16.771 107.498 15.3778C106.413 13.7387 104.242 12.9777 102.333 12.9777C100.128 12.9777 98.7335 13.9845 97.5451 15.6588V13.4109C97.5451 13.4109 95.9109 13.4226 95.1681 13.4226H94.4139V13.446Z" fill="white"/>
<path fill-rule="evenodd" clip-rule="evenodd" d="M148.386 13.3992C148.386 13.3992 148.386 15.6588 148.386 17.2979V22.66C148.386 25.3411 146.752 27.2144 144.512 27.2144C141.552 27.2144 140.672 25.2358 140.672 22.0278V13.3992C140.672 13.3992 139.244 13.3992 138.501 13.3992H137.553C137.553 13.3992 137.587 15.6588 137.587 17.2627V22.6249C137.587 27.5305 139.484 29.8604 143.495 29.8604C145.872 29.8604 147.163 29.0642 148.386 27.1441V29.4037H151.483C151.483 29.4037 151.483 27.2144 151.483 25.6104V13.3992C151.483 13.3992 149.723 13.3992 148.832 13.3992H148.386Z" fill="white"/>
<path fill-rule="evenodd" clip-rule="evenodd" d="M112.047 13.4227C112.047 13.4227 112.081 15.6823 112.081 17.2863V25.5638C112.081 27.1677 112.081 29.4274 112.081 29.4274H115.189C115.189 29.4274 115.166 27.2029 115.166 25.5989V19.4405C115.166 17.3916 115.681 15.2608 118.766 15.2608C121.851 15.2608 122.88 17.1692 122.88 20.8923V25.5872C122.88 27.156 122.88 29.4157 122.88 29.4157H126C126 29.4157 125.977 27.1912 125.977 25.5872V20.5411C125.977 18.902 126.08 16.7477 125.131 15.3545C124.045 13.7154 121.874 12.9543 119.966 12.9543C117.76 12.9543 116.366 13.9612 115.178 15.6355V13.3992C115.178 13.3992 113.544 13.411 112.801 13.411H112.047V13.4227Z" fill="white"/>
<path fill-rule="evenodd" clip-rule="evenodd" d="M155.837 13.4343C155.837 13.4343 155.871 15.6588 155.871 17.2628V25.5754C155.871 27.1794 155.86 29.439 155.86 29.439H158.968C158.968 29.439 158.968 27.1794 158.968 25.5754V20.26C158.968 16.9232 160.225 15.2841 162.807 15.2841C164.91 15.2841 166.681 17.1223 166.681 20.7868V25.5871C166.681 27.1911 166.681 29.4507 166.681 29.4507H169.767C169.767 29.4507 169.767 27.1911 169.767 25.5871V20.541C169.767 17.2745 170.612 15.2841 173.675 15.2841C176.395 15.2841 177.48 17.5437 177.48 21.0912V25.5754C177.48 27.1794 177.446 29.439 177.446 29.439H180.577C180.577 29.439 180.566 27.074 180.566 25.5754V20.2131C180.566 15.7993 179.309 12.9777 174.486 12.9777C171.972 12.9777 170.372 14.125 169.058 16.01C167.801 13.9611 166.167 12.9777 163.756 12.9777C161.482 12.9777 160.156 13.844 158.968 15.729V13.4343C158.968 13.4343 157.505 13.4226 156.762 13.4226H155.837V13.4343Z" fill="white"/>
</svg>
