<svg width="98" height="60" viewBox="0 0 98 60" fill="none" xmlns="http://www.w3.org/2000/svg">
<path fill-rule="evenodd" clip-rule="evenodd" d="M32.634 0H63.0364C63.1147 0.234918 65.4247 5.9121 65.4247 15.2893C65.4247 24.7447 63.0364 30.5002 63.0364 30.5002H32.634V0Z" fill="#F09A2E"/>
<path fill-rule="evenodd" clip-rule="evenodd" d="M47.6884 10.5322C47.9233 10.7671 49.0783 9.0052 48.9217 8.37875C48.7651 7.77188 47.9233 8.06553 47.845 8.84859C47.6884 9.5925 47.3751 10.2973 47.6884 10.5322ZM45.7503 20.3596C45.9069 20.5162 46.0635 20.5945 46.0635 20.5945C45.9069 20.5162 45.8482 20.4379 45.7503 20.3596ZM54.7359 20.6532C55.0491 20.7315 55.2057 20.8098 55.3624 20.6532C55.3624 20.5749 55.3624 20.4966 55.4407 20.4966C55.519 19.8702 54.7359 19.6548 54.0507 19.7919C53.2872 19.9485 53.0523 20.34 53.7375 20.34C54.129 20.3596 54.4423 20.5162 54.7359 20.6532ZM46.1418 20.6532C47.2185 21.495 48.6868 22.4151 50.3703 22.9633C50.3703 22.9633 54.6772 24.3532 54.6772 23.0416C54.6772 22.1998 53.3068 21.5146 53.2089 20.8881C53.2089 20.8098 53.2089 20.7315 53.2089 20.6532C53.1306 20.1834 52.974 19.968 51.2121 19.5765C48.5302 18.9501 46.827 18.5781 45.8286 18.2649C44.6736 18.03 44.145 17.7363 44.2233 18.2649C44.3016 19.0284 45.2217 19.8702 45.7503 20.34C45.8286 20.4183 45.9069 20.4966 46.0635 20.5749C46.0635 20.5945 46.0635 20.5945 46.1418 20.6532ZM35.8446 20.6532C35.8446 17.2665 36.3927 13.821 38.6832 9.6708C40.1514 7.20416 42.99 4.52218 45.9069 3.36717C45.3783 3.28886 44.8302 3.21056 44.282 3.28886C43.127 3.28886 44.0471 2.97564 44.517 2.89733C46.5138 2.58411 48.2757 2.58411 49.7439 2.89733C50.5074 3.05394 51.2121 3.36717 51.819 3.81743C52.4259 4.20896 52.8957 4.73752 53.1306 5.50101C54.2856 9.18139 50.2137 11.0999 46.1418 14.6432C43.5381 16.9533 41.9916 19.0284 40.9932 20.6336C39.8382 22.6305 39.5445 23.8638 39.3879 23.7072C39.153 23.6289 39.5445 22.3368 40.3863 20.6336C40.9932 19.4786 41.7763 18.1866 42.7747 16.9533C45.4566 13.5078 48.3148 11.3544 47.1598 10.7279C45.5349 9.98403 46.9836 8.45706 44.3799 7.83061C42.3048 7.36078 40.9149 9.82742 39.7795 12.1374C38.2525 15.1326 37.7826 18.2062 37.861 20.6532C37.9393 23.4135 38.5461 25.4103 39.0943 25.5669C39.2509 25.5669 39.5641 25.0188 40.0927 24.0204C40.4059 23.3352 41.1694 21.9453 42.0112 20.6532C42.7747 19.4199 43.6164 18.2649 44.2429 17.8929C44.5561 17.7363 45.3196 17.658 45.5545 17.658C45.7111 17.658 45.8677 17.658 46.0048 17.658C47.1598 17.7363 49.1566 17.9712 52.3084 18.4998C52.9153 18.6564 53.5417 18.2649 55.3819 18.6564C55.4602 18.6564 55.5385 18.7347 55.6952 18.7347C56.4586 18.8913 57.457 19.4982 58.6121 20.6532C58.7687 20.8098 58.9057 20.9664 59.0623 21.1231C59.5909 21.7299 59.6692 21.9648 59.2189 21.6516C59.0623 21.5733 58.7491 21.4167 58.4554 21.3384C60.3152 24.7839 59.7671 30.4806 59.7671 30.4806H41.7175C41.7175 30.4806 43.0292 28.5621 46.5725 27.9357C48.9608 27.4854 53.0915 27.1722 54.5597 26.4087C55.8713 25.5669 55.3232 23.7072 54.7163 23.5701C54.5597 23.5701 55.6364 25.0971 53.9528 25.8802C52.6412 26.487 48.8042 26.487 45.4175 27.0352C42.2657 27.5833 40.5038 29.3452 39.8969 30.1087C37.3128 27.9553 35.9229 24.4315 35.8446 20.6532Z" fill="white"/>
<path fill-rule="evenodd" clip-rule="evenodd" d="M1.07671 54.0116C0.685178 54.0116 0.39153 53.9333 0 53.6984C1.07671 48.7064 1.9185 43.7143 2.9169 38.644L2.76029 37.8022C3.44547 37.6456 4.15022 37.489 4.9137 37.489H5.07032C5.59888 38.1742 6.22533 39.799 6.46025 40.4842L9.84698 49.3915C11.5306 45.3196 13.3708 40.8757 14.4475 38.4091V37.8805C14.9173 37.5673 15.9157 37.5086 16.4443 37.5086C16.8945 37.5086 16.9924 37.9588 17.0511 38.3504L18.6564 47.7863C18.9696 49.7831 19.3416 51.7799 19.8114 53.7767C19.2046 53.9333 18.4215 54.0899 17.8146 54.0899C17.3448 54.0899 17.1294 53.855 17.0511 53.4047C16.7379 51.9365 16.5813 50.7815 16.2877 48.491L15.2109 41.6588C14.2125 44.2625 12.4507 48.7259 10.8258 52.9545C10.7475 53.346 10.5126 53.6396 10.0623 53.7962C9.7491 53.8745 9.29884 53.9529 8.90731 53.9529H8.7507C7.7523 50.801 5.52057 44.7323 4.44387 41.8154C3.68038 46.964 3.28885 48.491 2.52537 53.483C2.44706 53.8746 2.29045 54.0899 1.9185 54.0899C1.68358 54.0899 1.38993 54.0899 1.07671 54.0116Z" fill="#232845"/>
<path fill-rule="evenodd" clip-rule="evenodd" d="M29.7954 48.1778C29.7954 45.4958 28.2685 43.9493 26.487 43.9493C24.9405 43.9493 23.3352 45.3392 23.3352 48.0212C23.3352 50.9381 24.9405 52.4063 26.7219 52.328C28.1119 52.328 29.7954 51.173 29.7954 48.1778ZM22.6696 43.5577C23.668 42.6376 25.0579 42.0308 26.5066 42.0308C30.4219 42.0308 32.4187 44.8694 32.4187 48.0212C32.4187 50.5465 31.342 52.0931 30.3436 52.8566C29.4235 53.6984 28.0336 54.2465 26.5849 54.2465C22.6696 54.2465 20.6728 51.3296 20.6728 48.2561C20.6532 46.3376 21.358 44.7127 22.6696 43.5577Z" fill="#232845"/>
<path fill-rule="evenodd" clip-rule="evenodd" d="M42.3244 54.0899C41.9525 54.0899 41.7175 53.855 41.7175 53.483V46.7879C41.7175 44.8694 40.954 44.1842 39.7207 44.1842C38.4874 44.1842 37.489 45.1043 36.9604 45.9461V53.0915C36.9604 53.7179 36.8038 53.9333 36.2557 54.0116C35.6488 54.0899 34.9441 54.0116 34.3372 54.0899C34.4155 52.4846 34.4155 50.7815 34.4155 49.1762V44.9477C34.4155 44.3212 34.3372 43.9493 33.8086 43.636V43.0879C34.1218 42.6964 34.807 42.0112 35.5705 42.1678C36.334 42.3244 36.6472 43.0096 36.8038 43.7143C37.3324 43.2445 37.8022 42.8726 38.3504 42.5593C38.8789 42.2461 39.5837 42.0308 40.2689 42.0308C43.3424 42.0308 44.2625 44.2625 44.2625 46.6312V50.4682C44.2625 51.6232 44.3408 52.7 44.4191 53.855C43.6948 53.9333 43.0096 54.0899 42.3244 54.0899Z" fill="#232845"/>
<path fill-rule="evenodd" clip-rule="evenodd" d="M51.9169 52.1714C52.6804 52.1714 53.3068 51.8582 53.8354 51.4863L54.2074 51.7995V52.2497C54.2074 52.7979 54.0507 53.1698 53.6005 53.5614C53.0523 54.0312 52.0735 54.2466 51.1339 54.2466C48.7455 54.2466 47.8254 52.6413 47.8254 50.7228V44.3408C47.3556 44.3408 46.5921 44.2625 46.5921 43.6557V43.5774C46.827 42.9705 48.2757 41.7372 48.8238 41.189C49.372 40.6605 49.8222 40.5821 50.5074 40.4255C50.4291 41.0324 50.3508 41.7372 50.3508 42.344H54.4227C54.2661 43.3424 54.0312 44.1842 52.9545 44.2625C52.1127 44.3408 52.0344 44.3408 50.3508 44.3408C50.2725 46.8858 50.2725 49.4112 50.3508 50.4879C50.4683 51.8582 51.1534 52.1714 51.9169 52.1714Z" fill="#232845"/>
<path fill-rule="evenodd" clip-rule="evenodd" d="M62.684 46.3376C62.684 44.8694 61.9205 43.871 60.5306 43.871C59.4539 43.871 58.2988 44.8694 58.0639 46.6313C59.8258 46.7096 61.9009 46.7096 62.3708 46.6313C62.5274 46.6313 62.684 46.5725 62.684 46.3376ZM61.5877 52.0931C62.5078 52.0931 63.4279 51.9365 64.1914 51.545L64.5046 52.0931C64.4263 52.7 63.8977 53.5418 63.2713 53.855C62.9581 54.0116 62.038 54.2465 61.0395 54.2465C59.7279 54.2465 58.201 53.9333 56.9676 52.7979C55.8909 51.7212 55.2841 50.0376 55.2841 48.354C55.3624 45.0456 57.2809 42.0504 60.8046 42.0504C63.7998 42.0504 65.1115 44.3604 65.1898 46.4942C65.1898 46.7291 65.1898 47.1011 65.1115 47.336C64.9549 48.0212 63.193 48.4127 62.7427 48.491C62.0575 48.5693 59.7475 48.5693 57.9073 48.5693C57.9856 50.8598 59.5322 52.0931 61.5877 52.0931Z" fill="#232845"/>
<path fill-rule="evenodd" clip-rule="evenodd" d="M72.8051 44.1842C71.5717 44.1842 70.3384 45.1043 69.8099 45.6328V51.5449C70.2014 51.8582 71.1215 52.3084 72.1199 52.3084C73.4315 52.3084 75.6436 51.2317 75.6436 47.9233C75.6436 45.6328 74.4299 44.1842 72.8051 44.1842ZM67.2062 59.0819C67.2062 58.3967 67.2845 56.9285 67.2845 54.638V44.8106C67.2845 44.2038 67.2062 43.9688 66.6776 43.6556V43.1075C66.9125 42.7159 67.1474 42.5006 67.5194 42.2657C67.6564 42.1091 67.8914 42.1091 68.1263 42.1091C68.8898 42.1091 69.5162 42.6572 69.6532 43.636C70.9649 42.5593 72.1199 42.1091 73.4119 42.1091C75.8003 42.1091 78.3256 43.9493 78.3256 47.7863C78.3256 51.3883 75.8003 54.2465 72.1786 54.2465C71.3368 54.2465 70.3384 54.0116 69.7903 53.7179V58.3967C69.7903 58.9449 69.6337 59.0819 69.1051 59.2385C68.4982 59.3168 67.9501 59.3168 67.4215 59.3168H67.1083L67.2062 59.0819Z" fill="#232845"/>
<path fill-rule="evenodd" clip-rule="evenodd" d="M80.7139 53.855C80.7922 52.7783 80.7923 51.31 80.7923 49.8614V45.5741C80.7923 44.5757 80.7922 43.5773 80.7139 42.5789C81.2425 42.344 82.1822 42.1874 82.7891 42.1874C83.024 42.1874 83.1806 42.344 83.2589 42.6572C83.3372 42.8921 83.3372 43.2641 83.3372 44.0472V53.1111C83.3372 53.6592 83.1806 53.8746 82.6324 53.9529C82.0256 54.0312 81.3991 54.1095 80.7139 54.1095V53.855V53.855ZM80.6552 38.1155C80.6552 37.1171 81.497 36.6668 82.1235 36.6668C82.9652 36.6668 83.5134 37.2737 83.5134 38.0567C83.5134 38.8202 82.9652 39.6033 82.0451 39.6033C81.2621 39.5837 80.6552 39.0356 80.6552 38.1155Z" fill="#232845"/>
<path fill-rule="evenodd" clip-rule="evenodd" d="M95.3963 48.1778C95.3963 45.4958 93.8693 43.9493 92.0879 43.9493C90.5609 43.9493 88.9361 45.3392 88.9361 48.0212C88.9361 50.9381 90.5413 52.4063 92.3228 52.328C93.7127 52.328 95.3963 51.173 95.3963 48.1778ZM88.2509 43.5577C89.2493 42.6376 90.6392 42.0308 92.0879 42.0308C96.0032 42.0308 98 44.8694 98 48.0212C98 50.5465 96.9233 52.0931 95.9249 52.8566C95.0048 53.6984 93.6149 54.2465 92.1662 54.2465C88.2509 54.2465 86.2541 51.3296 86.2541 48.2561C86.2541 46.3376 86.9393 44.7127 88.2509 43.5577Z" fill="#232845"/>
</svg>
