<svg width="132" height="82" viewBox="0 0 132 82" fill="none" xmlns="http://www.w3.org/2000/svg">
<path fill-rule="evenodd" clip-rule="evenodd" d="M43.7595 0.261292H84.5418C84.6442 0.581694 87.7395 8.3979 87.7395 21.2813C87.7395 34.2751 84.5418 42.1964 84.5418 42.1964H43.7595V0.261292Z" fill="#B1B1B1"/>
<path fill-rule="evenodd" clip-rule="evenodd" d="M63.9433 14.7358C64.2531 15.0508 65.7994 12.6222 65.5946 11.7741C65.3872 10.934 64.2531 11.3514 64.1507 12.4068C63.9433 13.4676 63.5285 14.4208 63.9433 14.7358ZM61.3678 28.2546C61.5752 28.47 61.78 28.575 61.78 28.575C61.5752 28.47 61.4754 28.3596 61.3678 28.2546ZM73.4156 28.6773C73.833 28.785 74.0404 28.89 74.2478 28.6773C74.2478 28.575 74.2478 28.47 74.3528 28.47C74.4579 27.6219 73.4156 27.3069 72.4967 27.5142C71.4728 27.7269 71.1551 28.2546 72.0872 28.2546C72.5965 28.2546 73.0087 28.47 73.4156 28.6773ZM61.8824 28.6773C63.3263 29.8405 65.2848 31.1059 67.5479 31.8464C67.5479 31.8464 73.3211 33.7472 73.3211 31.9514C73.3211 30.7936 71.4728 29.8405 71.3626 28.9977C71.3626 28.89 71.3626 28.7877 71.3626 28.68C71.2628 28.0446 71.0528 27.7296 68.6899 27.2019C65.0827 26.3537 62.817 25.826 61.4781 25.4033C59.9317 25.0856 59.2097 24.6656 59.3147 25.4033C59.4145 26.4614 60.6563 27.6219 61.3704 28.2573C61.4781 28.3623 61.5778 28.4727 61.7826 28.5777C61.78 28.575 61.78 28.575 61.8824 28.6773ZM48.0808 28.6773C48.0808 24.0328 48.8054 19.2753 51.8955 13.57C53.854 10.1909 57.6608 6.49418 61.5752 4.91101C60.8558 4.80601 60.1339 4.69831 59.4093 4.80601C57.8655 4.80601 59.1021 4.3806 59.7243 4.27828C62.4048 3.85288 64.7729 3.85288 66.7288 4.27828C67.7553 4.4883 68.6873 4.91101 69.5117 5.54643C70.3334 6.07415 70.953 6.81458 71.2628 7.87002C72.8039 12.9426 67.3484 15.5785 61.885 20.4384C58.388 23.6074 56.3245 26.4641 54.9855 28.68C53.4444 31.4263 53.0323 33.1199 52.8275 32.9045C52.5177 32.7995 53.0323 31.009 54.1612 28.68C54.9855 27.0942 56.0173 25.3064 57.3536 23.6074C60.9609 18.8553 64.7755 15.8962 63.2265 15.0535C61.0659 13.9954 63.0191 11.8899 59.5222 11.0444C56.7393 10.4036 54.8858 13.788 53.3394 16.9571C51.2811 21.0711 50.6589 25.3064 50.7639 28.68C50.8689 32.4818 51.6881 35.2281 52.41 35.4381C52.6174 35.4381 53.0296 34.6977 53.749 33.3218C54.1585 32.3714 55.1877 30.4705 56.3218 28.68C57.351 26.9865 58.4878 25.4033 59.3095 24.8756C59.7217 24.6656 60.7508 24.5579 61.0632 24.5579C61.268 24.5579 61.4754 24.5579 61.675 24.5579C63.2239 24.6656 65.9097 24.9806 70.126 25.721C70.9504 25.9337 71.7747 25.4033 74.2478 25.9337C74.3528 25.9337 74.4552 26.0333 74.66 26.0333C75.6892 26.2487 77.0228 27.0915 78.5744 28.6773C78.7766 28.89 78.9787 29.1001 79.1914 29.3101C79.9107 30.1555 80.0105 30.4678 79.3988 30.0478C79.1914 29.9455 78.7766 29.7382 78.3618 29.6305C80.8428 34.38 80.1182 42.1962 80.1182 42.1962H55.907C55.907 42.1962 57.6634 39.5602 62.4048 38.7067C65.5972 38.0767 71.1551 37.6567 73.1137 36.6012C74.8674 35.4354 74.1428 32.8991 73.3211 32.6918C73.1137 32.6918 74.5576 34.7973 72.2946 35.8608C70.5382 36.7062 65.3898 36.7062 60.8585 37.444C56.6369 38.1844 54.2635 40.613 53.4444 41.6684C50.0367 38.7094 48.1858 33.8549 48.0808 28.6773Z" fill="white"/>
<path fill-rule="evenodd" clip-rule="evenodd" d="M1.44651 74.5459C0.931942 74.5459 0.517135 74.4382 -6.10352e-05 74.1232C1.44651 67.2547 2.57804 60.3917 3.91435 53.4155L3.70957 52.2551C4.63633 52.0451 5.56308 51.8351 6.59485 51.8351H6.79963C7.51635 52.7828 8.34596 55.0014 8.65576 55.9518L13.1898 68.2052C15.4528 62.6076 17.9233 56.4822 19.3646 53.0978V52.3601C19.9816 51.9401 21.3231 51.8351 22.0477 51.8351C22.6568 51.8351 22.7697 52.4678 22.8668 52.9928L25.0301 65.9839C25.4476 68.7329 25.9595 71.4819 26.5765 74.2255C25.7495 74.4382 24.7256 74.6509 23.9012 74.6509C23.2843 74.6509 22.9719 74.3332 22.8668 73.7004C22.4547 71.6919 22.2499 70.106 21.8351 66.937L20.4016 57.5377C19.0574 61.1321 16.6867 67.2547 14.5261 73.065C14.4237 73.5954 14.1113 74.0181 13.5022 74.2255C13.0874 74.3332 12.4704 74.4382 11.9506 74.4382H11.7511C10.4095 70.1033 7.41921 61.7648 5.98051 57.7477C4.94875 64.8234 4.43155 66.937 3.40241 73.8028C3.30264 74.3332 3.09261 74.6509 2.57804 74.6509C2.27088 74.6509 1.85607 74.6509 1.44651 74.5459Z" fill="#B1B1B1"/>
<path fill-rule="evenodd" clip-rule="evenodd" d="M39.9606 66.5222C39.9606 62.8227 37.9049 60.7092 35.5368 60.7092C33.4759 60.7092 31.3153 62.6073 31.3153 66.3041C31.3153 70.3185 33.4759 72.3298 35.8493 72.2248C37.6949 72.2248 39.9606 70.6336 39.9606 66.5222ZM30.3885 60.1788C31.7301 58.916 33.581 58.0679 35.5342 58.0679C40.7902 58.0679 43.4628 61.9746 43.4628 66.3041C43.4628 69.7881 42.0215 71.9071 40.6878 72.9598C39.4513 74.123 37.5978 74.8607 35.6392 74.8607C30.3885 74.8607 27.7054 70.8463 27.7054 66.6218C27.7054 63.9832 28.6348 61.7673 30.3885 60.1788Z" fill="#B1B1B1"/>
<path fill-rule="evenodd" clip-rule="evenodd" d="M56.7524 74.6508C56.2431 74.6508 55.928 74.3331 55.928 73.8026V64.6134C55.928 61.9721 54.9015 61.0244 53.2554 61.0244C51.604 61.0244 50.2599 62.2898 49.5484 63.453V73.2722C49.5484 74.123 49.3383 74.4381 48.6164 74.5457C47.792 74.6508 46.8653 74.5458 46.0435 74.6508C46.1459 72.4322 46.1459 70.1059 46.1459 67.8901V62.0825C46.1459 61.2344 46.0435 60.7094 45.3189 60.284V59.5409C45.7311 59.0132 46.6605 58.0681 47.687 58.2781C48.7188 58.4908 49.1336 59.4332 49.3383 60.3917C50.0577 59.759 50.6773 59.2286 51.3993 58.8032C52.1186 58.3804 53.0427 58.0654 53.9695 58.0654C58.094 58.0654 59.3253 61.1294 59.3253 64.4007V69.6832C59.3253 71.2664 59.4303 72.7472 59.53 74.3304C58.6112 74.4407 57.6818 74.6508 56.7524 74.6508Z" fill="#B1B1B1"/>
<path fill-rule="evenodd" clip-rule="evenodd" d="M69.6299 72.0096C70.659 72.0096 71.486 71.5869 72.208 71.0619L72.7199 71.4846V72.1173C72.7199 72.8578 72.5151 73.3855 71.9008 73.9159C71.1736 74.5486 69.8399 74.8636 68.6007 74.8636C65.4082 74.8636 64.1743 72.6451 64.1743 70.0065V61.2371C63.5574 61.2371 62.5229 61.1348 62.5229 60.2894V60.1817C62.8406 59.3389 64.7887 57.6454 65.5106 56.9022C66.2326 56.1672 66.8496 56.0676 67.7763 55.8522C67.6739 56.7003 67.5768 57.6454 67.5768 58.4935H73.0376C72.8223 59.8639 72.5178 61.0298 71.0764 61.1375C69.9423 61.2398 69.8425 61.2398 67.5768 61.2398C67.4744 64.7292 67.4744 68.2133 67.5768 69.6941C67.6713 71.5896 68.5981 72.0096 69.6299 72.0096Z" fill="#B1B1B1"/>
<path fill-rule="evenodd" clip-rule="evenodd" d="M84.0509 63.9832C84.0509 61.9746 83.0218 60.6015 81.1657 60.6015C79.7244 60.6015 78.1728 61.9746 77.8682 64.4032C80.2363 64.5109 83.0218 64.5109 83.6335 64.4032C83.8435 64.4032 84.0509 64.3009 84.0509 63.9832ZM82.607 71.9071C83.8435 71.9071 85.0774 71.6944 86.1118 71.1613L86.5214 71.9071C86.4216 72.7498 85.7023 73.913 84.8727 74.3357C84.4657 74.5484 83.2292 74.8634 81.885 74.8634C80.1392 74.8634 78.073 74.4407 76.4295 72.8575C74.983 71.3794 74.1665 69.0612 74.1665 66.7349C74.2715 62.19 76.8391 58.0706 81.5779 58.0706C85.5999 58.0706 87.3431 61.2369 87.4534 64.1932C87.4534 64.5136 87.4534 65.0413 87.3457 65.3617C87.1436 66.3095 84.7729 66.8399 84.1559 66.9422C83.2292 67.0499 80.1392 67.0499 77.6687 67.0499C77.7659 70.2162 79.8241 71.9071 82.607 71.9071Z" fill="#B1B1B1"/>
<path fill-rule="evenodd" clip-rule="evenodd" d="M97.6477 61.0271C95.9963 61.0271 94.3502 62.2925 93.6282 63.0302V71.164C94.1428 71.5894 95.3767 72.2248 96.7209 72.2248C98.4694 72.2248 101.454 70.7413 101.454 66.2046C101.454 63.0302 99.8057 61.0271 97.6477 61.0271ZM90.126 81.5164C90.126 80.5633 90.231 78.5547 90.231 75.3938V61.8671C90.231 61.027 90.126 60.712 89.4041 60.2866V59.5435C89.7138 59.0158 90.0263 58.7035 90.5461 58.3831C90.7404 58.1785 91.0554 58.1785 91.3652 58.1785C92.3943 58.1785 93.2213 58.9189 93.4235 60.2893C95.1746 58.8085 96.7235 58.1785 98.472 58.1785C101.664 58.1785 105.062 60.712 105.062 65.9892C105.062 70.9567 101.664 74.8634 96.8285 74.8634C95.6944 74.8634 94.3528 74.5484 93.6309 74.1284V80.566C93.6309 81.3091 93.4235 81.5191 92.7067 81.7318C91.8798 81.8395 91.1604 81.8395 90.4411 81.8395H90.0289L90.126 81.5164Z" fill="#B1B1B1"/>
<path fill-rule="evenodd" clip-rule="evenodd" d="M108.251 74.3357C108.359 72.8576 108.359 70.8463 108.359 68.8378V62.9279C108.359 61.5547 108.359 60.1789 108.251 58.8057C108.971 58.4907 110.21 58.278 111.037 58.278C111.339 58.278 111.552 58.4907 111.654 58.9161C111.759 59.2311 111.759 59.7589 111.759 60.8143V73.2749C111.759 74.0207 111.552 74.3357 110.827 74.4407C110.008 74.5484 109.181 74.6534 108.251 74.6534V74.3357ZM108.152 52.6777C108.152 51.3046 109.281 50.6746 110.11 50.6746C111.237 50.6746 111.966 51.5173 111.966 52.5727C111.966 53.6282 111.237 54.6917 110.008 54.6917C108.973 54.689 108.152 53.9459 108.152 52.6777Z" fill="#B1B1B1"/>
<path fill-rule="evenodd" clip-rule="evenodd" d="M127.926 66.5222C127.926 62.8227 125.868 60.7092 123.502 60.7092C121.441 60.7092 119.275 62.6073 119.275 66.3041C119.275 70.3185 121.441 72.3298 123.809 72.2248C125.665 72.2248 127.926 70.6336 127.926 66.5222ZM118.349 60.1788C119.688 58.916 121.541 58.0679 123.502 58.0679C128.75 58.0679 131.428 61.9746 131.428 66.3041C131.428 69.7881 129.984 71.9071 128.648 72.9598C127.411 74.123 125.558 74.8607 123.599 74.8607C118.346 74.8607 115.668 70.8463 115.668 66.6218C115.671 63.9832 116.6 61.7673 118.349 60.1788Z" fill="#B1B1B1"/>
</svg>
