<svg width="99" height="54" viewBox="0 0 99 54" fill="none" xmlns="http://www.w3.org/2000/svg">
<path d="M50.8854 53C50.9398 51.4855 50.9942 49.971 51.0409 48.4565C51.1031 46.3691 51.1575 44.2739 51.2119 42.1866C51.2119 42.1081 51.2275 42.0375 51.2352 41.9276C51.7328 41.9276 52.2149 41.9276 52.7513 41.9276C52.8524 45.6158 52.9612 49.3118 53.0623 53.0078C52.3393 53 51.6084 53 50.8854 53ZM21.3027 14.6821C19.6467 14.6821 18.0217 14.6821 16.3968 14.6821C16.3968 19.9162 16.3968 25.1267 16.3968 30.455C16.2491 30.2588 16.1714 30.1568 16.0936 30.0469C12.4162 25.009 8.73098 19.9711 5.05355 14.9254C4.90583 14.7214 4.75034 14.6507 4.50155 14.6586C3.12543 14.6664 1.75708 14.6664 0.38096 14.6664C0.256565 14.6664 0.13217 14.6821 0 14.69C0 22.6235 0 30.5178 0 38.4199C1.64824 38.4199 3.27315 38.4199 4.90583 38.4199C4.90583 33.1858 4.90583 27.9753 4.90583 22.6627C5.05355 22.8667 5.14685 22.9845 5.23237 23.11C8.89425 28.1322 12.5639 33.1466 16.2258 38.1766C16.3813 38.3964 16.5523 38.467 16.8089 38.4591C18.1695 38.4513 19.53 38.4513 20.8906 38.4513C21.015 38.4513 21.1472 38.4434 21.2949 38.4356C21.3027 30.4707 21.3027 22.5764 21.3027 14.6821ZM82.1552 36.9446C82.1552 37.0545 82.3029 37.2036 82.4195 37.2585C85.4672 38.5925 88.6238 39.1968 91.928 38.5533C95.1623 37.9255 97.5958 35.7911 97.9612 32.2912C98.2411 29.5526 97.3781 27.3318 94.9757 25.833C93.5063 24.9149 91.8736 24.4205 90.2487 23.8869C89.339 23.5887 88.4372 23.2748 87.5742 22.8589C86.8123 22.4901 86.5324 21.7603 86.5868 20.9206C86.649 20.0496 87.0844 19.4375 87.8929 19.1472C88.3361 18.9902 88.8181 18.8804 89.2924 18.8647C91.4071 18.794 93.3819 19.414 95.2789 20.2929C95.792 20.5283 96.2818 20.8186 96.8261 21.1011C96.8261 20.9363 96.8261 20.8108 96.8261 20.6774C96.8261 19.5788 96.8261 18.4802 96.8261 17.3816C96.8261 16.9107 96.9738 16.3143 96.7405 16.0161C96.4684 15.663 95.8853 15.5218 95.4111 15.3491C92.6122 14.3525 89.7589 13.9131 86.8278 14.6272C82.9249 15.5845 80.8024 18.8882 81.5099 22.8667C81.8675 24.8835 83.1193 26.2018 84.8375 27.1513C86.2369 27.9203 87.753 28.3519 89.2613 28.8228C90.0465 29.066 90.8473 29.325 91.5781 29.6938C92.6433 30.2274 93.0165 31.2005 92.721 32.3619C92.4722 33.3428 91.6637 33.9784 90.4586 34.151C88.9036 34.3707 87.4187 34.049 85.9493 33.6096C84.6276 33.2172 83.3836 32.6444 82.1397 31.8675C82.1397 33.6253 82.1397 35.2889 82.1552 36.9446ZM50.9165 0C51.0176 3.69603 51.1264 7.36852 51.2275 11.0567C51.7484 11.0567 52.2304 11.0567 52.7513 11.0567C52.8602 7.36852 52.9612 3.70388 53.0701 0C52.3237 0 51.6473 0 50.9165 0ZM68.0364 47.4913C68.5961 47.0126 69.1326 46.5653 69.6846 46.0945C67.2356 43.3166 64.8176 40.57 62.3842 37.8078C61.9876 38.1452 61.6222 38.4513 61.218 38.7966C63.4959 41.7 65.7584 44.58 68.0364 47.4913ZM61.2257 14.1877C61.63 14.533 62.0032 14.8469 62.3919 15.1765C64.8332 12.4064 67.2511 9.65206 69.6846 6.88984C69.1248 6.41901 68.5961 5.97172 68.0364 5.49304C65.7506 8.40435 63.4882 11.2921 61.2257 14.1877ZM63.2005 15.9926C63.5348 16.3928 63.8536 16.7695 64.1801 17.1697C67.0568 14.8704 69.9178 12.5869 72.7867 10.2877C72.3202 9.73053 71.8848 9.20477 71.4028 8.62407C68.6506 11.0959 65.9294 13.5364 63.2005 15.9926ZM76.2853 36.568C76.5341 35.8774 76.7751 35.2104 77.0239 34.5277C73.5175 33.3506 70.0656 32.1971 66.598 31.0357C66.4192 31.5301 66.2637 31.9852 66.0849 32.4874C69.498 33.8528 72.8722 35.2025 76.2853 36.568ZM64.1801 35.8068C63.838 36.2148 63.527 36.5915 63.2005 36.9839C65.945 39.4479 68.6661 41.8884 71.4106 44.3524C71.8848 43.7795 72.3202 43.2538 72.7945 42.6888C69.8945 40.3739 67.0412 38.0903 64.1801 35.8068ZM37.9094 20.489C34.5041 19.1236 31.1143 17.7661 27.7012 16.4007C27.4525 17.0991 27.2192 17.7582 26.9704 18.4409C30.4535 19.6102 33.8977 20.7637 37.3885 21.9329C37.5596 21.4386 37.7306 20.9834 37.9094 20.489ZM42.7686 38.7887C42.3488 38.4356 41.9756 38.1296 41.5946 37.8078C39.1534 40.5857 36.7277 43.3322 34.302 46.0866C34.8695 46.5653 35.3904 47.0047 35.9502 47.4834C38.2437 44.5643 40.4984 41.6843 42.7686 38.7887ZM44.0281 1.21632C43.3439 1.46743 42.6909 1.71069 42.0067 1.9618C43.3595 5.41457 44.7045 8.83595 46.0573 12.273C46.5471 12.0925 46.998 11.9277 47.4878 11.7473C46.3216 8.20817 45.1788 4.72402 44.0281 1.21632ZM64.1801 2.98978C62.423 6.27776 60.697 9.51081 58.9633 12.7517C59.422 13.0185 59.8418 13.2618 60.285 13.5207C62.2131 10.3662 64.1257 7.23512 66.046 4.08054C65.4163 3.71173 64.8099 3.35076 64.1801 2.98978ZM48.4908 0.19618C47.7444 0.329582 47.0602 0.455138 46.3683 0.580693C47.1147 4.22964 47.8455 7.81581 48.5841 11.4334C49.0972 11.3392 49.5792 11.2529 50.0846 11.1666C49.5481 7.47838 49.0195 3.84513 48.4908 0.19618ZM42.0067 51.0147C42.6909 51.2658 43.3362 51.509 44.0281 51.768C45.1865 48.2446 46.3372 44.7526 47.4878 41.2449C46.9825 41.0566 46.5393 40.8996 46.0573 40.7191C44.7045 44.1562 43.3595 47.5697 42.0067 51.0147ZM31.1921 42.6888C31.6741 43.2616 32.1173 43.8031 32.576 44.3524C35.3282 41.8805 38.0571 39.4322 40.7861 36.9839C40.4517 36.5758 40.1408 36.207 39.8064 35.8068C36.922 38.1139 34.0687 40.3974 31.1921 42.6888ZM38.3914 19.4454C38.6636 18.9745 38.8968 18.5586 39.1534 18.1113C36.0357 16.1731 32.9258 14.2427 29.8004 12.2966C29.4272 12.9479 29.0851 13.5521 28.7275 14.1799C31.9618 15.9455 35.1727 17.6954 38.3914 19.4454ZM64.8332 18.1113C65.0898 18.5665 65.3385 18.9902 65.5951 19.4454C68.8216 17.6876 72.0248 15.9377 75.2591 14.1799C74.8936 13.5364 74.5438 12.9322 74.1861 12.2966C71.0529 14.2427 67.9508 16.1731 64.8332 18.1113ZM32.576 8.62407C32.1017 9.19692 31.6586 9.73053 31.1921 10.2877C34.0765 12.5948 36.9298 14.8783 39.8064 17.1697C40.1408 16.7616 40.4595 16.385 40.7861 15.9926C38.0494 13.5286 35.3204 11.0881 32.576 8.62407ZM35.9424 5.48519C35.3749 5.97172 34.8384 6.41901 34.2942 6.882C36.7432 9.65991 39.1611 12.4143 41.5946 15.1686C41.9911 14.8312 42.3565 14.5252 42.7608 14.1799C40.4828 11.2686 38.2204 8.38866 35.9424 5.48519ZM43.6938 13.5207C44.1525 13.2539 44.5723 13.0107 45.0155 12.7517C43.2662 9.47942 41.5402 6.24637 39.7987 2.99763C39.1611 3.36645 38.5703 3.71173 37.9327 4.08054C39.8686 7.25081 41.7812 10.3818 43.6938 13.5207ZM64.1801 49.9867C64.8254 49.61 65.4318 49.2569 66.046 48.8959C64.1179 45.7335 62.2053 42.6025 60.285 39.4557C59.8341 39.7147 59.4142 39.9658 58.9633 40.2248C60.7126 43.497 62.4464 46.7301 64.1801 49.9867ZM57.6105 0.572846C56.8719 0.439443 56.1955 0.321735 55.488 0.19618C54.9515 3.88436 54.4229 7.51762 53.8942 11.1666C54.4073 11.2607 54.866 11.3392 55.3947 11.4334C56.1333 7.80797 56.8719 4.2061 57.6105 0.572846ZM59.9584 51.768C60.6426 51.5169 61.2957 51.2736 61.9799 51.0225C60.6193 47.5697 59.2743 44.1484 57.9293 40.7113C57.4317 40.8918 56.9885 41.0566 56.4987 41.237C57.6571 44.7604 58.8 48.2446 59.9584 51.768ZM55.488 52.7803C56.211 52.6469 56.8797 52.5292 57.6027 52.3958C56.8563 48.7547 56.1255 45.145 55.3869 41.5352C54.8583 41.6294 54.4073 41.7157 53.8864 41.8099C54.4229 45.4824 54.9515 49.1235 55.488 52.7803ZM65.5951 33.5311C65.3308 33.9941 65.0898 34.4178 64.8332 34.8651C67.9586 36.8112 71.0607 38.7416 74.1861 40.6799C74.5438 40.0521 74.8859 39.4479 75.2591 38.7966C72.017 37.0309 68.8061 35.281 65.5951 33.5311ZM59.9584 1.20847C58.8 4.73971 57.6494 8.23172 56.4987 11.7394C57.0041 11.9277 57.4628 12.0925 57.937 12.2652C59.2898 8.82025 60.6271 5.39887 61.9799 1.95395C61.2879 1.695 60.6348 1.45958 59.9584 1.20847ZM39.1534 34.8651C38.889 34.41 38.6402 33.9862 38.3837 33.5389C35.1572 35.2967 31.9462 37.0466 28.7275 38.8044C29.1007 39.4479 29.4428 40.0521 29.8004 40.6877C32.9492 38.7259 36.0435 36.7955 39.1534 34.8651ZM37.9405 48.8959C38.578 49.2647 39.1767 49.6179 39.8064 49.9867C41.5557 46.7222 43.2817 43.4892 45.0233 40.2326C44.5646 39.9658 44.1447 39.7225 43.7016 39.4636C41.7734 42.6103 39.8609 45.7413 37.9405 48.8959ZM46.3761 52.4036C47.1302 52.537 47.7833 52.6547 48.4908 52.7724C49.0272 49.1078 49.5559 45.4745 50.0924 41.802C49.5948 41.7157 49.1128 41.6294 48.5918 41.5352C47.8455 45.192 47.1147 48.7939 46.3761 52.4036ZM25.9597 22.9531C29.5983 23.4945 33.1902 24.0281 36.821 24.5696C36.9065 24.0517 36.992 23.5573 37.0775 23.0551C33.4778 22.3096 29.9248 21.5641 26.3329 20.8186C26.2085 21.5406 26.0919 22.2233 25.9597 22.9531ZM36.6966 25.7153C33.0425 25.6133 29.4272 25.5034 25.7731 25.4014C25.7731 26.1312 25.7731 26.8296 25.7731 27.5751C29.4194 27.4731 33.0502 27.3632 36.6966 27.2612C36.6966 26.7119 36.6966 26.2175 36.6966 25.7153ZM78.0268 22.9531C77.8947 22.1997 77.7703 21.5249 77.6459 20.8186C74.0384 21.572 70.4776 22.3096 66.8935 23.0551C66.9868 23.573 67.0723 24.0595 67.1578 24.5696C70.7964 24.0281 74.4038 23.4945 78.0268 22.9531ZM37.0853 29.9292C36.992 29.4035 36.9065 28.9326 36.8132 28.4147C33.1824 28.9562 29.5827 29.4898 25.9519 30.0234C26.0763 30.7453 26.193 31.428 26.3251 32.1657C29.9481 31.4123 33.5167 30.6669 37.0853 29.9292ZM67.1656 28.4069C67.0723 28.9483 66.9868 29.4192 66.9013 29.9214C70.5009 30.6669 74.0618 31.4123 77.6537 32.1578C77.7858 31.428 77.9024 30.7453 78.0268 30.0234C74.3727 29.4741 70.7731 28.9405 67.1656 28.4069ZM26.9626 34.5355C27.2114 35.2261 27.4447 35.8774 27.7012 36.5758C31.1221 35.2025 34.5119 33.8528 37.9094 32.4874C37.7306 31.993 37.5596 31.5301 37.3885 31.0435C33.9132 32.2049 30.4613 33.3585 26.9626 34.5355ZM66.0771 20.4969C66.2637 21.007 66.4348 21.4699 66.6058 21.9408C70.0967 20.7715 73.5486 19.6102 77.0239 18.4488C76.7751 17.7504 76.5419 17.1069 76.2853 16.4085C72.8567 17.7739 69.4747 19.1315 66.0771 20.4969ZM67.2744 27.2533C70.9285 27.3632 74.5749 27.4652 78.2134 27.5672C78.2134 26.8217 78.2134 26.1233 78.2134 25.4014C74.5671 25.5034 70.9441 25.6133 67.2744 25.7153C67.2744 26.241 67.2744 26.7276 67.2744 27.2533Z" fill="black"/>
</svg>
