<svg width="131" height="57" viewBox="0 0 131 57" fill="none" xmlns="http://www.w3.org/2000/svg">
<path d="M112.811 56.6841C110.515 56.6841 108.219 56.6841 105.923 56.6841C105.917 56.4987 105.848 56.3235 105.677 56.2779C105.103 56.1205 104.702 55.6127 104.08 55.5215C103.657 55.4582 103.008 55.3155 102.899 55.03C102.607 54.2662 102.126 54.4193 101.598 54.4972L101.596 54.5002C101.642 54.2382 101.452 54.1058 101.309 53.9454C100.529 53.0668 99.665 52.2986 99.0279 51.2464C98.1267 49.7557 97.4293 48.2237 97.029 46.5313C96.6458 44.914 96.8094 43.2967 97.105 41.7029C97.2629 40.8538 97.5642 40.0047 97.9531 39.238C98.5429 38.0783 98.9461 36.7715 100.07 35.9621C100.382 35.737 100.555 35.425 100.426 35.01L100.451 35.0409C100.451 35.0409 100.43 35.0056 100.43 35.007C101.185 35.035 101.562 34.7068 101.592 33.996L101.595 33.999C102.442 34.1741 102.961 33.3824 103.707 33.2381C103.911 33.1984 103.928 32.8952 103.884 32.6671L103.891 32.6716C104.175 32.698 104.465 32.751 104.736 32.6171C106.135 31.9299 107.688 31.9843 109.164 31.7047C110.553 31.4413 111.928 31.9961 113.298 32.2816C114.012 32.4302 114.629 32.988 115.418 32.7981L115.435 32.7996C115.362 33.3058 115.771 33.4059 116.075 33.5545C117.464 34.2359 118.523 35.294 119.499 36.4934C120.271 37.4426 120.816 38.4933 121.288 39.6117C121.735 40.6698 121.993 41.7647 122.142 42.9023C122.352 44.4902 121.864 45.9898 121.644 47.5232C121.495 48.5681 121.106 49.532 120.637 50.4606C119.882 51.9572 118.533 52.9462 117.392 54.0587C116.623 54.8092 115.662 55.6554 114.399 55.7437C113.914 55.7776 113.515 56.2043 113.006 56.2706C112.788 56.2985 112.826 56.5178 112.811 56.6841ZM115.373 47.9838C115.968 47.9102 116.035 47.5291 115.903 47.0317C115.899 46.9669 115.894 46.9007 115.89 46.836C116.079 46.7697 116.163 46.68 115.956 46.524C115.972 46.4298 115.988 46.3371 116.003 46.2429C116.655 45.6498 116.75 43.8633 116.176 42.9832C116.148 42.7934 116.122 42.6036 116.095 42.4137C116.328 42.2239 116.203 42.1503 115.999 42.1017C115.975 42.012 115.95 41.9222 115.926 41.831C116.12 41.7309 116.111 41.5778 116.049 41.3968C115.765 40.5654 115.451 39.6986 114.809 39.1335C113.547 38.0224 112.295 36.9098 110.416 36.9054C109.021 36.9025 107.706 36.695 106.375 37.4882C104.821 38.4138 103.493 39.4263 103.063 41.3129C103.007 41.5572 102.881 41.7647 102.81 41.9914C102.554 42.8302 102.126 43.6411 102.433 44.5814C102.525 44.8655 102.509 45.198 102.508 45.5174C102.506 46.4695 102.965 47.2215 103.637 47.8484C103.925 48.2796 104.214 48.7123 104.504 49.1435C104.482 49.3642 104.57 49.4775 104.795 49.4525L104.792 49.4496C104.72 49.8778 104.953 50.2016 105.264 50.3561C106.528 50.9859 107.767 51.6673 109.25 51.6923C110.995 51.7218 112.61 51.3009 113.961 50.2236C114.623 49.6968 115.325 49.0066 115.375 47.9838H115.373Z" fill="#B1B1B1"/>
<path d="M74.747 51.8351C74.7212 51.8174 74.7126 51.7924 74.7241 51.7615C74.8834 51.4275 74.8891 51.1626 74.5619 50.8859C73.965 50.3797 73.6464 49.5438 73.513 48.908C73.3135 47.9633 72.8601 47.1053 72.7883 46.0899C72.685 44.6256 72.8644 43.1805 72.7955 41.728C72.7898 41.6162 72.8472 41.4779 72.9189 41.3896C73.4455 40.7362 73.688 39.9768 73.7741 39.1468C73.7914 38.9835 73.8688 38.8157 73.9549 38.673C74.3596 38.0063 74.7872 37.3559 75.1847 36.6848C75.3268 36.4449 75.5492 36.2139 75.4344 35.8828C75.4344 35.8828 75.4616 35.8739 75.4616 35.8754C75.5635 35.8916 75.6051 35.8475 75.5879 35.743C75.5879 35.743 75.598 35.715 75.598 35.7165C75.8677 35.765 76.1863 35.9358 76.3413 35.559C76.6082 34.9086 77.2022 34.5436 77.6786 34.1595C78.4435 33.5429 79.3791 33.1294 80.2788 32.7144C81.3206 32.2346 82.4398 32.0595 83.5792 31.9344C86.2912 31.6386 88.8139 31.9889 91.3179 33.2839C92.8432 34.0727 93.9008 35.2927 95.1779 36.3081C95.5883 36.6333 95.6801 37.1631 95.9757 37.5663C96.1479 37.8003 96.0819 38.1962 95.7318 38.4581C95.3085 38.776 94.8392 38.9231 94.3499 39.0085C94.0471 39.0615 93.8577 39.1292 93.6898 39.4441C93.4416 39.9135 91.8761 40.3653 91.414 40.1622C91.2705 40.099 91.117 39.9709 91.0495 39.8311C90.5143 38.7112 89.4467 38.1947 88.5097 37.5825C88.0591 37.2882 87.5411 36.8997 86.9915 36.8467C84.7888 36.6348 82.6766 36.9291 80.847 38.3477C80.395 38.698 79.9545 39.0615 79.6359 39.5736C79.1035 40.4257 78.5913 41.288 78.2856 42.2519C77.9312 43.3718 77.8881 44.5933 78.1866 45.6587C78.5482 46.9479 78.9615 48.287 79.9674 49.3201C80.3649 49.7277 80.692 50.0618 81.2675 50.0383L81.2703 50.0368C81.1986 50.5195 81.4827 50.7726 81.8587 50.9212C82.4283 51.1464 83.0081 51.3259 83.6165 51.4569C85.9612 51.9646 88.0921 51.6291 89.946 49.9985C90.3091 49.6792 90.6076 49.2804 90.9261 48.911C91.4815 48.265 92.242 47.8029 93.1431 48.6226C93.598 49.0361 94.1304 49.3201 94.7818 49.1523C94.8177 49.145 94.8493 49.1538 94.878 49.1759C94.9139 49.6924 95.3745 49.8057 95.693 50.0206C96.0489 50.2605 96.1508 50.5827 95.9528 50.8859C95.6758 51.3083 95.5194 51.7895 95.2138 52.2074C94.8364 52.7254 94.2753 52.983 93.8893 53.4303C93.377 54.0249 92.8303 54.612 92.1387 54.8755C90.9161 55.342 89.8513 56.2617 88.4623 56.272C88.2442 56.2735 88.1509 56.4707 88.1337 56.687C86.1248 56.687 84.1158 56.687 82.1069 56.687C81.7094 56.2485 81.2517 56.0263 80.6648 56.2602C80.5227 56.2117 80.3792 56.1631 80.2372 56.1146C79.887 55.4582 79.2944 55.2831 78.6243 55.2669L78.6157 55.2625C78.4277 54.6797 77.9872 54.5164 77.4462 54.5267H77.4017L77.3658 54.4987C77.2152 53.3744 76.2566 53.1595 75.4803 52.7387C75.4803 52.7387 75.4832 52.7416 75.4832 52.7401C75.5176 52.5223 75.4229 52.4208 75.212 52.4252C75.212 52.4252 75.2134 52.4267 75.2148 52.4267C75.2263 52.2251 75.133 52.125 74.9364 52.1221C74.9336 51.9808 74.8963 51.8689 74.747 51.8351Z" fill="#B1B1B1"/>
<path d="M130.174 37.1117C129.204 36.8247 128.384 36.2155 127.489 35.7681C126.223 35.1368 124.992 34.4363 123.742 33.774C122.963 33.362 122.522 32.8072 122.548 31.8168C122.617 29.1752 122.59 26.5307 122.611 23.8861C122.621 22.6559 123.109 22.2453 124.332 22.3924C125.23 22.4999 126.128 22.6058 127.027 22.7118C127.964 22.8222 128.459 23.349 128.421 24.31C128.366 25.7242 128.277 27.1384 128.159 28.5483C128.1 29.2488 128.244 29.7374 128.981 29.9198C129.389 30.0199 129.707 30.404 130.175 30.3407C130.174 32.5982 130.174 34.8542 130.174 37.1117Z" fill="#B1B1B1"/>
<path d="M58.8219 48.3223C57.9896 47.3745 57.483 46.2105 56.8373 45.1406C56.2389 44.1487 55.7223 43.1039 55.0192 42.1326C54.7437 42.3725 54.8442 42.6565 54.8427 42.8979C54.8355 46.5475 54.8398 50.1957 54.837 53.8453C54.837 54.8313 54.9934 55.8526 54.263 56.6841C52.6372 56.6841 51.0099 56.6841 49.3841 56.6841C48.8202 55.8394 48.9321 54.8769 48.9321 53.9351C48.9336 47.0949 48.9364 40.2533 48.9393 33.4132C48.9393 32.1756 49.3052 31.8047 50.5278 31.8003C51.8666 31.7959 53.2054 31.8106 54.5442 31.7974C55.5932 31.7871 56.3379 32.2065 56.8789 33.1704C59.1404 37.1968 61.4421 41.1996 63.7366 45.2068C63.8772 45.4526 64.0006 45.7278 64.2933 45.8956C64.5258 45.6454 64.4268 45.3393 64.4268 45.0729C64.4383 41.2231 64.4354 37.3748 64.4397 33.5251C64.4411 32.2506 64.8616 31.815 66.1071 31.8033C67.0398 31.7944 67.9726 31.793 68.9039 31.8047C69.8107 31.8165 70.3417 32.3433 70.3431 33.2543C70.3474 40.5359 70.3345 47.819 70.3632 55.1006C70.3661 55.7599 69.9872 56.1705 69.762 56.687C67.8004 56.687 65.8402 56.687 63.8786 56.687C63.8844 56.2279 63.3965 56.2661 63.2171 55.9968C62.3748 54.7283 61.5669 53.4391 60.9743 52.0205C61.7563 52.1912 62.0103 52.9682 62.2327 53.5215C62.6116 54.4619 63.3577 55.1006 63.7854 55.9718C63.8471 56.0984 63.9834 56.0836 64.0996 56.0998C64.665 56.1808 65.2261 56.2617 65.8029 56.2588C66.5893 56.2544 67.3928 56.1175 68.1577 56.3294C68.9067 56.5384 69.353 56.066 69.7577 55.6348C70.0116 55.364 70.0576 54.8843 70.0518 54.4516C69.9585 47.3466 70.214 40.2401 69.9198 33.1366C69.8954 32.5317 69.6371 32.3139 69.1119 32.2506C68.0701 32.1255 67.0298 32.1918 65.9909 32.2565C65.1084 32.311 64.7382 32.7436 64.7367 33.6678C64.7367 37.2233 64.7353 40.7787 64.7396 44.3342C64.7396 44.577 64.7611 44.8227 64.8085 45.0597C65.0137 46.081 64.9161 46.2738 63.8829 46.7211C63.4309 45.0435 62.3561 43.7058 61.521 42.24C60.8365 41.0392 60.208 39.8001 59.4719 38.6404C58.9022 37.7427 58.687 36.5787 57.704 35.9635C57.6237 35.9135 57.5878 35.7546 57.572 35.6398C57.4185 34.5331 56.5302 33.8179 56.1514 32.8305C56.1227 32.7569 56.005 32.7098 55.9204 32.6686C54.8398 32.1506 53.6761 32.2109 52.5324 32.1962C51.9656 32.1888 51.3615 32.4773 50.8392 32.3492C50.4317 32.2492 50.1418 31.999 49.7888 32.4125C49.5291 32.7171 49.2191 32.932 49.2263 33.4397C49.321 40.7154 49.0785 47.9941 49.3712 55.2698C49.3985 55.9321 49.6496 56.2573 50.3054 56.2499C51.2611 56.2396 52.2182 56.2558 53.1739 56.2426C54.0191 56.2308 54.4108 55.7967 54.4108 54.9137C54.4094 50.8182 54.4094 46.7241 54.4079 42.6285C54.4079 42.3107 54.4022 41.9957 54.5242 41.6897C54.705 41.2334 55.1053 41.1142 55.2761 41.5292C55.5975 42.3107 56.2935 42.8125 56.5905 43.6028C56.9894 44.6668 57.5921 45.6542 58.202 46.5755C58.5923 47.1641 58.9682 47.5982 58.8219 48.3223Z" fill="#B1B1B1"/>
<path d="M0.597114 56.6841C-0.126103 55.8511 0.0102176 54.8313 0.0102176 53.8409C0.0102176 47.0788 0.0102176 40.3168 0.0116526 33.5547C0.0116526 32.2317 0.42779 31.802 1.72786 31.802C5.31094 31.8005 8.89546 31.7593 12.4785 31.8255C14.3985 31.8608 16.2711 32.2243 17.8969 33.4119C19.3663 34.4862 20.1412 35.9196 20.3206 37.7753C20.4842 39.4779 20.0594 40.951 19.1181 42.3226C18.8081 42.7744 18.4178 43.132 17.9845 43.4204C17.5353 43.7191 17.3976 43.8383 18.006 44.1268C19.494 44.8331 20.5947 45.9413 21.0883 47.5939C21.1715 47.8706 21.3322 48.1325 21.259 48.443C20.6779 48.5107 20.7209 48.0236 20.6061 47.6734C20.3278 46.8242 20.0953 45.8456 19.296 45.4365C18.6173 45.0877 18.0074 44.6433 17.3488 44.2739C17.0015 44.0797 16.9714 43.4351 17.3158 43.3174C18.171 43.0231 18.5082 42.2269 19.0377 41.6118C19.1927 41.4322 19.4209 41.3278 19.5213 41.0849C20.3851 39.0217 20.0652 37.0159 19.0291 35.1646C18.3217 33.9005 17.0733 33.2397 15.7158 32.7585C13.9637 32.1375 12.1327 32.1463 10.3634 32.1787C8.73331 32.2096 7.0989 32.086 5.46305 32.2067C4.17302 32.3009 2.86004 32.2096 1.55566 32.2435C0.686082 32.2655 0.518192 32.5466 0.373261 33.4134C0.238376 34.2184 0.466533 34.9645 0.462229 35.7415C0.433529 42.0665 0.445009 48.3915 0.447879 54.7151C0.447879 55.9792 0.696126 56.2397 1.89431 56.2397C5.91075 56.2411 9.92576 56.2352 13.9422 56.2455C14.3339 56.247 14.7472 56.2308 15.0586 56.0542C16.1133 55.4597 17.3674 55.5186 18.4049 54.7048C19.2601 54.0337 20.035 53.3847 20.3866 52.3722C20.7597 51.295 21.1572 50.2016 21.1242 49.0214C21.1198 48.8919 21.183 48.7874 21.2906 48.7167C21.6953 50.6416 21.2131 52.3605 20.0264 53.8483C18.6833 55.5318 16.7949 56.1955 14.7802 56.5634C14.6425 56.5884 14.5076 56.6385 14.3713 56.6782C9.78083 56.6841 5.18897 56.6841 0.597114 56.6841Z" fill="#B1B1B1"/>
<path d="M41.4934 56.6841C40.5793 55.5524 40.288 54.125 39.7556 52.8123C39.6365 52.518 39.4428 52.4311 39.1429 52.4311C35.9645 52.4385 32.7861 52.4385 29.6062 52.4282C29.1714 52.4267 28.9547 52.6269 28.8342 53.0315C28.6792 53.5451 28.4597 54.0396 28.3233 54.5591C28.1181 55.3449 27.646 55.9821 27.2873 56.6841C25.4219 56.6841 23.5564 56.6841 21.691 56.6841C20.9778 55.7172 21.6221 54.8387 21.9034 53.9616C21.9981 53.6673 22.0612 53.2964 22.3496 53.0801C22.3769 53.604 22.5864 54.1544 22.1832 54.6224C21.8173 55.0491 21.6336 55.6039 21.9378 56.0292C22.2004 56.3986 22.7528 56.3589 23.2479 56.2956C23.9066 56.2117 24.6412 56.0778 25.2325 56.2912C25.9614 56.5546 26.313 55.3111 27.019 55.9792C27.1036 56.0601 27.1768 55.8982 27.2127 55.8217C27.5255 55.1566 27.9503 54.5164 28.1138 53.813C28.464 52.2972 28.9346 51.8513 30.3739 51.9735C30.5403 51.9882 30.7082 51.9808 30.8747 51.9779C32.5335 51.9455 34.1851 52.2501 35.8569 52.0014C36.9359 51.841 38.0308 52.1854 39.1314 52.1324C40.0297 52.0897 40.4028 52.4429 40.4717 53.3641C40.5233 54.044 40.839 54.6385 41.1045 55.2066C41.3915 55.8203 41.9683 56.2735 42.7662 56.2514C43.9356 56.2191 45.1051 56.2514 46.2746 56.2382C46.9117 56.2308 47.0897 55.938 46.8931 55.3067C46.8228 55.0786 46.6219 54.8402 46.8859 54.6047C47.4843 55.2419 47.4341 55.9468 47.0882 56.6811C45.2242 56.6841 43.3588 56.6841 41.4934 56.6841Z" fill="#B1B1B1"/>
<path d="M112.811 56.6841C112.825 56.5178 112.786 56.3 113.01 56.2706C113.521 56.2043 113.918 55.7776 114.403 55.7437C115.668 55.6554 116.628 54.8092 117.397 54.0587C118.538 52.9462 119.885 51.9572 120.641 50.4606C121.109 49.532 121.499 48.5681 121.648 47.5232C121.867 45.9898 122.354 44.4902 122.146 42.9024C121.997 41.7648 121.739 40.6699 121.293 39.6118C120.821 38.4919 120.275 37.4426 119.503 36.4935C118.527 35.2941 117.468 34.236 116.079 33.5546C115.775 33.406 115.366 33.3059 115.439 32.7997C115.602 32.8335 115.787 32.8262 115.922 32.9071C119.677 35.1528 121.964 38.4036 122.461 42.9024C122.728 45.3291 122.303 47.6115 121.301 49.8101C119.806 53.0904 117.278 55.1565 114.026 56.3809C113.801 56.4663 113.573 56.5237 113.385 56.6841C113.194 56.6841 113.003 56.6841 112.811 56.6841Z" fill="#B1B1B1"/>
<path d="M88.1294 56.684C88.1466 56.4676 88.2399 56.2704 88.458 56.269C89.847 56.2587 90.9118 55.3404 92.1344 54.8724C92.826 54.609 93.3727 54.0218 93.885 53.4273C94.271 52.9784 94.8306 52.7224 95.2095 52.2044C95.5151 51.785 95.6715 51.3052 95.9485 50.8829C96.1465 50.5797 96.0446 50.2574 95.6888 50.0176C95.3702 49.8027 94.9096 49.6894 94.8737 49.1729C95.3243 49.2096 95.673 49.4819 96.0073 49.7438C96.587 50.1986 96.62 50.824 96.1723 51.4833C94.4805 53.9777 92.1817 55.6141 89.3864 56.5545C89.2975 56.5839 89.2171 56.6398 89.1339 56.6825C88.7995 56.684 88.4652 56.684 88.1294 56.684Z" fill="#B1B1B1"/>
<path d="M101.601 54.4958C102.127 54.4178 102.609 54.2647 102.902 55.0285C103.011 55.3125 103.66 55.4567 104.083 55.52C104.705 55.6127 105.106 56.1205 105.68 56.2764C105.851 56.3235 105.92 56.4987 105.926 56.6826C105.83 56.6826 105.735 56.6826 105.639 56.6826C104.43 56.1867 103.205 55.7305 102.122 54.9667C101.925 54.8313 101.691 54.7489 101.601 54.4958Z" fill="#B1B1B1"/>
<path d="M80.6605 56.2559C81.2474 56.0219 81.7051 56.2456 82.1026 56.6827C81.863 56.6827 81.6248 56.6827 81.3851 56.6827C81.144 56.5414 80.903 56.3987 80.6605 56.2559Z" fill="#B1B1B1"/>
<path d="M15.5408 15.2962C15.5408 12.8209 15.5408 10.3457 15.5408 7.8704C15.5408 6.17804 15.5221 4.48715 15.548 2.79479C15.5681 1.47034 16.0315 0.936138 17.2541 1.01561C18.0634 1.06858 18.8799 1.02444 19.6921 1.02444C21.008 1.02444 21.4155 1.42324 21.4184 2.75653C21.4241 5.84546 21.4198 8.93585 21.4184 12.0248C21.4169 15.9967 21.4155 19.9686 21.4126 23.9405C21.4112 25.4356 21.0625 25.7932 19.5902 25.7962C18.4423 25.7991 17.2943 25.78 16.1478 25.7932C15.2567 25.805 14.565 25.4371 14.1087 24.6689C12.8287 22.5189 11.5631 20.3586 10.3018 18.1953C9.01606 15.9967 7.74612 13.7848 6.45753 11.5848C6.34274 11.389 6.26668 11.13 5.94095 11.0403C5.92516 11.3361 5.89933 11.6171 5.8979 11.8982C5.89503 15.9687 5.89503 20.0377 5.89359 24.1082C5.89359 25.3385 5.45593 25.7903 4.25488 25.7947C3.34655 25.7977 2.43822 25.8035 1.5299 25.7932C0.449378 25.7815 0.0475911 25.3635 0.0361115 24.2024C0.020327 22.5836 0.0303717 20.9663 0.0303717 19.3476C0.0303717 13.8555 0.0318066 8.3634 0.0332416 2.87132C0.0332416 1.4306 0.4092 1.03621 1.7968 1.02885C3.08826 1.02149 4.37828 1.02149 5.66974 1.02149C6.72156 1.02149 7.45482 1.51154 7.98576 2.45338C10.2874 6.543 12.6178 10.6164 14.9424 14.6928C15.0716 14.9195 15.2395 15.124 15.3887 15.3403C15.4389 15.3241 15.4891 15.3094 15.5408 15.2962Z" fill="#B1B1B1"/>
<path d="M21.292 48.7227C21.183 48.7933 21.1213 48.8978 21.1256 49.0273C21.1586 50.209 20.7625 51.3025 20.388 52.3782C20.0364 53.3907 19.263 54.0397 18.4063 54.7107C17.3689 55.5245 16.1147 55.4642 15.06 56.0602C14.7472 56.2368 14.3339 56.253 13.9436 56.2515C9.92719 56.2397 5.91219 56.2471 1.89575 56.2456C0.697566 56.2456 0.44932 55.9837 0.44932 54.721C0.44645 48.396 0.43497 42.071 0.463669 35.7474C0.466539 34.9704 0.238381 34.2243 0.374702 33.4193C0.519632 32.5526 0.688957 32.2715 1.5571 32.2494C2.86004 32.2156 4.17446 32.3068 5.46448 32.2126C7.10176 32.0919 8.73618 32.2156 10.3648 32.1847C12.1327 32.1508 13.9637 32.1434 15.7172 32.7645C17.0747 33.2457 18.3231 33.9064 19.0305 35.1706C20.0666 37.0204 20.3851 39.0262 19.5227 41.0909C19.4208 41.3337 19.1941 41.4367 19.0391 41.6177C18.5096 42.2314 18.171 43.0275 17.3172 43.3233C16.9728 43.4425 17.0029 44.0856 17.3502 44.2799C18.0074 44.6493 18.6173 45.0937 19.2974 45.4425C20.0967 45.8516 20.3277 46.8302 20.6075 47.6793C20.7223 48.0281 20.6793 48.5167 21.2605 48.449C21.2705 48.5373 21.282 48.63 21.292 48.7227ZM13.4902 51.3275C13.5906 51.2877 13.6911 51.2495 13.7901 51.2097C14.4832 51.3657 15.248 50.939 15.5264 50.2576C15.9411 49.2407 15.9999 48.1944 15.2537 47.3703C14.4731 46.5079 13.3381 46.296 12.2289 46.2872C11.8429 46.2842 11.431 46.3975 11.0307 46.3755C9.65455 46.3004 8.27986 46.1974 6.89944 46.2342C6.23362 46.2519 5.80026 46.4417 5.68403 47.2349C5.55058 48.1444 5.70412 49.0656 5.4487 49.9868C5.36547 50.2856 5.08996 51.1626 5.90932 51.3834C6.11452 51.5585 6.36276 51.4996 6.59379 51.4996C8.56255 51.5011 10.5313 51.4967 12.4986 51.4938C12.8932 51.8411 13.2147 51.7263 13.4902 51.3275ZM9.01599 41.943C9.01599 41.9371 9.01599 41.9312 9.01599 41.9253C9.87553 41.9253 10.7365 41.9503 11.5946 41.9194C13.196 41.862 14.3856 40.9555 14.5119 39.7326C14.674 38.1712 13.7026 37.041 12.0581 36.991C10.2214 36.935 8.38031 36.9733 6.54213 36.9424C6.02698 36.9336 5.8964 37.1514 5.89497 37.6414C5.89353 38.8599 5.85623 40.0799 5.81031 41.2969C5.79165 41.7767 5.97533 41.9577 6.43595 41.9459C7.29548 41.9297 8.15502 41.943 9.01599 41.943Z" fill="#B1B1B1"/>
<path d="M27.9875 3.52089C28.0306 3.47674 28.0722 3.43259 28.1152 3.38845C28.5142 3.45614 28.8055 3.28837 29.1556 3.07205C30.5159 2.23469 31.8777 1.39293 33.5164 1.17954C34.4592 1.0574 35.4048 0.969098 36.3433 0.84401C37.2028 0.730695 37.9949 0.922006 38.7942 1.1089C39.1084 1.18248 39.3854 1.3473 39.7398 1.41206C40.717 1.59012 41.7401 1.7108 42.5495 2.46721C43 2.88809 43.5625 3.21627 44.2427 3.08823C44.2427 3.08823 44.2456 3.08529 44.2456 3.08676C44.2298 3.21774 44.2814 3.30603 44.3718 3.40463C45.0951 4.19637 45.9202 4.9204 46.5013 5.81073C47.4599 7.27794 48.5217 8.72013 48.78 10.5567C48.9996 12.1225 49.232 13.6692 48.9364 15.2703C48.7585 16.2313 48.3295 17.0922 48.1314 18.0267C47.9678 18.8037 47.5201 19.3982 47.1614 20.059C46.8184 20.6903 46.0507 20.9611 45.8814 21.7381C45.8412 21.9235 45.626 22.0942 45.4552 22.2193C44.7593 22.7256 44.1466 23.3348 43.4678 23.8646C42.3242 24.7564 41.0241 25.1861 39.6681 25.4952C38.754 25.7041 37.8543 25.8866 36.8785 25.8807C35.8841 25.8748 34.9241 25.9146 33.9283 25.7115C33.1275 25.5481 32.4416 25.1066 31.6381 24.9727C30.6537 24.8094 29.8099 24.2899 29.0537 23.6247C28.8212 23.4202 28.5429 23.3687 28.2487 23.4893C28.2487 23.4893 28.2286 23.4731 28.23 23.4731C28.3176 23.0802 28.1196 22.7344 27.8254 22.6387C27.2514 22.4504 27.0132 22.0001 26.8209 21.5188C26.6258 21.0273 26.3072 20.8698 25.8308 20.9317C25.8078 20.9081 25.8007 20.8801 25.8107 20.8478C25.9155 20.5299 25.772 20.2665 25.6213 20.0178C24.9139 18.8596 24.4131 17.6632 24.2624 16.2548C24.1347 15.0569 23.5334 13.937 23.6698 12.6508C23.7315 12.0695 23.8979 11.5309 23.9855 10.9673C24.3169 8.84964 25.3357 7.10282 26.6172 5.44872C27.0907 4.83064 27.877 4.41711 27.9875 3.52089ZM36.3906 20.7757C40.0799 21.1598 43.6285 17.3659 43.5195 13.3911C43.4004 9.05419 40.4559 6.01823 36.3074 5.92699C32.6454 5.84605 29.2489 9.51334 29.2603 13.1527C29.2733 17.3277 32.3742 21.1333 36.3906 20.7757Z" fill="#B1B1B1"/>
<path d="M46.8873 54.6077C46.6233 54.8431 46.8242 55.083 46.8945 55.3097C47.0911 55.941 46.9132 56.2338 46.276 56.2412C45.1065 56.2544 43.9356 56.2221 42.7676 56.2544C41.9697 56.2765 41.3929 55.8232 41.1059 55.2096C40.8404 54.6415 40.5247 54.047 40.4731 53.3671C40.4028 52.4459 40.0297 52.0912 39.1328 52.1354C38.0322 52.1883 36.9374 51.844 35.8583 52.0044C34.1865 52.2531 32.5363 51.9485 30.8761 51.9808C30.7097 51.9838 30.5418 51.9897 30.3753 51.9764C28.9346 51.8543 28.4654 52.3002 28.1153 53.816C27.9531 54.5194 27.5269 55.1595 27.2141 55.8247C27.1782 55.9012 27.105 56.0631 27.0204 55.9822C26.3144 55.3141 25.9628 56.5576 25.2339 56.2942C24.6427 56.0808 23.908 56.2147 23.2493 56.2986C22.7543 56.3619 22.2018 56.4016 21.9392 56.0322C21.6364 55.6069 21.8187 55.0521 22.1846 54.6253C22.5864 54.1559 22.3783 53.607 22.351 53.0831C22.364 53.0066 22.3783 52.9315 22.3927 52.8565C22.7428 52.8609 22.7916 52.6181 22.859 52.3296C23.0413 51.5467 23.2407 50.7697 23.885 50.2061C24.0543 50.0574 24.2739 49.7454 24.2237 49.5953C24.0099 48.9567 24.3585 48.4916 24.525 47.9398C25.1205 45.9722 25.9657 44.1091 26.7219 42.2107C26.8955 41.7751 26.8482 41.3292 27.0419 40.8863C27.5413 39.7443 27.9789 38.5537 28.2559 37.3367C28.4281 36.5759 28.8399 35.9475 29.0623 35.2205C29.2661 34.5524 29.7124 33.9417 29.8587 33.2324C29.9893 32.5996 30.3839 32.2743 30.9464 32.267C33.1462 32.2361 35.346 32.2449 37.5458 32.2655C38.0868 32.2699 38.731 32.5304 38.843 32.991C39.0812 33.9682 39.6135 34.8114 39.8589 35.7768C40.0498 36.5244 40.2134 37.3647 40.5577 37.9725C41.2695 39.2263 41.4101 40.6611 42.0659 41.9488C42.6858 43.1673 43.2684 44.5477 43.5166 45.9869C43.5955 46.4461 44.0217 46.8493 44.0777 47.3055C44.2154 48.4283 44.9372 49.3334 45.0865 50.4386C45.1209 50.6946 45.3017 50.8065 45.5557 50.7756C45.5715 50.8256 45.5873 50.8771 45.6016 50.9272C45.2902 51.5394 45.7279 52.7137 46.3765 53.0051C46.3908 53.0816 46.4052 53.1581 46.4181 53.2347C46.4353 53.5246 46.1311 53.9425 46.7108 54.0073C46.728 54.0617 46.7438 54.1162 46.761 54.1691C46.7209 54.2045 46.6807 54.2398 46.642 54.2751C46.7037 54.2898 46.7639 54.306 46.8256 54.3207C46.8471 54.4149 46.8672 54.5106 46.8873 54.6077ZM34.8308 36.8982C34.3817 37.2396 33.7274 37.169 33.5996 37.8591C33.4074 38.8981 33.0128 39.8753 32.6655 40.8671C32.5579 41.1718 32.1948 41.2056 32.1747 41.5338C32.0843 43.0275 31.3783 44.3078 30.8244 45.644C30.6092 46.162 30.4356 46.761 30.8417 47.2378C31.1516 47.6013 31.6596 47.6072 32.1173 47.5321C33.7561 47.2643 35.402 47.4541 37.045 47.4335C37.4195 47.4291 37.8529 47.6454 38.0753 47.2407C38.2991 46.8331 38.2676 46.3651 37.9949 45.9281C37.586 45.2717 37.474 44.4579 37.1038 43.8104C36.6561 43.0245 37.1339 41.9267 36.2141 41.3336C36.0836 41.2498 36.0893 40.9275 36.052 40.7126C36.019 40.5228 35.9243 40.3418 35.8913 40.174C35.6645 39.0467 34.617 38.205 34.8308 36.8982Z" fill="#B1B1B1"/>
<path d="M73.6493 3.56453C73.612 3.66755 73.5732 3.77056 73.5359 3.87357C73.4297 3.8721 73.302 3.8412 73.2719 3.99277C73.2475 4.11492 73.358 4.12816 73.4369 4.16054C73.4125 4.25472 73.3881 4.34891 73.3623 4.44309C73.0552 4.60644 72.9318 4.87428 72.9461 5.22011C72.7782 5.74106 72.4769 6.22081 72.4984 6.79768C72.1368 7.01843 72.0077 7.33924 72.1139 7.75718C72.0909 7.87638 72.0694 7.99706 72.0464 8.11626C71.8125 8.14275 71.7551 8.27813 71.8226 8.49299C71.791 8.72404 71.8369 8.97421 71.6532 9.16405C71.2715 9.11107 71.0907 9.26412 71.042 9.6747C71.0018 10.0058 70.9114 10.359 70.7464 10.6416C70.2699 11.4524 70.412 12.4546 69.9327 13.2581C69.8667 13.3685 69.937 13.4936 70.0518 13.5671C70.0188 13.6716 69.9844 13.7761 69.9514 13.8791C69.9141 13.8924 69.8768 13.9056 69.8395 13.9189C69.8639 13.9483 69.8897 13.9777 69.9141 14.0072C69.8725 14.3236 69.7735 14.6179 69.5998 14.8857C69.5654 14.9431 69.5324 15.0005 69.4979 15.0579L69.5051 15.0608C69.1206 15.0564 68.9527 15.2875 68.9053 15.6465C68.6858 17.2874 67.7889 18.684 67.324 20.2395C66.9322 21.5507 66.3554 22.8045 66.0211 24.1378C65.8245 24.9207 65.183 25.4843 64.3895 25.4858C62.3103 25.4902 60.231 25.4843 58.1532 25.4902C57.9035 25.4917 57.6208 25.3798 57.4185 25.6418C57.2994 25.6433 57.1932 25.6182 57.1286 25.502C57.1358 25.1856 56.9866 25.0355 56.6766 25.0576C56.4958 24.9648 56.4054 24.8147 56.404 24.6087C56.4514 24.0201 56.4872 23.4373 55.8329 23.1356C55.8071 23.1062 55.7999 23.0709 55.8114 23.0326C55.8601 22.6191 55.9247 22.2011 55.4885 21.9392C55.4397 21.8244 55.3924 21.7111 55.345 21.5963C55.444 21.2961 55.4498 21.0371 55.0738 20.9458C54.9848 20.6971 54.8944 20.4484 54.8055 20.1983C54.8499 20.1453 54.9418 20.0761 54.9303 20.0423C54.5386 18.8767 54.3807 17.6406 53.8971 16.5045C53.7938 16.2602 53.6173 16.194 53.382 16.2219C53.3691 16.1484 53.3547 16.0748 53.3418 16.0012C53.4207 15.7584 53.4064 15.5273 53.3088 15.2875C52.8353 14.1234 52.5956 12.8799 52.1135 11.7144C51.7576 10.8535 51.4678 9.95578 51.1363 9.08753C50.4547 7.29951 49.6454 5.56447 49.2393 3.67638C49.1704 3.35409 49.0025 3.15101 48.6725 3.11275C48.6567 3.03769 48.6409 2.96264 48.6251 2.88759C48.4888 2.22977 48.605 1.62052 48.9595 1.05689C49.1948 1.04806 49.4316 1.0407 49.6669 1.03187C49.7688 1.22171 49.8692 1.21877 49.9682 1.02893C51.1133 1.03923 52.257 1.04953 53.4021 1.05836C53.7278 1.59109 54.1239 2.03846 54.7495 2.19887C54.7653 2.25185 54.7825 2.3063 54.7983 2.35928C54.7294 2.41814 54.5945 2.48436 54.6003 2.53293C54.6964 3.28493 55.0336 3.91331 55.566 4.43573C55.721 4.5461 55.7066 4.71387 55.7109 4.87575C55.4397 5.12445 55.5445 5.41289 55.6593 5.67631C55.9462 6.33854 56.0424 7.08465 56.4786 7.68066C56.6164 7.86902 56.4585 8.27961 56.8847 8.2487C56.9105 8.27666 56.9148 8.30757 56.8976 8.34289C56.8173 8.66811 56.8632 8.94331 57.1803 9.11549C57.1803 9.11549 57.1789 9.12284 57.1774 9.12284C56.9636 10.3929 57.7069 11.3818 58.1116 12.4693C58.1676 12.6179 58.2938 12.6856 58.4531 12.6709C58.5134 12.8917 58.5751 13.1109 58.6353 13.3317C58.6009 14.1528 58.5564 14.974 59.2352 15.6009C59.2926 15.6539 59.271 15.7893 59.3055 15.8776C59.6169 16.659 59.6771 17.5243 60.1177 18.269C60.3559 18.6722 60.4893 19.121 60.5065 19.6332C60.5194 20.0099 60.7347 20.4484 61.1695 20.5985C61.5009 20.7133 61.8367 20.5838 61.9659 20.2763C62.26 19.5758 62.4753 18.8429 62.2356 18.0629C62.2658 17.9393 62.2945 17.8157 62.3232 17.6921C63.111 17.1844 63.0306 16.3397 63.1124 15.5582C63.0937 15.5229 63.0981 15.4905 63.1224 15.4596C63.332 15.4847 63.385 15.3449 63.474 15.18C63.6735 14.8077 63.6132 14.3221 63.8442 14.0145C64.7626 12.7901 64.7942 11.2111 65.4829 9.86749C65.9522 8.95067 66.1559 7.76748 66.4702 6.70203C66.9064 5.22452 67.3943 3.75584 67.9654 2.32837C68.261 1.58815 68.8996 1.17021 69.7591 1.19964C70.6875 1.23054 71.6188 1.21288 72.5487 1.20405C72.7754 1.20258 73.0337 1.29235 73.2116 1.051C73.3034 1.05542 73.3967 1.05983 73.4885 1.06425C73.5273 1.38506 73.7325 1.37035 73.9592 1.30854C73.9592 1.30854 73.9621 1.32325 73.9606 1.32325C73.8932 1.68822 73.9406 2.03993 74.0697 2.38429C74.0109 2.57708 73.9535 2.76986 73.8961 2.96117C73.5732 3.05977 73.3235 3.1878 73.6493 3.56453Z" fill="#B1B1B1"/>
<path d="M86.1951 26.4554C83.12 26.5894 80.4381 25.6755 78.1005 23.9522C76.1389 22.5056 74.648 20.5851 73.7942 18.1702C73.0337 16.0231 72.8299 13.8613 73.0825 11.6185C73.3666 9.09176 74.2878 6.79308 75.9495 4.96091C77.4533 3.30239 79.1279 1.84401 81.4052 1.14058C83.4457 0.510723 85.4633 0.320884 87.5353 0.392993C89.197 0.450387 90.7482 1.03756 92.2334 1.76749C94.2237 2.74465 95.8868 4.18537 97.1007 6.0455C98.2961 7.87767 99.0537 9.90851 99.1786 12.1895C99.2905 14.2263 99.1255 16.185 98.4396 18.0937C97.4552 20.8265 95.7031 22.9824 93.3239 24.4761C91.1342 25.8477 88.6948 26.6159 86.1951 26.4554ZM73.4929 13.1005C73.4642 14.2586 73.7124 15.2579 73.8186 16.2674C73.9291 17.3137 74.5834 18.0804 74.7987 19.0429C75.0268 20.0686 75.8318 20.7146 76.4331 21.4725C76.9698 22.1509 77.3142 23.2061 78.4966 23.056C78.6501 23.0369 78.6415 23.2179 78.653 23.3356C78.6673 23.4828 78.663 23.652 78.8352 23.6976C79.5254 23.8816 79.9889 24.4673 80.6361 24.7351C81.9706 25.287 83.3639 25.5916 84.7558 25.933C86.0588 26.2524 87.2871 25.3105 88.58 25.7903C88.6747 25.8256 88.8139 25.7623 88.9258 25.7211C89.7968 25.3988 90.6549 25.0294 91.5389 24.7528C92.7342 24.379 93.72 23.5755 94.6699 22.8632C96.0518 21.8301 96.9099 20.2261 97.6532 18.6205C97.7867 18.3306 97.7221 18.0142 97.9129 17.7214C98.7839 16.3778 98.7868 14.7987 98.8299 13.2859C98.8543 12.3941 98.6821 11.4655 98.4209 10.5575C98.1985 9.78195 97.5657 9.08146 97.8254 8.16758C97.8498 8.08223 97.7422 7.94242 97.6718 7.84382C96.9027 6.75335 96.1364 5.66141 95.3515 4.58418C95.1679 4.33253 94.921 4.12503 94.6871 3.91753C94.0055 3.30975 93.0169 3.16112 92.4572 2.35761C92.4013 2.27667 92.2434 2.27226 92.1358 2.22664C91.0739 1.7719 89.9504 1.51879 88.8555 1.16854C87.6214 0.774144 86.3372 0.784445 85.1146 0.883044C83.1573 1.04051 81.2875 1.64093 79.5642 2.73876C78.587 3.35979 77.4433 3.6806 76.9913 4.93884C76.9325 5.10513 76.6656 5.2155 76.4733 5.30233C76.3169 5.37297 76.1145 5.42006 76.0672 5.57605C75.8074 6.45608 74.7714 6.92406 74.8518 7.9748C74.8905 8.48839 74.2649 8.47809 74.1903 8.92694C73.9535 10.3603 73.3379 11.7274 73.4929 13.1005Z" fill="#B1B1B1"/>
<path d="M81.2631 50.0368C80.6877 50.0603 80.3605 49.7263 79.9631 49.3186C78.9572 48.287 78.5439 46.9464 78.1823 45.6572C77.8838 44.5932 77.9283 43.3703 78.2813 42.2504C78.5855 41.2865 79.0992 40.4241 79.6316 39.572C79.9501 39.0614 80.3921 38.6964 80.8427 38.3462C82.6722 36.9275 84.7845 36.6332 86.9872 36.8451C87.5367 36.8981 88.0548 37.2866 88.5053 37.5809C89.4424 38.1931 90.51 38.7111 91.0452 39.8296C91.1126 39.9694 91.2662 40.0974 91.4097 40.1607C91.8717 40.3638 93.4373 39.912 93.6855 39.4425C93.852 39.1276 94.0428 39.0599 94.3456 39.0069C94.8349 38.9216 95.3041 38.7729 95.7274 38.4565C96.0776 38.1946 96.1421 37.7987 95.9714 37.5647C95.6758 37.1615 95.5839 36.6317 95.1735 36.3065C93.8964 35.2911 92.8389 34.0711 91.3135 33.2823C88.8095 31.9873 86.2869 31.637 83.5748 31.9328C82.4355 32.0579 81.3162 32.233 80.2744 32.7128C79.3733 33.1278 78.4391 33.5413 77.6743 34.1579C77.1979 34.5405 76.6038 34.907 76.3369 35.5574C76.182 35.9342 75.8634 35.7649 75.5936 35.7149C76.2695 34.6009 77.3098 33.9018 78.3717 33.2661C83.2634 30.339 89.4581 30.7996 93.872 34.4066C94.8292 35.188 95.6069 36.1564 96.2842 37.1998C96.6975 37.837 96.4923 38.5625 95.8021 38.9304C94.7675 39.4823 93.7242 40.0165 92.6696 40.5271C91.8746 40.9112 91.4355 40.8097 90.8285 40.1268C90.2832 39.5132 89.8154 38.8318 89.1008 38.3888C85.2896 36.0239 80.5643 37.3631 78.9543 41.778C78.0072 44.3784 78.6716 47.7999 80.9862 49.7101C81.0952 49.7999 81.1727 49.9264 81.2631 50.0368Z" fill="#B1B1B1"/>
<path d="M45.5571 50.774C45.3031 50.8049 45.1223 50.693 45.0879 50.437C44.9387 49.3303 44.2169 48.4267 44.0791 47.3039C44.0232 46.8477 43.597 46.4445 43.5181 45.9853C43.2698 44.5446 42.6872 43.1657 42.0673 41.9472C41.4115 40.6596 41.2709 39.2247 40.5592 37.9709C40.2148 37.3631 40.0498 36.5228 39.8604 35.7753C39.615 34.8099 39.0826 33.9681 38.8444 32.9895C38.7325 32.5289 38.0868 32.2699 37.5472 32.264C35.3474 32.2434 33.1476 32.2346 30.9479 32.2655C30.3854 32.2728 29.9907 32.598 29.8602 33.2308C29.7138 33.9402 29.2675 34.5509 29.0638 35.219C28.8414 35.946 28.431 36.5743 28.2573 37.3352C27.9818 38.5507 27.5442 39.7427 27.0434 40.8847C26.8496 41.3277 26.8956 41.7736 26.7234 42.2092C25.9671 44.1075 25.122 45.9706 24.5264 47.9382C24.36 48.49 24.0113 48.9551 24.2251 49.5937C24.2753 49.7438 24.0558 50.0573 23.8865 50.2045C23.2422 50.7666 23.0427 51.5451 22.8605 52.328C22.793 52.615 22.7442 52.8578 22.3941 52.8548C22.8217 51.1978 23.4847 49.6261 24.0529 48.0206C25.4118 44.1841 26.7836 40.352 28.1597 36.5214C28.5874 35.3308 29.0451 34.1506 29.4828 32.963C29.7769 32.1683 30.4184 31.8387 31.1588 31.8225C33.2596 31.7798 35.3618 31.7945 37.464 31.8166C38.4584 31.8269 38.9779 32.264 39.3237 33.2176C40.585 36.6994 41.8966 40.1621 43.1091 43.6616C43.9256 46.0295 44.8798 48.3517 45.5571 50.774Z" fill="#B1B1B1"/>
<path d="M28.2473 23.4918C28.5429 23.3711 28.8198 23.4226 29.0523 23.6272C29.8085 24.2938 30.6522 24.8118 31.6366 24.9752C32.4402 25.1091 33.1261 25.5506 33.9268 25.714C34.9227 25.9156 35.8826 25.8758 36.8771 25.8832C37.8528 25.8891 38.7526 25.7066 39.6666 25.4976C41.0226 25.1886 42.3227 24.7589 43.4664 23.8671C44.1451 23.3373 44.7578 22.728 45.4538 22.2218C45.6245 22.0967 45.8398 21.926 45.88 21.7406C46.0493 20.9636 46.8156 20.6928 47.1599 20.0615C47.5201 19.4007 47.9664 18.8062 48.13 18.0291C48.3266 17.0947 48.757 16.2338 48.935 15.2728C49.2306 13.6717 48.9981 12.125 48.7786 10.5592C48.5203 8.7226 47.4584 7.28041 46.4999 5.81321C45.9187 4.92287 45.0936 4.19884 44.3704 3.4071C44.28 3.30851 44.2283 3.22021 44.2441 3.08923C44.4952 3.11278 44.6918 3.25258 44.8712 3.41446C48.3667 6.57256 49.8864 10.5003 49.2909 15.2698C48.5762 20.9974 44.0475 25.2754 38.7712 26.1378C36.0003 26.591 33.3557 26.2864 30.8058 25.1533C29.8817 24.7427 28.9389 24.3041 28.2473 23.4918Z" fill="#B1B1B1"/>
<path d="M100.428 35.0114C100.558 35.4264 100.385 35.7383 100.073 35.9635C98.949 36.7714 98.5458 38.0782 97.956 39.2394C97.5671 40.0061 97.2658 40.8567 97.1079 41.7044C96.8123 43.2981 96.6487 44.9155 97.0319 46.5328C97.4322 48.2252 98.1296 49.7572 99.0308 51.2479C99.6679 52.3001 100.532 53.0669 101.312 53.9469C101.454 54.1073 101.645 54.2398 101.599 54.5017C100.411 53.8939 99.5875 52.8682 98.8327 51.8116C97.1883 49.5129 96.4077 46.8845 96.4636 44.0487C96.5282 40.7272 97.6532 37.803 99.9219 35.3837C100.065 35.2277 100.182 35.0217 100.428 35.0114Z" fill="#B1B1B1"/>
<path d="M27.9875 3.52173C27.8771 4.41648 27.0907 4.83148 26.6157 5.44663C25.3343 7.10222 24.3155 8.84758 23.984 10.9653C23.8965 11.5289 23.73 12.0675 23.6683 12.6488C23.532 13.9365 24.1333 15.0549 24.261 16.2529C24.4116 17.6612 24.9124 18.8576 25.6199 20.0158C25.7705 20.2645 25.9155 20.528 25.8093 20.8458C25.2052 20.528 24.9842 19.8848 24.7388 19.333C22.4587 14.2117 22.9394 9.39944 26.412 4.97865C26.8525 4.41795 27.3102 3.83372 27.9875 3.52173Z" fill="#B1B1B1"/>
<path d="M73.2101 1.05087C73.0322 1.29222 72.7739 1.20245 72.5472 1.20392C71.6173 1.21275 70.6875 1.23041 69.7576 1.19951C68.8995 1.17007 68.261 1.58802 67.9639 2.32824C67.3928 3.75571 66.9049 5.22439 66.4687 6.7019C66.1545 7.76588 65.9521 8.95053 65.4815 9.86735C64.7927 11.2109 64.7611 12.79 63.8428 14.0144C63.6117 14.322 63.672 14.8076 63.4725 15.1799C63.385 15.3433 63.3305 15.4845 63.121 15.4595C63.4094 14.1174 63.9245 12.8503 64.3622 11.5582C65.3882 8.52965 66.4859 5.52607 67.5191 2.49895C67.819 1.61892 68.3284 1.02144 69.2353 0.972878C70.5612 0.90224 71.8914 0.774209 73.2101 1.05087Z" fill="#B1B1B1"/>
<path d="M75.4315 35.8812C75.5463 36.2123 75.3239 36.4449 75.1818 36.6833C74.7843 37.3529 74.3567 38.0048 73.952 38.6714C73.8659 38.8142 73.7885 38.982 73.7712 39.1453C73.6851 39.9753 73.4426 40.7347 72.916 41.3881C72.8443 41.4764 72.7883 41.6147 72.7926 41.7265C72.8615 43.179 72.6821 44.6242 72.7854 46.0885C72.8572 47.1039 73.3106 47.9619 73.5101 48.9066C73.6435 49.5424 73.9621 50.3797 74.559 50.8845C74.8862 51.1612 74.8804 51.4261 74.7212 51.7601C73.4225 50.3032 72.8127 48.5034 72.4898 46.6256C71.956 43.5249 72.3506 40.5389 73.9377 37.7899C74.3467 37.0894 74.7499 36.3654 75.4315 35.8812Z" fill="#B1B1B1"/>
<path d="M44.2412 3.09193C43.5611 3.21996 42.9986 2.89179 42.548 2.47091C41.7387 1.71451 40.7156 1.59383 39.7384 1.41577C39.3854 1.35102 39.107 1.1862 38.7927 1.11262C37.9935 0.925721 37.2028 0.734412 36.3418 0.847726C35.4034 0.971341 34.4577 1.05964 33.515 1.18325C31.8762 1.39664 30.5145 2.2384 29.1541 3.07575C28.804 3.29207 28.5127 3.45984 28.1138 3.39214C29.4297 2.16776 31.0095 1.44226 32.6956 0.983114C36.6145 -0.0838046 40.3267 0.423901 43.7849 2.65045C43.9686 2.76671 44.1623 2.86531 44.2412 3.09193Z" fill="#B1B1B1"/>
<path d="M57.417 25.6433C57.6194 25.3813 57.9035 25.4932 58.1517 25.4917C60.231 25.4843 62.3102 25.4902 64.388 25.4873C65.1816 25.4858 65.8216 24.9222 66.0196 24.1393C66.3539 22.806 66.9308 21.5521 67.3225 20.2409C67.7875 18.6854 68.6843 17.2888 68.9039 15.6479C68.9526 15.2888 69.1191 15.0592 69.5037 15.0622C69.3114 16.2262 68.7962 17.2829 68.4174 18.3822C67.7028 20.4528 66.9351 22.5043 66.1875 24.5631C65.8991 25.3578 65.3394 25.7993 64.5143 25.8066C62.3447 25.8243 60.175 25.8169 58.0054 25.8155C57.7987 25.814 57.5691 25.8567 57.417 25.6433Z" fill="#B1B1B1"/>
<path d="M94.7775 49.148C94.126 49.3157 93.5936 49.0317 93.1388 48.6182C92.2362 47.7985 91.4771 48.2621 90.9218 48.9066C90.6032 49.2775 90.3047 49.6748 89.9417 49.9942C88.0877 51.6247 85.9568 51.9603 83.6121 51.4525C83.0037 51.3201 82.4254 51.142 81.8543 50.9169C81.4798 50.7682 81.1942 50.5151 81.266 50.0324C82.533 50.7991 83.8661 51.3863 85.3656 51.3275C87.498 51.245 89.2916 50.415 90.6061 48.6329C91.236 47.7779 91.8301 47.5763 92.7843 48.0295C93.4702 48.3562 94.2092 48.5991 94.7775 49.148Z" fill="#B1B1B1"/>
<path d="M48.671 3.11414C49.001 3.15387 49.1675 3.35548 49.2378 3.67777C49.6453 5.56587 50.4532 7.30093 51.1348 9.08896C51.4663 9.95722 51.7561 10.8549 52.112 11.7158C52.5942 12.8814 52.8338 14.1249 53.3073 15.2889C53.4049 15.5288 53.4193 15.7599 53.3403 16.0027C52.7764 15.2786 52.6429 14.3618 52.3344 13.5303C51.1276 10.2854 49.9854 7.01396 48.8245 3.74988C48.7528 3.54532 48.7212 3.32605 48.671 3.11414Z" fill="#B1B1B1"/>
<path d="M115.422 32.7982C114.633 32.988 114.016 32.4303 113.303 32.2816C111.932 31.9961 110.558 31.4413 109.169 31.7048C107.692 31.9844 106.139 31.9314 104.74 32.6172C104.469 32.7496 104.181 32.6981 103.895 32.6716C104.907 31.9608 106.079 31.7298 107.252 31.5385C109.979 31.0926 112.621 31.4207 115.157 32.5701C115.259 32.6157 115.335 32.7202 115.422 32.7982Z" fill="#B1B1B1"/>
<path d="M62.2371 18.0644C62.4767 18.8429 62.2615 19.5772 61.9673 20.2777C61.8382 20.5853 61.5024 20.7133 61.1709 20.6C60.7361 20.4499 60.5209 20.0114 60.508 19.6346C60.4907 19.1225 60.3573 18.6737 60.1191 18.2704C59.6786 17.5273 59.6197 16.6605 59.3069 15.879C59.271 15.7907 59.294 15.6554 59.2366 15.6024C58.5579 14.9755 58.6009 14.1543 58.6368 13.3331C59.1577 14.0498 59.2969 14.9298 59.6039 15.7363C60.0703 16.9607 60.4706 18.2116 60.9097 19.4492C60.9901 19.6758 61.1164 19.8848 61.2484 20.157C61.8468 19.5507 61.7549 18.6589 62.2371 18.0644Z" fill="#B1B1B1"/>
<path d="M70.0518 13.5686C69.9384 13.495 69.8666 13.3714 69.9327 13.2596C70.4119 12.456 70.2713 11.4539 70.7463 10.643C70.9127 10.3604 71.0031 10.0072 71.0419 9.67611C71.0907 9.26405 71.2715 9.11247 71.6532 9.16545C71.1997 10.6621 70.7219 12.1514 70.0518 13.5686Z" fill="#B1B1B1"/>
<path d="M53.3819 16.2219C53.6173 16.194 53.7938 16.2602 53.8971 16.5045C54.3807 17.6406 54.5385 18.8767 54.9302 20.0423C54.9417 20.0761 54.8485 20.1453 54.8054 20.1982C54.1941 18.9238 53.7278 17.5964 53.3819 16.2219Z" fill="#B1B1B1"/>
<path d="M25.8294 20.9326C26.3043 20.8708 26.6243 21.0282 26.8195 21.5197C27.0118 22.0024 27.2485 22.4512 27.824 22.6396C28.1181 22.7367 28.3147 23.0811 28.2286 23.474C27.2069 22.8456 26.3675 22.0377 25.8294 20.9326Z" fill="#B1B1B1"/>
<path d="M58.453 12.6725C58.2938 12.6872 58.1675 12.6195 58.1115 12.4708C57.7069 11.3832 56.9636 10.3942 57.1774 9.12415C57.7269 10.2603 58.1273 11.4524 58.453 12.6725Z" fill="#B1B1B1"/>
<path d="M56.8847 8.25164C56.4585 8.28255 56.6163 7.87196 56.4786 7.68359C56.0424 7.08758 55.9462 6.34146 55.6592 5.67923C55.5444 5.41434 55.4382 5.12737 55.7109 4.87866C56.2533 5.94707 56.5891 7.092 56.8847 8.25164Z" fill="#B1B1B1"/>
<path d="M103.888 32.6672C103.933 32.8953 103.914 33.2 103.712 33.2382C102.965 33.381 102.446 34.1742 101.599 33.9991C102.262 33.3736 102.996 32.8762 103.888 32.6672Z" fill="#B1B1B1"/>
<path d="M75.476 52.7343C76.2523 53.1551 77.2094 53.37 77.3615 54.4943C76.6383 54.0131 75.8964 53.5554 75.476 52.7343Z" fill="#B1B1B1"/>
<path d="M46.378 53.0035C45.7294 52.7121 45.2917 51.5378 45.6031 50.9255C45.9561 51.5804 46.2431 52.2618 46.378 53.0035Z" fill="#B1B1B1"/>
<path d="M55.5659 4.43713C55.0336 3.91619 54.6964 3.28635 54.6002 2.53437C54.5945 2.4858 54.7279 2.41958 54.7982 2.36072C55.1957 2.99792 55.411 3.70575 55.5659 4.43713Z" fill="#B1B1B1"/>
<path d="M54.7494 2.2002C54.1238 2.03979 53.7277 1.59389 53.402 1.05969C54.1266 1.09648 54.5586 1.49971 54.7494 2.2002Z" fill="#B1B1B1"/>
<path d="M101.596 33.9962C101.565 34.7084 101.189 35.0351 100.434 35.0071C100.672 34.4892 101.121 34.2272 101.596 33.9962Z" fill="#B1B1B1"/>
<path d="M63.1138 15.5581C63.032 16.341 63.1124 17.1857 62.3246 17.6919C62.514 16.9532 62.6718 16.2012 63.1138 15.5581Z" fill="#B1B1B1"/>
<path d="M78.6199 55.2626C79.2901 55.2788 79.8827 55.4539 80.2328 56.1102C79.6158 55.9866 79.0576 55.7467 78.6199 55.2626Z" fill="#B1B1B1"/>
<path d="M48.958 1.05823C48.6021 1.62186 48.4859 2.2311 48.6236 2.88892C48.0238 2.15605 48.1042 1.15977 48.958 1.05823Z" fill="#B1B1B1"/>
<path d="M55.8329 23.1355C56.4872 23.4372 56.4514 24.02 56.404 24.6088C56.1141 24.1584 55.9462 23.658 55.8329 23.1355Z" fill="#B1B1B1"/>
<path d="M77.4418 54.5207C77.9842 54.5119 78.4233 54.6738 78.6113 55.2566C78.1177 55.1859 77.7389 54.921 77.4418 54.5207Z" fill="#B1B1B1"/>
<path d="M74.0697 2.38562C73.9406 2.04277 73.8932 1.68963 73.9607 1.32471C74.3308 1.64107 74.3323 1.99863 74.0697 2.38562Z" fill="#B1B1B1"/>
<path d="M55.4885 21.9392C55.9247 22.2011 55.8601 22.6191 55.8113 23.0326C55.6779 22.6765 55.3895 22.3689 55.4885 21.9392Z" fill="#B1B1B1"/>
<path d="M72.1138 7.75708C72.0091 7.33915 72.1368 7.01834 72.4984 6.79761C72.4912 7.16845 72.441 7.52016 72.1138 7.75708Z" fill="#B1B1B1"/>
<path d="M72.9461 5.21863C72.9318 4.87276 73.0552 4.60637 73.3622 4.44153C73.3536 4.77415 73.3221 5.09353 72.9461 5.21863Z" fill="#B1B1B1"/>
<path d="M73.6492 3.56445C73.3235 3.18785 73.5732 3.05986 73.8961 2.96277C73.9334 3.21433 73.8372 3.40999 73.6492 3.56445Z" fill="#B1B1B1"/>
<path d="M46.7137 54.0042C46.134 53.9394 46.4382 53.5215 46.421 53.2317C46.6018 53.4553 46.6936 53.7158 46.7137 54.0042Z" fill="#B1B1B1"/>
<path d="M55.0723 20.9457C55.4483 21.0369 55.4425 21.2959 55.3435 21.5961C55.0809 21.4548 55.1039 21.1885 55.0723 20.9457Z" fill="#B1B1B1"/>
<path d="M56.6752 25.0588C56.9851 25.0367 57.1329 25.1865 57.1272 25.5023C56.8502 25.4876 56.7096 25.329 56.6752 25.0588Z" fill="#B1B1B1"/>
<path d="M57.1803 9.11841C56.8631 8.94623 56.8172 8.67105 56.8976 8.34583C57.1473 8.54302 57.1903 8.81968 57.1803 9.11841Z" fill="#B1B1B1"/>
<path d="M73.9592 1.3094C73.731 1.36961 73.5273 1.38577 73.4885 1.06562C73.7066 1.02303 73.9075 1.01569 73.9592 1.3094Z" fill="#B1B1B1"/>
<path d="M49.9691 1.03186C49.8698 1.22178 49.769 1.22472 49.6668 1.03481C49.7661 0.900838 49.8669 0.900838 49.9691 1.03186Z" fill="#B1B1B1"/>
<path d="M73.4353 4.15967C73.3565 4.12738 73.246 4.11418 73.2704 3.99237C73.3005 3.84269 73.4282 3.87204 73.5343 3.87351C73.5027 3.96889 73.4683 4.06428 73.4353 4.15967Z" fill="#B1B1B1"/>
<path d="M75.2076 52.4208C75.4192 52.4164 75.5142 52.518 75.4796 52.7361C75.2868 52.7228 75.2004 52.6138 75.2076 52.4208Z" fill="#B1B1B1"/>
<path d="M71.8226 8.4906C71.7537 8.27618 71.8125 8.14106 72.0464 8.11462C72.0838 8.31142 71.9862 8.42157 71.8226 8.4906Z" fill="#B1B1B1"/>
<path d="M74.9321 52.1191C75.1278 52.1221 75.2228 52.2223 75.2113 52.4241C75.053 52.3828 74.9609 52.2812 74.9321 52.1191Z" fill="#B1B1B1"/>
<path d="M74.747 51.835C74.8976 51.8687 74.9335 51.9788 74.932 52.1168C74.7872 52.0801 74.7513 51.9686 74.747 51.835Z" fill="#B1B1B1"/>
<path d="M46.827 54.3173C46.7653 54.3026 46.7051 54.2864 46.6434 54.2718C46.6836 54.2366 46.7223 54.2014 46.7625 54.1661C46.7854 54.2175 46.8055 54.2674 46.827 54.3173Z" fill="#B1B1B1"/>
<path d="M69.4979 15.0588C69.5323 15.0016 69.5653 14.9443 69.5997 14.8871C69.5653 14.9443 69.5309 15.0016 69.4979 15.0588Z" fill="#B1B1B1"/>
<path d="M69.9143 14.0088C69.8898 13.9793 69.8639 13.9499 69.8394 13.9204C69.8768 13.9071 69.9143 13.8939 69.9517 13.8806C69.956 13.9292 69.9445 13.972 69.9143 14.0088Z" fill="#B1B1B1"/>
<path d="M75.5854 35.7415C75.6027 35.8446 75.561 35.8888 75.4587 35.8741C75.5005 35.8299 75.5437 35.7857 75.5854 35.7415Z" fill="#B1B1B1"/>
<path d="M115.929 41.834C115.329 40.845 114.914 39.7487 114.037 38.9275C111.585 36.6318 107.462 36.6759 105.024 38.9643C102.769 41.082 102.155 44.6963 103.502 47.4423C103.565 47.5704 103.594 47.7146 103.64 47.8514C102.968 47.2245 102.509 46.4725 102.51 45.5204C102.51 45.201 102.528 44.8699 102.436 44.5844C102.13 43.6426 102.556 42.8332 102.813 41.9944C102.882 41.7677 103.01 41.5602 103.066 41.316C103.498 39.4293 104.824 38.4168 106.378 37.4912C107.709 36.698 109.024 36.9055 110.418 36.9084C112.3 36.9114 113.551 38.0254 114.812 39.1365C115.454 39.7016 115.768 40.5684 116.052 41.3998C116.114 41.5808 116.124 41.7339 115.929 41.834Z" fill="#B1B1B1"/>
<path d="M104.795 49.4511C105.498 49.8926 106.121 50.4518 106.907 50.7756C109.81 51.9735 113.016 51.0846 114.898 48.5137C115.04 48.3194 115.147 48.0928 115.379 47.9854C115.329 49.0081 114.627 49.6983 113.966 50.2252C112.614 51.3024 111 51.7248 109.255 51.6939C107.771 51.6688 106.534 50.9875 105.268 50.3576C104.954 50.2031 104.722 49.8779 104.795 49.4511Z" fill="#B1B1B1"/>
<path d="M116.005 46.2443C116.264 45.1685 116.286 44.0811 116.177 42.9847C116.751 43.8647 116.656 45.6512 116.005 46.2443Z" fill="#B1B1B1"/>
<path d="M115.373 47.9838C115.372 47.5615 115.597 47.2731 115.904 47.0317C116.035 47.5291 115.967 47.9117 115.373 47.9838Z" fill="#B1B1B1"/>
<path d="M115.892 46.8363C115.801 46.7067 115.818 46.6021 115.958 46.524C116.165 46.6802 116.082 46.77 115.892 46.8363Z" fill="#B1B1B1"/>
<path d="M116.098 42.4154C115.979 42.3403 115.967 42.2284 116.002 42.1033C116.205 42.1519 116.33 42.2269 116.098 42.4154Z" fill="#B1B1B1"/>
<path d="M104.505 49.145C104.679 49.1715 104.799 49.254 104.797 49.4542C104.571 49.4793 104.484 49.3659 104.505 49.145Z" fill="#B1B1B1"/>
<path d="M58.8218 48.3225C58.9682 47.5984 58.5922 47.1643 58.2034 46.5756C57.5949 45.6544 56.9908 44.6669 56.5919 43.603C56.2949 42.8112 55.6004 42.3109 55.2775 41.5294C55.1067 41.113 54.7064 41.2336 54.5256 41.6898C54.4036 41.9974 54.4093 42.3109 54.4093 42.6287C54.4108 46.7243 54.4122 50.8183 54.4122 54.9139C54.4122 55.7968 54.019 56.2295 53.1753 56.2427C52.2196 56.256 51.2625 56.2398 50.3068 56.2501C49.651 56.2574 49.3999 55.9307 49.3727 55.27C49.0799 47.9943 49.3224 40.7156 49.2277 33.4399C49.2205 32.9307 49.5305 32.7173 49.7902 32.4127C50.1432 31.9992 50.4331 32.2494 50.8406 32.3494C51.3629 32.4775 51.9671 32.189 52.5339 32.1964C53.6775 32.2111 54.8413 32.1508 55.9218 32.6688C56.0065 32.71 56.1241 32.7571 56.1528 32.8307C56.5316 33.8181 57.4213 34.5333 57.5734 35.64C57.5892 35.7548 57.6265 35.9137 57.7054 35.9638C58.6884 36.5789 58.9051 37.7429 59.4733 38.6406C60.208 39.8003 60.8379 41.0394 61.5224 42.2402C62.3576 43.706 63.4324 45.0437 63.8844 46.7213C64.9175 46.274 65.0151 46.0812 64.8099 45.0599C64.7626 44.8229 64.741 44.5757 64.741 44.3344C64.7367 40.7789 64.7382 37.2235 64.7382 33.668C64.7382 32.7438 65.1098 32.3112 65.9923 32.2567C67.0312 32.192 68.0716 32.1258 69.1133 32.2508C69.64 32.3141 69.8968 32.5319 69.9212 33.1368C70.214 40.2403 69.9585 47.3468 70.0532 54.4518C70.059 54.8844 70.0131 55.3642 69.7591 55.635C69.3544 56.0661 68.9081 56.5385 68.1591 56.3296C67.3943 56.1162 66.5907 56.2545 65.8043 56.2589C65.2275 56.2619 64.6664 56.1809 64.101 56.1C63.9834 56.0838 63.8485 56.0985 63.7868 55.972C63.3592 55.1007 62.613 54.4621 62.2342 53.5217C62.0117 52.9684 61.7578 52.1928 60.9757 52.0206C60.9757 52.0206 60.9757 52.0103 60.9757 52.0089C60.8523 51.1274 60.3587 50.4769 59.7302 49.9103C59.7043 49.8809 59.6929 49.8471 59.6957 49.8073C59.5996 49.1937 59.4245 48.6285 58.8261 48.3239L58.8218 48.3225Z" fill="#B1B1B1"/>
<path d="M59.7316 49.9072C60.3587 50.4738 60.8538 51.1242 60.9772 52.0057C60.3716 51.4259 59.9842 50.7093 59.7316 49.9072Z" fill="#B1B1B1"/>
<path d="M58.829 48.3209C59.4274 48.6255 59.601 49.1907 59.6986 49.8043C59.2222 49.4246 59.0299 48.8698 58.829 48.3209Z" fill="#B1B1B1"/>
<path d="M13.7916 51.2097C14.5119 50.8462 15.149 50.4106 15.3571 49.532C15.6326 48.365 15.1146 47.354 13.991 47.0038C13.4443 46.8331 12.8789 46.7139 12.3006 46.7124C10.4108 46.708 8.52241 46.7212 6.63257 46.6977C6.11312 46.6918 5.90649 46.8566 5.91653 47.4114C5.94093 48.7344 5.9151 50.0588 5.90936 51.3833C5.09 51.1626 5.36551 50.284 5.44874 49.9867C5.70416 49.0655 5.55062 48.1443 5.68407 47.2348C5.8003 46.4431 6.23509 46.2532 6.89948 46.2341C8.2799 46.1959 9.65459 46.3003 11.0307 46.3754C11.4311 46.3975 11.8443 46.2842 12.2289 46.2871C13.3381 46.2959 14.4717 46.5078 15.2538 47.3702C16 48.1943 15.9411 49.2406 15.5264 50.2575C15.2495 50.9389 14.4846 51.3656 13.7916 51.2097Z" fill="#B1B1B1"/>
<path d="M12.4987 51.4935C12.8043 51.2761 13.1616 51.3921 13.4917 51.3275C13.2147 51.7255 12.8933 51.84 12.4987 51.4935Z" fill="#B1B1B1"/>
<path d="M36.3907 20.7766C32.3757 21.1357 29.2733 17.3286 29.2604 13.1535C29.2489 9.51419 32.6469 5.84689 36.3074 5.92783C40.4573 6.01907 43.4004 9.05504 43.5195 13.3919C43.6285 17.3668 40.0799 21.1607 36.3907 20.7766ZM43.0775 13.5053C43.1292 9.52302 40.0426 6.40022 36.4911 6.36049C32.8348 6.32076 29.7267 9.48329 29.7282 13.2404C29.7282 17.333 32.5522 20.4337 36.4552 20.4469C40.11 20.4587 42.9857 17.3992 43.0775 13.5053Z" fill="#B1B1B1"/>
<path d="M34.8309 36.8979C34.6171 38.2048 35.6646 39.0466 35.8884 40.1753C35.9214 40.3416 36.0161 40.5241 36.0491 40.7139C36.0864 40.9288 36.0807 41.2511 36.2113 41.335C37.1311 41.928 36.6533 43.0259 37.101 43.8117C37.4697 44.4607 37.5831 45.2731 37.9921 45.9294C38.2647 46.3665 38.2963 46.8345 38.0724 47.2422C37.85 47.6469 37.4167 47.4305 37.0421 47.4349C35.4005 47.4541 33.7532 47.2642 32.1145 47.5335C31.6567 47.6086 31.1488 47.6027 30.8388 47.2392C30.4313 46.7609 30.6064 46.162 30.8216 45.6454C31.3769 44.3106 32.0815 43.0303 32.1719 41.5351C32.192 41.2069 32.555 41.1746 32.6626 40.8685C33.0113 39.8766 33.406 38.8994 33.5968 37.8604C33.7274 37.1687 34.3817 37.2394 34.8309 36.8979ZM34.3085 37.2732C33.8867 38.4756 33.5322 39.4763 33.1835 40.4785C32.512 42.4122 31.8576 44.3518 31.1646 46.2768C30.978 46.7933 31.1258 46.9611 31.6108 47.0494C32.192 47.1553 32.7487 46.9625 33.3227 46.9817C34.4678 47.0185 35.6129 47.0082 36.7594 47.07C37.5946 47.1141 37.6965 46.9316 37.4296 46.1458C36.8642 44.4813 36.2873 42.8213 35.7048 41.1628C35.2714 39.9325 34.8223 38.7066 34.3085 37.2732Z" fill="#B1B1B1"/>
<path d="M73.4928 13.0996C73.3379 11.7266 73.9535 10.3594 74.1917 8.92607C74.2663 8.47723 74.8919 8.48753 74.8532 7.97394C74.7728 6.92321 75.8089 6.45524 76.0686 5.57521C76.1145 5.41922 76.3183 5.37213 76.4747 5.30149C76.667 5.21466 76.9324 5.10429 76.9927 4.938C77.4433 3.67977 78.5884 3.35896 79.5656 2.73794C81.2889 1.64159 83.1573 1.04117 85.116 0.882235C86.3385 0.783637 87.6228 0.773336 88.8569 1.16773C89.9503 1.51797 91.0739 1.77109 92.1372 2.22582C92.2448 2.27144 92.4027 2.27585 92.4586 2.35679C93.0168 3.16029 94.0055 3.30893 94.6885 3.9167C94.9224 4.12567 95.1693 4.3317 95.3529 4.58334C96.1393 5.66056 96.9041 6.7525 97.6733 7.84297C97.7421 7.94157 97.8512 8.0799 97.8268 8.16672C97.5671 9.08059 98.1999 9.78108 98.4223 10.5566C98.6835 11.4646 98.8557 12.3932 98.8313 13.285C98.7882 14.7978 98.7853 16.3769 97.9143 17.7204C97.7235 18.0133 97.7895 18.3312 97.6546 18.6196C96.9113 20.2266 96.0518 21.8292 94.6713 22.8623C93.7214 23.573 92.7356 24.378 91.5403 24.7518C90.6549 25.0285 89.7982 25.3964 88.9272 25.7201C88.8167 25.7613 88.6775 25.8246 88.5814 25.7893C87.2885 25.311 86.0616 26.2514 84.7572 25.932C83.3653 25.5906 81.9706 25.286 80.6375 24.7341C79.9889 24.4663 79.5254 23.8806 78.8366 23.6967C78.6659 23.651 78.6702 23.4818 78.6544 23.3346C78.6429 23.2169 78.6515 23.0359 78.498 23.055C77.317 23.2051 76.9712 22.15 76.4345 21.4716C75.8347 20.7122 75.0282 20.0677 74.8001 19.0419C74.5863 18.0795 73.9319 17.3128 73.82 16.2665C73.7124 15.257 73.4641 14.2577 73.4928 13.0996ZM78.9414 14.0605C79.1552 14.8684 79.3015 16.0663 79.7822 17.0994C80.7394 19.1567 82.4814 20.3502 84.6338 20.7299C86.1764 21.0021 87.6888 20.933 89.2314 20.1692C90.2603 19.66 90.9318 18.989 91.6292 18.1649C92.186 17.5056 92.7126 16.7712 92.8963 16.0045C93.156 14.9214 93.2866 13.75 93.123 12.6066C93.0642 12.1945 92.9178 11.7884 93.0757 11.3837C93.2149 11.0261 93.0828 10.77 92.8762 10.5139C92.4084 9.93266 92.0827 9.24836 91.5704 8.69797C90.4253 7.46918 89.4051 6.19182 87.4722 6.11382C85.7732 6.04466 84.1359 6.04613 82.5991 6.81578C81.6721 7.27934 80.781 7.93568 80.2371 8.80835C79.3245 10.2741 78.9815 11.9738 78.9414 14.0605Z" fill="#B1B1B1"/>
<path d="M78.9413 14.0615C78.9801 11.9747 79.3245 10.2765 80.2385 8.80926C80.7824 7.93658 81.6735 7.28023 82.6005 6.81667C84.1373 6.047 85.7746 6.04553 87.4736 6.1147C89.4065 6.19269 90.4267 7.47154 91.5718 8.69889C92.0841 9.24928 92.4098 9.93359 92.8776 10.5149C93.0843 10.7709 93.2163 11.027 93.0771 11.3846C92.9207 11.7893 93.0656 12.1955 93.1244 12.6075C93.288 13.7525 93.1575 14.9224 92.8977 16.0055C92.7141 16.7723 92.1874 17.5066 91.6307 18.1659C90.9347 18.99 90.2617 19.6611 89.2328 20.1703C87.6903 20.9355 86.1764 21.0032 84.6352 20.731C82.4828 20.3513 80.7408 19.1578 79.7837 17.1004C79.3015 16.0674 79.1552 14.8694 78.9413 14.0615ZM86.0774 20.472C89.8901 20.4646 92.8418 17.3977 92.8346 13.4537C92.826 9.38172 89.9159 6.3531 86.0171 6.35752C82.2217 6.36193 79.3761 9.44942 79.3847 13.5553C79.3919 17.3271 82.335 20.5323 86.0774 20.472Z" fill="#B1B1B1"/>
</svg>
