<svg width="98" height="23" viewBox="0 0 98 23" fill="none" xmlns="http://www.w3.org/2000/svg">
<path d="M85.5385 23C85.1539 22.9313 84.7769 22.8625 84.3923 22.7938C79.4154 21.8924 75.7615 18.2717 75.0308 13.3371C74.1462 7.3102 77.6539 1.94786 83.4462 0.527067C89.5846 -0.985387 95.5769 2.26104 97.3846 8.08934C97.6692 9.01362 97.7462 10.0066 97.9231 10.9691C97.9385 11.0608 97.9769 11.1524 98 11.2365C98 11.4885 98 11.7483 98 12.0003C97.9462 12.4205 97.8923 12.8406 97.8231 13.2531C97.1077 18.0425 93.6846 21.6709 88.9 22.7097C88.3692 22.8243 87.8385 22.9007 87.3077 23C86.7154 23 86.1308 23 85.5385 23ZM86.6 4.69777C84.6308 4.72069 83.1 5.33178 81.9154 6.66855C79.8923 8.95251 79.5538 12.7336 81.1462 15.4148C82.3846 17.4925 84.2539 18.5008 86.6769 18.4092C89.0077 18.3251 90.7692 17.2175 91.8231 15.1627C93.0462 12.7642 93.0308 10.2893 91.7769 7.90601C90.6692 5.7901 88.8154 4.75888 86.6 4.69777ZM8.76923 0.00763866C8.35385 0.0916639 7.92308 0.137496 7.52308 0.267353C6.51539 0.580538 5.52308 0.931916 4.5 1.27566C4.46923 1.05413 4.41539 0.74095 4.36154 0.389572C2.9 0.389572 1.45385 0.389572 0 0.389572C0 7.82199 0 15.262 0 22.6945C1.7 22.6945 3.39231 22.6945 5.13077 22.6945C5.13077 22.4729 5.13077 22.3202 5.13077 22.175C5.13077 18.4321 5.13077 14.6891 5.13077 10.9538C5.13077 10.5948 5.13077 10.2434 5.16154 9.88442C5.23077 8.99834 5.45385 8.15045 5.88462 7.37894C6.79231 5.73663 8.26154 5.04915 10.0769 5.00332C12.2077 4.95749 14.0308 5.7901 14.8923 8.10462C15.2154 8.96015 15.3154 9.85387 15.3154 10.7629C15.3077 14.5822 15.3154 18.4015 15.3154 22.2132C15.3154 22.3584 15.3154 22.5035 15.3154 22.641C17.0615 22.641 18.7462 22.641 20.4308 22.641C20.4385 22.5188 20.4462 22.4347 20.4462 22.3431C20.4462 18.2869 20.4538 14.2232 20.4385 10.1671C20.4308 9.39555 20.3692 8.60877 20.2308 7.85254C19.4846 3.93391 17.2231 1.37496 13.2923 0.34374C12.7154 0.190966 12.1231 0.11458 11.5462 0C10.6154 0.00763866 9.69231 0.00763866 8.76923 0.00763866ZM43.1 1.29093C44.3 4.0714 45.4923 6.85188 46.6923 9.63235C48.5077 13.8642 50.3308 18.096 52.1538 22.3202C52.2077 22.4424 52.2846 22.6333 52.3692 22.6486C52.6692 22.6868 52.9923 22.7174 53.2846 22.6486C53.4308 22.6104 53.5385 22.3584 53.6231 22.1827C55.6154 18.3022 57.6077 14.4141 59.6 10.5261C59.6692 10.3962 59.7385 10.274 59.8308 10.1059C59.9308 10.2816 60 10.3962 60.0615 10.5184C62.0308 14.3607 64.0077 18.1953 65.9462 22.0452C66.2 22.5493 66.4769 22.7326 67.0231 22.6792C67.2769 22.6563 67.4 22.5875 67.5 22.3584C70.5154 15.3308 73.5308 8.31086 76.5538 1.29093C76.6 1.18399 76.6462 1.07705 76.7 0.931916C74.8923 0.931916 73.1462 0.939555 71.4077 0.924278C71.1231 0.924278 71.0077 1.02358 70.9077 1.26802C70.0462 3.30754 69.1692 5.33942 68.3 7.3713C67.6308 8.93723 66.9539 10.5032 66.2615 12.1149C66.1769 11.9621 66.1077 11.8552 66.0538 11.7483C64.2 8.26503 62.3462 4.7818 60.5 1.29093C60.3615 1.03122 60.2231 0.878446 59.8923 0.909C59.5846 0.931916 59.3385 0.916639 59.1538 1.27566C57.8077 3.8728 56.4231 6.45467 55.0538 9.04417C54.5154 10.0525 53.9769 11.0608 53.4154 12.1226C53.3385 11.9621 53.2846 11.8476 53.2385 11.733C51.7462 8.25739 50.2538 4.77416 48.7692 1.28329C48.6615 1.03122 48.5385 0.924278 48.2385 0.924278C46.9308 0.939555 45.6231 0.931916 44.3154 0.931916C43.8846 0.931916 43.4538 0.931916 42.9769 0.931916C43.0308 1.08469 43.0615 1.19163 43.1 1.29093ZM44.8231 11.5649C44.8154 17.9508 39.7538 22.9465 33.3 22.9313C26.8385 22.916 21.7692 17.9279 21.7692 11.5649C21.7692 5.04151 26.7308 0.129857 33.3154 0.137496C39.7769 0.137496 44.8231 5.1561 44.8231 11.5649ZM27.0385 11.5344C27 11.542 26.9692 11.5497 26.9308 11.5573C27.1077 12.4357 27.1846 13.3524 27.4846 14.1926C28.3615 16.6599 30.1077 18.1418 32.7769 18.3633C35.1846 18.5619 37.1615 17.6606 38.4231 15.5905C39.9769 13.0392 39.9923 10.3427 38.5769 7.73796C36.7154 4.31584 32.0615 3.59781 29.1846 6.24078C27.6462 7.66157 27.0692 9.49485 27.0385 11.5344Z" fill="#F45E32"/>
</svg>
