<svg xmlns="http://www.w3.org/2000/svg" viewBox="0 0 512 335.45"><title>portugalflag</title><g id="eef2c36e-1c75-4703-83e3-4fc1ae7b39e0" data-name="Layer 2"><g id="ef413f6a-bf12-44a3-aad2-256c09e4db9e" data-name="Layer 1"><path d="M503.17,335.45H8.83A8.83,8.83,0,0,1,0,326.62V8.83A8.83,8.83,0,0,1,8.83,0H503.17A8.83,8.83,0,0,1,512,8.83V326.62A8.83,8.83,0,0,1,503.17,335.45Z" style="fill:#ff4b55"/><path d="M185.38,0H8.83A8.83,8.83,0,0,0,0,8.83V326.62a8.83,8.83,0,0,0,8.83,8.83H185.38V0Z" style="fill:#73af00"/><circle cx="185.45" cy="167.73" r="79.38" style="fill:#ffe15a"/><path d="M211.93,141.24v35.31a26.48,26.48,0,1,1-53,0V141.24h53m8.83-17.65H150.14a8.83,8.83,0,0,0-8.83,8.83v44.13a44.14,44.14,0,1,0,88.28,0V132.42a8.83,8.83,0,0,0-8.83-8.83Z" style="fill:#ff4b55"/><path d="M211.93,141.24v35.31a26.48,26.48,0,1,1-53,0V141.24h53" style="fill:#f5f5f5"/><circle cx="150.07" cy="132.42" r="4.41" style="fill:#ffe15a"/><circle cx="220.69" cy="132.42" r="4.41" style="fill:#ffe15a"/><circle cx="150.07" cy="167.73" r="4.41" style="fill:#ffe15a"/><circle cx="220.69" cy="167.73" r="4.41" style="fill:#ffe15a"/><circle cx="185.38" cy="132.42" r="4.41" style="fill:#ffe15a"/><circle cx="211.88" cy="200.27" r="4.41" style="fill:#ffe15a"/><circle cx="159.4" cy="200.27" r="4.41" style="fill:#ffe15a"/><path d="M191.15,165.49v7.6a5.7,5.7,0,1,1-11.4,0v-7.6h11.4" style="fill:#41479b"/><path d="M191.15,147.47v7.6a5.7,5.7,0,0,1-11.4,0v-7.6h11.4" style="fill:#41479b"/><path d="M191.15,183.69v7.61a5.7,5.7,0,0,1-11.4,0v-7.61h11.4" style="fill:#41479b"/><path d="M206.51,165.49v7.6a5.71,5.71,0,0,1-11.41,0v-7.6h11.41" style="fill:#41479b"/><path d="M175.79,165.49v7.6a5.7,5.7,0,1,1-11.4,0v-7.6h11.4" style="fill:#41479b"/></g></g></svg>