<svg width="17" height="18" viewBox="0 0 17 18" fill="none" xmlns="http://www.w3.org/2000/svg">
<path d="M0.127024 7.91781L9.10336 16.8941C9.27273 17.0635 9.52678 17.0635 9.69614 16.8941L16.873 9.71731C17.0423 9.54795 17.0423 9.2939 16.873 9.12453L7.91781 0.127024C7.83313 0.0423412 7.7061 0 7.57908 0L0.973848 0.592777C0.762142 0.613948 0.613948 0.783313 0.592777 0.973848L0 7.57908C0 7.7061 0.0423412 7.81196 0.127024 7.91781ZM4.02242 2.81569C4.36115 3.15442 4.36115 3.68369 4.02242 4.02242C3.68369 4.36115 3.15442 4.36115 2.81569 4.02242C2.47696 3.68369 2.47696 3.15442 2.81569 2.81569C3.15442 2.49813 3.68369 2.49813 4.02242 2.81569Z" fill="#21405F"/>
</svg>
