<svg width="202" height="39" viewBox="0 0 202 39" fill="none" xmlns="http://www.w3.org/2000/svg">
<path d="M21.3748 2.72892C21.3748 7.37744 28.9304 12.5307 28.9304 17.8366C28.9304 17.8366 28.9304 18.348 28.7243 18.8925C35.7903 20.4332 40.7887 24.0524 40.7887 28.2958C40.7887 34.0002 31.8676 38.7218 20.8144 38.7218C9.52291 38.7284 0.769257 34.0865 0.769257 28.5216C0.769257 24.2782 6.19279 20.8382 12.7371 19.012C12.7371 21.3496 20.1832 28.7806 20.3635 31.7756C20.3829 32.1209 20.4473 32.4131 20.3635 32.765C21.9739 31.8885 21.9739 29.1458 21.9739 29.1458C21.9739 22.6312 14.7339 19.7425 14.7339 13.3408C14.7339 10.8506 15.8547 9.02435 16.8659 8.51301V10.306C16.8659 14.9545 24.6985 20.1476 24.6985 24.391V25.779C26.5214 25.0485 26.5214 21.5687 26.5214 21.5687C26.5214 15.7116 19.2428 12.4576 19.2428 5.76374C19.2428 3.2801 20.3635 1.44725 21.3748 0.935913V2.72892ZM56.6664 36.9288C62.4313 36.9288 65.5811 33.7811 65.5811 29.0329C65.5811 25.3008 62.5022 23.1094 60.0223 21.7945L57.2912 20.3734C55.3331 19.3507 53.6584 18.2151 53.6584 15.6917C53.6584 13.7526 55.23 11.8533 57.8903 11.8533C61.4587 11.8533 63.2043 14.4498 63.7647 17.737H64.7115V11.5611C64.7115 11.5611 61.7743 10.3193 58.2123 10.3193C53.0078 10.3193 50.2767 13.6065 50.2767 17.4448C50.2767 20.5128 52.3701 22.7109 54.9595 24.059L57.6841 25.4868C59.5714 26.4762 62.4056 27.8243 62.4056 30.7861C62.4056 33.5619 60.2735 35.3151 57.2333 35.3151C54.193 35.3151 51.5327 32.5393 51.0497 28.8802H50.1028V35.7999C50.0899 35.7999 52.8532 36.9288 56.6664 36.9288ZM77.5683 27.9306V33.3428C76.6923 34.0733 75.4749 34.5846 74.5989 34.5846C72.7824 34.5846 72.2542 33.0439 72.2542 32.0943C72.2542 30.3412 73.5489 29.7169 74.2832 29.3915L77.5683 27.9306ZM72.8468 36.7827C74.528 36.7827 76.5184 35.428 77.6713 34.4053C77.8066 35.2487 78.1609 36.2382 78.8952 36.7827L83.7905 34.8834V33.7877L82.9532 34.0799C82.5667 34.226 82.3928 34.226 82.1158 34.226C81.1754 34.226 81.0659 33.4557 81.0659 32.2537V24.6832C81.0659 23.4746 80.2994 19.8222 75.8936 19.8222C75.0175 19.8222 73.8001 20.0812 72.3637 20.991C70.8951 21.9074 69.813 22.784 69.6327 24.0989C69.6327 24.2118 69.6005 24.3578 69.6005 24.5039C69.6005 25.2743 69.9483 26.0446 70.2317 26.5493L72.5377 25.4469C72.5377 25.4469 72.1576 24.7164 72.1576 24.0989C72.1576 23.7336 72.1898 23.2555 72.4024 22.9301C72.9306 22.0535 73.9741 21.5023 75.024 21.5023C76.5634 21.5023 77.5747 22.9301 77.5747 25.2278V26.7684L72.8533 28.5614C70.1608 29.5841 68.937 30.9388 68.937 32.692C68.9306 35.1358 70.47 36.7827 72.8468 36.7827ZM93.1239 36.4174V35.5409L91.9709 35.3217C91.2688 35.1756 90.7149 34.6311 90.7149 33.894V23.8067C91.4814 23.0762 92.7761 22.0867 94.3155 22.0867C97.111 22.0867 97.3944 24.5371 97.3944 25.6329V33.894C97.3944 34.6244 96.8341 35.1756 96.1384 35.3217L94.9854 35.5409V36.4174H103.308V35.5409L102.122 35.3217C101.42 35.2155 100.898 34.6311 100.898 33.894V25.593C100.898 22.4852 99.1851 19.8156 95.6231 19.8156C94.0128 19.8156 92.1964 20.7254 90.6569 22.525V19.8156H89.9226L84.892 22.0867V23.1824L85.3429 22.9965C85.6198 22.8902 85.9033 22.8504 86.148 22.8504C86.8501 22.8504 87.2301 23.2953 87.2301 24.1321V33.894C87.2301 34.6244 86.7406 35.1756 86.045 35.3217L84.892 35.5409V36.4174H93.1239ZM115.984 20.473H110.457V15.8311H109.762C108.254 19.5964 104.415 21.1371 104.415 21.1371V22.0535H106.966V30.7927C106.966 34.744 108.609 36.6034 111.655 36.6034C111.971 36.6034 112.596 36.4971 112.596 36.4971L115.746 34.4119L115.359 33.5354C114.483 34.0467 113.543 34.2326 112.944 34.2326C111.475 34.2326 110.464 33.1369 110.464 31.1248V22.0469H115.359L115.984 20.473ZM125.968 27.9306V33.3428C125.098 34.0733 123.874 34.5846 122.998 34.5846C121.182 34.5846 120.654 33.0439 120.654 32.0943C120.654 30.3412 121.948 29.7169 122.683 29.3915L125.968 27.9306ZM121.253 36.7827C122.934 36.7827 124.924 35.428 126.077 34.4053C126.219 35.2487 126.567 36.2382 127.301 36.7827L132.197 34.8834V33.7877L131.359 34.0799C130.973 34.226 130.799 34.226 130.522 34.226C129.575 34.226 129.472 33.4557 129.472 32.2537V24.6832C129.472 23.4746 128.705 19.8222 124.293 19.8222C123.417 19.8222 122.2 20.0812 120.763 20.991C119.295 21.9074 118.213 22.784 118.039 24.0989C118.039 24.2118 118.006 24.3578 118.006 24.5039C118.006 25.2743 118.354 26.0446 118.638 26.5493L120.944 25.4469C120.944 25.4469 120.557 24.7164 120.557 24.0989C120.557 23.7336 120.589 23.2555 120.802 22.9301C121.324 22.0535 122.38 21.5023 123.424 21.5023C124.963 21.5023 125.974 22.9301 125.974 25.2278V26.7684L121.253 28.5614C118.56 29.5841 117.337 30.9388 117.337 32.692C117.337 35.1358 118.876 36.7827 121.253 36.7827ZM141.523 36.4174V35.5409L140.37 35.3217C139.675 35.1756 139.114 34.6311 139.114 33.894V23.8067C139.887 23.0762 141.176 22.0867 142.715 22.0867C145.511 22.0867 145.794 24.5371 145.794 25.6329V33.894C145.794 34.6244 145.234 35.1756 144.538 35.3217L143.385 35.5409V36.4174H151.701V35.5409L150.515 35.3217C149.82 35.2155 149.292 34.6311 149.292 33.894V25.593C149.292 22.4852 147.578 19.8156 144.016 19.8156C142.406 19.8156 140.589 20.7254 139.056 22.525V19.8156H138.322L133.285 22.0867V23.1824L133.742 22.9965C134.026 22.8902 134.303 22.8504 134.548 22.8504C135.243 22.8504 135.63 23.2953 135.63 24.1321V33.894C135.63 34.6244 135.14 35.1756 134.438 35.3217L133.285 35.5409V36.4174H141.523ZM162.148 21.3562C163.617 21.3562 164.912 22.0867 165.363 23.2953V32.7982C165.086 33.3826 163.933 34.5182 162.077 34.5182C158.999 34.5182 157.04 32.0346 157.04 27.9372C157.047 23.0363 159.63 21.3562 162.148 21.3562ZM160.577 36.7827C162.921 36.7827 164.564 35.3948 165.472 34.3721C165.646 35.2155 166.032 36.2382 166.799 36.7827L171.694 34.8834V33.7877L170.857 34.0799C170.47 34.226 170.297 34.226 170.02 34.226C169.073 34.226 168.867 33.4225 168.867 32.0346V7.93527H168.132L162.677 10.3459V11.4416L163.379 11.1826C163.694 11.0763 164.042 11.0033 164.358 11.0033C164.918 11.0033 165.369 11.2556 165.369 12.1389V20.5128C164.532 20.1476 163.379 19.8156 161.768 19.8156C156.944 19.8156 153.343 23.8 153.343 28.6677C153.337 34.226 157.292 36.7827 160.577 36.7827ZM176.899 25.4868C177.317 22.7109 178.786 21.3562 180.744 21.3562C182.496 21.3562 183.958 22.6777 183.958 25.4204V25.4934H176.899V25.4868ZM187.63 26.9876V26.5094C187.63 22.525 184.764 19.8156 181.092 19.8156C176.615 19.8156 173.156 23.6938 173.156 28.4419C173.156 32.4994 175.572 36.7761 181.021 36.7761C183.643 36.7761 185.775 35.6405 187.173 34.2858V32.8248C185.949 33.8076 184.409 34.4651 182.735 34.4651C179.417 34.4651 176.757 32.0146 176.796 27.1536V26.9743H187.63V26.9876ZM198.574 36.4174V35.5409L196.892 35.3217C196.229 35.2155 195.527 34.6311 195.527 33.894V24.8957C196.506 22.7773 197.904 22.4453 199.024 22.4453C200.068 22.4453 200.738 22.9566 200.912 23.9793H201.607V20.1078C201.607 20.1078 201.26 19.7425 199.862 19.7425C198.148 19.7425 196.648 20.805 195.385 23.3617V19.8156H194.651L189.685 22.0867V23.1824L190.142 22.9965C190.419 22.8902 190.702 22.8504 190.947 22.8504C191.643 22.8504 192.029 23.2953 192.029 24.1321V33.894C192.029 34.6244 191.508 35.1756 190.838 35.3217L189.685 35.5409V36.4174H198.574Z" fill="#B1B1B1"/>
</svg>
