<svg width="98" height="18" viewBox="0 0 98 18" fill="none" xmlns="http://www.w3.org/2000/svg">
<path d="M10.0491 0.879299C10.0491 3.07755 13.7234 5.52702 13.7234 8.00791C13.7234 8.00791 13.7234 8.25913 13.6291 8.51036C17.0835 9.23264 19.5016 10.9598 19.5016 12.9697C19.5016 15.6704 15.1679 17.9 9.76651 17.9C4.27088 17.9 0 15.7018 0 13.0639C0 11.0855 2.6379 9.45247 5.84106 8.57317C5.84106 9.67229 9.48387 13.1895 9.54668 14.6027C9.54668 14.7597 9.57808 14.9167 9.54668 15.0737C10.3318 14.6655 10.3318 13.3465 10.3318 13.3465C10.3318 10.269 6.81457 8.88721 6.81457 5.87246C6.81457 4.71053 7.34843 3.83123 7.85089 3.58V4.4279C7.85089 6.62615 11.6821 9.07563 11.6821 11.0855V11.7449C12.5614 11.3995 12.5614 9.7665 12.5614 9.7665C12.5614 7.00299 9.01282 5.46422 9.01282 2.29246C9.01282 1.13053 9.54668 0.251228 10.0491 0V0.879299Z" fill="#EE2C42"/>
<path d="M27.2583 17.0521C25.4055 17.0521 24.0551 16.5183 24.0551 16.5183V13.2523H24.4948C24.746 14.9795 26.0335 16.2985 27.5095 16.2985C28.9855 16.2985 30.0218 15.482 30.0218 14.163C30.0218 12.7499 28.64 12.1218 27.7293 11.6507L26.4104 10.9913C25.1542 10.3632 24.1179 9.32687 24.1179 7.8509C24.1179 6.0295 25.4369 4.49072 27.9806 4.49072C29.7078 4.49072 31.1523 5.08739 31.1523 5.08739V8.00792H30.6813C30.3986 6.43774 29.5507 5.213 27.8235 5.213C26.536 5.213 25.7509 6.12371 25.7509 7.03441C25.7509 8.22774 26.5674 8.76161 27.5095 9.23266L28.8285 9.89213C30.0532 10.5202 31.5292 11.5565 31.5292 13.3151C31.592 15.5762 30.0532 17.0521 27.2583 17.0521Z" fill="#EE2C42"/>
<path d="M35.8314 13.5035C35.486 13.6605 34.8579 13.9432 34.8579 14.7911C34.8579 15.2307 35.1092 15.953 35.9885 15.953C36.4281 15.953 37.0248 15.7018 37.433 15.3563V12.7812L35.8314 13.5035ZM35.1406 16.9893C33.9786 16.9893 33.225 16.2042 33.225 15.0423C33.225 14.2258 33.8216 13.5663 35.1406 13.0953L37.433 12.2474V11.5251C37.433 10.426 36.9306 9.7665 36.1769 9.7665C35.6744 9.7665 35.1406 10.0177 34.8893 10.426C34.7951 10.583 34.7637 10.8028 34.7637 10.9912C34.7637 11.2739 34.9521 11.6193 34.9521 11.6193L33.8216 12.1532C33.696 11.9019 33.5076 11.5565 33.5076 11.1797C33.5076 11.1169 33.539 11.0541 33.539 10.9912C33.6332 10.3632 34.1671 9.95493 34.8579 9.51528C35.5488 9.07563 36.1455 8.95001 36.5851 8.95001C38.7206 8.95001 39.0974 10.6772 39.0974 11.2425V14.8225C39.0974 15.3877 39.1602 15.7646 39.5999 15.7646C39.7255 15.7646 39.8197 15.7646 40.0081 15.7018L40.4164 15.5762V16.11L38.0297 17.0207C37.6843 16.7695 37.4958 16.2984 37.433 15.8902C36.9306 16.3298 35.9571 16.9893 35.1406 16.9893Z" fill="#EE2C42"/>
<path d="M41.013 16.8009V16.3927L41.5783 16.2984C41.9237 16.2356 42.1436 15.9844 42.1436 15.639V10.9912C42.1436 10.583 41.9551 10.3946 41.6097 10.3946C41.4841 10.3946 41.3585 10.426 41.2329 10.4574L41.013 10.5516V10.0177L43.4625 8.95001H43.808V10.2376C44.5616 9.38966 45.4409 8.95001 46.226 8.95001C47.9532 8.95001 48.8011 10.2062 48.8011 11.6821V15.6076C48.8011 15.953 49.0523 16.2356 49.3978 16.267L49.9631 16.3613V16.7695H45.912V16.3613L46.4773 16.267C46.8227 16.2042 47.1053 15.953 47.1053 15.6076V11.7135C47.1053 11.1797 46.9797 10.0491 45.598 10.0491C44.8443 10.0491 44.2162 10.5202 43.8394 10.8656V15.639C43.8394 15.9844 44.122 16.2356 44.4674 16.2984L45.0327 16.3927V16.8009H41.013Z" fill="#EE2C42"/>
<path d="M55.8669 10.0177H53.4802V14.32C53.4802 15.2621 53.9827 15.796 54.705 15.796C54.9876 15.796 55.4587 15.7018 55.8669 15.4819L56.0553 15.8902L54.5166 16.8637C54.5166 16.8637 54.2025 16.9265 54.0455 16.9265C52.5695 16.9265 51.753 16.0472 51.753 14.163V10.0177H50.4969V9.57808C50.4969 9.57808 52.3811 8.8558 53.1034 7.0658H53.4488V9.26404H56.1495L55.8669 10.0177Z" fill="#EE2C42"/>
<path d="M59.4469 13.5035C59.1015 13.6605 58.4734 13.9432 58.4734 14.7911C58.4734 15.2307 58.7246 15.953 59.6039 15.953C60.0436 15.953 60.6403 15.7018 61.0485 15.3563V12.7812L59.4469 13.5035ZM58.7246 16.9893C57.5627 16.9893 56.809 16.2042 56.809 15.0423C56.809 14.2258 57.4057 13.5663 58.7246 13.0953L61.0171 12.2474V11.5251C61.0171 10.426 60.5146 9.7665 59.761 9.7665C59.2585 9.7665 58.7246 10.0177 58.4734 10.426C58.3792 10.583 58.3478 10.8028 58.3478 10.9912C58.3478 11.2739 58.5362 11.6193 58.5362 11.6193L57.4057 12.1532C57.2801 11.9019 57.0917 11.5565 57.0917 11.1797C57.0917 11.1169 57.1231 11.0541 57.1231 10.9912C57.2173 10.3632 57.7511 9.95493 58.442 9.51528C59.1329 9.07563 59.7296 8.95001 60.1692 8.95001C62.3047 8.95001 62.6815 10.6772 62.6815 11.2425V14.8225C62.6815 15.3877 62.7443 15.7646 63.1839 15.7646C63.3096 15.7646 63.4038 15.7646 63.5922 15.7018L64.0004 15.5762V16.11L61.6138 17.0207C61.2683 16.7695 61.0799 16.2984 61.0171 15.8902C60.5461 16.3298 59.5725 16.9893 58.7246 16.9893Z" fill="#EE2C42"/>
<path d="M64.5971 16.8009V16.3927L65.1624 16.2984C65.5078 16.2356 65.7276 15.9844 65.7276 15.639V10.9912C65.7276 10.583 65.5392 10.3946 65.1938 10.3946C65.0682 10.3946 64.9425 10.426 64.8169 10.4574L64.5971 10.5516V10.0177L67.0466 8.95001H67.392V10.2376C68.1457 9.38966 69.025 8.95001 69.8101 8.95001C71.5373 8.95001 72.3852 10.2062 72.3852 11.6821V15.6076C72.3852 15.953 72.6364 16.2356 72.9819 16.267L73.5471 16.3613V16.7695H69.4961V16.3613L70.0613 16.267C70.4068 16.2042 70.6894 15.953 70.6894 15.6076V11.7135C70.6894 11.1797 70.5638 10.0491 69.182 10.0491C68.4283 10.0491 67.8003 10.5202 67.4234 10.8656V15.639C67.4234 15.9844 67.7061 16.2356 68.0515 16.2984L68.6168 16.3927V16.8009H64.5971Z" fill="#EE2C42"/>
<path d="M78.6659 9.70369C77.4412 9.70369 76.185 10.4888 76.185 12.8126C76.185 14.7597 77.1271 15.9216 78.6345 15.9216C79.5452 15.9216 80.1105 15.3877 80.2361 15.1051V10.6144C80.0163 10.0177 79.3882 9.70369 78.6659 9.70369ZM77.9122 16.9893C76.3106 16.9893 74.395 15.7646 74.395 13.1581C74.395 10.8656 76.1536 8.9814 78.5089 8.9814C79.294 8.9814 79.8592 9.13842 80.2675 9.29544V5.33859C80.2675 4.93035 80.0477 4.80473 79.765 4.80473C79.608 4.80473 79.451 4.83614 79.294 4.89894L78.9485 5.02456V4.4907L81.6178 3.36017H81.9633V14.7597C81.9633 15.4191 82.0575 15.796 82.5285 15.796C82.6542 15.796 82.7484 15.796 82.9368 15.7332L83.345 15.6076V16.1414L80.9584 17.0521C80.5815 16.8009 80.3931 16.2984 80.2989 15.9216C79.8592 16.3298 79.0427 16.9893 77.9122 16.9893Z" fill="#EE2C42"/>
<path d="M89.3117 11.6507V11.6193C89.3117 10.3318 88.5894 9.7037 87.7415 9.7037C86.7994 9.7037 86.0771 10.3318 85.8573 11.6507H89.3117ZM85.8259 12.3416V12.4358C85.7945 14.7283 87.1134 15.8902 88.715 15.8902C89.5315 15.8902 90.2852 15.5762 90.8819 15.1051V15.796C90.191 16.4241 89.1547 16.9579 87.8671 16.9579C85.1978 16.9579 84.0359 14.9481 84.0359 13.0325C84.0359 10.7714 85.7317 8.95001 87.8985 8.95001C89.6885 8.95001 91.1017 10.2376 91.1017 12.1218V12.3416H85.8259V12.3416Z" fill="#EE2C42"/>
<path d="M92.1066 16.8009V16.3926L92.6719 16.2984C92.9859 16.2356 93.2371 15.9844 93.2371 15.6389V10.9912C93.2371 10.583 93.0487 10.3945 92.7033 10.3945C92.5777 10.3945 92.4521 10.426 92.3264 10.4574L92.1066 10.5516V10.0177L94.5247 8.94998H94.8701V10.6144C95.4982 9.38963 96.2205 8.91858 97.037 8.91858C97.7279 8.91858 97.8849 9.107 97.8849 9.107V10.9284H97.5394C97.4452 10.4574 97.1312 10.2061 96.6287 10.2061C96.0949 10.2061 95.404 10.3631 94.9329 11.3681V15.6075C94.9329 15.953 95.2784 16.2356 95.5924 16.267L96.4089 16.3612V16.7695H92.1066V16.8009Z" fill="#EE2C42"/>
</svg>
