<svg width="201" height="33" viewBox="0 0 201 33" fill="none" xmlns="http://www.w3.org/2000/svg">
<path d="M110.927 15.3437C111.567 15.0101 112.256 13.7493 112.256 12.4716C112.256 9.49783 110.682 6.90283 107.111 6.8576L96.3194 6.86326V28.901H108.56C112.664 28.901 115.242 26.2608 115.242 21.8001C115.236 18.5945 113.858 16.2652 110.927 15.3437ZM105.336 10.3911C106.6 10.3911 107.268 11.2731 107.268 12.466C107.268 13.8115 106.481 14.8009 105.336 14.8009C105.173 14.8009 103.794 14.8009 102.708 14.8009V10.3911H105.336ZM106.052 24.6777H102.708V18.9959H106.052C108.25 18.9959 109.032 19.974 109.032 21.7718C109.032 23.564 108.126 24.6777 106.052 24.6777ZM77.4838 6.89153V20.6807L72.5768 11.0243C70.3784 7.0159 70.0147 6.89153 65.4008 6.89153H62.9744V28.9179H67.8218V15.1232L72.7288 24.7795C74.9272 28.7936 75.2909 28.9179 79.9048 28.9179H82.3311V6.89153H77.4838ZM152.756 6.89153V20.6807L147.849 11.0243C145.65 7.0159 145.292 6.89153 140.673 6.89153H138.246V26.8205L129.464 11.0356C127.482 7.46254 125.409 6.89153 121.452 6.89153H117.201V28.9179H122.136L122.13 24.2255H129.328L129.626 24.7739L131.966 28.9123H143.083V15.1232L147.99 24.7795C150.188 28.7936 150.546 28.9179 155.166 28.9179H157.592V6.89153H152.756ZM122.13 20.2623L122.125 11.2391C122.125 11.2391 126.234 18.5266 127.184 20.2623H122.13ZM59.2127 6.86891H54.4523L54.4088 24.4516C54.4088 24.4516 53.1495 24.5025 52.2104 24.5025C48.6442 24.5025 47.9765 23.6997 47.9765 19.7252C47.9765 19.646 47.9711 9.80313 47.9711 6.86891H41.4573C41.4573 9.85401 41.4573 20.0192 41.4573 20.0192C41.4573 27.3745 43.444 28.8727 50.1423 28.8727C53.2038 28.8727 59.2127 28.8558 59.2127 28.8558V6.86891ZM88.1881 6.85195C87.2327 6.86891 86.0874 6.87457 86.0874 6.87457V28.9123H92.5957V10.7529C92.5957 7.94875 91.369 6.85195 88.1881 6.85195ZM200.827 15.9542C200.811 15.5359 200.778 15.1345 200.73 14.7444H200.762C200.295 9.52045 197.771 6.64277 192.511 6.41662C192.332 6.40532 192.153 6.39966 191.974 6.39966H191.366C191.35 6.39966 191.339 6.39966 191.323 6.39966C191.306 6.39966 190.688 6.39966 190.688 6.39966C184.489 6.45054 181.856 9.95012 181.802 16.4405H181.796C181.796 16.4405 181.796 19.3521 181.796 19.3577C181.796 25.9781 184.423 29.5398 190.682 29.5964C190.682 29.5964 191.301 29.5964 191.317 29.5964C191.333 29.5964 191.344 29.5964 191.361 29.5964H191.969C192.148 29.5964 192.327 29.5907 192.506 29.5794C197.766 29.3476 200.295 26.4699 200.757 21.246H200.724C200.795 20.6467 200.838 20.0192 200.838 19.3577C200.838 19.3521 200.838 15.9542 200.838 15.9542H200.827ZM194.232 21.246H194.205C194.14 23.6658 193.646 25.0057 191.35 25.017C191.339 25.017 191.333 25.017 191.323 25.017C188.804 25.017 188.435 23.434 188.435 20.5958V15.3945C188.435 12.5564 188.804 10.9678 191.323 10.9678C191.333 10.9678 191.339 10.9678 191.35 10.9678C193.646 10.9791 194.14 12.319 194.205 14.7387H194.232C194.221 14.9479 194.21 15.1627 194.21 15.3889V20.5902C194.21 20.822 194.216 21.0368 194.232 21.246ZM179.153 17.4524C179.153 17.4524 179.305 16.2765 179.305 13.7041C179.305 9.09078 176.276 6.42228 170.821 6.34313C170.739 6.34313 170.375 6.34313 170.294 6.34313C170.207 6.34313 169.838 6.34313 169.751 6.34313C162.548 6.43924 160.42 10.6455 160.42 16.186C160.42 17.0567 160.42 18.2892 160.42 18.2892C160.42 27.9738 163.731 29.3646 171.434 29.3646C174.577 29.3646 178.789 29.3646 178.789 29.3646V24.9378C178.789 24.9378 175.755 24.9322 173.459 24.9322C167.439 24.9322 167.108 24.3385 167.108 17.7577L167.119 16.5253C167.119 13.4723 167.233 11.0187 169.805 10.9338C169.854 10.9338 170.088 10.9338 170.137 10.9338C170.175 10.9338 170.403 10.9338 170.435 10.9338C172.123 10.9678 173.035 11.8441 173.035 14.8801C173.035 16.5253 173.019 17.4185 173.019 17.4185L179.153 17.4524ZM11.0923 11.1487C10.0121 11.4822 8.97537 11.8893 7.99831 12.3529C7.83547 7.43427 9.55618 3.19407 12.9922 1.25489C14.3004 0.514267 15.7443 0.175051 17.2424 0.192011C18.7406 0.254201 20.1682 0.672567 21.4384 1.48669C24.9721 3.74247 26.454 8.48019 25.77 13.755C25.5257 15.649 24.9992 17.6051 24.1904 19.5443C23.7616 20.5732 23.2514 21.5965 22.6651 22.5972C21.5469 24.4968 20.2387 26.159 18.8166 27.5498C17.8992 26.2042 17.1013 24.5703 16.4933 22.7273C17.2153 22.1676 17.9209 21.5457 18.6103 20.8616C19.6254 19.8609 20.521 18.798 21.2918 17.7238C24.6735 12.9748 25.5855 7.82437 23.1754 5.17849C22.6 4.54528 21.878 4.1043 21.0475 3.84424C20.2062 3.58417 19.3702 3.5446 18.5615 3.74813C16.1568 4.34741 14.4849 6.93675 13.839 10.4872C12.9271 10.6455 12.0097 10.866 11.0923 11.1487ZM11.2878 25.6728C8.0146 26.86 5.02912 26.6509 3.32469 24.7795C2.74931 24.1463 2.36391 23.3774 2.15221 22.4955C1.9568 21.6135 1.96223 20.7428 2.20107 19.9061C3.19441 16.4065 7.93317 14.6539 13.573 15.3323C14.854 15.485 16.1839 15.7677 17.5247 16.1804C18.4366 16.4631 19.3051 16.791 20.1356 17.1585C21.3624 15.6885 22.3286 14.1507 22.9854 12.6469C21.1235 12.0589 19.0826 11.714 16.9439 11.6519C15.8148 11.6236 14.7129 11.6745 13.6436 11.7989C11.6243 12.0363 9.73531 12.5451 8.03631 13.2688C3.31383 15.2984 0.111235 19.0015 0.00267272 23.3209C-0.0353242 24.87 0.328361 26.3682 1.02316 27.7533C1.75596 29.1158 2.76016 30.2465 4.03577 31.055C7.36865 33.1808 11.7546 32.6154 15.7605 30.0091C14.8866 29.3589 14.029 28.6296 13.2093 27.8155C12.5199 27.1314 11.874 26.4134 11.2878 25.6728ZM25.1892 20.381C27.8164 22.7386 29.13 25.5427 28.4298 28.0077C28.191 28.8445 27.7404 29.5794 27.1162 30.2013C26.4811 30.8176 25.7537 31.2472 24.9395 31.4508C21.5361 32.3045 17.7038 28.9066 15.4511 23.4792C14.9355 22.2467 14.5066 20.9068 14.181 19.4877C13.9584 18.5266 13.7956 17.5768 13.687 16.644C11.8523 16.2708 10.0881 16.1747 8.51398 16.3274C8.95909 18.3005 9.68646 20.3132 10.7069 22.275C11.2443 23.3096 11.8414 24.2763 12.4819 25.1809C13.687 26.8827 15.0549 28.3356 16.5042 29.5003C20.5427 32.7567 25.2272 33.7857 28.8695 31.7278C30.1777 30.9872 31.2416 29.913 32.0449 28.59C32.8103 27.2445 33.2446 25.7745 33.288 24.2255C33.3911 20.1549 30.7259 16.4857 26.5571 14.1734C26.454 15.2871 26.2748 16.4235 26.0089 17.5655C25.7863 18.5379 25.5095 19.4764 25.1892 20.381Z" fill="#B1B1B1"/>
</svg>
