<svg width="87" height="98" viewBox="0 0 87 98" fill="none" xmlns="http://www.w3.org/2000/svg">
<path fill-rule="evenodd" clip-rule="evenodd" d="M7.74263 87.7862H10.62L6.90559 97.7905H3.66206L0 87.7862H2.98196L5.38845 94.6478L7.74263 87.7862ZM25.6867 92.8145C25.6867 94.3335 26.89 95.5382 28.4071 95.5382C29.8719 95.5382 31.1275 94.3335 31.1275 92.8145C31.1275 91.3479 29.9242 90.0909 28.4071 90.0909C26.89 90.0909 25.6867 91.2956 25.6867 92.8145ZM30.9705 83.7007H33.534V97.7905H30.9705V96.9524C30.1335 97.581 29.1395 97.9476 28.0409 97.9476C25.2682 97.9476 23.0186 95.643 23.0186 92.8145C23.0186 89.9861 25.2682 87.6814 28.0409 87.6814C29.1395 87.6814 30.1335 88.0481 30.9705 88.6766V83.7007ZM37.8761 92.8145C37.8761 94.3335 39.0794 95.5382 40.5965 95.5382C42.0613 95.5382 43.3169 94.3335 43.3169 92.8145C43.3169 91.3479 42.1136 90.0909 40.5965 90.0909C39.1317 90.0909 37.8761 91.2956 37.8761 92.8145ZM43.2123 87.7862H45.7757V97.7905H43.2123V96.9524C42.3752 97.581 41.3289 97.9476 40.2826 97.9476C37.5099 97.9476 35.2604 95.643 35.2604 92.8145C35.2604 89.9861 37.5099 87.6814 40.2826 87.6814C41.3812 87.6814 42.3752 88.0481 43.2123 88.6766V87.7862ZM52.7336 87.7862H51.2165C51.2165 87.7862 51.2165 87.4719 51.2165 87.1577C51.2165 86.5291 51.2165 85.7434 52.2105 85.7434C52.472 85.7434 52.7336 85.7958 52.7336 85.7958V83.4912C52.7336 83.4912 52.3151 83.4912 52.0012 83.4912C49.647 83.5959 48.6007 84.3816 48.6007 86.7386V87.7862H47.4498V90.0909H48.6007V97.7905H51.2165V90.0909H52.7336V87.7862ZM68.2712 88.6766V87.7862H65.7078V97.7905H68.3758V92.9193V92.2384C68.3235 90.4575 69.736 90.0385 70.4684 90.0385C71.2532 90.0385 72.2995 90.5099 72.2995 91.9765V92.4479V97.7905H74.9675V92.186V91.086C74.9675 89.0957 73.6073 87.6291 71.2532 87.6291C70.1022 87.5767 69.0036 87.9957 68.2712 88.6766ZM79.4143 93.6002H86.9477C86.9477 93.6002 87 93.3383 87 92.8145C87 90.1432 84.9074 87.6291 81.9777 87.6291C79.0481 87.6291 76.6939 89.9337 76.6939 92.8145C76.6939 95.643 78.8912 98 81.9777 98C84.5412 98 86.3199 96.2191 86.7384 94.7002H83.9657C83.5472 95.4335 82.9194 95.8525 81.8731 95.8525C80.5652 95.7477 79.5189 94.8573 79.4143 93.6002ZM84.175 91.6622H79.4666C79.7282 90.5623 80.6699 89.8813 81.8731 89.8813C83.024 89.8813 83.9657 90.5099 84.175 91.6622ZM18.2057 87.9433C17.264 88.1528 16.5316 88.9909 16.5316 89.9861V90.0385C18.0487 90.3527 18.7811 91.3479 18.7811 92.7098C18.7811 94.2288 17.5779 95.4334 16.0607 95.4334C14.5436 95.4334 13.1834 94.1764 13.1834 92.3431C13.1834 90.0909 15.1191 87.9433 17.8918 87.891C17.9441 87.891 17.9964 87.891 18.101 87.891C17.4732 87.6814 16.8455 87.5243 16.1654 87.5243C13.1834 87.5243 10.7769 89.829 10.7769 92.7098C10.7769 95.5906 13.1834 97.8952 16.1654 97.8952C19.1473 97.8952 21.5538 95.5906 21.5538 92.7098C21.5015 90.5623 20.1413 88.729 18.2057 87.9433ZM58.6975 87.5767C55.7156 87.5767 53.3091 89.8813 53.3091 92.7622C53.3091 94.9097 54.6693 96.7953 56.6049 97.581C57.5466 97.3715 58.279 96.5334 58.279 95.5382V95.4858C56.7619 95.1716 56.0295 94.1764 56.0295 92.8145C56.0295 91.2956 57.2327 90.0909 58.7499 90.0909C60.267 90.0909 61.6272 91.3479 61.6272 93.1812C61.6272 95.4334 59.6915 97.581 56.9188 97.6333C56.8665 97.6333 56.8142 97.6333 56.7096 97.6333C57.3373 97.8429 57.9651 98 58.6975 98C61.6795 98 64.086 95.6953 64.086 92.8145C64.086 89.9337 61.6795 87.5767 58.6975 87.5767ZM59.5346 3.09033C52.2105 4.71406 46.6651 11.209 46.6651 19.0134C46.6651 19.1705 46.7174 19.38 46.7174 19.5371C58.279 21.9989 64.1383 29.8033 64.1383 40.1219C64.1383 51.6975 54.6693 61.0732 43.1076 61.0732C31.546 61.0732 20.7168 51.4356 20.7168 37.0839C20.7168 19.5895 35.6789 3.19508 57.0234 2.6713C57.3897 2.6713 58.0174 2.6713 58.6452 2.72368C53.9892 0.99519 48.8623 0 43.5262 0C20.6645 0 2.0926 17.9658 2.0926 40.1742C2.0926 62.3303 20.6645 80.3485 43.5262 80.3485C66.4402 80.3485 84.9597 62.3827 84.9597 40.1742C84.9597 23.4655 74.4967 9.16622 59.5346 3.09033Z" fill="#ED1B2E"/>
</svg>
