<svg width="127" height="59" viewBox="0 0 127 59" fill="none" xmlns="http://www.w3.org/2000/svg">
<path d="M10.7722 21.2206C10.9901 20.606 11.2157 19.9939 11.426 19.3767C12.8959 15.0727 14.3683 10.7701 15.8229 6.46228C15.9585 6.06074 16.1156 5.86972 16.5705 5.88141C17.9631 5.9165 19.3582 5.9126 20.7507 5.88271C21.1904 5.87361 21.3653 6.03605 21.5047 6.45059C23.1088 11.1872 24.732 15.9161 26.3564 20.645C26.4223 20.836 26.4059 21.0803 26.6821 21.231C27.0546 19.9146 27.4272 18.6152 27.7908 17.3131C28.7931 13.7213 29.803 10.1308 30.7774 6.53116C30.9193 6.00486 31.1461 5.87101 31.6517 5.88141C33.3826 5.9139 35.1147 5.92819 36.8456 5.87231C37.4146 5.85412 37.4234 6.01916 37.2916 6.46878C36.4097 9.46801 35.5342 12.4698 34.6637 15.4743C33.0861 20.9205 31.5111 26.3679 29.9475 31.8193C29.8283 32.2365 29.6522 32.4054 29.2037 32.3963C27.6844 32.3651 26.1626 32.369 24.6433 32.395C24.2125 32.4028 24.0123 32.2585 23.8691 31.8388C22.2675 27.171 20.6481 22.511 19.03 17.8485C18.9413 17.5938 18.8285 17.3481 18.7246 17.0921C18.4395 17.2468 18.4344 17.4872 18.3686 17.6782C16.7365 22.359 15.1057 27.0398 13.4965 31.7297C13.333 32.2066 13.1417 32.4145 12.6133 32.4002C11.1359 32.3573 9.65714 32.3703 8.17968 32.395C7.73113 32.4028 7.51952 32.2702 7.3852 31.8037C4.96121 23.3661 2.52202 14.935 0.0625464 6.50907C-0.10598 5.93209 0.068882 5.88011 0.55292 5.88531C2.2838 5.9074 4.01594 5.9178 5.74682 5.88011C6.25874 5.86842 6.42853 6.06984 6.55524 6.53116C7.63863 10.4829 8.74228 14.4282 9.84087 18.3747C10.1044 19.3195 10.3743 20.2629 10.6404 21.2076C10.6848 21.2115 10.7279 21.2167 10.7722 21.2206Z" fill="#B1B1B1"/>
<path d="M46.5555 32.4484C46.7659 32.4367 46.9762 32.4133 47.1853 32.4133C53.2877 32.412 59.3901 32.4224 65.4926 32.3964C66.1008 32.3938 66.2148 32.59 66.2034 33.1579C66.1692 34.8251 66.1781 36.4924 66.2009 38.1596C66.2072 38.582 66.0742 38.8834 65.8106 39.194C61.9193 43.7786 58.0381 48.3736 54.1557 52.966C54.0759 53.0596 54.0087 53.1661 53.9073 53.3065C54.1544 53.4481 54.385 53.3948 54.6017 53.3948C58.3397 53.3987 62.0764 53.4078 65.8144 53.3857C66.3251 53.3831 66.505 53.4897 66.4898 54.0485C66.4505 55.4987 66.4657 56.9502 66.4834 58.4005C66.4885 58.7903 66.4328 58.9644 65.9817 58.9631C59.6892 58.9462 53.3967 58.9501 47.1042 58.9592C46.7418 58.9592 46.5847 58.8982 46.591 58.468C46.6151 56.563 46.605 54.6566 46.5961 52.7516C46.5948 52.4982 46.6506 52.3046 46.8191 52.1096C49.1151 49.4574 51.4048 46.7986 53.6932 44.1399C55.3392 42.227 56.9826 40.3103 58.6261 38.3948C58.7198 38.2857 58.8998 38.1843 58.8389 38.0284C58.7579 37.8205 58.5412 37.927 58.3879 37.927C54.693 37.9218 50.9968 37.9075 47.3019 37.9387C46.7013 37.9439 46.5796 37.7555 46.5898 37.1824C46.6164 35.6035 46.5783 34.0233 46.5657 32.4432L46.5555 32.4484Z" fill="#B1B1B1"/>
<path d="M111.412 45.9592C112.16 45.082 112.865 44.2646 113.562 43.4395C115.08 41.641 116.594 39.8386 118.112 38.0401C118.289 37.8295 118.449 37.6372 118.782 37.6398C121.168 37.6567 123.556 37.6502 125.942 37.6528C125.997 37.6528 126.054 37.6801 126.218 37.7217C125.417 38.6534 124.661 39.5358 123.903 40.4155C122.103 42.5077 120.317 44.6129 118.492 46.6817C118.097 47.13 118.148 47.4107 118.476 47.8591C121.094 51.4405 123.687 55.0414 126.288 58.6371C126.336 58.7034 126.379 58.7735 126.427 58.845C126.282 59.0321 126.101 58.9477 125.95 58.9477C123.628 58.9542 121.304 58.9425 118.981 58.9607C118.601 58.9633 118.388 58.8515 118.174 58.5188C116.048 55.2155 113.9 51.9278 111.756 48.6362C111.665 48.4958 111.608 48.3204 111.412 48.2515C111.201 48.436 111.301 48.6907 111.301 48.9077C111.294 52.0486 111.284 55.1882 111.309 58.3291C111.313 58.8541 111.162 58.9724 110.675 58.9633C108.944 58.9334 107.212 58.9386 105.48 58.9607C105.071 58.9659 104.952 58.8554 104.952 58.4253C104.964 49.9356 104.966 41.446 104.949 32.9551C104.948 32.4665 105.127 32.3989 105.532 32.4041C107.263 32.4223 108.996 32.4327 110.727 32.3976C111.232 32.3872 111.306 32.5692 111.305 33.0279C111.289 37.0784 111.295 41.1277 111.298 45.1782C111.299 45.4043 111.251 45.6421 111.412 45.9592Z" fill="#B1B1B1"/>
<path d="M87.0589 40.4246C87.6532 39.4162 88.4565 38.6547 89.4385 38.066C91.9563 36.5573 96.4038 36.8704 98.3894 38.7976C99.4259 39.8034 100.005 41.0483 100.331 42.4375C100.642 43.7669 100.775 45.1262 100.783 46.4893C100.805 50.4294 100.783 54.3708 100.801 58.3108C100.803 58.8021 100.704 58.9749 100.186 58.9632C98.4553 58.9268 96.7244 58.9333 94.9935 58.9606C94.5488 58.9671 94.4259 58.841 94.4284 58.3875C94.4462 55.2479 94.4588 52.1083 94.4259 48.9688C94.4145 47.9136 94.4424 46.848 94.2383 45.8032C93.8417 43.7786 92.8356 42.8429 91.063 42.8442C89.0723 42.8442 87.7381 43.9319 87.3719 45.8643C87.2059 46.7362 87.14 47.6212 87.1387 48.5087C87.1336 51.8004 87.1286 55.0907 87.1463 58.3823C87.1488 58.8306 87.0424 58.9684 86.5939 58.9606C84.8212 58.9333 83.0472 58.9372 81.2745 58.958C80.8817 58.9619 80.7803 58.8449 80.7803 58.4473C80.7917 51.6925 80.793 44.9364 80.7791 38.1816C80.7778 37.7463 80.902 37.6333 81.3113 37.6384C83.0003 37.6592 84.6894 37.6605 86.3784 37.6384C86.7991 37.6333 86.9246 37.7606 86.903 38.1907C86.8675 38.9133 86.8929 39.6397 86.8929 40.3648C86.9499 40.3843 87.0044 40.4051 87.0589 40.4246Z" fill="#B1B1B1"/>
<path d="M76.5444 48.3541C76.5444 51.6678 76.5304 54.9802 76.5583 58.2939C76.5634 58.8475 76.4037 58.9723 75.8893 58.9632C74.1584 58.9294 72.4262 58.9359 70.6953 58.9619C70.267 58.9684 70.1631 58.828 70.1631 58.4122C70.1733 51.6769 70.1758 44.9429 70.1619 38.2077C70.1606 37.7359 70.3127 37.6333 70.7409 37.6385C72.4934 37.6606 74.2458 37.6632 75.9982 37.6372C76.4481 37.6307 76.5583 37.7697 76.5558 38.2207C76.5355 41.598 76.5444 44.9767 76.5444 48.3541Z" fill="#B1B1B1"/>
<path d="M46.5644 32.4391C44.7309 32.3105 42.8961 32.4171 41.0626 32.3846C40.0831 32.3677 40.2085 32.4729 40.2085 31.5269C40.2047 24.9684 40.2136 18.4099 40.1959 11.8514C40.1946 11.2809 40.3074 11.0743 40.9131 11.0912C42.5375 11.1392 44.1632 11.1353 45.7877 11.0925C46.3832 11.0769 46.5657 11.2172 46.5631 11.8631C46.5378 18.4216 46.5479 24.9801 46.5479 31.5386C46.5479 31.8414 46.5543 32.1442 46.5568 32.4482C46.5555 32.4482 46.5644 32.4391 46.5644 32.4391Z" fill="#B1B1B1"/>
<path d="M73.3348 34.6848C71.3175 34.6705 69.6487 32.9786 69.6462 30.9424C69.6436 28.8086 71.3036 27.092 73.369 27.0946C75.4648 27.0972 77.093 28.7917 77.0651 30.9411C77.0373 33.0709 75.4141 34.6991 73.3348 34.6848Z" fill="#B1B1B1"/>
<path d="M43.3649 0.567883C45.4455 0.573081 47.0763 2.22084 47.0776 4.32212C47.0801 6.4455 45.4126 8.13224 43.3244 8.12054C41.2919 8.10885 39.6257 6.39092 39.6345 4.31433C39.6447 2.22734 41.3021 0.562685 43.3649 0.567883Z" fill="#B1B1B1"/>
</svg>
